<svg width="33" height="32" viewBox="0 0 33 32" fill="none" xmlns="http://www.w3.org/2000/svg">
<path d="M22.4287 19H10.0254V16.8926L16.043 10.3418C16.5423 9.79167 16.9613 9.30078 17.2998 8.86914C17.6383 8.42904 17.9134 8.02702 18.125 7.66309C18.3281 7.29915 18.472 6.96061 18.5566 6.64746C18.6497 6.32585 18.6963 6.00423 18.6963 5.68262C18.6963 5.25098 18.6328 4.85742 18.5059 4.50195C18.3789 4.14648 18.1927 3.8418 17.9473 3.58789C17.7018 3.33398 17.4056 3.13509 17.0586 2.99121C16.7201 2.84733 16.3392 2.77539 15.916 2.77539C15.3743 2.77539 14.9046 2.85156 14.5068 3.00391C14.109 3.15625 13.779 3.37207 13.5166 3.65137C13.2458 3.94759 13.0426 4.30729 12.9072 4.73047C12.7718 5.14518 12.7041 5.61914 12.7041 6.15234H9.65723C9.65723 5.34831 9.80534 4.59082 10.1016 3.87988C10.3978 3.16048 10.821 2.53418 11.3711 2.00098C11.9128 1.46777 12.5729 1.0446 13.3516 0.731445C14.1387 0.418294 15.0146 0.261719 15.9795 0.261719C16.8851 0.261719 17.6934 0.392904 18.4043 0.655273C19.1237 0.917643 19.7288 1.28158 20.2197 1.74707C20.7021 2.21257 21.0703 2.77116 21.3242 3.42285C21.5781 4.06608 21.7051 4.77702 21.7051 5.55566C21.7051 6.13965 21.6077 6.70671 21.4131 7.25684C21.2269 7.7985 20.9688 8.33594 20.6387 8.86914C20.3001 9.40234 19.8981 9.93978 19.4326 10.4814C18.9756 11.0231 18.4762 11.5817 17.9346 12.1572L13.8213 16.5498H22.4287V19ZM5.04346 31H3.98438V25.4629H1.94971V31H0.890625V24.6016H5.04346V31ZM10.6816 28.2271C10.6816 28.4849 10.6582 28.7339 10.6113 28.9741C10.5674 29.2144 10.5029 29.4414 10.418 29.6553C10.3271 29.8691 10.2144 30.0669 10.0796 30.2485C9.94482 30.4272 9.78955 30.5811 9.61377 30.71C9.44385 30.8271 9.25488 30.9194 9.04688 30.9868C8.8418 31.0542 8.61621 31.0879 8.37012 31.0879C8.11523 31.0879 7.88086 31.0527 7.66699 30.9824C7.45605 30.9092 7.26709 30.8096 7.1001 30.6836C6.93018 30.5547 6.78076 30.3994 6.65186 30.2178C6.52588 30.0361 6.42041 29.8369 6.33545 29.6201C6.25342 29.4121 6.19189 29.1909 6.15088 28.9565C6.10986 28.7192 6.08936 28.4761 6.08936 28.2271V27.3833C6.08936 27.1226 6.11133 26.8706 6.15527 26.6274C6.19922 26.3843 6.26514 26.1543 6.35303 25.9375C6.43799 25.7295 6.54199 25.5391 6.66504 25.3662C6.79102 25.1904 6.93896 25.0381 7.10889 24.9092C7.27295 24.7832 7.45898 24.6865 7.66699 24.6191C7.87793 24.5488 8.10938 24.5137 8.36133 24.5137C8.61621 24.5137 8.85059 24.5488 9.06445 24.6191C9.27832 24.6895 9.47021 24.7876 9.64014 24.9136C9.81006 25.0396 9.95801 25.1875 10.084 25.3574C10.21 25.5273 10.3154 25.7134 10.4004 25.9155C10.4941 26.1323 10.5645 26.3652 10.6113 26.6143C10.6582 26.8604 10.6816 27.1167 10.6816 27.3833V28.2271ZM9.61816 27.3745C9.61523 27.2134 9.60498 27.0552 9.5874 26.8999C9.57275 26.7446 9.54639 26.5967 9.5083 26.4561C9.46436 26.2949 9.40576 26.1484 9.33252 26.0166C9.26221 25.8818 9.17578 25.7676 9.07324 25.6738C8.98242 25.5918 8.87842 25.5273 8.76123 25.4805C8.64404 25.4336 8.51074 25.4102 8.36133 25.4102C8.21777 25.4102 8.08887 25.4336 7.97461 25.4805C7.86035 25.5244 7.76074 25.5859 7.67578 25.665C7.57324 25.7617 7.48682 25.8774 7.4165 26.0122C7.34619 26.144 7.29199 26.292 7.25391 26.4561C7.21875 26.5967 7.19238 26.7461 7.1748 26.9043C7.16016 27.0596 7.15283 27.2163 7.15283 27.3745V28.2271C7.15283 28.3823 7.16016 28.5361 7.1748 28.6885C7.18945 28.8408 7.21436 28.9873 7.24951 29.1279C7.2876 29.2861 7.33887 29.4341 7.40332 29.5718C7.4707 29.7065 7.55127 29.8208 7.64502 29.9146C7.73584 30.0024 7.83984 30.0728 7.95703 30.1255C8.07715 30.1753 8.21484 30.2002 8.37012 30.2002C8.51953 30.2002 8.6543 30.1753 8.77441 30.1255C8.89746 30.0757 9.00293 30.0083 9.09082 29.9233C9.19336 29.8267 9.27832 29.7124 9.3457 29.5806C9.41602 29.4458 9.47168 29.2979 9.5127 29.1367C9.54785 28.9961 9.57275 28.8496 9.5874 28.6973C9.60498 28.542 9.61523 28.3853 9.61816 28.2271V27.3745ZM11.7407 31V24.6016H13.7886C14.0991 24.6016 14.3906 24.6367 14.6631 24.707C14.9355 24.7744 15.1714 24.8784 15.3706 25.019C15.5698 25.1597 15.7251 25.3398 15.8364 25.5596C15.9507 25.7764 16.0078 26.0342 16.0078 26.333C16.0049 26.5146 15.9727 26.6846 15.9111 26.8428C15.8525 26.998 15.7676 27.1357 15.6562 27.2559C15.5771 27.3438 15.4878 27.4214 15.3882 27.4888C15.2915 27.5532 15.1787 27.6118 15.0498 27.6646V27.6733C15.2402 27.7231 15.4028 27.7964 15.5376 27.8931C15.6724 27.9868 15.7852 28.0938 15.876 28.2139C15.9697 28.3428 16.04 28.4863 16.0869 28.6445C16.1367 28.7998 16.1616 28.9639 16.1616 29.1367C16.1646 29.4414 16.1104 29.7095 15.999 29.9409C15.8877 30.1724 15.7339 30.3657 15.5376 30.521C15.3413 30.6792 15.1069 30.7993 14.8345 30.8813C14.5649 30.9604 14.272 31 13.9556 31H11.7407ZM12.8042 28.1084V30.1299H13.9644C14.1313 30.1299 14.2837 30.1064 14.4214 30.0596C14.5591 30.0127 14.6763 29.9482 14.7729 29.8662C14.8784 29.7812 14.959 29.6772 15.0146 29.5542C15.0732 29.4282 15.1025 29.2891 15.1025 29.1367C15.1025 28.9756 15.0791 28.8335 15.0322 28.7104C14.9854 28.5845 14.915 28.4775 14.8213 28.3896C14.7275 28.3018 14.6133 28.2344 14.4785 28.1875C14.3438 28.1377 14.1899 28.1113 14.0171 28.1084H12.8042ZM12.8042 27.3042H13.8105C13.9834 27.3013 14.1416 27.2778 14.2852 27.2339C14.4316 27.1899 14.5547 27.1255 14.6543 27.0405C14.7451 26.9644 14.8169 26.8721 14.8696 26.7637C14.9224 26.6553 14.9487 26.5308 14.9487 26.3901C14.9487 26.2407 14.9238 26.1118 14.874 26.0034C14.8271 25.8921 14.7598 25.8013 14.6719 25.731C14.5723 25.6431 14.4478 25.5801 14.2983 25.542C14.1489 25.501 13.9834 25.479 13.8018 25.4761H12.8042V27.3042ZM20.9165 28.1304H18.271V30.1299H21.3604V31H17.2119V24.6016H21.3384V25.4761H18.271V27.2778H20.9165V28.1304ZM23.6938 28.561V31H22.6392V24.6016H24.7793C25.1016 24.6045 25.3975 24.6528 25.667 24.7466C25.9395 24.8403 26.1738 24.9736 26.3701 25.1465C26.5664 25.3193 26.7188 25.5288 26.8271 25.7749C26.9355 26.021 26.9897 26.2979 26.9897 26.6055C26.9897 26.9014 26.9355 27.1694 26.8271 27.4097C26.7188 27.647 26.5664 27.8506 26.3701 28.0205C26.1738 28.1934 25.9395 28.3267 25.667 28.4204C25.3975 28.5142 25.1016 28.561 24.7793 28.561H23.6938ZM23.6938 27.6997H24.7793C24.958 27.6968 25.1177 27.6689 25.2583 27.6162C25.4019 27.5605 25.5234 27.4844 25.623 27.3877C25.7227 27.291 25.7974 27.1768 25.8472 27.0449C25.8999 26.9131 25.9263 26.7695 25.9263 26.6143C25.9263 26.4443 25.8999 26.2905 25.8472 26.1528C25.7974 26.0122 25.7227 25.8906 25.623 25.7881C25.5234 25.6855 25.4019 25.6064 25.2583 25.5508C25.1177 25.4951 24.958 25.4658 24.7793 25.4629H23.6938V27.6997ZM30.0527 26.9878L31.2964 24.6016H32.5356L30.7119 27.7744L32.5796 31H31.3491L30.0703 28.5742L28.7959 31H27.5479L29.4199 27.7744L27.5962 24.6016H28.8311L30.0527 26.9878Z" fill="#F4F4F4"/>
</svg>
