<svg width="1044" height="560" viewBox="0 0 1044 560" fill="none" xmlns="http://www.w3.org/2000/svg">
<path d="M287.491 260.179V269.848M287.491 278.5H290.545V285.116H310.393V299.366" stroke="white" stroke-width="3.05357"/>
<path d="M308.357 259.161V269.34M308.357 277.992V284.099M443.224 362.474H451.366M387.75 362.474H395.893M500.732 362.474H508.875M446.786 315.143V341.099H451.366M468.161 317.179V319.215M462.054 341.099H468.161V319.215M484.447 341.099H504.804V319.215M504.804 319.215H468.161M504.804 319.215V312.09M472.232 300.384H504.804M504.804 300.384V282.063H560.786V312.09M504.804 300.384V312.09M560.786 312.09H552.643M560.786 312.09V341.099H549.081M531.777 283.081V312.09M523.634 312.09H538.393M504.804 312.09H512.947M506.331 341.099H524.652M533.813 341.099H539.411M865.125 258.143V284.608M874.286 341.608H865.125V311.072M905.331 286.134V292.242M905.331 341.608V312.09M889.045 341.608H938.92M896.679 228.626V286.134H911.438M911.438 286.134V267.304H971.491V341.608H952.661M911.438 286.134H936.884M865.125 284.608H886.5V292.242M865.125 284.608V311.072M865.125 311.072H871.741M905.331 312.09H886.5V292.242M905.331 312.09V292.242M905.331 312.09H911.438V309.036M886.5 292.242H905.331M911.438 293.768V309.036M911.438 309.036H936.884V286.134M936.884 286.134V268.831M957.75 306.492H978.616M957.75 256.108V261.706M805.581 297.331H811.688M807.616 340.081H814.741M971.491 234.733V201.652M996.938 260.179H1029M1014.24 306.492H1029M807.616 419.983V365.018H783.188M865.125 362.983H871.741M871.741 424.054V444.92M891.081 424.054V448.992M891.081 341.608V378.251H922.125V370.108H911.438V342.626M997.956 435.759H913.982V416.929H982.179V386.393H1029M997.956 435.759V402.17M997.956 435.759V444.92H1029M931.795 481.563H941.974M976.581 481.563H985.232M871.741 503.956H894.643M952.661 359.929H973.527M1019.33 359.929V365.018M996.938 223.027V227.099M1006.61 232.188V237.277" stroke="white" stroke-width="3.05357"/>
<path d="M271.714 289.188V296.821" stroke="white" stroke-width="3.05357"/>
<path d="M248.304 260.179V280.536H270.697V277.482" stroke="white" stroke-width="3.05357"/>
<path d="M271.205 260.179V269.339" stroke="white" stroke-width="3.05357"/>
<path d="M238.634 281.045V296.822" stroke="white" stroke-width="3.05357"/>
<path d="M154.661 312.599H159.75" stroke="white" stroke-width="3.05357"/>
<path d="M141.938 284.607V311.581" stroke="white" stroke-width="3.05357"/>
<path d="M124.634 293.259H142.446" stroke="white" stroke-width="3.05357"/>
<path d="M120.562 312.09H145.5" stroke="white" stroke-width="3.05357"/>
<path d="M120.562 284.099H158.732" stroke="white" stroke-width="3.05357"/>
<path d="M131.759 226.08V285.116" stroke="white" stroke-width="3.05357"/>
<path d="M124.634 284.607V338.554" stroke="white" stroke-width="3.05357"/>
<mask id="path-14-outside-1_188_8038" maskUnits="userSpaceOnUse" x="0.0185547" y="197.652" width="1032" height="363" fill="black">
<rect fill="white" x="0.0185547" y="197.652" width="1032" height="363"/>
<path fill-rule="evenodd" clip-rule="evenodd" d="M133.286 204.706C133.286 203.019 131.919 201.652 130.233 201.652H8.98897C6.246 201.652 4.01855 203.867 4.01855 206.603V551.933C4.01855 554.67 6.246 556.885 8.9987 556.885H396.188C397.874 556.885 399.241 555.517 399.241 553.831V540.448C399.241 538.761 400.608 537.394 402.295 537.394H437.739C439.425 537.394 440.792 538.761 440.792 540.448V553.831C440.792 555.517 442.16 556.885 443.846 556.885H521.807C523.493 556.885 524.86 555.517 524.86 553.831V540.448C524.86 538.761 526.227 537.394 527.914 537.394H572.055C573.741 537.394 575.108 538.761 575.108 540.448V553.831C575.108 555.517 576.475 556.885 578.162 556.885H1023C1025.76 556.885 1027.98 554.67 1027.98 551.933V206.613C1027.98 203.876 1025.76 201.652 1022.99 201.652H899.733C898.046 201.652 896.679 203.019 896.679 204.706V225.063C896.679 226.749 895.312 228.116 893.625 228.116H868.179C866.493 228.116 865.125 229.483 865.125 231.17V253.563C865.125 255.249 863.758 256.616 862.072 256.616H698.197C696.51 256.616 695.143 255.249 695.143 253.563V246.438C695.143 244.751 693.776 243.384 692.09 243.384H586.233C584.546 243.384 583.179 244.751 583.179 246.438V253.563C583.179 255.249 581.812 256.616 580.125 256.616H505.822C504.135 256.616 502.768 257.983 502.768 259.67V276.973C502.768 278.66 501.401 280.027 499.715 280.027H476.304C474.618 280.027 473.25 281.394 473.25 283.08V314.634C473.25 316.321 471.883 317.688 470.197 317.688H448.822C447.135 317.688 445.768 316.321 445.768 314.634V246.438C445.768 244.751 444.401 243.384 442.715 243.384H336.858C335.171 243.384 333.804 244.751 333.804 246.438V253.563C333.804 255.249 332.437 256.616 330.75 256.616H166.875C165.189 256.616 163.822 255.249 163.822 253.563V226.08C163.822 224.394 162.455 223.027 160.768 223.027H136.34C134.653 223.027 133.286 221.66 133.286 219.973V204.706Z"/>
</mask>
<path d="M130.233 198.599H8.98897V204.706H130.233V198.599ZM8.98897 198.599C4.57252 198.599 0.964983 202.167 0.964983 206.603H7.07213C7.07213 205.566 7.91948 204.706 8.98897 204.706V198.599ZM0.964983 206.603V551.933H7.07213V206.603H0.964983ZM0.964983 551.933C0.964983 556.373 4.57639 559.938 8.9987 559.938V553.831C7.91562 553.831 7.07213 552.967 7.07213 551.933H0.964983ZM8.9987 559.938H396.188V553.831H8.9987V559.938ZM402.295 553.831V540.448H396.188V553.831H402.295ZM402.295 540.448H437.739V534.341H402.295V540.448ZM437.739 540.448V553.831H443.846V540.448H437.739ZM443.846 559.938H521.807V553.831H443.846V559.938ZM527.914 553.831V540.448H521.807V553.831H527.914ZM527.914 540.448H572.055V534.341H527.914V540.448ZM572.055 540.448V553.831H578.162V540.448H572.055ZM578.162 559.938H1023V553.831H578.162V559.938ZM1023 559.938C1027.42 559.938 1031.04 556.373 1031.04 551.933H1024.93C1024.93 552.967 1024.09 553.831 1023 553.831V559.938ZM1031.04 551.933V206.613H1024.93V551.933H1031.04ZM1031.04 206.613C1031.04 202.177 1027.43 198.599 1022.99 198.599V204.706C1024.08 204.706 1024.93 205.576 1024.93 206.613H1031.04ZM1022.99 198.599H899.733V204.706H1022.99V198.599ZM893.625 204.706V225.063H899.733V204.706H893.625ZM893.625 225.063H868.179V231.17H893.625V225.063ZM862.072 231.17V253.563H868.179V231.17H862.072ZM862.072 253.563H698.197V259.67H862.072V253.563ZM698.197 253.563V246.438H692.09V253.563H698.197ZM692.09 240.33H586.233V246.438H692.09V240.33ZM580.125 246.438V253.563H586.233V246.438H580.125ZM580.125 253.563H505.822V259.67H580.125V253.563ZM499.715 259.67V276.973H505.822V259.67H499.715ZM499.715 276.973H476.304V283.08H499.715V276.973ZM470.197 283.08V314.634H476.304V283.08H470.197ZM470.197 314.634H448.822V320.741H470.197V314.634ZM448.822 314.634V246.438H442.715V314.634H448.822ZM442.715 240.33H336.858V246.438H442.715V240.33ZM330.75 246.438V253.563H336.858V246.438H330.75ZM330.75 253.563H166.875V259.67H330.75V253.563ZM166.875 253.563V226.08H160.768V253.563H166.875ZM160.768 219.973H136.34V226.08H160.768V219.973ZM136.34 219.973V204.706H130.233V219.973H136.34ZM136.34 219.973H130.233C130.233 223.346 132.967 226.08 136.34 226.08V219.973ZM166.875 226.08C166.875 222.708 164.141 219.973 160.768 219.973V226.08V226.08H166.875ZM166.875 253.563H166.875H160.768C160.768 256.936 163.503 259.67 166.875 259.67V253.563ZM330.75 253.563V259.67C334.123 259.67 336.858 256.936 336.858 253.563H330.75ZM336.858 240.33C333.485 240.33 330.75 243.065 330.75 246.438H336.858V240.33ZM476.304 276.973C472.931 276.973 470.197 279.708 470.197 283.08H476.304V276.973ZM499.715 276.973V276.973V283.08C503.088 283.08 505.822 280.346 505.822 276.973H499.715ZM505.822 253.563C502.449 253.563 499.715 256.297 499.715 259.67H505.822V253.563ZM580.125 253.563V259.67C583.498 259.67 586.233 256.936 586.233 253.563H580.125ZM698.197 246.438C698.197 243.065 695.463 240.33 692.09 240.33V246.438H698.197ZM698.197 253.563H692.09C692.09 256.936 694.824 259.67 698.197 259.67V253.563ZM862.072 253.563V259.67C865.445 259.67 868.179 256.936 868.179 253.563H862.072ZM868.179 225.063C864.806 225.063 862.072 227.797 862.072 231.17H868.179V225.063ZM572.055 553.831C572.055 557.204 574.789 559.938 578.162 559.938V553.831H572.055ZM527.914 540.448V534.341C524.541 534.341 521.807 537.075 521.807 540.448H527.914ZM521.807 559.938C525.18 559.938 527.914 557.204 527.914 553.831H521.807V559.938ZM437.739 553.831C437.739 557.204 440.473 559.938 443.846 559.938V553.831H437.739ZM893.625 225.063V225.063V231.17C896.998 231.17 899.733 228.436 899.733 225.063H893.625ZM448.822 246.438C448.822 243.065 446.088 240.33 442.715 240.33V246.438V246.438H448.822ZM437.739 540.448H443.846C443.846 537.075 441.112 534.341 437.739 534.341V540.448ZM899.733 198.599C896.36 198.599 893.625 201.333 893.625 204.706H899.733V204.706V198.599ZM448.822 314.634H442.715C442.715 318.007 445.449 320.741 448.822 320.741V314.634ZM402.295 540.448V534.341C398.922 534.341 396.188 537.075 396.188 540.448H402.295ZM470.197 314.634V320.741C473.57 320.741 476.304 318.007 476.304 314.634H470.197ZM396.188 559.938C399.561 559.938 402.295 557.204 402.295 553.831H396.188H396.188V559.938ZM572.055 540.448H578.162C578.162 537.075 575.427 534.341 572.055 534.341V540.448ZM586.233 240.33C582.86 240.33 580.125 243.065 580.125 246.438H586.233V240.33ZM130.233 204.706V204.706H136.34C136.34 201.333 133.605 198.599 130.233 198.599V204.706Z" fill="#F4F4F4" mask="url(#path-14-outside-1_188_8038)"/>
<g clip-path="url(#clip0_188_8038)">
<path d="M440.939 314.7H436.581V310.249H432.252V305.767H427.854V301.37H423.486V297H417V299.229H421.312V303.615H425.685V308.063H430.05V312.488H434.432V316.95H440.939V314.7Z" fill="#242425"/>
</g>
<g clip-path="url(#clip1_188_8038)">
<path d="M560.939 306.7H556.581V302.249H552.252V297.767H547.854V293.37H543.486V289H537V291.229H541.312V295.615H545.685V300.063H550.05V304.488H554.432V308.95H560.939V306.7Z" fill="#242425"/>
</g>
<g clip-path="url(#clip2_188_8038)">
<path d="M892.939 267.7H888.581V263.249H884.252V258.767H879.854V254.37H875.486V250H869V252.229H873.312V256.615H877.685V261.063H882.05V265.488H886.432V269.95H892.939V267.7Z" fill="#242425"/>
</g>
<g clip-path="url(#clip3_188_8038)">
<path d="M1027.94 423.7H1023.58V419.249H1019.25V414.767H1014.85V410.37H1010.49V406H1004V408.229H1008.31V412.615H1012.68V417.063H1017.05V421.488H1021.43V425.95H1027.94V423.7Z" fill="#242425"/>
</g>
<g clip-path="url(#clip4_188_8038)">
<path d="M43.9395 257.7H39.5814V253.249H35.2524V248.767H30.8539V244.37H26.4857V240H20V242.229H24.3117V246.615H28.6847V251.063H33.0499V255.488H37.4318V259.95H43.9395V257.7Z" fill="#242425"/>
</g>
<g clip-path="url(#clip5_188_8038)">
<path d="M443.816 384.753C444.839 384.753 445.667 383.914 445.667 382.877C445.667 381.84 444.839 380.999 443.816 380.999C442.795 380.999 441.967 381.84 441.967 382.877C441.967 383.913 442.795 384.753 443.816 384.753ZM456.652 383.035H452.348C451.459 383.035 450.314 383.405 449.632 384.096L445.65 388.132V386.949C445.65 384.429 441.985 384.458 441.985 386.949V391.773H441.993L438.53 395.285C438.204 395.617 438.165 395.63 437.524 395.63C437.523 395.631 435.407 395.63 435.407 395.63C433.277 395.63 432 397.572 432 399.217C432 400.863 433.277 402.943 435.596 402.943H439.366C440.256 402.943 441.335 402.598 442.224 401.748L453.263 390.586C453.498 390.374 453.629 390.308 454.035 390.308H456.76C458.073 390.308 459.929 388.799 459.929 386.626C459.929 384.475 458.059 383.041 456.652 383.035ZM456.457 388.425H454.129C453.143 388.425 452.707 388.565 452.139 389.141L441.017 400.421C440.567 400.878 439.996 401.06 439.263 401.06H435.596C434.654 401.06 433.823 400.252 433.823 399.189C433.823 398.128 434.615 397.533 435.434 397.533H437.95C438.683 397.533 439.165 397.321 439.584 396.896L450.895 385.425C451.359 384.953 451.821 384.894 452.61 384.894H456.484C457.425 384.894 458.059 385.962 458.059 386.599C458.059 387.236 457.609 388.425 456.457 388.425Z" fill="#242425"/>
</g>
<rect opacity="0.2" x="11.1426" y="413.366" width="127.232" height="136.393" rx="3.05357" fill="#686868"/>
<rect opacity="0.2" x="140.411" y="421.509" width="78.375" height="128.25" rx="3.05357" fill="#686868"/>
<path opacity="0.2" fill-rule="evenodd" clip-rule="evenodd" d="M14.1961 306.491C12.5097 306.491 11.1426 307.858 11.1426 309.545V363.491V364.509V408.277C11.1426 409.963 12.5097 411.33 14.1962 411.33H72.214C73.9004 411.33 75.2676 409.963 75.2676 408.277V363.491C75.2676 361.805 73.9004 360.438 72.214 360.438H54.9104V309.545C54.9104 307.858 53.5433 306.491 51.8569 306.491H14.1961Z" fill="#686868"/>
<path opacity="0.2" d="M57.9639 209.795C57.9639 208.108 59.331 206.741 61.0174 206.741H124.125C125.811 206.741 127.178 208.108 127.178 209.795V237.205C127.178 237.214 127.179 237.223 127.179 237.232C127.179 237.247 127.179 237.262 127.179 237.277V279.009C127.179 280.696 125.812 282.063 124.125 282.063H118.018V301.402C118.018 301.575 118.003 301.745 117.975 301.91C118.003 302.076 118.018 302.246 118.018 302.42V342.116H135.322C137.008 342.116 138.375 343.483 138.375 345.17V364.509C138.375 366.196 137.008 367.563 135.322 367.563H80.3573C78.6708 367.563 77.3037 366.196 77.3037 364.509V357.384H59.9999C58.3134 357.384 56.9463 356.017 56.9463 354.33V304.455H14.1961C12.5097 304.455 11.1426 303.088 11.1426 301.402V263.741C11.1426 262.055 12.5097 260.688 14.1961 260.688H54.9111V237.277C54.9111 235.591 56.2778 234.224 57.9639 234.224V209.795Z" fill="#686868"/>
<path opacity="0.2" fill-rule="evenodd" clip-rule="evenodd" d="M165.857 260.688C164.171 260.688 162.804 262.055 162.804 263.741V339.062H160.767C159.081 339.062 157.714 340.43 157.714 342.116V361.455C157.714 363.142 159.081 364.509 160.767 364.509H217.767C219.454 364.509 220.821 363.142 220.821 361.455V347.264C220.821 347.245 220.822 347.225 220.822 347.205V263.741C220.822 262.055 219.454 260.688 217.768 260.688H165.857Z" fill="#686868"/>
<rect x="222.857" y="299.366" width="54.9643" height="65.1429" rx="3.05357" fill="#686868"/>
<path fill-rule="evenodd" clip-rule="evenodd" d="M297.161 302.42C295.475 302.42 294.107 303.787 294.107 305.473V361.456C294.107 363.142 295.475 364.509 297.161 364.509H332.786C332.796 364.509 332.806 364.509 332.816 364.509H340.929C342.615 364.509 343.982 363.142 343.982 361.455V345.17C343.982 343.483 342.615 342.116 340.929 342.116H335.84V305.473C335.84 303.787 334.472 302.42 332.786 302.42H297.161Z" fill="#686868"/>
<rect x="337.875" y="247.455" width="53.9464" height="91.6071" rx="3.05357" fill="#686868"/>
<rect opacity="0.2" x="335.839" y="380.795" width="25.4464" height="25.4464" rx="3.05357" fill="#686868"/>
<rect opacity="0.2" x="275.786" y="380.795" width="25.4464" height="25.4464" rx="3.05357" fill="#686868"/>
<rect opacity="0.2" x="215.732" y="380.795" width="25.4464" height="25.4464" rx="3.05357" fill="#686868"/>
<rect opacity="0.2" x="153.643" y="380.795" width="25.4464" height="25.4464" rx="3.05357" fill="#686868"/>
<rect opacity="0.2" x="554.679" y="380.795" width="25.4464" height="25.4464" rx="3.05357" fill="#686868"/>
<rect opacity="0.2" x="619.821" y="380.795" width="25.4464" height="25.4464" rx="3.05357" fill="#686868"/>
<rect x="641.196" y="247.455" width="50.8929" height="118.071" rx="3.05357" fill="#686868"/>
<rect opacity="0.2" x="694.125" y="260.688" width="86.5179" height="104.839" rx="3.05357" fill="#686868"/>
<path d="M3 233.715H53.3839" stroke="white" stroke-width="3.05357"/>
<path opacity="0.2" fill-rule="evenodd" clip-rule="evenodd" d="M588.268 250.51C588.268 248.823 589.635 247.456 591.321 247.456H636.107C637.793 247.456 639.161 248.823 639.161 250.51V289.188V320.742V330.92V339.063V362.474C639.161 364.16 637.793 365.527 636.107 365.527H580.125C578.438 365.527 577.071 364.16 577.071 362.474V342.117H565.875C564.188 342.117 562.821 340.75 562.821 339.063V289.188C562.821 287.502 564.188 286.135 565.875 286.135H588.268V250.51Z" fill="#686868"/>
<rect opacity="0.2" x="684.964" y="380.795" width="25.4464" height="25.4464" rx="3.05357" fill="#686868"/>
<rect opacity="0.2" x="753.161" y="380.795" width="25.4464" height="25.4464" rx="3.05357" fill="#686868"/>
<rect x="220.821" y="421.509" width="51.9107" height="128.25" rx="3.05357" fill="#686868"/>
<rect opacity="0.2" x="274.768" y="421.509" width="63.1071" height="128.25" rx="3.05357" fill="#686868"/>
<rect opacity="0.2" x="584.196" y="421.509" width="54.9643" height="128.25" rx="3.05357" fill="#686868"/>
<rect opacity="0.2" x="641.196" y="421.509" width="48.8571" height="128.25" rx="3.05357" fill="#686868"/>
<rect opacity="0.2" x="692.089" y="421.509" width="63.1071" height="128.25" rx="3.05357" fill="#686868"/>
<path opacity="0.2" fill-rule="evenodd" clip-rule="evenodd" d="M760.285 421.509C758.599 421.509 757.231 422.876 757.231 424.562V546.705C757.231 548.392 758.599 549.759 760.285 549.759H803.035C803.208 549.759 803.378 549.744 803.544 549.717C803.709 549.744 803.879 549.759 804.053 549.759H866.142C867.829 549.759 869.196 548.392 869.196 546.705V464.259C869.196 462.572 867.829 461.205 866.142 461.205H806.089V424.562C806.089 422.876 804.721 421.509 803.035 421.509H760.285Z" fill="#686868"/>
<path fill-rule="evenodd" clip-rule="evenodd" d="M394.874 412.348C393.188 412.348 391.821 413.715 391.821 415.401V421.682C391.503 421.57 391.16 421.508 390.803 421.508H342.964C341.277 421.508 339.91 422.876 339.91 424.562V546.705C339.91 548.391 341.277 549.758 342.964 549.758H390.803C392.489 549.758 393.857 548.391 393.857 546.705V533.299C394.175 533.411 394.518 533.473 394.874 533.473H442.714C444.4 533.473 445.767 532.106 445.767 530.419V415.401C445.767 413.715 444.4 412.348 442.714 412.348H394.874Z" fill="#686868"/>
<path opacity="0.2" d="M450.857 412.349C449.17 412.349 447.804 413.715 447.804 415.402V546.706C447.804 548.393 449.17 549.759 450.857 549.759H519.054C520.741 549.759 522.107 548.393 522.107 546.706V533.474H579.107C580.794 533.474 582.161 532.107 582.161 530.42V422.527C582.161 420.84 580.794 419.474 579.107 419.474H503.277V415.402C503.277 413.715 501.91 412.349 500.223 412.349L450.857 412.349Z" fill="#686868"/>
<path d="M617.785 1.643C618.629 1.643 619.312 2.32656 619.312 3.16978V91.7233C619.312 92.5666 618.629 93.2501 617.785 93.2501H507.857C505.327 93.2501 503.276 95.3008 503.276 97.8305V128.366C503.276 129.209 502.593 129.893 501.75 129.893H463.071C460.541 129.893 458.491 131.944 458.491 134.473V186.384C458.491 187.227 457.807 187.911 456.964 187.911H451.875C449.345 187.911 447.294 189.962 447.294 192.491V223.027C447.294 223.87 446.611 224.554 445.768 224.554H413.196C412.353 224.554 411.669 223.87 411.669 223.027V3.16978C411.669 2.32656 412.353 1.643 413.196 1.643H617.785Z" stroke="#F4F4F4" stroke-width="3.05357"/>
<rect x="537.375" y="90.7051" width="30.5357" height="9.16071" fill="#D9D9D9"/>
<rect x="457.982" y="166.027" width="20.3571" height="13.2321" fill="#D9D9D9"/>
<rect x="423.375" y="233.205" width="30.5357" height="17.3036" transform="rotate(-90 423.375 233.205)" fill="#D9D9D9"/>
<rect x="575.036" y="99.8662" width="9.16071" height="31.5536" transform="rotate(-90 575.036 99.8662)" fill="#D9D9D9"/>
<rect opacity="0.2" x="417.268" y="7.24121" width="97.7143" height="82.4464" rx="3.05357" fill="#686868"/>
<path d="M460.018 95.7949V126.84V130.911M410.143 187.402H424.393M443.223 187.402H460.018" stroke="#F4F4F4" stroke-width="3.05357"/>
<rect opacity="0.2" x="519.054" y="7.24121" width="95.6786" height="82.4464" rx="3.05357" fill="#686868"/>
<path d="M430.732 217H437.116C438.218 217 439.111 217.893 439.111 218.995V231.763C439.111 232.864 438.218 233.758 437.116 233.758H430.732" stroke="#242425" stroke-width="2" stroke-linecap="round"/>
<path d="M428.801 229.245L432.668 225.378M432.668 225.378L428.801 221.511M432.668 225.378L423 225.378" stroke="#242425" stroke-width="2" stroke-linecap="round"/>
<path d="M552.732 100H559.116C560.218 100 561.111 100.893 561.111 101.995V114.763C561.111 115.864 560.218 116.758 559.116 116.758H552.732" stroke="#242425" stroke-width="2" stroke-linecap="round"/>
<path d="M550.801 112.245L554.668 108.378M554.668 108.378L550.801 104.511M554.668 108.378L545 108.378" stroke="#242425" stroke-width="2" stroke-linecap="round"/>
<path d="M592.732 100H599.116C600.218 100 601.111 100.893 601.111 101.995V114.763C601.111 115.864 600.218 116.758 599.116 116.758H592.732" stroke="#242425" stroke-width="2" stroke-linecap="round"/>
<path d="M590.801 112.245L594.668 108.378M594.668 108.378L590.801 104.511M594.668 108.378L585 108.378" stroke="#242425" stroke-width="2" stroke-linecap="round"/>
<path d="M237.831 482.08H242.003V483H236.747V474.469H237.831V482.08ZM249.363 479.227C249.359 479.531 249.331 479.84 249.281 480.152C249.234 480.461 249.16 480.76 249.058 481.049C248.956 481.338 248.826 481.607 248.665 481.857C248.509 482.107 248.322 482.326 248.103 482.514C247.884 482.701 247.632 482.85 247.347 482.959C247.066 483.064 246.749 483.117 246.398 483.117C246.046 483.117 245.728 483.064 245.443 482.959C245.161 482.85 244.911 482.701 244.693 482.514C244.474 482.326 244.285 482.107 244.124 481.857C243.964 481.604 243.833 481.332 243.732 481.043C243.626 480.754 243.548 480.455 243.497 480.146C243.447 479.838 243.419 479.531 243.415 479.227V478.254C243.419 477.949 243.445 477.643 243.492 477.334C243.542 477.021 243.62 476.721 243.726 476.432C243.828 476.143 243.956 475.873 244.113 475.623C244.273 475.369 244.462 475.146 244.681 474.955C244.9 474.768 245.15 474.621 245.431 474.516C245.716 474.406 246.035 474.352 246.386 474.352C246.738 474.352 247.056 474.406 247.341 474.516C247.626 474.621 247.878 474.768 248.097 474.955C248.316 475.143 248.503 475.363 248.66 475.617C248.82 475.867 248.953 476.137 249.058 476.426C249.16 476.715 249.234 477.016 249.281 477.328C249.331 477.641 249.359 477.949 249.363 478.254V479.227ZM248.29 478.242C248.286 478.039 248.273 477.828 248.249 477.609C248.226 477.387 248.187 477.166 248.132 476.947C248.074 476.732 247.997 476.527 247.904 476.332C247.81 476.133 247.693 475.957 247.552 475.805C247.411 475.656 247.245 475.539 247.054 475.453C246.863 475.363 246.64 475.318 246.386 475.318C246.136 475.318 245.915 475.363 245.724 475.453C245.533 475.543 245.367 475.662 245.226 475.811C245.085 475.963 244.968 476.139 244.874 476.338C244.781 476.533 244.706 476.738 244.652 476.953C244.593 477.172 244.55 477.393 244.523 477.615C244.499 477.834 244.486 478.043 244.482 478.242V479.227C244.486 479.426 244.499 479.637 244.523 479.859C244.55 480.082 244.593 480.301 244.652 480.516C244.71 480.734 244.786 480.943 244.88 481.143C244.974 481.342 245.091 481.516 245.232 481.664C245.372 481.816 245.538 481.938 245.73 482.027C245.921 482.117 246.144 482.162 246.398 482.162C246.652 482.162 246.874 482.117 247.066 482.027C247.261 481.938 247.429 481.816 247.57 481.664C247.706 481.516 247.82 481.344 247.91 481.148C248.003 480.949 248.079 480.74 248.138 480.521C248.193 480.307 248.23 480.088 248.249 479.865C248.273 479.643 248.286 479.43 248.29 479.227V478.242ZM251.466 483L250.429 474.469H251.46L252.076 480.352L252.111 480.691L252.175 480.34L253.206 474.469H254.15L255.187 480.346L255.251 480.691L255.286 480.34L255.902 474.469H256.927L255.89 483H254.783L253.745 476.93L253.687 476.572L253.622 476.936L252.579 483H251.466ZM238.529 496.434C238.478 496.828 238.376 497.191 238.224 497.523C238.072 497.852 237.874 498.133 237.632 498.367C237.386 498.605 237.095 498.791 236.759 498.924C236.427 499.053 236.056 499.117 235.646 499.117C235.294 499.117 234.974 499.068 234.685 498.971C234.4 498.869 234.146 498.73 233.923 498.555C233.697 498.379 233.501 498.172 233.337 497.934C233.177 497.695 233.044 497.436 232.939 497.154C232.829 496.873 232.747 496.578 232.693 496.27C232.642 495.961 232.615 495.648 232.611 495.332V494.143C232.615 493.826 232.642 493.514 232.693 493.205C232.747 492.896 232.829 492.602 232.939 492.32C233.044 492.039 233.177 491.779 233.337 491.541C233.501 491.299 233.697 491.09 233.923 490.914C234.146 490.738 234.4 490.602 234.685 490.504C234.97 490.402 235.29 490.352 235.646 490.352C236.072 490.352 236.453 490.418 236.788 490.551C237.124 490.68 237.413 490.863 237.656 491.102C237.898 491.344 238.091 491.633 238.236 491.969C238.384 492.305 238.482 492.676 238.529 493.082H237.445C237.41 492.824 237.349 492.584 237.263 492.361C237.177 492.139 237.062 491.943 236.917 491.775C236.773 491.607 236.595 491.477 236.384 491.383C236.177 491.285 235.931 491.236 235.646 491.236C235.388 491.236 235.16 491.279 234.96 491.365C234.765 491.447 234.597 491.561 234.456 491.705C234.312 491.85 234.191 492.018 234.093 492.209C233.999 492.4 233.923 492.604 233.865 492.818C233.806 493.033 233.763 493.254 233.736 493.48C233.712 493.703 233.701 493.92 233.701 494.131V495.332C233.701 495.543 233.712 495.762 233.736 495.988C233.763 496.211 233.806 496.43 233.865 496.645C233.923 496.863 233.999 497.068 234.093 497.26C234.187 497.451 234.306 497.619 234.451 497.764C234.595 497.912 234.765 498.029 234.96 498.115C235.156 498.197 235.384 498.238 235.646 498.238C235.931 498.238 236.177 498.193 236.384 498.104C236.595 498.014 236.773 497.887 236.917 497.723C237.062 497.562 237.177 497.373 237.263 497.154C237.349 496.932 237.41 496.691 237.445 496.434H238.529ZM245.759 495.227C245.755 495.531 245.728 495.84 245.677 496.152C245.63 496.461 245.556 496.76 245.454 497.049C245.353 497.338 245.222 497.607 245.062 497.857C244.906 498.107 244.718 498.326 244.499 498.514C244.281 498.701 244.029 498.85 243.744 498.959C243.462 499.064 243.146 499.117 242.794 499.117C242.443 499.117 242.124 499.064 241.839 498.959C241.558 498.85 241.308 498.701 241.089 498.514C240.87 498.326 240.681 498.107 240.521 497.857C240.361 497.604 240.23 497.332 240.128 497.043C240.023 496.754 239.945 496.455 239.894 496.146C239.843 495.838 239.816 495.531 239.812 495.227V494.254C239.816 493.949 239.841 493.643 239.888 493.334C239.939 493.021 240.017 492.721 240.122 492.432C240.224 492.143 240.353 491.873 240.509 491.623C240.669 491.369 240.859 491.146 241.078 490.955C241.296 490.768 241.546 490.621 241.828 490.516C242.113 490.406 242.431 490.352 242.783 490.352C243.134 490.352 243.453 490.406 243.738 490.516C244.023 490.621 244.275 490.768 244.494 490.955C244.712 491.143 244.9 491.363 245.056 491.617C245.216 491.867 245.349 492.137 245.454 492.426C245.556 492.715 245.63 493.016 245.677 493.328C245.728 493.641 245.755 493.949 245.759 494.254V495.227ZM244.687 494.242C244.683 494.039 244.669 493.828 244.646 493.609C244.622 493.387 244.583 493.166 244.529 492.947C244.47 492.732 244.394 492.527 244.3 492.332C244.206 492.133 244.089 491.957 243.949 491.805C243.808 491.656 243.642 491.539 243.451 491.453C243.259 491.363 243.036 491.318 242.783 491.318C242.533 491.318 242.312 491.363 242.12 491.453C241.929 491.543 241.763 491.662 241.622 491.811C241.482 491.963 241.365 492.139 241.271 492.338C241.177 492.533 241.103 492.738 241.048 492.953C240.99 493.172 240.947 493.393 240.919 493.615C240.896 493.834 240.882 494.043 240.878 494.242V495.227C240.882 495.426 240.896 495.637 240.919 495.859C240.947 496.082 240.99 496.301 241.048 496.516C241.107 496.734 241.183 496.943 241.277 497.143C241.37 497.342 241.488 497.516 241.628 497.664C241.769 497.816 241.935 497.938 242.126 498.027C242.318 498.117 242.54 498.162 242.794 498.162C243.048 498.162 243.271 498.117 243.462 498.027C243.658 497.938 243.826 497.816 243.966 497.664C244.103 497.516 244.216 497.344 244.306 497.148C244.4 496.949 244.476 496.74 244.535 496.521C244.589 496.307 244.626 496.088 244.646 495.865C244.669 495.643 244.683 495.43 244.687 495.227V494.242ZM251.882 496.844C251.882 496.582 251.822 496.361 251.701 496.182C251.583 496.002 251.431 495.85 251.244 495.725C251.056 495.604 250.849 495.502 250.622 495.42C250.4 495.338 250.185 495.264 249.978 495.197C249.677 495.1 249.37 494.982 249.058 494.846C248.749 494.705 248.468 494.537 248.214 494.342C247.956 494.143 247.745 493.908 247.581 493.639C247.421 493.365 247.341 493.045 247.341 492.678C247.341 492.311 247.421 491.982 247.581 491.693C247.745 491.404 247.958 491.16 248.22 490.961C248.482 490.762 248.779 490.611 249.111 490.51C249.443 490.404 249.777 490.352 250.113 490.352C250.484 490.352 250.841 490.414 251.185 490.539C251.529 490.66 251.833 490.832 252.099 491.055C252.365 491.277 252.578 491.547 252.738 491.863C252.898 492.18 252.982 492.533 252.99 492.924H251.876C251.845 492.678 251.785 492.455 251.695 492.256C251.605 492.053 251.486 491.879 251.337 491.734C251.189 491.59 251.011 491.479 250.804 491.4C250.601 491.318 250.37 491.277 250.113 491.277C249.906 491.277 249.703 491.307 249.503 491.365C249.308 491.424 249.134 491.512 248.982 491.629C248.826 491.746 248.701 491.891 248.607 492.062C248.517 492.234 248.472 492.434 248.472 492.66C248.476 492.906 248.538 493.115 248.66 493.287C248.781 493.455 248.935 493.598 249.122 493.715C249.306 493.832 249.505 493.93 249.72 494.008C249.939 494.086 250.144 494.154 250.335 494.213C250.652 494.311 250.968 494.43 251.285 494.57C251.601 494.707 251.89 494.883 252.152 495.098C252.41 495.297 252.617 495.541 252.773 495.83C252.933 496.119 253.013 496.453 253.013 496.832C253.013 497.215 252.927 497.549 252.755 497.834C252.587 498.119 252.369 498.355 252.099 498.543C251.829 498.734 251.525 498.879 251.185 498.977C250.845 499.07 250.505 499.117 250.165 499.117C249.759 499.117 249.359 499.049 248.964 498.912C248.574 498.775 248.234 498.578 247.945 498.32C247.687 498.098 247.482 497.838 247.329 497.541C247.181 497.24 247.101 496.906 247.089 496.539H248.197C248.232 496.805 248.304 497.041 248.413 497.248C248.523 497.451 248.663 497.623 248.835 497.764C249.007 497.908 249.204 498.018 249.427 498.092C249.654 498.162 249.9 498.197 250.165 498.197C250.376 498.197 250.583 498.172 250.786 498.121C250.994 498.066 251.177 497.982 251.337 497.869C251.497 497.76 251.628 497.621 251.73 497.453C251.831 497.281 251.882 497.078 251.882 496.844ZM260.378 491.395H257.742V499H256.687V491.395H254.05V490.469H260.378V491.395Z" fill="#F4F4F4"/>
<path d="M373.718 480.434C373.667 480.828 373.566 481.191 373.413 481.523C373.261 481.852 373.064 482.133 372.822 482.367C372.576 482.605 372.285 482.791 371.949 482.924C371.617 483.053 371.245 483.117 370.835 483.117C370.484 483.117 370.163 483.068 369.874 482.971C369.589 482.869 369.335 482.73 369.113 482.555C368.886 482.379 368.691 482.172 368.527 481.934C368.367 481.695 368.234 481.436 368.128 481.154C368.019 480.873 367.937 480.578 367.882 480.27C367.831 479.961 367.804 479.648 367.8 479.332V478.143C367.804 477.826 367.831 477.514 367.882 477.205C367.937 476.896 368.019 476.602 368.128 476.32C368.234 476.039 368.367 475.779 368.527 475.541C368.691 475.299 368.886 475.09 369.113 474.914C369.335 474.738 369.589 474.602 369.874 474.504C370.16 474.402 370.48 474.352 370.835 474.352C371.261 474.352 371.642 474.418 371.978 474.551C372.314 474.68 372.603 474.863 372.845 475.102C373.087 475.344 373.281 475.633 373.425 475.969C373.574 476.305 373.671 476.676 373.718 477.082H372.634C372.599 476.824 372.538 476.584 372.453 476.361C372.367 476.139 372.251 475.943 372.107 475.775C371.962 475.607 371.785 475.477 371.574 475.383C371.367 475.285 371.12 475.236 370.835 475.236C370.578 475.236 370.349 475.279 370.15 475.365C369.954 475.447 369.786 475.561 369.646 475.705C369.501 475.85 369.38 476.018 369.283 476.209C369.189 476.4 369.113 476.604 369.054 476.818C368.995 477.033 368.953 477.254 368.925 477.48C368.902 477.703 368.89 477.92 368.89 478.131V479.332C368.89 479.543 368.902 479.762 368.925 479.988C368.953 480.211 368.995 480.43 369.054 480.645C369.113 480.863 369.189 481.068 369.283 481.26C369.376 481.451 369.495 481.619 369.64 481.764C369.785 481.912 369.954 482.029 370.15 482.115C370.345 482.197 370.574 482.238 370.835 482.238C371.12 482.238 371.367 482.193 371.574 482.104C371.785 482.014 371.962 481.887 372.107 481.723C372.251 481.562 372.367 481.373 372.453 481.154C372.538 480.932 372.599 480.691 372.634 480.434H373.718ZM380.093 479.057H376.531V482.08H380.685V483H375.447V474.469H380.632V475.395H376.531V478.137H380.093V479.057ZM387.951 483H386.849L383.538 476.625L383.521 483H382.425V474.469H383.527L386.837 480.832L386.855 474.469H387.951V483ZM395.568 475.395H392.931V483H391.876V475.395H389.24V474.469H395.568V475.395ZM399.845 479.52H398.14V483H397.062V474.469H399.564C399.962 474.477 400.337 474.533 400.689 474.639C401.04 474.744 401.349 474.902 401.615 475.113C401.876 475.324 402.081 475.59 402.23 475.91C402.382 476.227 402.458 476.6 402.458 477.029C402.458 477.307 402.417 477.561 402.335 477.791C402.257 478.021 402.148 478.23 402.007 478.418C401.867 478.605 401.699 478.771 401.503 478.916C401.308 479.061 401.093 479.184 400.859 479.285L402.669 482.93L402.663 483H401.521L399.845 479.52ZM398.14 478.629H399.593C399.835 478.625 400.064 478.588 400.279 478.518C400.494 478.443 400.683 478.338 400.847 478.201C401.007 478.064 401.134 477.898 401.228 477.703C401.322 477.504 401.369 477.275 401.369 477.018C401.369 476.744 401.324 476.506 401.234 476.303C401.144 476.096 401.019 475.922 400.859 475.781C400.699 475.645 400.507 475.541 400.285 475.471C400.066 475.4 399.826 475.363 399.564 475.359H398.14V478.629ZM408.3 480.791H405.453L404.767 483H403.683L406.437 474.469H407.345L410.052 483H408.974L408.3 480.791ZM405.745 479.848H408.013L406.888 476.145L405.745 479.848ZM412.66 482.08H416.831V483H411.576V474.469H412.66V482.08ZM380.187 495.578V499H379.103V490.469H381.869C382.251 490.477 382.613 490.537 382.953 490.65C383.296 490.764 383.597 490.928 383.855 491.143C384.113 491.357 384.316 491.623 384.464 491.939C384.617 492.256 384.693 492.619 384.693 493.029C384.693 493.439 384.617 493.803 384.464 494.119C384.316 494.432 384.113 494.695 383.855 494.91C383.597 495.125 383.296 495.289 382.953 495.402C382.613 495.516 382.251 495.574 381.869 495.578H380.187ZM380.187 494.688H381.869C382.119 494.684 382.349 494.645 382.56 494.57C382.771 494.492 382.954 494.383 383.111 494.242C383.267 494.102 383.388 493.932 383.474 493.732C383.564 493.529 383.609 493.299 383.609 493.041C383.609 492.783 383.564 492.551 383.474 492.344C383.388 492.137 383.269 491.961 383.117 491.816C382.96 491.672 382.775 491.561 382.56 491.482C382.349 491.404 382.119 491.363 381.869 491.359H380.187V494.688ZM390.283 496.791H387.435L386.749 499H385.665L388.419 490.469H389.328L392.035 499H390.956L390.283 496.791ZM387.728 495.848H389.995L388.87 492.145L387.728 495.848ZM396.242 495.52H394.536V499H393.458V490.469H395.96C396.359 490.477 396.734 490.533 397.085 490.639C397.437 490.744 397.745 490.902 398.011 491.113C398.273 491.324 398.478 491.59 398.626 491.91C398.779 492.227 398.855 492.6 398.855 493.029C398.855 493.307 398.814 493.561 398.732 493.791C398.654 494.021 398.544 494.23 398.404 494.418C398.263 494.605 398.095 494.771 397.9 494.916C397.704 495.061 397.49 495.184 397.255 495.285L399.066 498.93L399.06 499H397.917L396.242 495.52ZM394.536 494.629H395.99C396.232 494.625 396.46 494.588 396.675 494.518C396.89 494.443 397.079 494.338 397.244 494.201C397.404 494.064 397.531 493.898 397.624 493.703C397.718 493.504 397.765 493.275 397.765 493.018C397.765 492.744 397.72 492.506 397.63 492.303C397.54 492.096 397.415 491.922 397.255 491.781C397.095 491.645 396.904 491.541 396.681 491.471C396.462 491.4 396.222 491.363 395.96 491.359H394.536V494.629ZM402.669 495.039L401.72 496.117V499H400.613V490.469H401.72V494.635L402.546 493.604L405.048 490.469H406.367L403.384 494.201L406.566 499H405.247L402.669 495.039Z" fill="#F4F4F4"/>
<path d="M345.785 301V292.469H348.322C348.673 292.473 349.017 292.52 349.353 292.609C349.689 292.695 349.988 292.83 350.249 293.014C350.511 293.197 350.72 293.432 350.876 293.717C351.033 294.002 351.109 294.344 351.105 294.742C351.101 294.965 351.064 295.168 350.994 295.352C350.927 295.535 350.835 295.699 350.718 295.844C350.597 295.992 350.462 296.117 350.314 296.219C350.169 296.32 349.994 296.416 349.786 296.506V296.523C350.001 296.574 350.208 296.666 350.408 296.799C350.607 296.932 350.771 297.078 350.9 297.238C351.036 297.414 351.142 297.611 351.216 297.83C351.294 298.049 351.333 298.285 351.333 298.539C351.337 298.938 351.261 299.289 351.105 299.594C350.949 299.898 350.74 300.152 350.478 300.355C350.216 300.562 349.913 300.721 349.57 300.83C349.23 300.939 348.878 300.996 348.515 301H345.785ZM346.874 297.01V300.08H348.544C348.771 300.076 348.986 300.039 349.189 299.969C349.392 299.895 349.572 299.793 349.728 299.664C349.884 299.535 350.007 299.377 350.097 299.189C350.191 299.002 350.238 298.789 350.238 298.551C350.242 298.309 350.201 298.094 350.115 297.906C350.033 297.719 349.917 297.559 349.769 297.426C349.62 297.297 349.447 297.197 349.247 297.127C349.048 297.057 348.833 297.018 348.603 297.01H346.874ZM346.874 296.107H348.386C348.589 296.104 348.788 296.072 348.984 296.014C349.179 295.951 349.353 295.861 349.505 295.744C349.658 295.631 349.781 295.49 349.874 295.322C349.968 295.154 350.015 294.959 350.015 294.736C350.015 294.498 349.968 294.295 349.874 294.127C349.785 293.959 349.663 293.82 349.511 293.711C349.355 293.605 349.175 293.527 348.972 293.477C348.773 293.426 348.568 293.398 348.357 293.395H346.874V296.107ZM352.505 298.633H353.595C353.595 298.855 353.642 299.064 353.736 299.26C353.829 299.455 353.96 299.625 354.128 299.77C354.296 299.914 354.497 300.029 354.732 300.115C354.966 300.197 355.224 300.238 355.505 300.238C355.822 300.238 356.105 300.199 356.355 300.121C356.609 300.043 356.826 299.934 357.005 299.793C357.181 299.652 357.316 299.484 357.41 299.289C357.503 299.094 357.55 298.879 357.55 298.645C357.55 298.457 357.529 298.289 357.486 298.141C357.447 297.988 357.386 297.855 357.304 297.742C357.222 297.625 357.124 297.527 357.011 297.449C356.898 297.367 356.767 297.301 356.619 297.25C356.478 297.199 356.32 297.162 356.144 297.139C355.972 297.111 355.786 297.098 355.587 297.098H354.515V296.207H355.587C355.763 296.203 355.925 296.191 356.074 296.172C356.226 296.148 356.365 296.115 356.49 296.072C356.599 296.033 356.699 295.988 356.788 295.938C356.882 295.883 356.964 295.82 357.035 295.75C357.163 295.629 357.259 295.484 357.322 295.316C357.388 295.145 357.421 294.957 357.421 294.754C357.421 294.539 357.38 294.34 357.298 294.156C357.22 293.973 357.101 293.812 356.941 293.676C356.781 293.539 356.581 293.432 356.343 293.354C356.105 293.275 355.826 293.236 355.505 293.236C355.259 293.236 355.027 293.273 354.808 293.348C354.589 293.418 354.4 293.518 354.24 293.646C354.079 293.779 353.951 293.936 353.853 294.115C353.759 294.295 353.712 294.49 353.712 294.701H352.628C352.628 294.338 352.704 294.012 352.857 293.723C353.013 293.43 353.224 293.182 353.49 292.979C353.751 292.779 354.056 292.625 354.404 292.516C354.751 292.406 355.119 292.352 355.505 292.352C355.954 292.352 356.363 292.402 356.73 292.504C357.101 292.605 357.419 292.758 357.685 292.961C357.947 293.164 358.15 293.418 358.294 293.723C358.439 294.027 358.511 294.379 358.511 294.777C358.507 295.039 358.453 295.285 358.347 295.516C358.242 295.742 358.091 295.945 357.896 296.125C357.79 296.223 357.671 296.314 357.538 296.4C357.41 296.482 357.269 296.557 357.117 296.623C357.316 296.689 357.495 296.77 357.656 296.863C357.82 296.957 357.964 297.064 358.089 297.186C358.269 297.365 358.406 297.574 358.499 297.812C358.593 298.051 358.64 298.32 358.64 298.621C358.64 299.023 358.56 299.381 358.4 299.693C358.244 300.002 358.027 300.262 357.749 300.473C357.468 300.688 357.136 300.85 356.753 300.959C356.37 301.068 355.954 301.123 355.505 301.123C355.134 301.123 354.769 301.076 354.41 300.982C354.054 300.885 353.736 300.734 353.454 300.531C353.173 300.328 352.945 300.07 352.769 299.758C352.593 299.441 352.505 299.066 352.505 298.633ZM359.794 300.918L359.935 300.092C360.036 300.119 360.175 300.15 360.351 300.186C360.527 300.221 360.691 300.238 360.843 300.238C361.023 300.238 361.181 300.213 361.318 300.162C361.454 300.107 361.574 300.037 361.675 299.951C361.777 299.865 361.863 299.768 361.933 299.658C362.003 299.549 362.064 299.439 362.115 299.33L362.361 298.832L359.443 292.469H360.661L362.466 296.553L362.882 297.672L363.304 296.623L364.992 292.469H366.251L363.117 299.594C363.027 299.797 362.923 299.992 362.806 300.18C362.693 300.363 362.554 300.525 362.39 300.666C362.226 300.807 362.027 300.918 361.792 301C361.562 301.082 361.285 301.123 360.96 301.123C360.695 301.123 360.458 301.1 360.251 301.053C360.048 301.006 359.896 300.961 359.794 300.918ZM373.171 293.395H370.535V301H369.48V293.395H366.843V292.469H373.171V293.395ZM380.378 293.395H377.742V301H376.687V293.395H374.05V292.469H380.378V293.395ZM385.951 301V297.443H384.134L382.347 301H381.193L383.191 297.145C382.964 297.062 382.759 296.967 382.576 296.857C382.392 296.744 382.232 296.619 382.095 296.482C381.9 296.283 381.751 296.055 381.65 295.797C381.552 295.539 381.503 295.25 381.503 294.93C381.503 294.539 381.572 294.191 381.708 293.887C381.849 293.578 382.05 293.318 382.312 293.107C382.57 292.9 382.882 292.742 383.249 292.633C383.62 292.523 384.035 292.469 384.492 292.469H387.035V301H385.951ZM382.587 294.918C382.587 295.148 382.626 295.363 382.704 295.562C382.786 295.762 382.906 295.934 383.062 296.078C383.218 296.227 383.413 296.342 383.648 296.424C383.882 296.506 384.152 296.547 384.456 296.547H385.951V293.359H384.492C384.179 293.359 383.904 293.396 383.665 293.471C383.431 293.541 383.234 293.643 383.074 293.775C382.913 293.912 382.792 294.078 382.71 294.273C382.628 294.465 382.587 294.68 382.587 294.918Z" fill="#F4F4F4"/>
<path d="M309.495 342V333.469H311.47C311.802 333.473 312.115 333.508 312.408 333.574C312.704 333.637 312.978 333.727 313.228 333.844C313.576 334.004 313.882 334.215 314.148 334.477C314.417 334.734 314.632 335.033 314.792 335.373C314.937 335.662 315.046 335.979 315.12 336.322C315.199 336.666 315.24 337.033 315.244 337.424V338.051C315.244 338.426 315.206 338.781 315.132 339.117C315.062 339.453 314.958 339.762 314.822 340.043C314.681 340.336 314.503 340.602 314.288 340.84C314.074 341.078 313.833 341.281 313.568 341.449C313.286 341.625 312.968 341.76 312.613 341.854C312.261 341.947 311.88 341.996 311.47 342H309.495ZM310.597 334.359V341.115H311.47C311.783 341.111 312.066 341.072 312.32 340.998C312.578 340.924 312.806 340.818 313.005 340.682C313.216 340.541 313.398 340.369 313.55 340.166C313.706 339.959 313.829 339.729 313.919 339.475C313.997 339.268 314.056 339.045 314.095 338.807C314.134 338.564 314.156 338.312 314.16 338.051V337.412C314.156 337.146 314.132 336.893 314.089 336.65C314.05 336.404 313.99 336.176 313.908 335.965C313.802 335.691 313.66 335.445 313.48 335.227C313.304 335.004 313.087 334.824 312.829 334.688C312.646 334.586 312.441 334.508 312.214 334.453C311.988 334.395 311.74 334.363 311.47 334.359H310.597ZM322.363 338.227C322.359 338.531 322.331 338.84 322.281 339.152C322.234 339.461 322.16 339.76 322.058 340.049C321.956 340.338 321.826 340.607 321.665 340.857C321.509 341.107 321.322 341.326 321.103 341.514C320.884 341.701 320.632 341.85 320.347 341.959C320.066 342.064 319.749 342.117 319.398 342.117C319.046 342.117 318.728 342.064 318.443 341.959C318.161 341.85 317.911 341.701 317.693 341.514C317.474 341.326 317.285 341.107 317.124 340.857C316.964 340.604 316.833 340.332 316.732 340.043C316.626 339.754 316.548 339.455 316.497 339.146C316.447 338.838 316.419 338.531 316.415 338.227V337.254C316.419 336.949 316.445 336.643 316.492 336.334C316.542 336.021 316.62 335.721 316.726 335.432C316.828 335.143 316.956 334.873 317.113 334.623C317.273 334.369 317.462 334.146 317.681 333.955C317.9 333.768 318.15 333.621 318.431 333.516C318.716 333.406 319.035 333.352 319.386 333.352C319.738 333.352 320.056 333.406 320.341 333.516C320.626 333.621 320.878 333.768 321.097 333.955C321.316 334.143 321.503 334.363 321.66 334.617C321.82 334.867 321.953 335.137 322.058 335.426C322.16 335.715 322.234 336.016 322.281 336.328C322.331 336.641 322.359 336.949 322.363 337.254V338.227ZM321.29 337.242C321.286 337.039 321.273 336.828 321.249 336.609C321.226 336.387 321.187 336.166 321.132 335.947C321.074 335.732 320.997 335.527 320.904 335.332C320.81 335.133 320.693 334.957 320.552 334.805C320.411 334.656 320.245 334.539 320.054 334.453C319.863 334.363 319.64 334.318 319.386 334.318C319.136 334.318 318.915 334.363 318.724 334.453C318.533 334.543 318.367 334.662 318.226 334.811C318.085 334.963 317.968 335.139 317.874 335.338C317.781 335.533 317.706 335.738 317.652 335.953C317.593 336.172 317.55 336.393 317.523 336.615C317.499 336.834 317.486 337.043 317.482 337.242V338.227C317.486 338.426 317.499 338.637 317.523 338.859C317.55 339.082 317.593 339.301 317.652 339.516C317.71 339.734 317.786 339.943 317.88 340.143C317.974 340.342 318.091 340.516 318.232 340.664C318.372 340.816 318.538 340.938 318.73 341.027C318.921 341.117 319.144 341.162 319.398 341.162C319.652 341.162 319.874 341.117 320.066 341.027C320.261 340.938 320.429 340.816 320.57 340.664C320.706 340.516 320.82 340.344 320.91 340.148C321.003 339.949 321.079 339.74 321.138 339.521C321.193 339.307 321.23 339.088 321.249 338.865C321.273 338.643 321.286 338.43 321.29 338.227V337.242ZM325.21 333.469L326.599 337.734L328.099 333.469H329.447V342H328.392V338.596L328.48 335.033L326.904 339.627H326.283L324.835 335.156L324.923 338.596V342H323.869V333.469H325.21ZM300.947 350.395H298.31V358H297.255V350.395H294.619V349.469H300.947V350.395ZM307.093 354.057H303.531V357.08H307.685V358H302.447V349.469H307.632V350.395H303.531V353.137H307.093V354.057ZM312.249 352.814L314.089 349.469H315.367L312.888 353.699L315.425 358H314.16L312.273 354.59L310.38 358H309.097L311.64 353.699L309.161 349.469H310.433L312.249 352.814ZM322.568 350.395H319.931V358H318.876V350.395H316.24V349.469H322.568V350.395ZM324.021 349.469H329.177V350.412H327.132V357.062H329.177V358H324.021V357.062H326.019V350.412H324.021V349.469ZM332.453 357.08H336.624V358H331.369V349.469H332.453V357.08ZM343.128 354.057H339.566V357.08H343.72V358H338.482V349.469H343.667V350.395H339.566V353.137H343.128V354.057Z" fill="#F4F4F4"/>
<path d="M652.992 317V308.469H655.529C655.88 308.473 656.224 308.52 656.56 308.609C656.896 308.695 657.195 308.83 657.456 309.014C657.718 309.197 657.927 309.432 658.083 309.717C658.24 310.002 658.316 310.344 658.312 310.742C658.308 310.965 658.271 311.168 658.201 311.352C658.134 311.535 658.042 311.699 657.925 311.844C657.804 311.992 657.669 312.117 657.521 312.219C657.376 312.32 657.201 312.416 656.994 312.506V312.523C657.208 312.574 657.415 312.666 657.615 312.799C657.814 312.932 657.978 313.078 658.107 313.238C658.244 313.414 658.349 313.611 658.423 313.83C658.501 314.049 658.54 314.285 658.54 314.539C658.544 314.938 658.468 315.289 658.312 315.594C658.156 315.898 657.947 316.152 657.685 316.355C657.423 316.562 657.12 316.721 656.777 316.83C656.437 316.939 656.085 316.996 655.722 317H652.992ZM654.081 313.01V316.08H655.751C655.978 316.076 656.193 316.039 656.396 315.969C656.599 315.895 656.779 315.793 656.935 315.664C657.091 315.535 657.214 315.377 657.304 315.189C657.398 315.002 657.445 314.789 657.445 314.551C657.449 314.309 657.408 314.094 657.322 313.906C657.24 313.719 657.124 313.559 656.976 313.426C656.828 313.297 656.654 313.197 656.454 313.127C656.255 313.057 656.04 313.018 655.81 313.01H654.081ZM654.081 312.107H655.593C655.796 312.104 655.995 312.072 656.191 312.014C656.386 311.951 656.56 311.861 656.712 311.744C656.865 311.631 656.988 311.49 657.081 311.322C657.175 311.154 657.222 310.959 657.222 310.736C657.222 310.498 657.175 310.295 657.081 310.127C656.992 309.959 656.87 309.82 656.718 309.711C656.562 309.605 656.382 309.527 656.179 309.477C655.98 309.426 655.775 309.398 655.564 309.395H654.081V312.107ZM664.283 314.791H661.435L660.749 317H659.665L662.419 308.469H663.328L666.035 317H664.956L664.283 314.791ZM661.728 313.848H663.995L662.87 310.145L661.728 313.848ZM667.406 317V308.469H669.943C670.294 308.473 670.638 308.52 670.974 308.609C671.31 308.695 671.609 308.83 671.87 309.014C672.132 309.197 672.341 309.432 672.497 309.717C672.654 310.002 672.73 310.344 672.726 310.742C672.722 310.965 672.685 311.168 672.615 311.352C672.548 311.535 672.456 311.699 672.339 311.844C672.218 311.992 672.083 312.117 671.935 312.219C671.79 312.32 671.615 312.416 671.408 312.506V312.523C671.622 312.574 671.829 312.666 672.029 312.799C672.228 312.932 672.392 313.078 672.521 313.238C672.658 313.414 672.763 313.611 672.837 313.83C672.915 314.049 672.954 314.285 672.954 314.539C672.958 314.938 672.882 315.289 672.726 315.594C672.57 315.898 672.361 316.152 672.099 316.355C671.837 316.562 671.535 316.721 671.191 316.83C670.851 316.939 670.499 316.996 670.136 317H667.406ZM668.495 313.01V316.08H670.165C670.392 316.076 670.607 316.039 670.81 315.969C671.013 315.895 671.193 315.793 671.349 315.664C671.505 315.535 671.628 315.377 671.718 315.189C671.812 315.002 671.859 314.789 671.859 314.551C671.863 314.309 671.822 314.094 671.736 313.906C671.654 313.719 671.538 313.559 671.39 313.426C671.242 313.297 671.068 313.197 670.869 313.127C670.669 313.057 670.454 313.018 670.224 313.01H668.495ZM668.495 312.107H670.007C670.21 312.104 670.41 312.072 670.605 312.014C670.8 311.951 670.974 311.861 671.126 311.744C671.279 311.631 671.402 311.49 671.495 311.322C671.589 311.154 671.636 310.959 671.636 310.736C671.636 310.498 671.589 310.295 671.495 310.127C671.406 309.959 671.285 309.82 671.132 309.711C670.976 309.605 670.796 309.527 670.593 309.477C670.394 309.426 670.189 309.398 669.978 309.395H668.495V312.107ZM677.138 312.752L679.083 308.469H680.314L677.66 313.818L677.642 317H676.634L676.617 313.818L673.962 308.469H675.199L677.138 312.752Z" fill="#F4F4F4"/>
<path d="M237.095 330L234.4 321.469H235.56L237.435 327.838L237.558 328.254L237.687 327.826L239.574 321.469H240.728L238.038 330H237.095ZM242.21 321.469H247.367V322.412H245.322V329.062H247.367V330H242.21V329.062H244.208V322.412H242.21V321.469ZM249.406 330V321.469H251.943C252.294 321.473 252.638 321.52 252.974 321.609C253.31 321.695 253.609 321.83 253.87 322.014C254.132 322.197 254.341 322.432 254.497 322.717C254.654 323.002 254.73 323.344 254.726 323.742C254.722 323.965 254.685 324.168 254.615 324.352C254.548 324.535 254.456 324.699 254.339 324.844C254.218 324.992 254.083 325.117 253.935 325.219C253.79 325.32 253.615 325.416 253.408 325.506V325.523C253.622 325.574 253.829 325.666 254.029 325.799C254.228 325.932 254.392 326.078 254.521 326.238C254.658 326.414 254.763 326.611 254.837 326.83C254.915 327.049 254.954 327.285 254.954 327.539C254.958 327.938 254.882 328.289 254.726 328.594C254.57 328.898 254.361 329.152 254.099 329.355C253.837 329.562 253.535 329.721 253.191 329.83C252.851 329.939 252.499 329.996 252.136 330H249.406ZM250.495 326.01V329.08H252.165C252.392 329.076 252.607 329.039 252.81 328.969C253.013 328.895 253.193 328.793 253.349 328.664C253.505 328.535 253.628 328.377 253.718 328.189C253.812 328.002 253.859 327.789 253.859 327.551C253.863 327.309 253.822 327.094 253.736 326.906C253.654 326.719 253.538 326.559 253.39 326.426C253.242 326.297 253.068 326.197 252.869 326.127C252.669 326.057 252.454 326.018 252.224 326.01H250.495ZM250.495 325.107H252.007C252.21 325.104 252.41 325.072 252.605 325.014C252.8 324.951 252.974 324.861 253.126 324.744C253.279 324.631 253.402 324.49 253.495 324.322C253.589 324.154 253.636 323.959 253.636 323.736C253.636 323.498 253.589 323.295 253.495 323.127C253.406 322.959 253.285 322.82 253.132 322.711C252.976 322.605 252.796 322.527 252.593 322.477C252.394 322.426 252.189 322.398 251.978 322.395H250.495V325.107ZM261.318 326.057H257.755V329.08H261.91V330H256.671V321.469H261.857V322.395H257.755V325.137H261.318V326.057ZM233.55 338.395H230.913V346H229.859V338.395H227.222V337.469H233.55V338.395ZM240.552 342.227C240.548 342.531 240.521 342.84 240.47 343.152C240.423 343.461 240.349 343.76 240.247 344.049C240.146 344.338 240.015 344.607 239.855 344.857C239.699 345.107 239.511 345.326 239.292 345.514C239.074 345.701 238.822 345.85 238.536 345.959C238.255 346.064 237.939 346.117 237.587 346.117C237.236 346.117 236.917 346.064 236.632 345.959C236.351 345.85 236.101 345.701 235.882 345.514C235.663 345.326 235.474 345.107 235.314 344.857C235.154 344.604 235.023 344.332 234.921 344.043C234.816 343.754 234.738 343.455 234.687 343.146C234.636 342.838 234.609 342.531 234.605 342.227V341.254C234.609 340.949 234.634 340.643 234.681 340.334C234.732 340.021 234.81 339.721 234.915 339.432C235.017 339.143 235.146 338.873 235.302 338.623C235.462 338.369 235.652 338.146 235.87 337.955C236.089 337.768 236.339 337.621 236.62 337.516C236.906 337.406 237.224 337.352 237.576 337.352C237.927 337.352 238.245 337.406 238.531 337.516C238.816 337.621 239.068 337.768 239.286 337.955C239.505 338.143 239.693 338.363 239.849 338.617C240.009 338.867 240.142 339.137 240.247 339.426C240.349 339.715 240.423 340.016 240.47 340.328C240.521 340.641 240.548 340.949 240.552 341.254V342.227ZM239.48 341.242C239.476 341.039 239.462 340.828 239.439 340.609C239.415 340.387 239.376 340.166 239.322 339.947C239.263 339.732 239.187 339.527 239.093 339.332C238.999 339.133 238.882 338.957 238.742 338.805C238.601 338.656 238.435 338.539 238.244 338.453C238.052 338.363 237.829 338.318 237.576 338.318C237.326 338.318 237.105 338.363 236.913 338.453C236.722 338.543 236.556 338.662 236.415 338.811C236.275 338.963 236.158 339.139 236.064 339.338C235.97 339.533 235.896 339.738 235.841 339.953C235.783 340.172 235.74 340.393 235.712 340.615C235.689 340.834 235.675 341.043 235.671 341.242V342.227C235.675 342.426 235.689 342.637 235.712 342.859C235.74 343.082 235.783 343.301 235.841 343.516C235.9 343.734 235.976 343.943 236.07 344.143C236.163 344.342 236.281 344.516 236.421 344.664C236.562 344.816 236.728 344.938 236.919 345.027C237.111 345.117 237.333 345.162 237.587 345.162C237.841 345.162 238.064 345.117 238.255 345.027C238.451 344.938 238.619 344.816 238.759 344.664C238.896 344.516 239.009 344.344 239.099 344.148C239.193 343.949 239.269 343.74 239.328 343.521C239.382 343.307 239.419 343.088 239.439 342.865C239.462 342.643 239.476 342.43 239.48 342.227V341.242ZM254.163 342.232H250.613V346H249.517V337.469H254.755V338.395H250.613V341.312H254.163V342.232ZM257.849 345.08H262.021V346H256.765V337.469H257.849V345.08ZM266.345 341.752L268.29 337.469H269.521L266.867 342.818L266.849 346H265.841L265.824 342.818L263.169 337.469H264.406L266.345 341.752Z" fill="#F4F4F4"/>
<defs>
<clipPath id="clip0_188_8038">
<rect width="23.9394" height="19.9495" fill="white" transform="matrix(-1 0 0 1 440.939 297)"/>
</clipPath>
<clipPath id="clip1_188_8038">
<rect width="23.9394" height="19.9495" fill="white" transform="matrix(-1 0 0 1 560.939 289)"/>
</clipPath>
<clipPath id="clip2_188_8038">
<rect width="23.9394" height="19.9495" fill="white" transform="matrix(-1 0 0 1 892.939 250)"/>
</clipPath>
<clipPath id="clip3_188_8038">
<rect width="23.9394" height="19.9495" fill="white" transform="matrix(-1 0 0 1 1027.94 406)"/>
</clipPath>
<clipPath id="clip4_188_8038">
<rect width="23.9394" height="19.9495" fill="white" transform="matrix(-1 0 0 1 43.9395 240)"/>
</clipPath>
<clipPath id="clip5_188_8038">
<rect width="27.9294" height="21.9445" fill="white" transform="translate(432 381)"/>
</clipPath>
</defs>
</svg>
