<svg width="35" height="35" viewBox="0 0 35 35" fill="none" xmlns="http://www.w3.org/2000/svg">
<path d="M8.42326 5.69998C9.99652 5.69998 11.2732 4.42325 11.2732 2.84853C11.2732 1.27526 9.99652 0 8.42326 0C6.84853 0 5.57327 1.27526 5.57327 2.84999C5.57327 4.42471 6.84853 5.69998 8.42326 5.69998ZM16.3714 17.2153L13.8793 9.01888C13.5725 8.09712 12.3849 6.42452 10.3544 6.42452H6.43221C4.38419 6.42452 3.20096 8.08251 2.93363 9.01888L0.441537 17.2226C-0.0755798 18.9858 2.18571 19.6636 2.7189 18.0158L4.96412 10.4651H5.56304L1.70511 23.8502H5.31325L5.31471 33.6535C5.31471 35.4488 8.00255 35.4488 8.00255 33.6535L8.00109 23.7816H8.79722V33.6681C8.79722 35.4386 11.4734 35.4488 11.4734 33.6681V23.8502H15.0873L11.2002 10.4636H11.8488L14.0926 17.9881C14.6272 19.7074 16.871 18.977 16.3714 17.2153Z" fill="#F4F4F4"/>
<path d="M27.2477 5.79785C28.8487 5.79785 30.1459 4.49921 30.1459 2.89965C30.1459 1.29718 28.8487 0 27.2477 0C25.6467 0 24.3495 1.29718 24.3495 2.89819C24.3495 4.49921 25.6467 5.79785 27.2477 5.79785ZM30.2686 6.44205L24.1464 6.43767C22.094 6.43767 20.4434 8.11173 20.4434 10.2006V19.1012C20.4434 20.8308 22.9749 20.8308 22.9749 19.1012V10.9617H23.5738V33.2445C23.5738 35.5584 26.9453 35.4912 26.9453 33.2445V20.3093H27.5267V33.2445C27.5267 35.4912 30.9172 35.5584 30.9172 33.2445V10.9617H31.5029V19.0997C31.5029 20.8439 34.0228 20.8439 34.0184 19.0997V10.2532C34.0184 8.32792 32.5226 6.44205 30.2686 6.44205Z" fill="#F4F4F4"/>
</svg>
