<svg width="480" height="272" viewBox="0 0 480 272" fill="none" xmlns="http://www.w3.org/2000/svg">
<g opacity="0.5">
<path d="M33.8932 220.648C33.7913 229.822 31.9055 238.843 28.2359 247.712C24.5663 256.682 19.3167 264.48 12.4871 271.105L0.866699 263.919C5.45371 257.395 8.81752 250.617 10.9581 243.583C13.2007 236.55 14.3729 229.058 14.4748 221.107V197.102H33.8932V220.648Z" fill="#F4F4F4"/>
<path d="M265.843 154.137H300.704V169.732H265.843V226H247.648V169.732H142.911V159.182L245.966 3.37685H265.843V154.137ZM164.929 154.137H247.648V27.0764L238.933 41.9078L164.929 154.137Z" fill="#F4F4F4"/>
<path d="M376.543 210.863C391.527 210.863 404.269 208.671 414.768 204.288C425.369 199.803 434.085 193.687 440.914 185.94C448.253 177.479 453.452 167.898 456.51 157.195C459.67 146.39 461.403 134.922 461.708 122.792V121.416C459.058 126.003 455.898 130.233 452.229 134.107C448.559 137.878 444.38 141.191 439.691 144.045C434.9 146.899 429.65 149.142 423.942 150.773C418.336 152.302 412.271 153.066 405.747 153.066C395.248 153.066 385.972 150.926 377.919 146.645C369.968 142.261 363.343 136.553 358.042 129.52C352.64 122.486 348.613 114.535 345.963 105.667C343.313 96.6971 341.987 87.625 341.987 78.4509C341.987 68.4614 343.415 58.7778 346.269 49.3999C349.123 40.022 353.404 31.7144 359.112 24.4771C364.719 17.2398 371.701 11.4296 380.06 7.04646C388.418 2.66332 398.102 0.420781 409.111 0.318848C421.139 0.318848 431.485 2.61235 440.15 7.19936C448.916 11.6844 456.051 17.6476 461.556 25.0887C467.57 33.2434 472.106 43.029 475.164 54.4456C478.222 65.8622 479.802 77.4316 479.904 89.154V106.738C479.904 123.455 477.967 139.713 474.093 155.513C470.22 171.211 463.237 185.023 453.146 196.949C445.399 206.225 435.155 213.666 422.413 219.272C409.773 224.777 394.483 227.58 376.543 227.682H372.568L372.72 210.863H376.543ZM408.04 137.165C414.156 137.165 420.069 136.196 425.777 134.26C431.485 132.221 436.735 129.367 441.526 125.697C446.215 122.13 450.292 117.848 453.758 112.854C457.325 107.859 460.027 102.405 461.861 96.4932V87.3192C461.759 77.4316 460.587 68.1557 458.345 59.4913C456.102 50.8269 452.789 43.2839 448.406 36.862C444.023 30.4402 438.57 25.3945 432.046 21.7249C425.624 17.9534 418.081 16.1186 409.417 16.2205C401.364 16.3224 394.177 18.1572 387.858 21.7249C381.64 25.1906 376.492 29.8286 372.415 35.6388C368.337 41.4491 365.228 48.0238 363.088 55.363C360.947 62.6003 359.877 70.0414 359.877 77.6864C359.877 85.0257 360.896 92.2629 362.935 99.3983C365.075 106.534 368.184 112.854 372.262 118.358C376.237 123.964 381.232 128.5 387.246 131.966C393.26 135.432 400.192 137.165 408.04 137.165Z" fill="#F4F4F4"/>
</g>
</svg>
