<svg width="633" height="270" viewBox="0 0 633 270" fill="none" xmlns="http://www.w3.org/2000/svg">
<g opacity="0.3">
<path d="M153.023 178.196H189.612V205.431H153.023V266.393H119.679V205.431H0V185.772L117.516 3.78758H153.023V178.196ZM36.949 178.196H119.679V48.1563L114.272 58.2565L36.949 178.196Z" fill="#F4F4F4"/>
<path d="M404.276 165.932C404.276 182.645 402.354 197.495 398.509 210.481C394.664 223.347 389.136 234.168 381.927 242.946C374.717 251.844 365.885 258.577 355.432 263.146C344.978 267.715 333.022 270 319.564 270C306.226 270 294.27 267.776 283.696 263.327C273.122 258.758 264.171 251.964 256.841 242.946C249.511 234.168 243.924 223.347 240.079 210.481C236.233 197.495 234.311 182.645 234.311 165.932V104.429C234.311 87.7154 236.233 72.9258 240.079 60.0601C243.924 47.0741 249.511 36.1323 256.841 27.2345C264.05 18.3367 272.882 11.6032 283.336 7.03407C293.91 2.34469 305.866 0 319.204 0C332.661 0 344.617 2.34469 355.071 7.03407C365.645 11.6032 374.597 18.3367 381.927 27.2345C389.136 36.1323 394.664 47.0741 398.509 60.0601C402.354 72.9258 404.276 87.7154 404.276 104.429V165.932ZM267.835 159.259L370.031 80.8016C369.07 72.1443 367.327 64.509 364.804 57.8958C362.401 51.1623 359.096 45.5711 354.891 41.1222C350.805 36.5531 345.759 33.1263 339.751 30.8417C333.863 28.5571 327.014 27.4148 319.204 27.4148C311.273 27.4148 304.244 28.6774 298.116 31.2024C292.108 33.6072 287.001 37.1543 282.795 41.8437C277.749 47.7355 273.964 55.3707 271.44 64.7495C269.037 74.008 267.835 84.7695 267.835 97.0341V141.042C267.835 144.048 267.835 147.054 267.835 150.06C267.835 153.066 267.835 156.132 267.835 159.259ZM370.752 172.966V135.812C370.752 134.008 370.752 130.581 370.752 125.531C370.752 120.361 370.752 116.092 370.752 112.725L268.737 190.822C269.818 199.599 271.741 207.355 274.504 214.088C277.268 220.701 280.873 226.172 285.319 230.501C289.404 234.589 294.331 237.715 300.098 239.88C305.866 241.924 312.354 242.946 319.564 242.946C327.134 242.946 333.863 241.804 339.751 239.519C345.639 237.234 350.625 233.928 354.711 229.599C360.238 223.707 364.263 216.012 366.787 206.513C369.43 197.014 370.752 185.832 370.752 172.966Z" fill="#F4F4F4"/>
<path d="M596.411 178.196H633V205.431H596.411V266.393H563.067V205.431H443.388V185.772L560.904 3.78758H596.411V178.196ZM480.337 178.196H563.067V48.1563L557.66 58.2565L480.337 178.196Z" fill="#F4F4F4"/>
</g>
</svg>
