<svg width="18" height="18" viewBox="0 0 18 18" fill="none" xmlns="http://www.w3.org/2000/svg">
<rect x="3" y="2" width="14" height="14" stroke="#242425"/>
<path d="M14.5843 4.81866L14.581 4.31867L15.0876 4.31531L15.0843 4.82197L14.5843 4.81866ZM11.9054 8.20461L11.5519 8.55816L10.8448 7.85106L11.1983 7.4975L11.9054 8.20461ZM11.5486 4.33875L14.581 4.31867L14.5876 5.31865L11.5552 5.33873L11.5486 4.33875ZM15.0843 4.82197L15.0642 7.85437L14.0642 7.84774L14.0843 4.81535L15.0843 4.82197ZM14.9378 5.17221L11.9054 8.20461L11.1983 7.4975L14.2307 4.4651L14.9378 5.17221Z" fill="#242425"/>
<path d="M5.81904 13.5397L5.82235 14.0397L5.31569 14.0431L5.31905 13.5364L5.81904 13.5397ZM8.61805 10.1473L8.97804 9.80036L9.67203 10.5203L9.31203 10.8673L8.61805 10.1473ZM8.85475 14.0196L5.82235 14.0397L5.81573 13.0398L8.84812 13.0197L8.85475 14.0196ZM5.31905 13.5364L5.33913 10.504L6.33911 10.5107L6.31903 13.5431L5.31905 13.5364ZM5.47204 13.1797L8.61805 10.1473L9.31203 10.8673L6.16603 13.8997L5.47204 13.1797Z" fill="#242425"/>
</svg>
