<svg width="15" height="16" viewBox="0 0 15 16" fill="none" xmlns="http://www.w3.org/2000/svg">
<rect width="15" height="16" fill="#B7B7B7"/>
<g clip-path="url(#clip0_23_2)">
<rect width="1920" height="3843" transform="translate(-708 -1082)" fill="#F4F4F4"/>
<g clip-path="url(#clip1_23_2)">
<rect x="-10" y="-434" width="238" height="461" fill="#F4F4F4"/>
<g clip-path="url(#clip2_23_2)">
<mask id="path-3-outside-1_23_2" maskUnits="userSpaceOnUse" x="1.34375" y="0.4375" width="13" height="16" fill="black">
<rect fill="white" x="1.34375" y="0.4375" width="13" height="16"/>
<path d="M7.50001 1.4375C6.13298 1.43911 4.8224 1.98288 3.85577 2.94951C2.88913 3.91615 2.34537 5.22672 2.34376 6.59375C2.34212 7.71089 2.70703 8.79771 3.38251 9.6875C3.38251 9.6875 3.52313 9.87266 3.5461 9.89937L7.50001 14.5625L11.4558 9.89703C11.4764 9.87219 11.6175 9.6875 11.6175 9.6875L11.618 9.68609C12.2931 8.79669 12.6579 7.71037 12.6563 6.59375C12.6546 5.22672 12.1109 3.91615 11.1442 2.94951C10.1776 1.98288 8.86703 1.43911 7.50001 1.4375ZM7.50001 8.46875C7.12917 8.46875 6.76665 8.35878 6.45831 8.15276C6.14997 7.94673 5.90965 7.65389 5.76773 7.31128C5.62582 6.96867 5.58869 6.59167 5.66103 6.22796C5.73338 5.86424 5.91196 5.53015 6.17418 5.26792C6.4364 5.0057 6.7705 4.82712 7.13421 4.75478C7.49793 4.68243 7.87493 4.71956 8.21754 4.86148C8.56015 5.00339 8.85298 5.24371 9.05901 5.55206C9.26504 5.8604 9.37501 6.22291 9.37501 6.59375C9.37439 7.09084 9.17664 7.56739 8.82515 7.91889C8.47365 8.27039 7.9971 8.46813 7.50001 8.46875Z"/>
</mask>
<path d="M7.50001 1.4375C6.13298 1.43911 4.8224 1.98288 3.85577 2.94951C2.88913 3.91615 2.34537 5.22672 2.34376 6.59375C2.34212 7.71089 2.70703 8.79771 3.38251 9.6875C3.38251 9.6875 3.52313 9.87266 3.5461 9.89937L7.50001 14.5625L11.4558 9.89703C11.4764 9.87219 11.6175 9.6875 11.6175 9.6875L11.618 9.68609C12.2931 8.79669 12.6579 7.71037 12.6563 6.59375C12.6546 5.22672 12.1109 3.91615 11.1442 2.94951C10.1776 1.98288 8.86703 1.43911 7.50001 1.4375ZM7.50001 8.46875C7.12917 8.46875 6.76665 8.35878 6.45831 8.15276C6.14997 7.94673 5.90965 7.65389 5.76773 7.31128C5.62582 6.96867 5.58869 6.59167 5.66103 6.22796C5.73338 5.86424 5.91196 5.53015 6.17418 5.26792C6.4364 5.0057 6.7705 4.82712 7.13421 4.75478C7.49793 4.68243 7.87493 4.71956 8.21754 4.86148C8.56015 5.00339 8.85298 5.24371 9.05901 5.55206C9.26504 5.8604 9.37501 6.22291 9.37501 6.59375C9.37439 7.09084 9.17664 7.56739 8.82515 7.91889C8.47365 8.27039 7.9971 8.46813 7.50001 8.46875Z" stroke="#242425" stroke-width="2" mask="url(#path-3-outside-1_23_2)"/>
</g>
</g>
<rect x="-10.5" y="-434.5" width="239" height="462" stroke="#C5C5C5"/>
</g>
<defs>
<clipPath id="clip0_23_2">
<rect width="1920" height="3843" fill="white" transform="translate(-708 -1082)"/>
</clipPath>
<clipPath id="clip1_23_2">
<rect x="-10" y="-434" width="238" height="461" fill="white"/>
</clipPath>
<clipPath id="clip2_23_2">
<rect width="15" height="15" fill="white" transform="translate(0 0.5)"/>
</clipPath>
</defs>
</svg>
