<svg width="12" height="20" viewBox="0 0 12 20" fill="none" xmlns="http://www.w3.org/2000/svg">
<path d="M11.8231 1.03104C11.8231 0.891842 11.7678 0.75835 11.6694 0.659925C11.5709 0.561501 11.4375 0.506206 11.2983 0.506206H8.67412C7.35273 0.440383 6.059 0.900239 5.0756 1.7853C4.0922 2.67036 3.49908 3.90867 3.42583 5.22967V8.06374H0.801684C0.662491 8.06374 0.528999 8.11904 0.430574 8.21746C0.33215 8.31589 0.276855 8.44938 0.276855 8.58857V11.3177C0.276855 11.4569 0.33215 11.5904 0.430574 11.6888C0.528999 11.7872 0.662491 11.8425 0.801684 11.8425H3.42583V18.8752C3.42583 19.0144 3.48112 19.1479 3.57955 19.2463C3.67797 19.3448 3.81147 19.4 3.95066 19.4H7.09963C7.23883 19.4 7.37232 19.3448 7.47074 19.2463C7.56917 19.1479 7.62446 19.0144 7.62446 18.8752V11.8425H10.3746C10.4913 11.8442 10.6052 11.8069 10.6984 11.7366C10.7915 11.6662 10.8586 11.5669 10.8889 11.4541L11.6447 8.72503C11.6655 8.64748 11.6683 8.56618 11.6529 8.48737C11.6374 8.40857 11.604 8.33437 11.5553 8.27049C11.5067 8.20661 11.444 8.15476 11.3721 8.11891C11.3003 8.08307 11.2211 8.06419 11.1408 8.06374H7.62446V5.22967C7.65057 4.96985 7.77258 4.7291 7.96667 4.55441C8.16077 4.37973 8.413 4.28367 8.67412 4.28497H11.2983C11.4375 4.28497 11.5709 4.22968 11.6694 4.13126C11.7678 4.03283 11.8231 3.89934 11.8231 3.76015V1.03104Z" fill="#242425"/>
</svg>
