<svg width="133" height="133" viewBox="0 0 133 133" fill="none" xmlns="http://www.w3.org/2000/svg">
<path d="M66.5 132C102.675 132 132 102.675 132 66.5C132 30.3254 102.675 1 66.5 1C30.3253 1 1 30.3254 1 66.5C1 102.675 30.3253 132 66.5 132Z" fill="#0A0A0A" stroke="#2B2A29" stroke-width="0.755906" stroke-miterlimit="22.9256"/>
<path d="M70.4362 65.1428C72.6137 65.1428 74.2143 65.6453 75.2379 66.6503C76.1126 67.5064 76.55 68.6975 76.55 70.2237C76.55 70.5028 76.55 70.782 76.55 71.0612C76.4942 71.3217 76.4569 71.5078 76.4383 71.6195C76.0289 74.1506 74.875 76.3654 72.9766 78.2638C70.8921 80.3482 68.2028 81.7255 64.9086 82.3955L64.0432 87.8393H58.6831L62.2844 65.1428H70.4362ZM65.6903 77.4821C66.9931 77.3146 68.133 76.6911 69.1101 75.6209C70.0872 74.5462 70.6874 73.3457 70.9108 72.0197C70.9294 71.8894 70.9387 71.7731 70.9387 71.6661C70.9387 71.5637 70.9387 71.4939 70.9387 71.4567C70.9387 70.8797 70.7619 70.4423 70.4083 70.1399C70.0546 69.8421 69.4591 69.6932 68.6216 69.6932H66.9186L65.6903 77.4821ZM87.9122 64.7798C90.2386 64.7798 91.8951 65.3754 92.8814 66.5665C93.5701 67.404 93.9144 68.4928 93.9144 69.8328C93.9144 69.9817 93.8958 70.219 93.8586 70.5447C93.8213 70.8704 93.8027 71.0798 93.8027 71.1728C93.3374 74.0576 92.2207 76.6166 90.4527 78.85C88.4985 81.3067 86.321 82.5351 83.9201 82.5351C81.8915 82.5351 80.2815 81.6045 79.0904 79.7434C78.011 78.0497 77.4713 75.9653 77.4713 73.49C77.4713 73.1549 77.4852 72.7967 77.5131 72.4151C77.541 72.0336 77.5922 71.6195 77.6667 71.1728C77.9645 69.2186 78.7555 67.6832 80.0396 66.5665C81.3982 65.3754 83.2408 64.7798 85.5672 64.7798H87.9122ZM88.2472 71.6474C88.2845 71.3869 88.3031 71.2008 88.3031 71.0891C88.3031 69.9166 87.54 69.3303 86.0139 69.3303C84.283 69.3303 83.2966 70.1027 83.0547 71.6474C82.9988 71.9266 82.9616 72.2849 82.943 72.7222C82.9244 73.1596 82.9151 73.3876 82.9151 73.4062C82.9151 74.6159 83.1012 75.6303 83.4734 76.4492C83.8456 77.268 84.2551 77.6775 84.7018 77.6775C85.2601 77.6775 85.9022 77.1192 86.628 76.0025C87.4469 74.7369 87.9867 73.2852 88.2472 71.6474ZM102.094 65.1707L101.927 66.1478C102.522 65.6639 103.141 65.3149 103.783 65.1009C104.425 64.8869 105.128 64.7798 105.891 64.7798L105.109 69.6095C104.365 69.6095 103.662 69.7584 103.001 70.0561C102.341 70.354 101.778 70.8099 101.312 71.4241L99.6374 82.0326H94.2773L96.9573 65.1707H102.094ZM113.61 65.1428H116.434L115.741 69.5537H112.94L111.893 76.0025C111.874 76.0955 111.865 76.2351 111.865 76.4212C111.865 76.7562 111.949 77.0168 112.116 77.2029C112.284 77.389 112.591 77.4821 113.038 77.4821H115.159L113.093 82.0326H110.665C109.269 82.0326 108.217 81.772 107.51 81.2509C106.691 80.6553 106.282 79.6596 106.282 78.2638C106.282 78.0404 106.282 77.859 106.282 77.7194C106.282 77.5798 106.319 77.296 106.393 76.8679L107.566 69.5537L106.351 69.549L107.059 65.1428H108.259L108.762 61.8625L114.378 60.2759L113.61 65.1428Z" fill="#FEFEFE"/>
<path fill-rule="evenodd" clip-rule="evenodd" d="M52.6145 42.4871C54.302 41.3401 55.2936 38.4574 55.5891 33.8389C53.1832 34.0267 45.7766 34.0093 35.3512 34.1308C29.9411 34.2725 26.4402 37.8813 25.5364 44.1199C19.2085 44.0521 16.0388 47.973 16.6376 55.8826C17.0774 54.8187 18.0097 54.224 19.4344 54.0986C27.0959 54.0582 35.3659 54.0582 41.6883 54.0986C45.6485 54.3068 48.1209 53.8734 49.1057 52.7983C49.9665 51.6504 50.5767 49.9974 50.9364 47.8393C46.0208 47.7976 42.385 47.7976 40.029 47.8393C40.4535 46.247 40.8095 44.9064 41.0968 43.8176C47.3216 44.1382 51.1608 43.6948 52.6145 42.4871ZM35.7067 68.0687C36.4585 64.7898 37.2127 61.272 37.9696 57.5155C36.9356 57.5155 31.9862 57.5155 23.1212 57.5155C22.0872 63.7648 21.5703 66.8894 21.5703 66.8894C21.1662 70.9345 23.2764 72.8395 27.9012 72.6045C32.1355 72.4078 34.7373 70.8959 35.7067 68.0687Z" fill="#B36148"/>
<path d="M52.0152 72.4634H49.8209C48.8091 72.4634 48.0818 72.5618 47.6391 72.7586C47.1964 72.9554 46.9435 73.2366 46.8802 73.6021C46.7853 74.052 46.8802 74.4878 47.1648 74.9095C47.2597 75.0501 47.5759 75.4156 48.1134 76.006L53.9474 82.965C55.0858 84.2864 55.8763 85.3549 56.319 86.1703C56.6523 86.7631 56.9058 87.3624 57.0794 87.9681H44.6094C44.5767 87.9321 44.5431 87.8951 44.5087 87.8573L38.8644 80.9406C37.473 79.2254 36.564 77.8688 36.1371 76.8706C35.7102 75.8725 35.4967 74.8673 35.4967 73.8551C35.4967 73.6864 35.4967 73.5037 35.4967 73.3069C35.56 73.0257 35.5916 72.8148 35.5916 72.6742C35.971 70.6498 36.9446 68.9287 38.5323 67.5289C40.6759 65.639 43.6549 64.7031 47.4494 64.7031H59.5567C59.322 69.5415 57.4155 72.7284 52.0152 72.4634ZM57.2354 91.3525C56.8347 93.3059 55.8652 94.9666 54.3269 96.3345C52.1767 98.2183 49.2043 99.1602 45.4098 99.1602H33.5995C28.1861 99.2629 28.8443 91.7442 32.9915 91.4H41.8051H42.8011C43.2068 91.4 43.5667 91.3842 43.8809 91.3525H57.2354Z" fill="#FEFEFE"/>
<path d="M65.46 63.2415H60.0299C57.6102 63.2415 55.6126 62.3974 54.037 60.7046C52.4614 59.0165 51.6736 56.9297 51.6736 54.4491C51.6736 54.2428 51.6782 54.0505 51.6876 53.8723C51.697 53.6942 51.7392 53.3237 51.8143 52.7563C52.1144 50.8243 52.8459 49.3097 54.0088 48.2218C55.4156 46.8853 57.3851 46.2195 59.9173 46.2195H68.1611L65.46 63.2415ZM62.0275 50.8056H60.2831C59.5516 50.8056 58.9888 50.8994 58.5949 51.0869C57.8822 51.4433 57.4414 52.1326 57.2726 53.1502C57.2163 53.4691 57.1882 53.7786 57.1882 54.0834C57.1882 55.2463 57.5117 56.2639 58.1588 57.1314C58.806 57.9942 59.6829 58.5054 60.7895 58.6554L62.0275 50.8056ZM80.1469 50.6649H77.7272C77.1082 50.6649 76.6862 50.7071 76.4611 50.7915C76.236 50.8759 76.1047 51.0494 76.0672 51.312C76.0484 51.4433 76.0859 51.5981 76.1797 51.7809C76.2735 51.9591 76.3392 52.0858 76.3767 52.1608L78.2899 55.176C78.6088 55.6636 78.8667 56.1748 79.0636 56.7C79.2606 57.2252 79.3591 57.7691 79.3591 58.3365C79.3591 58.6554 79.3403 58.8993 79.3028 59.0681C79.134 60.217 78.5947 61.197 77.685 62.0129C76.7753 62.8336 75.6827 63.2415 74.4072 63.2415H68.9208L68.3018 58.7117H71.2841C71.3779 58.7117 71.5514 58.7117 71.8046 58.7117C72.0579 58.7117 72.2126 58.7117 72.2689 58.7117C72.494 58.7117 72.6956 58.6929 72.8738 58.6554C73.052 58.6179 73.1599 58.4866 73.1974 58.2615C73.2161 58.0739 73.1598 57.8395 73.0285 57.5534C72.8222 57.2346 72.6909 57.0282 72.6346 56.9345L70.834 53.9755C70.4776 53.3894 70.2244 52.9017 70.0743 52.5078C69.8492 51.945 69.7367 51.387 69.7367 50.8431C69.7367 50.7305 69.7367 50.618 69.7367 50.5055C69.7742 50.3366 69.7929 50.2147 69.7929 50.1397C69.9243 49.2722 70.3463 48.475 71.0591 47.7434C72.0532 46.7259 73.3568 46.2195 74.9699 46.2195H79.4997L80.1469 50.6649ZM89.2769 46.2195H92.1233L91.4246 50.6649H88.6016L87.5465 57.1642C87.5278 57.258 87.5184 57.3987 87.5184 57.5863C87.5184 57.9239 87.6028 58.1865 87.7716 58.3741C87.9404 58.5616 88.2499 58.6554 88.7001 58.6554H90.8384L88.7564 63.2415H86.3086C84.9018 63.2415 83.842 62.9789 83.1293 62.4537C82.3039 61.8535 81.8913 60.85 81.8913 59.4432C81.8913 59.2181 81.8913 59.0352 81.8913 58.8946C81.8913 58.7539 81.9288 58.4678 82.0038 58.0364L83.1855 50.6649L81.9616 50.6602L82.6744 46.2195H83.8842L84.3907 42.9135L90.0506 41.3145L89.2769 46.2195Z" fill="#B36148"/>
<path d="M63.327 90.6284C63.327 90.7027 63.294 90.7543 63.2279 90.7832C63.1908 90.7997 63.1412 90.808 63.0793 90.808H61.9953C61.7269 90.808 61.5349 90.8204 61.4193 90.8451C61.188 90.8947 60.9888 91.001 60.8216 91.1641C60.6543 91.3272 60.5263 91.5379 60.4375 91.7959C60.3488 92.054 60.3044 92.3193 60.3044 92.5918C60.3044 93.1452 60.5026 93.5932 60.899 93.9359C61.2706 94.258 61.7187 94.4191 62.2431 94.4191H62.559C62.592 94.4191 62.6168 94.4232 62.6333 94.4315C62.6911 94.4593 62.72 94.5203 62.72 94.6142C62.72 94.6875 62.6839 94.7412 62.6116 94.7762C62.5394 94.8103 62.3959 94.8279 62.1812 94.8279C61.4503 94.8279 60.868 94.5966 60.4344 94.1341C60.038 93.713 59.8398 93.1927 59.8398 92.5733C59.8398 91.9952 59.9988 91.512 60.3167 91.1239C60.6843 90.6738 61.2046 90.4487 61.8776 90.4487H63.1412C63.2031 90.4487 63.2496 90.4622 63.2806 90.489C63.3116 90.5158 63.327 90.5623 63.327 90.6284ZM65.9533 91.7866C65.9533 91.8238 65.9347 91.861 65.8975 91.8981C65.8604 91.9353 65.8108 91.9539 65.7489 91.9539H64.8136L64.3986 94.5925C64.3779 94.7247 64.3057 94.7907 64.1818 94.7907C64.0579 94.7907 64.0063 94.7247 64.0269 94.5925L64.442 91.9539H63.5067C63.4117 91.9539 63.3642 91.8981 63.3642 91.7866C63.3642 91.7164 63.3879 91.671 63.4354 91.6503C63.4829 91.6297 63.5252 91.6194 63.5624 91.6194H65.8046C65.9037 91.6194 65.9533 91.6751 65.9533 91.7866ZM68.5733 92.0334C68.4825 92.3224 68.3772 92.5991 68.2574 92.8623C68.0551 93.3083 67.8094 93.7491 67.5204 94.1858C67.1528 94.7474 66.711 95.2996 66.1948 95.8437C66.1577 95.885 66.1288 95.9129 66.1081 95.9273C66.0875 95.9418 66.0524 95.949 66.0028 95.949C65.9409 95.949 65.8975 95.9325 65.8728 95.8994C65.848 95.8664 65.8356 95.8292 65.8356 95.7879C65.8356 95.7425 65.8521 95.7012 65.8851 95.6641C65.9182 95.6269 65.9409 95.6021 65.9533 95.5897C66.168 95.3637 66.3786 95.1221 66.5851 94.8671C66.3373 94.4418 66.1535 94.0092 66.0338 93.5674C65.914 93.1266 65.8542 92.6796 65.8542 92.2254C65.8542 91.99 65.8707 91.831 65.9037 91.7464C65.9368 91.6617 66.0028 91.6194 66.1019 91.6194C66.1597 91.6194 66.2021 91.6349 66.2289 91.6658C66.2558 91.6968 66.2692 91.7618 66.2692 91.861C66.2692 91.9105 66.2661 91.9848 66.2599 92.0839C66.2537 92.183 66.2506 92.2574 66.2506 92.3069C66.2506 92.6208 66.2836 92.9284 66.3497 93.2298C66.4447 93.6675 66.6088 94.0991 66.8442 94.5244C67.1487 94.1362 67.4016 93.7605 67.604 93.3971C67.764 93.108 67.9023 92.8148 68.018 92.5175C68.05 92.4349 68.1284 92.2057 68.2523 91.83C68.2812 91.7433 68.3132 91.6865 68.3483 91.6596C68.3834 91.6328 68.4278 91.6194 68.4804 91.6194C68.5754 91.6194 68.6229 91.6751 68.6229 91.7866C68.6229 91.8444 68.6064 91.927 68.5733 92.0334ZM71.3111 94.6916L71.1624 95.6083C71.1501 95.6826 71.1253 95.7343 71.0881 95.7632C71.0509 95.7921 71.0034 95.8065 70.9457 95.8065C70.892 95.8065 70.8507 95.7869 70.8218 95.7477C70.7929 95.7084 70.7825 95.662 70.7908 95.6083L70.9209 94.7907H68.2327L68.1026 95.6083C68.0943 95.6702 68.0716 95.7188 68.0345 95.7539C67.9973 95.789 67.9519 95.8065 67.8982 95.8065C67.8404 95.8065 67.796 95.789 67.765 95.7539C67.7341 95.7188 67.7227 95.6702 67.731 95.6083L67.8672 94.735C67.8838 94.6276 67.9312 94.5543 68.0097 94.5151C68.0881 94.4758 68.179 94.4562 68.2822 94.4562H68.3504C68.4577 94.0712 68.6146 93.6613 68.8211 93.2267C69.0647 92.7178 69.3125 92.3183 69.5644 92.0292C69.7006 91.8765 69.8287 91.7722 69.9484 91.7185C70.1012 91.6524 70.318 91.6194 70.5988 91.6194H71.1005C71.1707 91.6194 71.2202 91.6359 71.2491 91.6689C71.278 91.702 71.2925 91.7495 71.2925 91.8114C71.2925 91.8403 71.2904 91.863 71.2863 91.8806L70.8775 94.4562H71.0014C71.1046 94.4562 71.1851 94.4748 71.2429 94.512C71.3008 94.5492 71.3235 94.609 71.3111 94.6916ZM70.9085 91.9539H70.543C70.3985 91.9539 70.2581 91.9931 70.1218 92.0715C69.8947 92.2047 69.6779 92.4298 69.4715 92.7488C69.1989 93.171 68.9512 93.7398 68.7282 94.4562H70.512L70.9085 91.9539ZM75.1637 91.8176L74.724 94.5925C74.7157 94.6545 74.693 94.703 74.6558 94.7381C74.6187 94.7732 74.5691 94.7907 74.5072 94.7907C74.4535 94.7907 74.4122 94.7711 74.3833 94.7319C74.3544 94.6926 74.3441 94.6452 74.3523 94.5915L74.5381 93.4167C74.3771 93.4167 74.2212 93.3971 74.0705 93.3578C73.9198 93.3186 73.7598 93.2567 73.5905 93.1741C73.3716 93.3816 73.2023 93.585 73.0826 93.7862C72.9628 93.9876 72.8472 94.256 72.7357 94.5915C72.7109 94.671 72.681 94.7236 72.6459 94.7505C72.6108 94.7773 72.5643 94.7907 72.5065 94.7907C72.4653 94.7907 72.4322 94.7783 72.4074 94.7535C72.3826 94.7288 72.3702 94.6833 72.3702 94.6173C72.3702 94.5636 72.3723 94.5223 72.3765 94.4955C72.3806 94.4686 72.395 94.4222 72.4198 94.3561C72.49 94.1372 72.5726 93.9401 72.6676 93.7666C72.8245 93.4817 73.0268 93.2205 73.2746 92.9852C73.1466 92.9015 73.0413 92.8004 72.9587 92.6806C72.8637 92.5444 72.8162 92.4071 72.8162 92.2708C72.8162 92.0519 72.8864 91.8888 73.0268 91.7804C73.1672 91.6731 73.4005 91.6194 73.7267 91.6194H74.9841C75.0419 91.6194 75.0832 91.6276 75.108 91.6442C75.1575 91.6772 75.1761 91.735 75.1637 91.8176ZM74.7673 91.9539H73.5667C73.4346 91.9539 73.3417 91.9817 73.2901 92.0375C73.2384 92.0932 73.2126 92.1603 73.2126 92.2388C73.2126 92.4329 73.3468 92.6125 73.6142 92.7777C73.8816 92.9428 74.2058 93.0461 74.5867 93.0874L74.7673 91.9539ZM79.9765 90.6284C79.9765 90.7027 79.9434 90.7543 79.8774 90.7832C79.8402 90.7997 79.7907 90.808 79.7287 90.808H77.7962L77.6661 91.6194H79.6048C79.6668 91.6194 79.7132 91.6328 79.7442 91.6596C79.7752 91.6865 79.7906 91.733 79.7906 91.799C79.7906 91.8733 79.7576 91.925 79.6915 91.9539C79.6544 91.9704 79.6048 91.9786 79.5429 91.9786H77.6104L77.2264 94.4315H79.1651C79.227 94.4315 79.2735 94.4449 79.3044 94.4717C79.3354 94.4986 79.3509 94.545 79.3509 94.6111C79.3509 94.6854 79.3178 94.737 79.2518 94.7659C79.2146 94.7825 79.1651 94.7907 79.1031 94.7907H77.0157C76.9373 94.7907 76.8815 94.7701 76.8485 94.7288C76.8155 94.6875 76.799 94.6338 76.799 94.5677C76.799 94.543 76.8031 94.5058 76.8113 94.4562L77.3998 90.7213C77.4122 90.6346 77.4442 90.5674 77.4958 90.5199C77.5474 90.4725 77.6207 90.4487 77.7157 90.4487H79.7906C79.8526 90.4487 79.8991 90.4622 79.93 90.489C79.961 90.5158 79.9765 90.5623 79.9765 90.6284ZM83.7548 91.6338C83.7548 92.117 83.7445 92.5413 83.7238 92.9047C83.7032 93.2691 83.6495 93.747 83.5628 94.3375C83.538 94.512 83.5091 94.6307 83.4761 94.6947C83.443 94.7587 83.3873 94.7907 83.3089 94.7907C83.2428 94.7907 83.1984 94.7762 83.1757 94.7474C83.153 94.7184 83.1416 94.671 83.1416 94.6049C83.1416 94.5388 83.1519 94.4428 83.1726 94.3189C83.2551 93.7233 83.3099 93.2061 83.3367 92.7684C83.3636 92.3296 83.377 91.7691 83.377 91.0867C83.1994 91.384 83.0032 91.6813 82.7885 91.9786C82.5243 92.3461 82.3178 92.5918 82.1691 92.7157C82.1402 92.7405 82.1051 92.7642 82.0638 92.787C82.0226 92.8097 81.9792 92.821 81.9338 92.821C81.8925 92.821 81.8584 92.8127 81.8316 92.7962C81.8047 92.7797 81.7727 92.7529 81.7356 92.7157C81.6241 92.596 81.4961 92.3544 81.3515 91.991C81.2318 91.6855 81.1347 91.384 81.0604 91.0867C80.8911 91.5987 80.7342 92.1294 80.5897 92.6786C80.4782 93.109 80.3915 93.4796 80.3295 93.7904C80.2841 94.035 80.2387 94.2766 80.1933 94.5171C80.1768 94.5956 80.1561 94.6545 80.1313 94.6916C80.09 94.7577 80.0302 94.7907 79.9517 94.7907C79.8485 94.7907 79.7969 94.7247 79.7969 94.5925C79.7969 94.5306 79.801 94.48 79.8092 94.4408C79.8175 94.4005 79.8216 94.3705 79.8216 94.3499C79.9042 93.8379 80.0281 93.267 80.1933 92.6383C80.3832 91.9146 80.5835 91.2839 80.7941 90.746C80.8395 90.6428 80.8746 90.5747 80.8994 90.5416C80.9531 90.4797 81.0253 90.4487 81.1162 90.4487C81.1864 90.4487 81.2339 90.4632 81.2586 90.4921C81.2834 90.521 81.3061 90.5685 81.3268 90.6346C81.5043 91.2498 81.6117 91.607 81.6489 91.7061C81.7356 91.9332 81.8491 92.1665 81.9895 92.406C82.3034 92.0302 82.5697 91.6772 82.7885 91.3469C82.8009 91.3262 82.9455 91.0888 83.2221 90.6346C83.2593 90.5685 83.2923 90.5251 83.3212 90.5045C83.3666 90.4673 83.4286 90.4487 83.5071 90.4487C83.5896 90.4487 83.6474 90.4745 83.6805 90.5262C83.7135 90.5778 83.7301 90.6511 83.7301 90.746C83.7301 90.8586 83.7342 91.033 83.7424 91.2705C83.7507 91.5079 83.7548 91.6297 83.7548 91.6338ZM87.3721 93.0347C87.3721 93.49 87.2152 93.8833 86.9013 94.2136C86.538 94.5987 86.0424 94.7907 85.4148 94.7907H83.9654C83.9035 94.7907 83.857 94.7773 83.826 94.7505C83.7951 94.7236 83.7796 94.6772 83.7796 94.6111C83.7796 94.5368 83.8054 94.4882 83.857 94.4655C83.9086 94.4428 83.9654 94.4315 84.0273 94.4315H85.3962C85.9289 94.4315 86.3315 94.2725 86.604 93.9535C86.8188 93.7057 86.9261 93.4053 86.9261 93.0543C86.9261 92.7808 86.8229 92.5722 86.6164 92.4277C86.4843 92.3369 86.3006 92.2687 86.0652 92.2233L85.3776 92.086C85.0721 92.0241 84.8677 91.9662 84.7644 91.9126C84.5084 91.7763 84.3804 91.5595 84.3804 91.2612C84.3804 91.0671 84.4403 90.9019 84.5601 90.7646C84.7417 90.554 85.0349 90.4487 85.4396 90.4487H87.0686C87.1305 90.4487 87.177 90.4622 87.208 90.489C87.2389 90.5158 87.2544 90.5623 87.2544 90.6284C87.2544 90.7027 87.2214 90.7543 87.1553 90.7832C87.1181 90.7997 87.0686 90.808 87.0066 90.808H85.5077C85.3219 90.808 85.1836 90.8245 85.0927 90.8575C84.9152 90.9236 84.8264 91.0475 84.8264 91.2302C84.8264 91.4202 84.9089 91.5461 85.0741 91.608C85.1526 91.6369 85.2744 91.6679 85.4396 91.7009L86.0094 91.8124C86.4347 91.896 86.7362 91.9952 86.9137 92.1108C87.2193 92.309 87.3721 92.6176 87.3721 93.0347ZM91.7079 91.7866C91.7079 91.8238 91.6893 91.861 91.6521 91.8981C91.615 91.9353 91.5654 91.9539 91.5035 91.9539H90.5682L90.1532 94.5925C90.1325 94.7247 90.0603 94.7907 89.9364 94.7907C89.8125 94.7907 89.7609 94.7247 89.7816 94.5925L90.1965 91.9539H89.2613C89.1663 91.9539 89.1188 91.8981 89.1188 91.7866C89.1188 91.7164 89.1425 91.671 89.19 91.6503C89.2375 91.6297 89.2798 91.6194 89.317 91.6194H91.5592C91.6583 91.6194 91.7079 91.6751 91.7079 91.7866ZM94.4147 93.1958C94.4147 93.7171 94.2546 94.1135 93.9346 94.384C93.6146 94.6555 93.2254 94.7907 92.767 94.7907H91.807L91.6521 95.7529C91.6398 95.8262 91.615 95.8777 91.5778 95.9056C91.5406 95.9345 91.4931 95.949 91.4354 95.949C91.3817 95.949 91.3404 95.9294 91.3115 95.8901C91.2826 95.8509 91.2722 95.8045 91.2805 95.7508L91.9061 91.8176C91.9268 91.6855 91.999 91.6194 92.1229 91.6194H92.5131C93.0582 91.6194 93.5114 91.7649 93.8727 92.0571C94.234 92.3482 94.4147 92.7281 94.4147 93.1958ZM94.0182 93.2082C94.0182 92.7942 93.8376 92.4731 93.4752 92.246C93.1655 92.0509 92.7867 91.9539 92.3386 91.9539H92.2519L91.8565 94.4562H92.703C93.2213 94.4562 93.5898 94.2952 93.8087 93.9721C93.948 93.7646 94.0182 93.5106 94.0182 93.2082ZM97.6727 92.724C97.6727 92.8551 97.65 92.9655 97.6046 93.0543C97.5592 93.1421 97.4889 93.1865 97.394 93.1865H95.1456C95.1249 93.2773 95.1146 93.3609 95.1146 93.4353C95.1146 93.78 95.2137 94.0371 95.4119 94.2074C95.6101 94.3778 95.9136 94.4624 96.3224 94.4624C96.4834 94.4624 96.6301 94.4542 96.7622 94.4377L96.9852 94.4129C97.0223 94.4088 97.0626 94.4046 97.106 94.4005C97.1493 94.3964 97.1751 94.3943 97.1834 94.3943C97.237 94.3943 97.2794 94.4056 97.3104 94.4283C97.3413 94.4511 97.3568 94.4934 97.3568 94.5553C97.3568 94.6255 97.3279 94.6751 97.2701 94.704C97.2123 94.7329 97.1503 94.7474 97.0843 94.7474L96.6816 94.7845C96.533 94.801 96.3658 94.8093 96.18 94.8093C95.7133 94.8093 95.353 94.6968 95.0991 94.4717C94.8451 94.2467 94.7182 93.9194 94.7182 93.49C94.7182 92.9697 94.8875 92.5237 95.2261 92.1521C95.5647 91.7804 95.9879 91.5946 96.4958 91.5946C96.8468 91.5946 97.1235 91.6896 97.3258 91.8785C97.5571 92.0963 97.6727 92.3781 97.6727 92.724ZM97.2763 92.852C97.2763 92.5712 97.203 92.3492 97.0564 92.1862C96.9098 92.023 96.7085 91.9415 96.4525 91.9415C96.1758 91.9415 95.9291 92.0251 95.7123 92.1923C95.4955 92.3596 95.3376 92.5795 95.2385 92.852H97.2763ZM100.863 91.8176L100.423 94.5925C100.415 94.6545 100.392 94.703 100.355 94.7381C100.318 94.7732 100.268 94.7907 100.206 94.7907C100.152 94.7907 100.111 94.7711 100.082 94.7319C100.053 94.6926 100.043 94.6462 100.051 94.5915L100.305 92.9821H98.5213L98.2673 94.5915C98.2591 94.6545 98.2363 94.703 98.1992 94.7381C98.162 94.7732 98.1124 94.7907 98.0505 94.7907C97.9968 94.7907 97.9555 94.7711 97.9267 94.7319C97.8977 94.6926 97.8874 94.6462 97.8957 94.5925L98.3354 91.8176C98.3437 91.7557 98.3664 91.7071 98.4036 91.6721C98.4407 91.6369 98.4903 91.6194 98.5522 91.6194C98.6059 91.6194 98.6472 91.639 98.6761 91.6782C98.705 91.7175 98.7153 91.7639 98.7071 91.8176L98.577 92.6476H100.361L100.491 91.8176C100.499 91.7557 100.522 91.7071 100.559 91.6721C100.596 91.6369 100.646 91.6194 100.708 91.6194C100.761 91.6194 100.803 91.639 100.832 91.6782C100.861 91.7175 100.871 91.7639 100.863 91.8176ZM103.885 92.0334C103.794 92.3224 103.689 92.5991 103.569 92.8623C103.367 93.3083 103.121 93.7491 102.832 94.1858C102.465 94.7474 102.023 95.2996 101.507 95.8437C101.47 95.885 101.441 95.9129 101.42 95.9273C101.399 95.9418 101.364 95.949 101.315 95.949C101.253 95.949 101.209 95.9325 101.185 95.8994C101.16 95.8664 101.148 95.8292 101.148 95.7879C101.148 95.7425 101.164 95.7012 101.197 95.6641C101.23 95.6269 101.253 95.6021 101.265 95.5897C101.48 95.3637 101.691 95.1221 101.897 94.8671C101.649 94.4418 101.465 94.0092 101.346 93.5674C101.226 93.1266 101.166 92.6796 101.166 92.2254C101.166 91.99 101.183 91.831 101.216 91.7464C101.249 91.6617 101.315 91.6194 101.414 91.6194C101.472 91.6194 101.514 91.6349 101.541 91.6658C101.568 91.6968 101.581 91.7618 101.581 91.861C101.581 91.9105 101.578 91.9848 101.572 92.0839C101.566 92.183 101.563 92.2574 101.563 92.3069C101.563 92.6208 101.596 92.9284 101.662 93.2298C101.757 93.6675 101.921 94.0991 102.156 94.5244C102.461 94.1362 102.714 93.7605 102.916 93.3971C103.076 93.108 103.214 92.8148 103.33 92.5175C103.362 92.4349 103.44 92.2057 103.564 91.83C103.593 91.7433 103.625 91.6865 103.66 91.6596C103.695 91.6328 103.74 91.6194 103.792 91.6194C103.887 91.6194 103.935 91.6751 103.935 91.7866C103.935 91.8444 103.918 91.927 103.885 92.0334ZM106.58 92.1965C106.58 92.3699 106.534 92.532 106.443 92.6806C106.369 92.8045 106.253 92.9305 106.097 93.0595C106.225 93.1462 106.325 93.2494 106.397 93.3692C106.469 93.49 106.505 93.6221 106.505 93.7666C106.505 94.0237 106.425 94.2446 106.264 94.4304C106.057 94.671 105.754 94.7907 105.353 94.7907H104.065C103.999 94.7907 103.953 94.7794 103.929 94.7567C103.904 94.734 103.891 94.704 103.891 94.6668C103.891 94.6338 103.894 94.609 103.898 94.5925L104.331 91.8176C104.335 91.7681 104.35 91.7288 104.375 91.6999C104.416 91.6462 104.48 91.6194 104.567 91.6194H105.88C106.045 91.6194 106.181 91.6442 106.289 91.6937C106.483 91.7846 106.58 91.9528 106.58 92.1965ZM106.183 92.2636C106.183 92.1397 106.136 92.053 106.041 92.0034C105.979 91.9704 105.896 91.9539 105.793 91.9539H104.684L104.573 92.6538C104.854 92.6538 105.112 92.6827 105.347 92.7405C105.496 92.7777 105.651 92.8313 105.812 92.9015C105.907 92.819 105.983 92.7343 106.041 92.6476C106.136 92.5113 106.183 92.3833 106.183 92.2636ZM106.109 93.8214C106.109 93.5901 105.983 93.395 105.731 93.2371C105.438 93.0543 105.035 92.9635 104.523 92.9635L104.288 94.4562H105.403C105.642 94.4562 105.824 94.3881 105.948 94.2508C106.055 94.1352 106.109 93.9917 106.109 93.8214ZM109.571 92.4866L109.231 94.5863C109.218 94.6689 109.192 94.7226 109.152 94.7474C109.112 94.7721 109.066 94.7845 109.011 94.7845C108.939 94.7845 108.894 94.7639 108.875 94.7215C108.856 94.6802 108.849 94.6369 108.853 94.5935L108.871 94.4624C108.764 94.5502 108.646 94.6214 108.518 94.6782C108.312 94.7659 108.077 94.8093 107.812 94.8093C107.395 94.8093 107.094 94.7019 106.908 94.4862C106.772 94.3293 106.704 94.13 106.704 93.8895C106.704 93.5416 106.836 93.2691 107.1 93.0698C107.319 92.9088 107.633 92.7942 108.041 92.7281C108.331 92.6827 108.702 92.66 109.156 92.66L109.175 92.5557C109.187 92.4938 109.193 92.437 109.193 92.3833C109.193 92.2161 109.13 92.0974 109.002 92.0272C108.911 91.9786 108.774 91.9539 108.593 91.9539H107.465C107.408 91.9539 107.364 91.9477 107.335 91.9353C107.278 91.9105 107.249 91.861 107.249 91.7866C107.249 91.7123 107.273 91.6658 107.323 91.6473C107.372 91.6287 107.428 91.6194 107.49 91.6194H108.71C108.975 91.6194 109.184 91.6823 109.339 91.8083C109.494 91.9342 109.571 92.1067 109.571 92.3255C109.571 92.3544 109.571 92.3813 109.571 92.406C109.571 92.4432 109.571 92.47 109.571 92.4866ZM109.107 92.9821C108.33 92.9821 107.792 93.0647 107.49 93.2309C107.23 93.3723 107.1 93.5829 107.1 93.8657C107.1 94.0103 107.137 94.1311 107.211 94.226C107.335 94.384 107.554 94.4624 107.868 94.4624C108.141 94.4624 108.378 94.4067 108.58 94.2942C108.816 94.1662 108.952 93.9793 108.989 93.7346L109.107 92.9821ZM112.78 91.8176L112.34 94.5925C112.332 94.6545 112.309 94.703 112.272 94.7381C112.235 94.7732 112.185 94.7907 112.123 94.7907C112.07 94.7907 112.028 94.7711 111.999 94.7319C111.97 94.6926 111.96 94.6462 111.968 94.5915L112.222 92.9821H110.438L110.185 94.5915C110.176 94.6545 110.154 94.703 110.116 94.7381C110.079 94.7732 110.03 94.7907 109.968 94.7907C109.914 94.7907 109.873 94.7711 109.844 94.7319C109.815 94.6926 109.805 94.6462 109.813 94.5925L110.253 91.8176C110.261 91.7557 110.284 91.7071 110.321 91.6721C110.358 91.6369 110.408 91.6194 110.469 91.6194C110.523 91.6194 110.564 91.639 110.593 91.6782C110.622 91.7175 110.633 91.7639 110.624 91.8176L110.494 92.6476H112.278L112.408 91.8176C112.416 91.7557 112.439 91.7071 112.476 91.6721C112.513 91.6369 112.563 91.6194 112.625 91.6194C112.679 91.6194 112.72 91.639 112.749 91.6782C112.778 91.7175 112.788 91.7639 112.78 91.8176ZM115.493 93.8905C115.493 94.1393 115.404 94.3437 115.226 94.5048C115.02 94.6957 114.727 94.7907 114.347 94.7907H113.17C113.038 94.7907 112.982 94.7247 113.003 94.5925L113.443 91.8176C113.451 91.7557 113.474 91.7071 113.511 91.6721C113.548 91.6369 113.597 91.6194 113.659 91.6194C113.713 91.6194 113.754 91.639 113.783 91.6782C113.812 91.7175 113.823 91.7639 113.814 91.8176L113.678 92.6992C114.12 92.7364 114.5 92.8334 114.818 92.9914C115.268 93.2102 115.493 93.5106 115.493 93.8905ZM115.084 93.874C115.084 93.6263 114.904 93.4198 114.545 93.2546C114.24 93.1142 113.93 93.044 113.616 93.044L113.393 94.4562H114.415C114.617 94.4562 114.774 94.4129 114.886 94.3261C115.018 94.2229 115.084 94.0722 115.084 93.874ZM72.5375 90.9195C72.5375 91.0227 72.5168 91.1146 72.4755 91.1951C72.4343 91.2756 72.3703 91.3159 72.2836 91.3159C72.2299 91.3159 72.1855 91.2963 72.1503 91.257C72.1153 91.2178 72.0977 91.1569 72.0977 91.0743C72.0977 90.9628 72.1194 90.8699 72.1628 90.7956C72.2061 90.7213 72.2691 90.6841 72.3517 90.6841C72.426 90.6841 72.4755 90.7099 72.5003 90.7615C72.5251 90.8131 72.5375 90.8658 72.5375 90.9195ZM72.3702 91.8176L71.9305 94.5925C71.9222 94.6545 71.8995 94.703 71.8624 94.7381C71.8252 94.7732 71.7756 94.7907 71.7137 94.7907C71.66 94.7907 71.6187 94.7711 71.5898 94.7319C71.5609 94.6926 71.5506 94.6462 71.5588 94.5925L71.9986 91.8176C72.0069 91.7557 72.0296 91.7071 72.0668 91.6721C72.1039 91.6369 72.1535 91.6194 72.2154 91.6194C72.2691 91.6194 72.3104 91.639 72.3393 91.6782C72.3682 91.7175 72.3785 91.7639 72.3702 91.8176Z" fill="#FEFEFE"/>
<path fill-rule="evenodd" clip-rule="evenodd" d="M66.5 1C102.675 1 132 30.3254 132 66.5C132 102.675 102.675 132 66.5 132C30.3253 132 1 102.675 1 66.5C1 30.3254 30.3253 1 66.5 1ZM66.5 5.18995C100.361 5.18995 127.81 32.6394 127.81 66.5C127.81 100.361 100.361 127.81 66.5 127.81C32.6394 127.81 5.18995 100.361 5.18995 66.5C5.18995 32.6394 32.6394 5.18995 66.5 5.18995Z" fill="#B36148"/>
<path fill-rule="evenodd" clip-rule="evenodd" d="M66.5 5.18994C100.361 5.18994 127.81 32.6394 127.81 66.5C127.81 100.361 100.361 127.81 66.5 127.81C32.6393 127.81 5.18991 100.361 5.18991 66.5C5.18991 32.6394 32.6393 5.18994 66.5 5.18994ZM66.5 7.83263C34.098 7.83263 7.83261 34.0981 7.83261 66.5C7.83261 98.9019 34.098 125.167 66.5 125.167C98.9019 125.167 125.167 98.9019 125.167 66.5C125.167 34.0981 98.9019 7.83263 66.5 7.83263Z" fill="#FEFEFE"/>
</svg>
