<svg width="76" height="17" viewBox="0 0 76 17" fill="none" xmlns="http://www.w3.org/2000/svg">
<path d="M33.0836 9.40409L27.7187 3.97952H25.0362V13.0205H27.7187V7.5959L33.0836 13.0205H35.7661V3.97952H33.0836V9.40409Z" fill="#F4F4F4"/>
<path d="M73.3209 3.97952H63.4852V4.88362C64.1827 5.58881 64.5761 5.98661 65.2735 6.69181H67.956V13.0205H70.6385V6.69181H75.1093V5.78771C74.4118 5.08252 74.0184 4.68472 73.3209 3.97952Z" fill="#F4F4F4"/>
<path d="M11.6241 5.78771V13.0205H22.354C23.0514 12.3153 23.4448 11.9175 24.1423 11.2123V3.97952H13.4124C12.715 4.68472 12.3215 5.08252 11.6241 5.78771ZM14.3066 6.69181H21.4598V10.3082H14.3066V6.69181Z" fill="#F4F4F4"/>
<path d="M2.68247 6.69181H9.29922L11.9817 3.97952H1.78831C1.09087 4.68472 0.697442 5.08252 0 5.78771V11.2123C0.697442 11.9175 1.09087 12.3153 1.78831 13.0205H10.7299V10.3082H2.68247V6.69181Z" fill="#F4F4F4"/>
<path d="M52.7551 3.97952V13.0205H55.4376V11.2123H60.8026V13.0205H63.485V11.2123L62.5909 10.3082C62.8636 10.0324 63.1363 9.75668 63.485 9.40409V5.78771C62.7876 5.08252 62.3941 4.68472 61.6967 3.97952H52.7551ZM55.4376 8.49999V6.69181H60.8026V8.49999H55.4376Z" fill="#F4F4F4"/>
<path d="M38.449 15.0095V16.6368H40.2373L49.1789 7.5959V16.6368H51.8613V3.97952H49.1789L38.449 15.0095Z" fill="#F4F4F4"/>
<path d="M50.0727 1.99053V0.363159H48.2844L39.3428 9.40409V0.363159H36.6603V13.0205H39.3428L50.0727 1.99053Z" fill="#F4F4F4"/>
<path d="M75.109 11.2123H73.3207V13.0205H75.109V11.2123Z" fill="#F4F4F4"/>
</svg>
