<svg width="116" height="86" viewBox="0 0 116 86" fill="none" xmlns="http://www.w3.org/2000/svg">
<path d="M115.996 40.6771C115.193 40.8939 114.488 41 113.769 41.0221C111.445 41.1017 109.126 41.2654 106.807 41.4069C106.123 41.4511 105.568 41.7872 104.972 42.0216C102.675 42.9239 100.307 43.2467 97.8513 43.1715C93.6007 43.0389 89.7999 41.5705 86.2636 39.3105C85.8889 39.0717 85.6463 39.085 85.2848 39.3326C83.23 40.7302 81.0695 41.942 78.7458 42.831C77.2246 43.4104 75.6593 43.8438 74.0411 44.1224C72.0436 44.463 70.0418 44.5691 68.0488 44.2949C65.1519 43.9013 62.3476 43.1848 60.1562 41.0486C59.2126 40.1287 58.4321 39.0938 58.1014 37.7803C58.0794 37.6962 58.0794 37.5901 57.9735 37.5724C57.8589 37.5503 57.8369 37.652 57.8104 37.7361C56.9947 40.4118 55.0766 42.057 52.6118 43.0742C49.8296 44.2241 46.9106 44.5868 43.8902 44.3613C39.8778 44.0649 36.2401 42.6939 32.8008 40.6993C32.0248 40.2481 31.2708 39.7616 30.5256 39.2619C30.2302 39.0629 30.0097 39.0629 29.7187 39.2619C27.8933 40.5047 25.9135 41.4555 23.8191 42.1455C21.6232 42.8708 19.3657 43.229 17.0376 43.1937C14.5198 43.1539 12.152 42.5922 9.8548 41.575C9.12726 41.2521 8.26304 41.314 7.45614 41.2742C5.52045 41.1813 3.58477 41.1017 1.65349 40.9867C1.11115 40.9558 0.577619 40.8275 0 40.7391C0.158735 40.5754 0.313061 40.6462 0.449749 40.6462C3.35548 40.6462 6.26562 40.6595 9.17136 40.6462C9.77984 40.6462 10.2957 40.9204 10.8337 41.115C13.5454 42.088 16.3012 42.4374 19.1761 42.0438C23.0783 41.5086 26.5705 40.0403 29.6967 37.6609C29.9745 37.4486 30.1861 37.4176 30.4903 37.6388C32.8052 39.2884 35.2612 40.6816 37.92 41.6855C40.8875 42.8045 43.9608 43.3617 47.1178 42.8885C49.2652 42.5656 51.2802 41.8447 52.6868 40.0093C54.4593 37.6962 53.8817 34.251 50.8525 33.1232C50.3675 32.9418 49.8428 32.7959 49.3004 32.8534C49.1285 32.8711 48.908 32.8401 48.8242 33.017C48.7405 33.1895 48.9477 33.2824 49.0359 33.4062C49.371 33.8529 49.3666 34.3969 49.0271 34.764C48.6655 35.1532 48.2025 35.2151 47.7351 34.9365C47.2104 34.6225 47.087 33.8264 47.5323 33.3753C48.229 32.6676 49.1241 32.3669 50.0765 32.4598C52.0827 32.6499 53.5687 33.6274 54.3756 35.5512C55.1295 37.3513 54.7195 38.9965 53.7538 40.5754C53.5642 40.885 53.335 41.1636 53.1806 41.5086C55.4206 40.4825 57.0829 38.9125 57.9427 36.4756C58.4057 37.5945 58.948 38.6427 59.7858 39.4963C60.6279 40.3543 61.5715 41.0619 62.6783 41.5661C62.8017 41.314 62.6165 41.2344 62.5284 41.1283C61.7347 40.142 61.2408 39.0098 61.1482 37.7537C60.9719 35.3522 62.6386 33.0038 65.2048 32.5482C66.2851 32.3581 67.2331 32.535 68.1061 33.1364C68.8293 33.6318 68.8072 34.6004 68.1061 34.9719C67.6476 35.2151 67.2066 35.1444 66.8671 34.764C66.5452 34.4102 66.5364 33.8706 66.8407 33.446C66.9377 33.3089 67.1802 33.2161 67.0744 33.017C66.9729 32.8269 66.7304 32.8578 66.5408 32.8622C64.8432 32.9065 63.0972 33.875 62.4975 35.6397C61.6509 38.1341 62.912 40.2791 64.8212 41.4777C67.0258 42.8575 69.4774 43.1583 72.0128 43.0035C76.4353 42.7293 80.3111 40.9381 83.9884 38.6162C84.4955 38.2977 84.9894 37.9572 85.47 37.6034C85.7389 37.4044 85.9462 37.4574 86.1799 37.6432C87.7893 38.9213 89.5706 39.9032 91.4755 40.6683C94.2665 41.7917 97.1635 42.3932 100.171 42.1941C102.062 42.0703 103.919 41.6546 105.678 40.8894C105.982 40.7568 106.3 40.655 106.648 40.655C109.677 40.655 112.711 40.655 115.74 40.6506C115.788 40.6506 115.837 40.6639 116 40.6816L115.996 40.6771Z" fill="#F4F4F4"/>
<path d="M74.2173 13.5484C74.0718 13.6722 73.9219 13.7916 73.7808 13.9199C73.2649 14.3798 73.1194 14.9769 73.3002 15.6093C73.481 16.2462 73.9924 16.5514 74.6318 16.6575C75.5401 16.8079 76.4617 16.7858 77.3656 16.8963C79.2572 17.1308 80.8754 17.9843 82.2202 19.3333C84.3543 21.4738 85.2053 24.0832 84.9981 27.0818C84.9011 28.4971 84.5175 29.8106 83.8561 31.0534C83.7017 31.3453 83.7679 31.5399 84.0501 31.7124C84.4689 31.9733 84.8746 32.2564 85.267 32.5571C85.5581 32.7827 85.7829 32.7915 86.1092 32.5748C87.9391 31.3541 89.7954 30.1866 91.7663 29.1959C94.337 27.9089 97.0487 27.3605 99.8839 27.7098C102.318 28.0106 104.492 28.9526 106.092 30.9296C107.164 32.2564 107.697 33.7778 107.375 35.4628C107.045 37.1833 105.951 38.3995 104.395 39.1514C102.503 40.0669 100.501 40.2349 98.4288 39.9253C97.2471 39.7529 96.0875 39.5273 94.9411 39.1867C92.8775 38.5764 90.9286 37.7051 89.0458 36.6791C88.1022 36.166 87.1807 35.6176 86.2679 35.0559C85.9417 34.8569 85.6991 34.8304 85.3596 35.0515C82.8816 36.657 80.3683 38.2182 77.7051 39.5052C76.25 40.2084 74.7641 40.8541 73.1855 41.1902C70.6811 41.721 68.1942 41.7342 65.8308 40.5312C65.0989 40.1597 64.4816 39.6379 64.0274 38.9347C63.9701 38.8418 63.9084 38.7577 63.9965 38.6472C64.1861 38.5941 64.2214 38.7799 64.3052 38.8683C65.2576 39.9475 66.5099 40.4163 67.89 40.5622C70.9544 40.8806 73.7543 40.0182 76.4352 38.6074C78.9794 37.2673 81.3824 35.7061 83.7723 34.1183C84.2617 33.7911 84.2529 33.7468 83.7723 33.3842C82.8022 32.6544 82.8111 32.6633 81.8807 33.4549C80.9503 34.2422 79.8612 34.6446 78.6443 34.6977C77.295 34.7552 75.9678 34.6623 74.7508 34.0033C73.6397 33.3974 72.9563 32.4731 73.0797 31.1772C73.1988 29.9345 73.9704 29.1472 75.1697 28.7934C76.1927 28.4882 77.2068 28.5457 78.2386 28.7713C79.8436 29.1207 81.2634 29.877 82.6259 30.7527C82.9389 30.9561 83.0271 30.9075 83.1726 30.5669C83.8208 29.0367 84.0104 27.4578 83.8472 25.8081C83.6091 23.4375 82.6303 21.4473 80.8401 19.8861C79.3938 18.6212 77.6918 17.8959 75.765 18.0684C73.4766 18.2718 71.8892 19.5588 71.6643 22.009C71.5056 23.7515 72.8416 25.4543 74.7993 25.5825C75.668 25.64 76.4749 25.5471 77.1407 24.8837C77.8903 24.1363 78.027 23.2208 77.9079 22.2434C77.855 21.7834 77.6345 22.1107 77.4934 22.2124C76.9334 22.6282 76.444 22.5707 76.0869 22.0444C75.7606 21.5623 75.8355 21.0802 76.2941 20.7441C76.6601 20.4743 77.3171 20.5274 77.586 20.9077C78.1372 21.6773 78.4017 22.5397 78.2783 23.4994C78.0534 25.2774 76.6027 26.3963 74.6803 26.3078C72.6432 26.2106 71.047 24.7201 70.7516 23.0527C70.3989 21.0846 70.9544 19.2802 72.7711 17.8693C73.0048 17.688 73.384 17.6305 73.4633 17.3386C73.5515 17.0379 73.1679 16.9052 73.018 16.6708C72.1846 15.3528 72.6961 13.8933 74.2085 13.5439L74.2173 13.5484ZM100.876 39.1779C102.256 39.1558 103.526 38.9125 104.668 38.227C106.105 37.3646 106.934 36.0776 106.868 34.3925C106.815 32.9994 106.101 31.8539 105.052 30.934C103.411 29.501 101.44 28.9128 99.3239 28.8686C97.3397 28.8288 95.4349 29.3374 93.6138 30.1291C91.493 31.0534 89.5837 32.3448 87.6348 33.5699C87.3262 33.7645 87.3041 33.8884 87.6569 34.1095C90.276 35.7282 92.9921 37.1479 95.9023 38.1607C97.5249 38.7224 99.196 39.1381 100.872 39.1823L100.876 39.1779ZM78.1945 34.2554C78.4855 34.3218 78.9353 34.1316 79.3983 34.0343C80.4124 33.8176 81.2369 33.2824 81.9424 32.5306C82.132 32.3271 82.1276 32.2033 81.8763 32.0397C81.1796 31.5974 80.4874 31.1374 79.7422 30.7836C78.4062 30.1423 77.026 29.7222 75.5225 30.0096C74.9052 30.1291 74.451 30.4475 74.1732 31.0578C73.7279 32.0441 74.3937 33.0702 75.1256 33.4815C76.0207 33.9812 76.9775 34.2156 78.1945 34.2554Z" fill="#F4F4F4"/>
<path d="M51.8933 38.6134C52.0608 38.8655 51.858 38.9805 51.7698 39.1087C51.0996 40.0861 50.1163 40.6213 49.0449 41.0105C47.4575 41.5854 45.7952 41.6429 44.1505 41.4528C42.4397 41.2537 40.8083 40.7009 39.2298 39.9933C36.1873 38.6267 33.361 36.8841 30.5699 35.0796C30.2348 34.8629 29.9923 34.8585 29.6616 35.0664C27.4834 36.4286 25.2346 37.6581 22.8316 38.578C20.4682 39.4847 18.0475 40.1127 15.5033 40.0729C13.6911 40.0463 11.9494 39.6748 10.4679 38.5028C8.29849 36.7868 7.82669 34.0536 9.30381 31.7007C10.4679 29.8476 12.1566 28.7596 14.2202 28.1183C16.0324 27.5566 17.8755 27.5301 19.7054 27.7601C21.6102 28.0033 23.3783 28.764 25.0759 29.6751C26.7029 30.5508 28.2682 31.5371 29.7983 32.572C30.1378 32.802 30.3759 32.7887 30.6845 32.5454C31.0593 32.2535 31.4517 31.9838 31.8574 31.7317C32.1616 31.5459 32.2234 31.3425 32.0514 31.0329C30.927 28.9896 30.6096 26.7694 31.0196 24.5227C31.681 20.9182 33.7578 18.4105 37.25 17.1633C38.0525 16.8758 38.9035 16.867 39.7456 16.8272C40.4423 16.7962 41.1654 16.7918 41.8092 16.4822C42.8366 15.9913 42.9997 14.7087 42.1531 13.9392C42.012 13.8109 41.8621 13.6915 41.6946 13.55C42.7219 13.4571 43.4936 14.9785 43.251 15.7967C43.1144 16.2567 42.9556 16.7078 42.5852 17.035C42.3427 17.2518 42.3692 17.4066 42.6426 17.5613C43.9433 18.2911 44.7987 19.4145 45.1118 20.843C45.5792 22.9836 44.9795 25.018 42.6117 25.9999C41.3286 26.5306 39.9926 26.5262 38.8109 25.6195C37.3338 24.4829 37.2808 22.4086 38.2862 20.9536C38.5816 20.529 39.2694 20.4626 39.6575 20.7766C40.1028 21.1437 40.1557 21.6081 39.803 22.0858C39.4502 22.5634 38.974 22.6165 38.4714 22.2494C38.3567 22.1654 38.2729 21.9487 38.0877 22.0592C37.9555 22.1388 38.004 22.3157 37.9952 22.4529C37.907 23.9654 38.4052 24.9959 39.6663 25.4293C41.43 26.0308 43.3657 25.217 44.0491 23.3595C44.8781 21.1084 43.1276 18.6803 41.0376 18.2203C38.7844 17.7294 36.8796 18.4061 35.2129 19.7948C32.7613 21.8337 31.8221 24.5536 32.0558 27.7114C32.1308 28.7242 32.3733 29.684 32.7701 30.6171C32.8936 30.9135 32.973 30.9665 33.2463 30.7852C34.3972 30.0289 35.6009 29.3832 36.9193 28.9719C38.3214 28.5296 39.7501 28.3572 41.1478 28.9321C42.1619 29.3523 42.7969 30.1572 42.8542 31.285C42.9159 32.4747 42.3163 33.3769 41.3198 33.9386C39.2827 35.0841 35.6053 35.1769 33.7402 33.1867C33.3257 32.7445 33.0082 32.7489 32.5408 33.1071C31.5928 33.8413 31.5223 33.6998 32.5408 34.3853C35.2173 36.1765 37.9334 37.9058 40.8568 39.2812C43.2202 40.3913 45.6982 40.8159 48.2909 40.5638C49.5255 40.4444 50.5573 39.8694 51.8977 38.6134H51.8933ZM14.9345 39.1839C16.7026 39.1353 18.3693 38.724 19.9964 38.1623C22.8933 37.1583 25.5962 35.7519 28.1933 34.1332C28.6298 33.8634 28.6254 33.8059 28.1756 33.5229C27.3731 33.0143 26.5751 32.5012 25.7726 31.997C23.709 30.7056 21.5484 29.6132 19.1542 29.1179C17.4346 28.764 15.7105 28.7463 13.9953 29.2682C12.311 29.7813 10.8603 30.6083 9.85497 32.0811C8.44399 34.1509 8.90256 36.5126 10.8471 37.9588C12.0684 38.8655 13.4838 39.1353 14.9345 39.1839ZM37.8629 34.257C39.0269 34.204 40.1028 33.9696 41.0332 33.3062C41.6108 32.8904 41.9415 32.3022 41.8709 31.5813C41.8004 30.8339 41.3683 30.2766 40.6496 30.0687C39.7721 29.8166 38.8594 29.8609 37.9863 30.0953C36.5665 30.4756 35.3055 31.2009 34.0797 32.0059C33.7402 32.2314 33.8019 32.373 34.0268 32.6074C35.085 33.713 36.4034 34.1818 37.8585 34.257H37.8629Z" fill="#F4F4F4"/>
<path d="M62.5459 78.4392C61.8007 78.1163 61.3863 77.5016 61.1834 76.7984C60.6543 74.9807 61.2672 73.2381 63.1059 72.4553C64.486 71.8671 65.9279 71.9821 67.3256 72.5084C68.5382 72.9639 69.6052 73.6848 70.6149 74.4897C70.906 74.7197 71.122 74.7551 71.4483 74.534C72.63 73.729 73.8822 73.0037 75.2888 72.7339C76.9599 72.4155 78.6399 72.3668 79.923 73.8263C80.1346 74.0696 80.3948 74.0298 80.6505 74.0298C89.2134 74.0298 97.7807 74.0209 106.344 74.0209C108.707 74.0209 111.066 74.043 113.429 74.0607C113.65 74.0607 113.883 74.0342 114.166 74.2155C109.307 74.2288 104.536 74.4543 99.7605 74.5163C93.6668 74.5959 87.5731 74.7949 81.4795 74.9408C81.4618 74.9408 81.4442 74.9408 81.4266 74.9408C80.5712 74.9541 80.5491 74.9541 80.5447 75.8077C80.5359 77.3954 79.0499 78.5453 77.6919 78.7178C75.5975 78.9788 73.847 78.1385 72.1758 77.0239C71.7349 76.732 71.3116 76.4136 70.8927 76.0908C70.6987 75.9448 70.5356 75.874 70.3372 76.0642C70.2887 76.1129 70.2137 76.1306 70.152 76.1659C69.0541 76.847 69.0188 76.8559 69.3495 78.0898C69.8962 80.1464 68.569 82.8 66.5628 83.6491C64.8079 84.3922 63.0662 84.3081 61.3775 83.4457C60.9982 83.2511 60.7954 83.2732 60.5661 83.6359C59.9797 84.5602 59.1022 85.2059 58.2689 85.8826C58.0176 86.086 57.8103 86.002 57.5722 85.8118C56.7124 85.1307 55.8658 84.4408 55.2573 83.5076C55.1074 83.2776 54.9399 83.2246 54.6841 83.3794C53.4672 84.1091 52.1135 84.2727 50.7598 84.0737C48.952 83.8039 47.6204 82.7734 46.8885 81.0751C46.3505 79.8323 46.2447 78.5586 46.8267 77.2849C46.937 77.0461 46.8532 76.8736 46.6504 76.7453C46.2668 76.4976 45.8743 76.2588 45.4951 76.0023C45.2394 75.8298 45.0983 76.0421 44.944 76.1615C43.9475 76.9222 42.9113 77.6122 41.7737 78.1473C40.5744 78.709 39.3089 78.9168 38.0214 78.6824C36.6368 78.4304 35.27 77.307 35.3934 75.5423C35.4287 75.0514 35.2611 74.9497 34.8114 74.9408C26.4822 74.7197 18.1486 74.5605 9.81504 74.4013C7.12536 74.3482 4.43569 74.2553 1.69751 74.1801C1.99293 74.0563 2.25308 74.0652 2.51323 74.0563C8.01163 73.959 13.51 74.0475 19.0084 74.0298C24.4187 74.0165 29.8289 74.0253 35.2391 74.0298C35.6183 74.0298 35.8873 73.9369 36.1606 73.6494C36.7603 73.0214 37.5187 72.6985 38.3962 72.6012C40.6184 72.3536 42.488 73.2425 44.2649 74.3969C44.7191 74.6932 45.0057 74.7286 45.451 74.3703C46.6195 73.4283 47.8806 72.5835 49.3621 72.2563C51.1082 71.8715 52.9689 72.0086 54.1682 73.4592C55.2397 74.7507 55.1427 76.8868 53.939 78.0544C53.7802 78.2092 53.6259 78.3906 53.3481 78.4038C53.282 78.1783 53.4583 78.0898 53.573 77.9748C54.4152 77.1345 54.5474 76.0952 54.2432 75.0337C53.8816 73.7865 52.9425 73.1895 51.6638 73.0435C49.6884 72.8224 48.1231 73.7158 46.6371 74.8347C45.8655 75.4141 45.892 75.4141 46.6239 76.0288C47.0119 76.3517 47.2545 76.4401 47.6381 75.9713C48.5243 74.8966 49.7148 74.5118 51.0905 74.733C51.7872 74.8435 52.3913 75.4229 52.5633 76.1527C52.6955 76.7144 52.3869 77.3866 51.8004 77.7802C50.7863 78.4569 49.7237 78.3331 48.6742 77.9041C47.5675 77.4529 47.3691 77.5281 47.3647 78.7842C47.3515 80.509 48.1143 81.8624 49.6487 82.6761C51.1435 83.4678 52.6779 83.4059 54.2079 82.7071C54.543 82.5567 54.5915 82.4064 54.446 82.057C53.8023 80.5356 54.2476 78.9345 55.4954 78.1163C56.2803 77.6033 57.0696 77.7183 57.3253 78.4259C57.4576 78.7842 57.5105 79.1734 57.462 79.5714C57.3209 80.7744 56.7212 81.7297 55.8438 82.5169C55.5219 82.8044 55.5043 82.9946 55.7512 83.3484C56.2759 84.0914 56.8932 84.7371 57.5987 85.3032C57.8412 85.4978 58.0352 85.5288 58.2953 85.3209C59.0802 84.7062 59.7416 83.9808 60.2972 83.1538C60.4824 82.8752 60.3016 82.7425 60.1296 82.5833C59.2566 81.7695 58.6172 80.8275 58.4629 79.6024C58.4144 79.2043 58.4717 78.8196 58.582 78.4525C58.7363 77.9439 59.3183 77.6785 59.821 77.8377C61.2275 78.28 62.1138 80.0004 61.6641 81.4245C61.62 81.5572 61.5979 81.6987 61.5626 81.8358C61.3642 82.601 61.351 82.6363 62.0653 82.8796C63.8114 83.4767 65.4825 83.3926 66.9993 82.2073C68.278 81.2034 68.8645 79.3016 68.3662 77.7802C68.2383 77.391 68.0267 77.5237 67.793 77.6475C67.017 78.0588 66.2101 78.3375 65.3194 78.2269C64.5698 78.1385 63.9128 77.8421 63.5336 77.1522C62.978 76.135 63.7144 74.8878 64.9005 74.7241C66.3159 74.5295 67.4667 74.9806 68.3706 76.0642C68.6352 76.3826 68.8204 76.3959 69.1467 76.1438C70.0902 75.4097 70.1035 75.4229 69.1467 74.7197C68.2207 74.043 67.2551 73.3929 66.1263 73.1541C64.5345 72.8224 62.8898 72.9506 62.0256 74.2907C61.2628 75.4716 61.4039 76.9664 62.3695 77.9881C62.471 78.0942 62.6429 78.1694 62.5547 78.4259L62.5459 78.4392ZM77.3921 78.1163C77.7183 78.0854 78.2386 78.0456 78.7192 77.7802C79.9935 77.077 80.3375 75.4097 79.363 74.472C78.7898 73.9192 78.0711 73.6229 77.2774 73.561C75.3285 73.415 73.6574 74.2465 71.9995 75.1045C71.7173 75.2504 71.7481 75.3743 71.9995 75.5512C72.4889 75.8962 72.9475 76.2853 73.4369 76.6259C74.5745 77.4131 75.7518 78.1075 77.3965 78.1163H77.3921ZM38.9517 73.53C38.6387 73.4725 38.1096 73.6096 37.6025 73.8131C36.725 74.1669 36.0284 74.7153 35.9975 75.7635C35.9666 76.7586 36.4957 77.4264 37.3556 77.8421C38.2507 78.2756 39.1766 78.1738 40.0761 77.8908C41.3724 77.4839 42.4527 76.6878 43.5021 75.8563C44.2341 75.2814 44.2341 75.2504 43.3787 74.8259C42.0559 74.1669 40.7066 73.5787 38.9429 73.5256L38.9517 73.53ZM50.2263 77.7891C50.7775 77.851 51.2669 77.652 51.6726 77.2451C51.9812 76.9355 52.1356 76.5507 51.9724 76.135C51.8093 75.7192 51.4433 75.4848 50.998 75.4229C49.8339 75.2637 48.9079 75.7015 48.1628 76.5905C47.9423 76.8559 47.9952 77.0284 48.2642 77.1787C48.8683 77.506 49.4723 77.8333 50.2219 77.7935L50.2263 77.7891ZM65.6677 77.7891C66.4261 77.8244 67.0346 77.5104 67.6387 77.1832C67.8988 77.0416 67.987 76.8736 67.7577 76.5994C67.0037 75.6883 66.0601 75.2549 64.8784 75.4273C64.4551 75.4893 64.1068 75.7281 63.9481 76.1217C63.7893 76.5109 63.9128 76.8868 64.1994 77.1964C64.6051 77.6387 65.1077 77.8466 65.6721 77.7891H65.6677ZM54.7635 80.8717C54.7944 81.1238 54.7459 81.4466 54.8693 81.7474C54.9928 82.057 55.1603 82.1675 55.4469 81.8801C55.835 81.4864 56.1612 81.053 56.4082 80.5621C56.6463 80.0889 56.8403 79.5891 56.783 79.0451C56.7256 78.5055 56.4567 78.3773 55.9893 78.6028C55.0633 79.0495 54.737 79.8279 54.7635 80.8717ZM61.1482 80.9026C61.179 79.9296 60.9189 79.1645 60.0855 78.6913C59.8607 78.563 59.6137 78.3552 59.358 78.5542C59.1067 78.7532 59.0758 79.0672 59.1243 79.3812C59.2786 80.3808 59.7901 81.1857 60.4824 81.8933C60.7425 82.1631 60.9057 82.057 61.0335 81.7739C61.1658 81.4732 61.1173 81.1459 61.1482 80.9026Z" fill="#F4F4F4"/>
<path d="M57.8984 7.0386C61.5978 7.0386 65.3016 7.0386 69.001 7.0386C69.7285 7.0386 69.7329 7.0386 69.7329 7.77719C69.7329 14.4776 69.7329 21.1735 69.7418 27.8739C69.7418 28.325 69.5963 28.5904 69.2215 28.8071C65.5838 30.9123 61.9461 33.0219 58.3172 35.1448C57.991 35.335 57.7396 35.2952 57.4442 35.1227C53.8286 33.0175 50.2085 30.9123 46.5841 28.816C46.2578 28.6302 46.1167 28.4135 46.1167 28.0199C46.1299 21.2133 46.1299 14.4112 46.1167 7.60471C46.1167 7.16244 46.2578 7.03418 46.6899 7.03418C50.4246 7.04745 54.1637 7.04302 57.8984 7.04302V7.0386ZM57.916 8.12216C54.5693 8.12216 51.2227 8.12216 47.8716 8.12216C47.1308 8.12216 47.1264 8.13101 47.1264 8.85191C47.1264 15.0393 47.1264 21.2222 47.1176 27.4095C47.1176 27.7368 47.2146 27.9447 47.488 28.1039C50.8347 30.0455 54.1813 31.987 57.528 33.9286C57.797 34.0834 58.0351 34.0746 58.3172 33.9109C61.5801 32.0003 64.8518 30.0985 68.1235 28.2101C68.4675 28.011 68.6262 27.7987 68.6262 27.3786C68.613 21.1735 68.613 14.9729 68.6262 8.76788C68.6262 8.246 68.4631 8.1089 67.9604 8.11332C64.6137 8.13543 61.2671 8.12216 57.916 8.12216Z" fill="#F4F4F4"/>
<path d="M28.0608 55.132C27.8756 55.3575 27.9153 55.5035 27.9153 55.6406C27.9153 58.5551 27.9065 61.4741 27.9462 64.3887C27.955 64.999 27.6463 64.9813 27.2274 64.9769C26.8262 64.9769 26.5396 64.9857 26.544 64.4064C26.5705 60.2358 26.5616 56.0652 26.5484 51.8946C26.5484 51.5054 26.6542 51.3506 27.0511 51.3594C28.7619 51.3992 28.3254 51.1162 28.7971 52.673C29.7275 55.7467 30.6006 58.8382 31.5045 61.9208C31.553 62.0933 31.553 62.3144 31.8087 62.425C32.0689 61.5405 32.3246 60.6648 32.5803 59.7935C33.2417 57.507 33.9031 55.2204 34.5689 52.9295C34.6748 52.558 34.8203 52.1909 34.8864 51.8105C34.9525 51.4479 35.1421 51.3683 35.4684 51.3594C36.9015 51.3196 36.9015 51.3152 36.9015 52.757C36.9015 56.6268 36.8838 60.4967 36.9191 64.3666C36.9235 65.0211 36.5796 64.9592 36.1563 64.9725C35.7109 64.9857 35.4508 64.9415 35.4596 64.3577C35.4993 61.5847 35.4861 58.8072 35.4905 56.0342C35.4905 55.844 35.5346 55.645 35.3891 55.4814C35.2127 55.4814 35.1995 55.6229 35.1686 55.7335C34.4631 58.1748 33.7576 60.6161 33.0521 63.0575C32.9022 63.5838 32.7347 64.1012 32.6024 64.6319C32.5451 64.8619 32.4304 64.9415 32.2055 64.9681C31.0459 65.0919 30.9842 65.0609 30.6667 63.9597C29.8863 61.2618 29.1058 58.5684 28.3209 55.875C28.2548 55.645 28.1622 55.4239 28.0608 55.132Z" fill="#F4F4F4"/>
<path d="M94.9366 61.4684C95.254 60.8581 95.2584 60.2655 95.3819 59.7082C95.9551 57.1076 96.4931 54.4983 97.0486 51.8889C97.0883 51.6943 97.0486 51.4068 97.3308 51.3847C97.71 51.3537 98.1245 51.2564 98.4684 51.451C98.6757 51.5704 98.539 51.8491 98.4993 52.0437C98.1598 53.6845 97.7982 55.3253 97.4499 56.9617C96.9428 59.3455 96.4445 61.7294 95.9287 64.1088C95.8669 64.3874 95.9331 64.7987 95.62 64.9049C95.1923 65.0508 94.7117 65.0022 94.2619 64.9226C94.0503 64.8872 94.0723 64.6528 94.0415 64.4847C93.4242 61.4242 92.8025 58.3593 92.1807 55.2988C92.1675 55.2368 92.1278 55.1794 92.0926 55.0953C91.8192 55.2368 91.8368 55.4889 91.7971 55.6968C91.2151 58.6246 90.6375 61.5525 90.0687 64.4803C90.007 64.812 89.8791 64.9624 89.5219 64.9712C88.4108 65.0022 88.3976 65.0199 88.1639 63.9274C87.454 60.6325 86.7529 57.3332 86.0474 54.0383C85.8931 53.313 85.7388 52.5876 85.5536 51.8712C85.4521 51.482 85.5712 51.367 85.9504 51.3537C86.9381 51.3228 86.9513 51.3095 87.1541 52.309C87.7538 55.2324 88.3402 58.1558 88.9355 61.0792C88.9664 61.2252 88.9399 61.4684 89.1295 61.4507C89.3323 61.433 89.3103 61.1765 89.3456 61.0129C89.9541 58.001 90.5493 54.9892 91.1622 51.9773C91.2063 51.7562 91.1534 51.4024 91.4753 51.3758C91.9074 51.336 92.3571 51.2653 92.776 51.4377C92.9171 51.4952 92.8818 51.6854 92.9127 51.8181C93.5388 54.9494 94.1649 58.0851 94.7955 61.2163C94.8043 61.265 94.844 61.3048 94.9233 61.4552L94.9366 61.4684Z" fill="#F4F4F4"/>
<path d="M75.4609 58.1171C75.4829 56.4188 75.5402 54.7293 76.2678 53.1415C77.0306 51.483 78.3931 50.9921 80.0774 51.1292C81.4796 51.2442 82.3438 52.0801 82.8773 53.314C83.8165 55.4811 83.7371 57.7633 83.5784 60.0409C83.4858 61.3899 83.1948 62.699 82.4055 63.84C81.8147 64.6892 81.0078 65.1359 79.9716 65.2155C77.2775 65.4189 76.3736 63.7737 75.8489 61.9029C75.505 60.669 75.4432 59.3952 75.4565 58.1215L75.4609 58.1171ZM82.2203 58.1701C82.1895 57.551 82.1895 56.9318 82.1233 56.317C82.0131 55.2954 81.8323 54.2826 81.2503 53.4025C80.3199 51.9961 78.909 51.943 77.9169 53.3671C77.5597 53.8801 77.3525 54.4595 77.2158 55.0654C76.8233 56.8301 76.8542 58.608 77.0526 60.3903C77.154 61.3058 77.401 62.1904 77.9257 62.9732C78.7943 64.2646 80.1524 64.3221 81.1048 63.097C81.3649 62.7609 81.5545 62.385 81.6956 61.9825C82.1366 60.7486 82.1939 59.4616 82.2159 58.1701H82.2203Z" fill="#F4F4F4"/>
<path d="M9.01688 58.1691C9.01688 56.086 9.02569 54.0029 9.00806 51.9154C9.00806 51.4997 9.11829 51.3316 9.54158 51.3582C10.5381 51.4245 11.539 51.2786 12.5399 51.4687C13.7922 51.7076 14.6387 52.3887 14.9474 53.6182C15.2649 54.8698 15.2693 56.1391 14.8151 57.373C14.577 58.0187 14.1625 58.545 13.532 58.8591C13.1925 59.0271 13.1308 59.204 13.3027 59.5711C14.0479 61.15 14.7578 62.7422 15.4765 64.3344C15.7102 64.8474 15.6352 64.9093 15.0841 64.9757C14.3962 65.0553 14.0082 64.8385 13.7392 64.1574C13.1572 62.6847 12.4782 61.2473 11.83 59.7967C11.6448 59.3854 11.0452 59.1819 10.6395 59.3721C10.4014 59.4827 10.4631 59.6949 10.4631 59.8807C10.4631 61.38 10.4279 62.8837 10.4764 64.383C10.4984 65.0641 10.1016 64.9535 9.70032 64.9712C9.25939 64.9933 8.98601 64.958 8.99924 64.3653C9.03892 62.2999 9.01247 60.2345 9.01247 58.1647L9.01688 58.1691ZM10.4587 55.3519C10.4587 56.1258 10.4587 56.9042 10.4587 57.6782C10.4587 57.8905 10.4323 58.1249 10.7321 58.1559C11.8344 58.2708 13.0117 57.9347 13.4659 56.6831C13.6643 56.1435 13.7084 55.5863 13.6775 55.0202C13.5849 53.3174 12.6457 52.4771 10.9393 52.5302C10.5822 52.5434 10.4411 52.654 10.4499 53.0255C10.4719 53.7995 10.4587 54.5779 10.4587 55.3519Z" fill="#F4F4F4"/>
<path d="M54.1421 58.1352C54.1421 56.0521 54.1509 53.969 54.1333 51.8815C54.1333 51.4834 54.2568 51.3375 54.6448 51.3596C55.6589 51.4215 56.6775 51.2755 57.696 51.479C58.8998 51.7222 59.7287 52.368 60.0462 53.5577C60.3901 54.8447 60.3945 56.1449 59.9227 57.4098C59.6802 58.0555 59.2569 58.573 58.622 58.8826C58.3001 59.0418 58.256 59.2231 58.4147 59.5593C59.1555 61.1382 59.8698 62.7303 60.5885 64.3225C60.8266 64.8532 60.7517 64.9151 60.1608 64.9815C59.4818 65.0611 59.1246 64.8267 58.8645 64.1721C58.2869 62.7126 57.6167 61.293 56.9817 59.8556C56.7701 59.3824 56.2321 59.1789 55.7736 59.3647C55.5222 59.4664 55.5884 59.6742 55.5884 59.86C55.5884 61.3593 55.5707 62.863 55.6016 64.3623C55.6104 64.8223 55.4826 65.0301 55.0108 64.9682C54.8873 64.9549 54.7638 64.9549 54.6404 64.9682C54.2435 65.008 54.1333 64.8223 54.1377 64.4375C54.1553 62.3367 54.1465 60.2359 54.1465 58.1307L54.1421 58.1352ZM55.584 55.3489C55.584 56.1405 55.584 56.9366 55.584 57.7283C55.584 57.9361 55.584 58.1307 55.8529 58.1573C56.9464 58.2723 58.1325 57.9494 58.5911 56.6889C58.7895 56.1494 58.838 55.5921 58.8072 55.0216C58.7146 53.3277 57.8239 52.5095 56.1219 52.5272C55.7207 52.5272 55.5575 52.6377 55.5751 53.0712C55.6104 53.8274 55.584 54.5882 55.584 55.3444V55.3489Z" fill="#F4F4F4"/>
<path d="M109.329 58.1787C109.329 56.0956 109.338 54.0081 109.32 51.925C109.32 51.5137 109.43 51.3367 109.849 51.3677C110.846 51.434 111.846 51.2881 112.847 51.4827C114.13 51.7304 114.964 52.438 115.264 53.694C115.55 54.8926 115.559 56.1133 115.145 57.2985C114.902 57.9885 114.483 58.5457 113.817 58.8819C113.509 59.0367 113.421 59.2091 113.584 59.5541C114.325 61.133 115.039 62.7296 115.766 64.3174C116.009 64.8481 115.929 64.9277 115.352 64.9896C114.677 65.0648 114.311 64.8481 114.047 64.1847C113.46 62.7075 112.781 61.2745 112.133 59.8239C111.939 59.3905 111.392 59.2003 110.951 59.3772C110.704 59.4789 110.757 59.6824 110.757 59.8726C110.757 61.3763 110.74 62.8756 110.766 64.3793C110.775 64.8437 110.652 65.0471 110.18 64.9808C110.092 64.9675 110.003 64.9719 109.915 64.9808C109.465 65.0383 109.302 64.8658 109.311 64.3881C109.338 62.3227 109.32 60.2529 109.32 58.1875L109.329 58.1787ZM110.762 55.3083C110.762 56.1 110.762 56.8961 110.762 57.6877C110.762 57.9398 110.779 58.1477 111.101 58.1654C111.78 58.2052 112.437 58.1433 113.006 57.7187C113.901 57.0509 114.029 56.0779 113.989 55.0651C113.923 53.3314 112.958 52.4645 111.238 52.5309C110.876 52.5441 110.74 52.668 110.753 53.0351C110.775 53.7913 110.762 54.552 110.757 55.3083H110.762Z" fill="#F4F4F4"/>
<path d="M57.8631 4.4648C55.2748 4.4648 52.6822 4.45153 50.0939 4.47806C49.6045 4.48249 49.3179 4.30558 49.0665 3.91196C48.4051 2.8682 47.7129 1.84656 47.1441 0.749731C47.0735 0.612627 46.8751 0.444565 47.0603 0.285348C47.197 0.161512 47.4042 0.210162 47.5674 0.280925C47.9378 0.444565 48.167 0.630318 48.2773 1.13008C48.4713 2.02347 49.1988 2.594 49.9793 3.04511C50.16 3.14683 50.3673 3.25298 50.5657 3.26182C50.8699 3.27509 51.064 3.05838 51.0816 2.76648C51.1257 2.08539 51.0816 1.42198 50.4511 0.966443C50.2306 0.811649 50.0057 0.61705 50.2659 0.320729C50.4819 0.0730583 50.7156 -0.134808 51.0772 0.10844C51.4652 0.364956 51.8224 0.541864 51.5358 1.17431C51.258 1.78907 52.2236 3.14241 52.907 3.26625C53.251 3.32816 53.7448 2.95223 53.8639 2.4967C54.0094 1.93501 54.3224 1.36449 53.7139 0.838185C53.5111 0.661277 53.9785 0.00671789 54.3004 0.019986C54.609 0.0332541 54.7678 0.307461 54.953 0.515328C55.0985 0.674545 54.9926 0.82934 54.8912 0.988557C54.4503 1.71388 55.2087 3.20433 56.0465 3.27067C56.5183 3.31047 57.2061 2.6736 57.3604 1.98809C57.4442 1.62985 57.603 1.23181 57.2326 0.900103C57.0738 0.754154 57.14 0.563978 57.2899 0.43572C57.4971 0.263234 57.6647 -0.0330864 57.9866 0.0376768C58.4892 0.152667 58.67 0.634741 58.4143 1.08586C58.1233 1.60331 58.5598 2.68687 59.2168 3.08049C59.7415 3.3945 60.3059 3.24856 60.663 2.60284C60.9496 2.07212 61.3597 1.53697 60.8614 0.851453C60.6101 0.506483 61.0554 0.316307 61.2759 0.10844C61.5184 -0.12154 61.686 0.0907491 61.8623 0.232275C62.1225 0.440142 62.171 0.6657 61.9902 0.970866C61.5801 1.66081 61.7918 2.65149 62.4047 3.10261C62.6472 3.27951 62.8544 3.30605 63.1322 3.1601C63.8598 2.77975 64.1067 2.08096 64.358 1.38218C64.4109 1.23623 64.3007 1.11681 64.2345 0.992979C63.9744 0.497637 64.3977 0.351688 64.6843 0.139399C64.9797 -0.0817361 65.2266 -0.0330864 65.4603 0.245544C65.694 0.524173 65.6632 0.78069 65.3766 0.962021C64.8474 1.29372 64.7989 1.85983 64.649 2.37286C64.552 2.70014 64.7284 2.96108 64.9533 3.17337C65.1826 3.38566 65.403 3.23529 65.6367 3.13799C66.4833 2.79744 67.0036 2.11634 67.5018 1.39987C67.5856 1.27603 67.6297 1.14777 67.5856 0.997402C67.5063 0.718772 67.6562 0.559555 67.881 0.45341C68.1588 0.320729 68.4939 0.0553675 68.7497 0.325152C68.9657 0.546287 68.6262 0.802803 68.5116 1.01509C67.9207 2.12077 67.2152 3.15568 66.5362 4.20828C66.3378 4.51345 66.0688 4.47806 65.7954 4.47806C63.1543 4.47806 60.5087 4.47806 57.8675 4.47806L57.8631 4.4648Z" fill="#F4F4F4"/>
<path d="M28.6648 29.1834C28.0916 27.5824 27.7785 25.9814 27.924 24.3229C28.1269 21.9877 28.9867 20.024 31.2001 18.8918C31.3721 18.8034 31.5264 18.6751 31.7293 18.7945C31.7469 19.0024 31.5617 19.0554 31.4559 19.1572C30.2742 20.3115 29.5731 21.7002 29.2645 23.3366C28.7486 26.0964 29.4497 28.635 30.5167 31.1294C30.574 31.2621 30.7769 31.4125 30.6225 31.5451C30.4638 31.6822 30.3447 31.4611 30.2345 31.3727C28.2415 29.7672 26.1691 28.2812 23.9027 27.0871C22.2404 26.2114 20.5076 25.5259 18.6865 25.0349C16.8346 24.5352 14.9651 24.3892 13.0955 24.6457C11.5302 24.8624 10.0443 25.433 8.71269 26.3396C8.479 26.4988 8.26294 26.72 7.94547 26.7509C7.88815 26.5254 8.0513 26.4369 8.15712 26.3352C10.2074 24.3406 12.5929 23.1995 15.5162 23.1951C18.9643 23.1951 22.0067 24.3759 24.864 26.1671C26.1206 26.9544 27.2935 27.8566 28.3385 28.9136C28.4355 29.0109 28.5546 29.0861 28.6604 29.1746L28.6648 29.1834Z" fill="#F4F4F4"/>
<path d="M107.949 26.7641C107.442 26.6137 107.054 26.2466 106.608 25.9945C104.642 24.8711 102.534 24.4289 100.285 24.5616C96.8328 24.7606 93.7507 26.0564 90.8141 27.7636C88.9975 28.8162 87.3131 30.059 85.6773 31.3769C85.5671 31.4654 85.448 31.6821 85.2893 31.5538C85.1261 31.4212 85.329 31.2708 85.3907 31.1381C86.2858 29.1789 86.859 27.1356 86.8193 24.9729C86.7752 22.6686 86.0829 20.6077 84.2884 19.0332C84.2222 18.9757 84.1605 18.9093 84.1825 18.7988C84.4559 18.6484 84.6367 18.8695 84.8395 18.9801C86.4842 19.8381 87.3528 21.2534 87.7761 23.0225C88.1333 24.5041 88.0495 25.9636 87.732 27.423C87.6042 28.0024 87.3705 28.5553 87.1324 29.2717C87.3616 29.0816 87.5071 28.9798 87.6306 28.856C89.9058 26.6579 92.5338 25.0348 95.5144 23.9999C97.481 23.3144 99.5225 23.0313 101.59 23.2569C104.06 23.5222 106.119 24.6854 107.847 26.4545C107.918 26.5252 108.002 26.6048 107.94 26.7685L107.949 26.7641Z" fill="#F4F4F4"/>
<path d="M0.132124 58.1438C0.132124 56.0607 0.140943 53.9732 0.123306 51.8901C0.123306 51.5009 0.233538 51.3373 0.630376 51.3594C1.66215 51.4169 2.70275 51.2709 3.73453 51.4788C5.12346 51.7619 5.9965 52.6906 6.16405 54.1103C6.30074 55.2602 6.33602 56.4013 5.948 57.5158C5.59966 58.5109 4.89858 59.1124 3.89767 59.391C3.33328 59.5458 2.76007 59.6254 2.17804 59.5723C1.72829 59.5325 1.55633 59.6785 1.56515 60.1606C1.59601 61.5714 1.55633 62.9867 1.5872 64.4019C1.59601 64.8619 1.42846 65.0123 1.00517 64.968C0.881706 64.9548 0.758246 64.9548 0.634785 64.968C0.251176 65.0034 0.118896 64.853 0.118896 64.4506C0.136534 62.3498 0.127715 60.2446 0.127715 58.1438H0.132124ZM1.57838 55.4637C1.57838 56.2907 1.57838 57.1222 1.57838 57.9492C1.57838 58.1261 1.56074 58.2942 1.78561 58.3782C2.64102 58.6922 4.19309 57.9581 4.5282 57.0735C4.78394 56.4013 4.83685 55.7069 4.78835 54.9904C4.66489 53.3142 3.73012 52.4739 2.0634 52.527C1.70625 52.5402 1.56515 52.6508 1.57397 53.0267C1.59601 53.8361 1.58279 54.6499 1.58279 55.4592L1.57838 55.4637Z" fill="#F4F4F4"/>
<path d="M100.907 58.1869C100.907 56.1038 100.92 54.0207 100.898 51.9332C100.894 51.4909 101.026 51.3494 101.463 51.3538C102.887 51.3715 104.315 51.376 105.74 51.3538C106.189 51.345 106.304 51.5175 106.3 51.9465C106.295 52.3666 106.194 52.5568 105.735 52.5435C104.787 52.517 103.835 52.548 102.882 52.5303C102.472 52.5214 102.327 52.6585 102.336 53.0831C102.362 54.2994 102.358 55.52 102.336 56.7363C102.331 57.1122 102.472 57.2404 102.825 57.236C103.707 57.2228 104.584 57.2537 105.466 57.2228C105.934 57.2051 106.061 57.3643 106.066 57.8287C106.075 58.324 105.876 58.4213 105.44 58.408C104.58 58.3815 103.716 58.408 102.851 58.3948C102.472 58.3903 102.322 58.5142 102.331 58.9167C102.353 60.3629 102.353 61.8135 102.331 63.2597C102.322 63.6932 102.494 63.8082 102.887 63.7993C103.821 63.7816 104.752 63.8037 105.687 63.786C106.088 63.7772 106.308 63.8524 106.291 64.3345C106.277 64.759 106.22 64.9846 105.717 64.9713C104.293 64.9448 102.865 64.9492 101.44 64.9713C100.991 64.9802 100.88 64.8077 100.885 64.3831C100.907 62.3177 100.894 60.2523 100.894 58.1825L100.907 58.1869Z" fill="#F4F4F4"/>
<path d="M45.729 58.1558C45.729 56.086 45.7422 54.0206 45.7157 51.9507C45.7113 51.4687 45.8701 51.3493 46.3198 51.3537C47.7132 51.3758 49.1021 51.3758 50.4954 51.3537C50.9231 51.3493 51.1171 51.4333 51.1215 51.933C51.126 52.4638 50.9099 52.5522 50.4601 52.539C49.5607 52.5168 48.6612 52.5478 47.7661 52.5257C47.3207 52.5124 47.1399 52.6407 47.1532 53.1228C47.184 54.3257 47.1752 55.5287 47.1532 56.7273C47.1488 57.0988 47.2766 57.2359 47.6382 57.2314C48.5377 57.2182 49.4372 57.2447 50.3323 57.2226C50.7556 57.2093 50.8879 57.3641 50.8702 57.7799C50.857 58.1558 50.8526 58.4256 50.3499 58.4079C49.4857 58.3769 48.6215 58.4167 47.7617 58.3946C47.3207 58.3813 47.1355 58.5052 47.1488 58.9917C47.1796 60.4069 47.1752 61.8178 47.1488 63.233C47.1399 63.6886 47.3075 63.8168 47.7308 63.808C48.6832 63.7859 49.6356 63.8213 50.5836 63.7947C51.0863 63.777 51.0907 64.0468 51.1039 64.4227C51.1215 64.8385 50.9849 64.9844 50.5704 64.98C49.1241 64.9623 47.6823 64.9623 46.236 64.98C45.8083 64.9844 45.7025 64.8252 45.7069 64.4183C45.7246 62.3308 45.7157 60.2477 45.7157 58.1602L45.729 58.1558Z" fill="#F4F4F4"/>
<path d="M18.1354 58.1468C18.1354 56.0637 18.1442 53.9762 18.1266 51.8931C18.1266 51.5039 18.2412 51.358 18.6337 51.3624C20.0975 51.3757 21.557 51.3801 23.0209 51.3624C23.4839 51.358 23.5236 51.5835 23.5192 51.955C23.5192 52.3265 23.4751 52.5609 23.0165 52.5477C22.0465 52.5256 21.0764 52.5521 20.1108 52.5344C19.7007 52.5256 19.5552 52.6671 19.564 53.0873C19.5905 54.2902 19.5905 55.4888 19.564 56.6918C19.5552 57.1208 19.7139 57.249 20.1152 57.2402C21.0147 57.2225 21.9142 57.249 22.8093 57.2269C23.2458 57.2181 23.2899 57.4436 23.2855 57.793C23.2811 58.138 23.2943 58.421 22.8093 58.4078C21.9098 58.3812 21.0103 58.4122 20.1152 58.3945C19.7095 58.3856 19.5596 58.5183 19.564 58.9473C19.5861 60.3803 19.5905 61.8088 19.564 63.2418C19.5552 63.7062 19.736 63.8167 20.1505 63.8079C21.1029 63.7902 22.0553 63.8211 23.0033 63.7946C23.453 63.7813 23.5236 63.9936 23.5148 64.3784C23.5103 64.7366 23.4971 64.9887 23.0253 64.9799C21.5614 64.9578 20.102 64.9622 18.6381 64.9799C18.2545 64.9799 18.1178 64.8605 18.1222 64.458C18.1398 62.3572 18.131 60.252 18.131 58.1512L18.1354 58.1468Z" fill="#F4F4F4"/>
<path d="M70.937 58.7395C70.937 60.628 70.9237 62.5165 70.9458 64.405C70.9502 64.8605 70.7915 65.0153 70.3682 64.9667C70.2447 64.9534 70.1212 64.9534 69.9978 64.9667C69.5921 65.0109 69.4819 64.8163 69.4951 64.4359C69.5172 63.7637 69.5039 63.0959 69.5039 62.4236C69.5039 59.3321 69.4951 56.2451 69.5172 53.1536C69.5172 52.6627 69.3849 52.4902 68.8955 52.5212C68.3707 52.5566 67.8372 52.5123 67.3125 52.5345C66.8231 52.5566 66.8584 52.2426 66.8407 51.9064C66.8231 51.5393 66.9113 51.3492 67.3257 51.3536C69.2614 51.3669 71.1971 51.3669 73.1328 51.3536C73.631 51.3536 73.5781 51.6499 73.5958 51.9816C73.6134 52.3487 73.5208 52.5521 73.1063 52.5345C72.5596 52.5123 72.0128 52.5521 71.4705 52.5212C71.0516 52.4991 70.9237 52.6494 70.9237 53.0652C70.9414 54.9537 70.9325 56.8422 70.9325 58.7351L70.937 58.7395Z" fill="#F4F4F4"/>
<path d="M40.5876 58.1659C40.5876 56.0828 40.6008 53.9953 40.5788 51.9122C40.5788 51.4832 40.7154 51.3594 41.1211 51.3594C42.0074 51.3594 42.0206 51.3505 42.0206 51.9697C42.0206 56.1049 42.0074 60.2402 42.0338 64.3754C42.0338 64.9724 41.7605 64.9901 41.3283 64.9813C40.9006 64.9724 40.5611 65.0211 40.5743 64.371C40.6184 62.3056 40.592 60.2357 40.592 58.1703L40.5876 58.1659Z" fill="#F4F4F4"/>
<path d="M52.5059 5.11133C52.7749 5.2485 53.0836 5.42991 53.0791 5.71752C53.0747 6.0007 52.7793 6.28831 52.4971 6.29716C52.2061 6.30601 51.9195 6.01397 51.9151 5.72637C51.9107 5.42991 52.2193 5.2485 52.5059 5.11133Z" fill="#F4F4F4"/>
<path d="M63.9173 5.73401C63.7321 5.9818 63.5866 6.3225 63.2691 6.2871C62.9913 6.25613 62.6959 5.99949 62.7311 5.67206C62.762 5.39773 63.0133 5.12782 63.2999 5.1411C63.6042 5.15437 63.7806 5.44198 63.9128 5.73401H63.9173Z" fill="#F4F4F4"/>
<path d="M56.8227 5.09375C57.1049 5.27074 57.4267 5.42561 57.3826 5.75746C57.3474 6.02737 57.1005 6.31055 56.8183 6.29285C56.5272 6.27516 56.2362 6.00525 56.2495 5.70436C56.2583 5.40791 56.5625 5.23534 56.8227 5.09375Z" fill="#F4F4F4"/>
<path d="M58.9613 6.34038C58.7188 6.16339 58.3749 6.0041 58.4013 5.70765C58.4278 5.44659 58.6879 5.13243 59.001 5.15013C59.292 5.17225 59.583 5.45101 59.5698 5.73862C59.5566 6.01738 59.2567 6.21207 58.9613 6.33596V6.34038Z" fill="#F4F4F4"/>
<path d="M55.2749 5.68559C55.1426 5.9732 54.9575 6.26966 54.6709 6.28293C54.3754 6.29621 54.1065 6.01303 54.0932 5.71214C54.08 5.42011 54.3534 5.18117 54.6268 5.14578C54.9619 5.10595 55.0897 5.44666 55.2749 5.68559Z" fill="#F4F4F4"/>
<path d="M65.4427 5.09232C65.747 5.24718 66.0512 5.40205 66.038 5.72948C66.0248 6.01266 65.7602 6.27815 65.4912 6.28699C65.187 6.29584 64.9136 6.00381 64.8916 5.72063C64.8651 5.40647 65.209 5.26046 65.4427 5.08789V5.09232Z" fill="#F4F4F4"/>
<path d="M50.3588 5.10547C50.619 5.27361 50.9497 5.44175 50.9188 5.74263C50.8923 6.01254 50.6146 6.32227 50.3147 6.2913C50.0413 6.26475 49.7283 5.99042 49.7547 5.69838C49.7768 5.42847 50.0678 5.22494 50.3588 5.10547Z" fill="#F4F4F4"/>
<path d="M61.1041 5.10696C61.4128 5.23528 61.7126 5.42997 61.7303 5.7043C61.7479 5.99634 61.4393 6.26625 61.1615 6.29279C60.8528 6.32819 60.5838 6.01846 60.5574 5.74413C60.5265 5.43882 60.866 5.27953 61.1041 5.10254V5.10696Z" fill="#F4F4F4"/>
<path d="M57.9292 8.79888C61.0466 8.79888 64.164 8.80773 67.2814 8.79004C67.7796 8.79004 67.9163 8.96252 67.9163 9.43133C67.9075 15.2958 67.9075 21.1647 67.9163 27.0292C67.9163 27.3565 67.8281 27.5732 67.5195 27.7501C64.4374 29.5236 61.3641 31.3104 58.2952 33.106C57.9954 33.2829 57.7837 33.2697 57.4839 33.0972C54.4591 31.3281 51.4299 29.5723 48.3963 27.8298C47.9818 27.5909 47.8099 27.3123 47.8143 26.817C47.8319 21.0586 47.8231 15.2958 47.8231 9.53748C47.8231 8.83869 47.8628 8.79888 48.5771 8.79888C51.6945 8.79888 54.8119 8.79888 57.9292 8.79888ZM67.6385 18.3033C67.6385 15.5125 67.6385 12.7174 67.6385 9.92667C67.6385 9.3989 67.3828 9.13501 66.8713 9.13501C60.9143 9.13501 54.9574 9.13501 49.0048 9.13501C48.8813 9.13501 48.7579 9.13943 48.6344 9.13501C48.3037 9.12174 48.1714 9.25 48.1714 9.60382C48.1803 15.3489 48.1803 21.094 48.1714 26.8346C48.1714 27.1752 48.2817 27.3963 48.5771 27.5644C51.5357 29.2715 54.49 30.9831 57.4398 32.7036C57.7661 32.8937 58.0262 32.8937 58.3658 32.6947C61.2803 30.9876 64.2081 29.2892 67.1403 27.6086C67.5107 27.3963 67.6473 27.1575 67.6473 26.7329C67.6297 23.9245 67.6385 21.1117 67.6385 18.3033Z" fill="#F4F4F4"/>
<path d="M55.4512 19.9264C55.4512 17.2949 55.46 14.659 55.4424 12.0275C55.4424 11.6073 55.5658 11.4614 55.9803 11.4702C56.968 11.4923 57.9601 11.4127 58.939 11.4923C60.9937 11.6604 62.7486 12.3017 63.0264 15.2383C63.1543 16.6138 63.1631 17.9893 62.5634 19.294C62.0078 20.4969 61.0113 21.063 59.7767 21.3284C59.1506 21.4655 58.5157 21.4611 57.8851 21.4301C57.3869 21.408 57.2061 21.5716 57.2105 22.0935C57.237 23.982 57.2237 25.8749 57.2237 27.7678C57.2237 28.4755 57.2149 28.4887 56.5227 28.4843C55.3674 28.4755 55.4512 28.6391 55.4512 27.4008C55.4512 24.9108 55.4512 22.4164 55.4512 19.9264ZM57.2193 16.4855C57.2193 17.5426 57.2193 18.604 57.2193 19.661C57.2193 19.9308 57.2282 20.152 57.5897 20.1652C59.3049 20.2139 60.8791 19.6832 61.1921 17.578C61.3376 16.6005 61.342 15.6452 61.051 14.6988C60.6542 13.4118 59.4504 12.7174 57.7749 12.7484C57.3692 12.7572 57.2105 12.8987 57.2149 13.31C57.2326 14.3671 57.2193 15.4285 57.2193 16.4855Z" fill="#F4F4F4"/>
</svg>
