<svg width="116" height="86" viewBox="0 0 116 86" fill="none" xmlns="http://www.w3.org/2000/svg">
<path d="M115.996 40.6771C115.193 40.8939 114.488 41 113.769 41.0221C111.445 41.1017 109.126 41.2654 106.807 41.4069C106.123 41.4511 105.568 41.7872 104.972 42.0216C102.675 42.9239 100.307 43.2467 97.8513 43.1715C93.6007 43.0389 89.7999 41.5705 86.2636 39.3105C85.8889 39.0717 85.6463 39.085 85.2848 39.3326C83.23 40.7302 81.0695 41.942 78.7458 42.831C77.2246 43.4104 75.6593 43.8438 74.0411 44.1224C72.0436 44.463 70.0418 44.5691 68.0488 44.2949C65.1519 43.9013 62.3476 43.1848 60.1562 41.0486C59.2126 40.1287 58.4321 39.0938 58.1014 37.7803C58.0794 37.6962 58.0794 37.5901 57.9735 37.5724C57.8589 37.5503 57.8369 37.652 57.8104 37.7361C56.9947 40.4118 55.0766 42.057 52.6118 43.0742C49.8296 44.2241 46.9106 44.5868 43.8902 44.3613C39.8778 44.0649 36.2401 42.6939 32.8008 40.6993C32.0248 40.2481 31.2708 39.7616 30.5256 39.2619C30.2302 39.0629 30.0097 39.0629 29.7187 39.2619C27.8933 40.5047 25.9135 41.4555 23.8191 42.1455C21.6232 42.8708 19.3657 43.229 17.0376 43.1937C14.5198 43.1539 12.152 42.5922 9.8548 41.575C9.12726 41.2521 8.26304 41.314 7.45614 41.2742C5.52045 41.1813 3.58477 41.1017 1.65349 40.9867C1.11115 40.9558 0.577619 40.8275 0 40.7391C0.158735 40.5754 0.313061 40.6462 0.449749 40.6462C3.35548 40.6462 6.26562 40.6595 9.17136 40.6462C9.77984 40.6462 10.2957 40.9204 10.8337 41.115C13.5454 42.088 16.3012 42.4374 19.1761 42.0438C23.0783 41.5086 26.5705 40.0403 29.6967 37.6609C29.9745 37.4486 30.1861 37.4176 30.4903 37.6388C32.8052 39.2884 35.2612 40.6816 37.92 41.6855C40.8875 42.8045 43.9608 43.3617 47.1178 42.8885C49.2652 42.5656 51.2802 41.8447 52.6868 40.0093C54.4593 37.6962 53.8817 34.251 50.8525 33.1232C50.3675 32.9418 49.8428 32.7959 49.3004 32.8534C49.1285 32.8711 48.908 32.8401 48.8242 33.017C48.7405 33.1895 48.9477 33.2824 49.0359 33.4062C49.371 33.8529 49.3666 34.3969 49.0271 34.764C48.6655 35.1532 48.2025 35.2151 47.7351 34.9365C47.2104 34.6225 47.087 33.8264 47.5323 33.3753C48.229 32.6676 49.1241 32.3669 50.0765 32.4598C52.0827 32.6499 53.5687 33.6274 54.3756 35.5512C55.1295 37.3513 54.7195 38.9965 53.7538 40.5754C53.5642 40.885 53.335 41.1636 53.1806 41.5086C55.4206 40.4825 57.0829 38.9125 57.9427 36.4756C58.4057 37.5945 58.948 38.6427 59.7858 39.4963C60.6279 40.3543 61.5715 41.0619 62.6783 41.5661C62.8017 41.314 62.6165 41.2344 62.5284 41.1283C61.7347 40.142 61.2408 39.0098 61.1482 37.7537C60.9719 35.3522 62.6386 33.0038 65.2048 32.5482C66.2851 32.3581 67.2331 32.535 68.1061 33.1364C68.8293 33.6318 68.8072 34.6004 68.1061 34.9719C67.6476 35.2151 67.2066 35.1444 66.8671 34.764C66.5452 34.4102 66.5364 33.8706 66.8407 33.446C66.9377 33.3089 67.1802 33.2161 67.0744 33.017C66.9729 32.8269 66.7304 32.8578 66.5408 32.8622C64.8432 32.9065 63.0972 33.875 62.4975 35.6397C61.6509 38.1341 62.912 40.2791 64.8212 41.4777C67.0258 42.8575 69.4774 43.1583 72.0128 43.0035C76.4353 42.7293 80.3111 40.9381 83.9884 38.6162C84.4955 38.2977 84.9894 37.9572 85.47 37.6034C85.7389 37.4044 85.9462 37.4574 86.1799 37.6432C87.7893 38.9213 89.5706 39.9032 91.4755 40.6683C94.2665 41.7917 97.1635 42.3932 100.171 42.1941C102.062 42.0703 103.919 41.6546 105.678 40.8894C105.982 40.7568 106.3 40.655 106.648 40.655C109.677 40.655 112.711 40.655 115.74 40.6506C115.788 40.6506 115.837 40.6639 116 40.6816L115.996 40.6771Z" fill="#242425"/>
<path d="M74.2181 13.5484C74.0725 13.6722 73.9226 13.7916 73.7815 13.9199C73.2656 14.3798 73.1201 14.9769 73.3009 15.6093C73.4817 16.2462 73.9932 16.5514 74.6325 16.6575C75.5408 16.8079 76.4624 16.7858 77.3663 16.8963C79.2579 17.1308 80.8761 17.9843 82.2209 19.3333C84.355 21.4738 85.206 24.0832 84.9988 27.0818C84.9018 28.4971 84.5182 29.8106 83.8568 31.0534C83.7025 31.3453 83.7686 31.5399 84.0508 31.7124C84.4697 31.9733 84.8753 32.2564 85.2678 32.5571C85.5588 32.7827 85.7837 32.7915 86.1099 32.5748C87.9398 31.3541 89.7961 30.1866 91.7671 29.1959C94.3377 27.9089 97.0494 27.3605 99.8846 27.7098C102.319 28.0106 104.492 28.9526 106.093 30.9296C107.164 32.2564 107.698 33.7778 107.376 35.4628C107.045 37.1833 105.952 38.3995 104.395 39.1514C102.504 40.0669 100.502 40.2349 98.4295 39.9253C97.2478 39.7529 96.0882 39.5273 94.9418 39.1867C92.8782 38.5764 90.9293 37.7051 89.0465 36.6791C88.1029 36.166 87.1814 35.6176 86.2687 35.0559C85.9424 34.8569 85.6999 34.8304 85.3604 35.0515C82.8823 36.657 80.369 38.2182 77.7058 39.5052C76.2507 40.2084 74.7648 40.8541 73.1863 41.1902C70.6818 41.721 68.1949 41.7342 65.8316 40.5312C65.0996 40.1597 64.4823 39.6379 64.0281 38.9347C63.9708 38.8418 63.9091 38.7577 63.9973 38.6472C64.1869 38.5941 64.2222 38.7799 64.3059 38.8683C65.2583 39.9475 66.5106 40.4163 67.8907 40.5622C70.9552 40.8806 73.7551 40.0182 76.4359 38.6074C78.9801 37.2673 81.3832 35.7061 83.773 34.1183C84.2624 33.7911 84.2536 33.7468 83.773 33.3842C82.803 32.6544 82.8118 32.6633 81.8814 33.4549C80.9511 34.2422 79.862 34.6446 78.645 34.6977C77.2957 34.7552 75.9685 34.6623 74.7516 34.0033C73.6404 33.3974 72.957 32.4731 73.0805 31.1772C73.1995 29.9345 73.9711 29.1472 75.1705 28.7934C76.1934 28.4882 77.2076 28.5457 78.2393 28.7713C79.8443 29.1207 81.2641 29.877 82.6266 30.7527C82.9397 30.9561 83.0278 30.9075 83.1733 30.5669C83.8215 29.0367 84.0111 27.4578 83.848 25.8081C83.6099 23.4375 82.631 21.4473 80.8408 19.8861C79.3946 18.6212 77.6926 17.8959 75.7657 18.0684C73.4773 18.2718 71.8899 19.5588 71.6651 22.009C71.5063 23.7515 72.8423 25.4543 74.8001 25.5825C75.6687 25.64 76.4756 25.5471 77.1414 24.8837C77.891 24.1363 78.0277 23.2208 77.9086 22.2434C77.8557 21.7834 77.6353 22.1107 77.4942 22.2124C76.9342 22.6282 76.4447 22.5707 76.0876 22.0444C75.7613 21.5623 75.8363 21.0802 76.2948 20.7441C76.6608 20.4743 77.3178 20.5274 77.5868 20.9077C78.1379 21.6773 78.4025 22.5397 78.279 23.4994C78.0541 25.2774 76.6035 26.3963 74.681 26.3078C72.6439 26.2106 71.0478 24.7201 70.7523 23.0527C70.3996 21.0846 70.9552 19.2802 72.7718 17.8693C73.0055 17.688 73.3847 17.6305 73.4641 17.3386C73.5522 17.0379 73.1686 16.9052 73.0187 16.6708C72.1854 15.3528 72.6968 13.8933 74.2092 13.5439L74.2181 13.5484ZM100.877 39.1779C102.257 39.1558 103.527 38.9125 104.669 38.227C106.106 37.3646 106.935 36.0776 106.869 34.3925C106.816 32.9994 106.102 31.8539 105.052 30.934C103.412 29.501 101.441 28.9128 99.3246 28.8686C97.3404 28.8288 95.4356 29.3374 93.6146 30.1291C91.4937 31.0534 89.5845 32.3448 87.6356 33.5699C87.3269 33.7645 87.3049 33.8884 87.6576 34.1095C90.2767 35.7282 92.9929 37.1479 95.903 38.1607C97.5256 38.7224 99.1968 39.1381 100.872 39.1823L100.877 39.1779ZM78.1952 34.2554C78.4863 34.3218 78.936 34.1316 79.399 34.0343C80.4131 33.8176 81.2377 33.2824 81.9431 32.5306C82.1327 32.3271 82.1283 32.2033 81.877 32.0397C81.1803 31.5974 80.4881 31.1374 79.7429 30.7836C78.4069 30.1423 77.0268 29.7222 75.5232 30.0096C74.9059 30.1291 74.4517 30.4475 74.174 31.0578C73.7286 32.0441 74.3944 33.0702 75.1264 33.4815C76.0215 33.9812 76.9783 34.2156 78.1952 34.2554Z" fill="#242425"/>
<path d="M51.8926 38.6134C52.0601 38.8655 51.8573 38.9805 51.7691 39.1087C51.0989 40.0861 50.1156 40.6213 49.0441 41.0105C47.4568 41.5854 45.7945 41.6429 44.1498 41.4528C42.439 41.2537 40.8076 40.7009 39.229 39.9933C36.1866 38.6267 33.3602 36.8841 30.5692 35.0796C30.234 34.8629 29.9915 34.8585 29.6608 35.0664C27.4826 36.4286 25.2339 37.6581 22.8308 38.578C20.4674 39.4847 18.0467 40.1127 15.5026 40.0729C13.6903 40.0463 11.9487 39.6748 10.4671 38.5028C8.29775 36.7868 7.82596 34.0536 9.30308 31.7007C10.4671 29.8476 12.1559 28.7596 14.2194 28.1183C16.0317 27.5566 17.8748 27.5301 19.7046 27.7601C21.6094 28.0033 23.3776 28.764 25.0752 29.6751C26.7022 30.5508 28.2675 31.5371 29.7975 32.572C30.137 32.802 30.3751 32.7887 30.6838 32.5454C31.0586 32.2535 31.451 31.9838 31.8567 31.7317C32.1609 31.5459 32.2226 31.3425 32.0507 31.0329C30.9263 28.9896 30.6088 26.7694 31.0189 24.5227C31.6803 20.9182 33.7571 18.4105 37.2493 17.1633C38.0517 16.8758 38.9027 16.867 39.7449 16.8272C40.4416 16.7962 41.1647 16.7918 41.8085 16.4822C42.8358 15.9913 42.999 14.7087 42.1524 13.9392C42.0113 13.8109 41.8614 13.6915 41.6938 13.55C42.7212 13.4571 43.4928 14.9785 43.2503 15.7967C43.1136 16.2567 42.9549 16.7078 42.5845 17.035C42.342 17.2518 42.3685 17.4066 42.6418 17.5613C43.9426 18.2911 44.798 19.4145 45.111 20.843C45.5784 22.9836 44.9788 25.018 42.611 25.9999C41.3279 26.5306 39.9918 26.5262 38.8101 25.6195C37.333 24.4829 37.2801 22.4086 38.2854 20.9536C38.5809 20.529 39.2687 20.4626 39.6567 20.7766C40.1021 21.1437 40.155 21.6081 39.8022 22.0858C39.4495 22.5634 38.9733 22.6165 38.4706 22.2494C38.356 22.1654 38.2722 21.9487 38.087 22.0592C37.9547 22.1388 38.0032 22.3157 37.9944 22.4529C37.9062 23.9654 38.4045 24.9959 39.6655 25.4293C41.4293 26.0308 43.365 25.217 44.0484 23.3595C44.8773 21.1084 43.1269 18.6803 41.0368 18.2203C38.7837 17.7294 36.8789 18.4061 35.2122 19.7948C32.7606 21.8337 31.8214 24.5536 32.0551 27.7114C32.13 28.7242 32.3726 29.684 32.7694 30.6171C32.8929 30.9135 32.9722 30.9665 33.2456 30.7852C34.3964 30.0289 35.6002 29.3832 36.9186 28.9719C38.3207 28.5296 39.7493 28.3572 41.1471 28.9321C42.1612 29.3523 42.7962 30.1572 42.8535 31.285C42.9152 32.4747 42.3155 33.3769 41.319 33.9386C39.2819 35.0841 35.6046 35.1769 33.7394 33.1867C33.325 32.7445 33.0075 32.7489 32.5401 33.1071C31.5921 33.8413 31.5216 33.6998 32.5401 34.3853C35.2166 36.1765 37.9327 37.9058 40.8561 39.2812C43.2194 40.3913 45.6975 40.8159 48.2901 40.5638C49.5248 40.4444 50.5565 39.8694 51.897 38.6134H51.8926ZM14.9338 39.1839C16.7019 39.1353 18.3686 38.724 19.9956 38.1623C22.8926 37.1583 25.5955 35.7519 28.1925 34.1332C28.6291 33.8634 28.6246 33.8059 28.1749 33.5229C27.3724 33.0143 26.5743 32.5012 25.7718 31.997C23.7083 30.7056 21.5477 29.6132 19.1535 29.1179C17.4338 28.764 15.7098 28.7463 13.9946 29.2682C12.3102 29.7813 10.8596 30.6083 9.85424 32.0811C8.44326 34.1509 8.90183 36.5126 10.8463 37.9588C12.0677 38.8655 13.4831 39.1353 14.9338 39.1839ZM37.8621 34.257C39.0262 34.204 40.1021 33.9696 41.0324 33.3062C41.6101 32.8904 41.9408 32.3022 41.8702 31.5813C41.7997 30.8339 41.3675 30.2766 40.6488 30.0687C39.7714 29.8166 38.8586 29.8609 37.9856 30.0953C36.5658 30.4756 35.3047 31.2009 34.079 32.0059C33.7394 32.2314 33.8012 32.373 34.026 32.6074C35.0843 33.713 36.4027 34.1818 37.8577 34.257H37.8621Z" fill="#242425"/>
<path d="M62.5457 78.4392C61.8005 78.1163 61.386 77.5016 61.1832 76.7984C60.6541 74.9807 61.267 73.2381 63.1057 72.4553C64.4858 71.8671 65.9276 71.9821 67.3254 72.5084C68.5379 72.9639 69.605 73.6848 70.6147 74.4897C70.9057 74.7197 71.1218 74.7551 71.4481 74.534C72.6298 73.729 73.882 73.0037 75.2886 72.7339C76.9597 72.4155 78.6396 72.3668 79.9227 73.8263C80.1344 74.0696 80.3945 74.0298 80.6503 74.0298C89.2132 74.0298 97.7804 74.0209 106.343 74.0209C108.707 74.0209 111.066 74.043 113.429 74.0607C113.65 74.0607 113.883 74.0342 114.165 74.2155C109.306 74.2288 104.535 74.4543 99.7602 74.5163C93.6665 74.5959 87.5729 74.7949 81.4792 74.9408C81.4616 74.9408 81.444 74.9408 81.4263 74.9408C80.5709 74.9541 80.5489 74.9541 80.5445 75.8077C80.5356 77.3954 79.0497 78.5453 77.6916 78.7178C75.5972 78.9788 73.8467 78.1385 72.1756 77.0239C71.7347 76.732 71.3114 76.4136 70.8925 76.0908C70.6985 75.9448 70.5353 75.874 70.3369 76.0642C70.2884 76.1129 70.2135 76.1306 70.1517 76.1659C69.0538 76.847 69.0185 76.8559 69.3492 78.0898C69.896 80.1464 68.5688 82.8 66.5626 83.6491C64.8077 84.3922 63.066 84.3081 61.3772 83.4457C60.998 83.2511 60.7952 83.2732 60.5659 83.6359C59.9795 84.5602 59.102 85.2059 58.2686 85.8826C58.0173 86.086 57.8101 86.002 57.572 85.8118C56.7122 85.1307 55.8656 84.4408 55.2571 83.5076C55.1072 83.2776 54.9396 83.2246 54.6839 83.3794C53.4669 84.1091 52.1133 84.2727 50.7596 84.0737C48.9518 83.8039 47.6202 82.7734 46.8882 81.0751C46.3503 79.8323 46.2445 78.5586 46.8265 77.2849C46.9367 77.0461 46.853 76.8736 46.6501 76.7453C46.2665 76.4976 45.8741 76.2588 45.4949 76.0023C45.2392 75.8298 45.0981 76.0421 44.9437 76.1615C43.9472 76.9222 42.911 77.6122 41.7734 78.1473C40.5741 78.709 39.3086 78.9168 38.0211 78.6824C36.6366 78.4304 35.2697 77.307 35.3932 75.5423C35.4284 75.0514 35.2609 74.9497 34.8111 74.9408C26.482 74.7197 18.1484 74.5605 9.8148 74.4013C7.12512 74.3482 4.43544 74.2553 1.69727 74.1801C1.99269 74.0563 2.25284 74.0652 2.51299 74.0563C8.01139 73.959 13.5098 74.0475 19.0082 74.0298C24.4184 74.0165 29.8286 74.0253 35.2388 74.0298C35.618 74.0298 35.887 73.9369 36.1604 73.6494C36.7601 73.0214 37.5185 72.6985 38.3959 72.6012C40.6182 72.3536 42.4877 73.2425 44.2647 74.3969C44.7189 74.6932 45.0055 74.7286 45.4508 74.3703C46.6193 73.4283 47.8803 72.5835 49.3619 72.2563C51.1079 71.8715 52.9687 72.0086 54.168 73.4592C55.2395 74.7507 55.1425 76.8868 53.9387 78.0544C53.78 78.2092 53.6257 78.3906 53.3479 78.4038C53.2817 78.1783 53.4581 78.0898 53.5727 77.9748C54.4149 77.1345 54.5472 76.0952 54.243 75.0337C53.8814 73.7865 52.9422 73.1895 51.6635 73.0435C49.6881 72.8224 48.1228 73.7158 46.6369 74.8347C45.8653 75.4141 45.8917 75.4141 46.6237 76.0288C47.0117 76.3517 47.2542 76.4401 47.6378 75.9713C48.5241 74.8966 49.7146 74.5118 51.0903 74.733C51.787 74.8435 52.391 75.4229 52.563 76.1527C52.6953 76.7144 52.3866 77.3866 51.8002 77.7802C50.7861 78.4569 49.7234 78.3331 48.674 77.9041C47.5673 77.4529 47.3688 77.5281 47.3644 78.7842C47.3512 80.509 48.114 81.8624 49.6485 82.6761C51.1432 83.4678 52.6777 83.4059 54.2077 82.7071C54.5428 82.5567 54.5913 82.4064 54.4458 82.057C53.802 80.5356 54.2474 78.9345 55.4952 78.1163C56.2801 77.6033 57.0693 77.7183 57.3251 78.4259C57.4573 78.7842 57.5103 79.1734 57.4618 79.5714C57.3207 80.7744 56.721 81.7297 55.8435 82.5169C55.5217 82.8044 55.504 82.9946 55.7509 83.3484C56.2756 84.0914 56.893 84.7371 57.5984 85.3032C57.841 85.4978 58.035 85.5288 58.2951 85.3209C59.08 84.7062 59.7414 83.9808 60.2969 83.1538C60.4821 82.8752 60.3013 82.7425 60.1294 82.5833C59.2563 81.7695 58.617 80.8275 58.4627 79.6024C58.4142 79.2043 58.4715 78.8196 58.5817 78.4525C58.736 77.9439 59.3181 77.6785 59.8207 77.8377C61.2273 78.28 62.1136 80.0004 61.6638 81.4245C61.6197 81.5572 61.5977 81.6987 61.5624 81.8358C61.364 82.601 61.3507 82.6363 62.0651 82.8796C63.8111 83.4767 65.4823 83.3926 66.9991 82.2073C68.2778 81.2034 68.8642 79.3016 68.366 77.7802C68.2381 77.391 68.0264 77.5237 67.7927 77.6475C67.0167 78.0588 66.2098 78.3375 65.3191 78.2269C64.5695 78.1385 63.9126 77.8421 63.5334 77.1522C62.9778 76.135 63.7141 74.8878 64.9002 74.7241C66.3156 74.5295 67.4665 74.9806 68.3704 76.0642C68.6349 76.3826 68.8201 76.3959 69.1464 76.1438C70.09 75.4097 70.1032 75.4229 69.1464 74.7197C68.2205 74.043 67.2548 73.3929 66.126 73.1541C64.5343 72.8224 62.8896 72.9506 62.0254 74.2907C61.2626 75.4716 61.4037 76.9664 62.3693 77.9881C62.4707 78.0942 62.6427 78.1694 62.5545 78.4259L62.5457 78.4392ZM77.3918 78.1163C77.7181 78.0854 78.2384 78.0456 78.719 77.7802C79.9933 77.077 80.3372 75.4097 79.3628 74.472C78.7896 73.9192 78.0708 73.6229 77.2772 73.561C75.3282 73.415 73.6571 74.2465 71.9992 75.1045C71.717 75.2504 71.7479 75.3743 71.9992 75.5512C72.4887 75.8962 72.9472 76.2853 73.4367 76.6259C74.5743 77.4131 75.7515 78.1075 77.3962 78.1163H77.3918ZM38.9515 73.53C38.6384 73.4725 38.1093 73.6096 37.6022 73.8131C36.7248 74.1669 36.0281 74.7153 35.9972 75.7635C35.9664 76.7586 36.4955 77.4264 37.3553 77.8421C38.2504 78.2756 39.1764 78.1738 40.0759 77.8908C41.3722 77.4839 42.4525 76.6878 43.5019 75.8563C44.2338 75.2814 44.2338 75.2504 43.3784 74.8259C42.0556 74.1669 40.7064 73.5787 38.9427 73.5256L38.9515 73.53ZM50.2261 77.7891C50.7772 77.851 51.2667 77.652 51.6723 77.2451C51.981 76.9355 52.1353 76.5507 51.9722 76.135C51.809 75.7192 51.4431 75.4848 50.9977 75.4229C49.8337 75.2637 48.9077 75.7015 48.1625 76.5905C47.9421 76.8559 47.995 77.0284 48.2639 77.1787C48.868 77.506 49.4721 77.8333 50.2217 77.7935L50.2261 77.7891ZM65.6675 77.7891C66.4259 77.8244 67.0343 77.5104 67.6384 77.1832C67.8986 77.0416 67.9868 76.8736 67.7575 76.5994C67.0035 75.6883 66.0599 75.2549 64.8782 75.4273C64.4549 75.4893 64.1066 75.7281 63.9478 76.1217C63.7891 76.5109 63.9126 76.8868 64.1992 77.1964C64.6048 77.6387 65.1075 77.8466 65.6719 77.7891H65.6675ZM54.7633 80.8717C54.7941 81.1238 54.7456 81.4466 54.8691 81.7474C54.9925 82.057 55.1601 82.1675 55.4467 81.8801C55.8347 81.4864 56.161 81.053 56.4079 80.5621C56.646 80.0889 56.84 79.5891 56.7827 79.0451C56.7254 78.5055 56.4564 78.3773 55.989 78.6028C55.0631 79.0495 54.7368 79.8279 54.7633 80.8717ZM61.1479 80.9026C61.1788 79.9296 60.9186 79.1645 60.0853 78.6913C59.8604 78.563 59.6135 78.3552 59.3577 78.5542C59.1064 78.7532 59.0756 79.0672 59.1241 79.3812C59.2784 80.3808 59.7899 81.1857 60.4821 81.8933C60.7423 82.1631 60.9054 82.057 61.0333 81.7739C61.1656 81.4732 61.1171 81.1459 61.1479 80.9026Z" fill="#242425"/>
<path d="M57.8989 7.0386C61.5983 7.0386 65.3021 7.0386 69.0015 7.0386C69.729 7.0386 69.7334 7.0386 69.7334 7.77719C69.7334 14.4776 69.7334 21.1735 69.7422 27.8739C69.7422 28.325 69.5967 28.5904 69.222 28.8071C65.5843 30.9123 61.9466 33.0219 58.3177 35.1448C57.9914 35.335 57.7401 35.2952 57.4447 35.1227C53.8291 33.0175 50.209 30.9123 46.5846 28.816C46.2583 28.6302 46.1172 28.4135 46.1172 28.0199C46.1304 21.2133 46.1304 14.4112 46.1172 7.60471C46.1172 7.16244 46.2583 7.03418 46.6904 7.03418C50.4251 7.04745 54.1642 7.04302 57.8989 7.04302V7.0386ZM57.9165 8.12216C54.5698 8.12216 51.2232 8.12216 47.8721 8.12216C47.1313 8.12216 47.1269 8.13101 47.1269 8.85191C47.1269 15.0393 47.1269 21.2222 47.1181 27.4095C47.1181 27.7368 47.2151 27.9447 47.4885 28.1039C50.8351 30.0455 54.1818 31.987 57.5285 33.9286C57.7974 34.0834 58.0355 34.0746 58.3177 33.9109C61.5806 32.0003 64.8523 30.0985 68.124 28.2101C68.468 28.011 68.6267 27.7987 68.6267 27.3786C68.6135 21.1735 68.6135 14.9729 68.6267 8.76788C68.6267 8.246 68.4636 8.1089 67.9609 8.11332C64.6142 8.13543 61.2676 8.12216 57.9165 8.12216Z" fill="#242425"/>
<path d="M28.0618 55.132C27.8766 55.3575 27.9163 55.5035 27.9163 55.6406C27.9163 58.5551 27.9074 61.4741 27.9471 64.3887C27.956 64.999 27.6473 64.9813 27.2284 64.9769C26.8272 64.9769 26.5406 64.9857 26.545 64.4064C26.5714 60.2358 26.5626 56.0652 26.5494 51.8946C26.5494 51.5054 26.6552 51.3506 27.052 51.3594C28.7629 51.3992 28.3263 51.1162 28.7981 52.673C29.7285 55.7467 30.6015 58.8382 31.5054 61.9208C31.5539 62.0933 31.5539 62.3144 31.8097 62.425C32.0698 61.5405 32.3256 60.6648 32.5813 59.7935C33.2427 57.507 33.9041 55.2204 34.5699 52.9295C34.6757 52.558 34.8212 52.1909 34.8874 51.8105C34.9535 51.4479 35.1431 51.3683 35.4694 51.3594C36.9024 51.3196 36.9024 51.3152 36.9024 52.757C36.9024 56.6268 36.8848 60.4967 36.9201 64.3666C36.9245 65.0211 36.5806 64.9592 36.1573 64.9725C35.7119 64.9857 35.4518 64.9415 35.4606 64.3577C35.5003 61.5847 35.487 58.8072 35.4915 56.0342C35.4915 55.844 35.5355 55.645 35.39 55.4814C35.2137 55.4814 35.2004 55.6229 35.1696 55.7335C34.4641 58.1748 33.7586 60.6161 33.0531 63.0575C32.9032 63.5838 32.7356 64.1012 32.6034 64.6319C32.546 64.8619 32.4314 64.9415 32.2065 64.9681C31.0469 65.0919 30.9851 65.0609 30.6677 63.9597C29.8872 61.2618 29.1068 58.5684 28.3219 55.875C28.2558 55.645 28.1632 55.4239 28.0618 55.132Z" fill="#242425"/>
<path d="M94.9371 61.4684C95.2545 60.8581 95.2589 60.2655 95.3824 59.7082C95.9556 57.1076 96.4935 54.4983 97.0491 51.8889C97.0888 51.6943 97.0491 51.4068 97.3313 51.3847C97.7105 51.3537 98.125 51.2564 98.4689 51.451C98.6761 51.5704 98.5395 51.8491 98.4998 52.0437C98.1603 53.6845 97.7987 55.3253 97.4504 56.9617C96.9433 59.3455 96.445 61.7294 95.9291 64.1088C95.8674 64.3874 95.9336 64.7987 95.6205 64.9049C95.1928 65.0508 94.7122 65.0022 94.2624 64.9226C94.0508 64.8872 94.0728 64.6528 94.042 64.4847C93.4247 61.4242 92.8029 58.3593 92.1812 55.2988C92.168 55.2368 92.1283 55.1794 92.0931 55.0953C91.8197 55.2368 91.8373 55.4889 91.7976 55.6968C91.2156 58.6246 90.638 61.5525 90.0692 64.4803C90.0075 64.812 89.8796 64.9624 89.5224 64.9712C88.4113 65.0022 88.3981 65.0199 88.1644 63.9274C87.4545 60.6325 86.7534 57.3332 86.0479 54.0383C85.8936 53.313 85.7392 52.5876 85.5541 51.8712C85.4526 51.482 85.5717 51.367 85.9509 51.3537C86.9386 51.3228 86.9518 51.3095 87.1546 52.309C87.7543 55.2324 88.3407 58.1558 88.936 61.0792C88.9669 61.2252 88.9404 61.4684 89.13 61.4507C89.3328 61.433 89.3108 61.1765 89.3461 61.0129C89.9545 58.001 90.5498 54.9892 91.1627 51.9773C91.2068 51.7562 91.1539 51.4024 91.4758 51.3758C91.9079 51.336 92.3576 51.2653 92.7765 51.4377C92.9176 51.4952 92.8823 51.6854 92.9132 51.8181C93.5393 54.9494 94.1654 58.0851 94.796 61.2163C94.8048 61.265 94.8445 61.3048 94.9238 61.4552L94.9371 61.4684Z" fill="#242425"/>
<path d="M75.4611 58.1171C75.4832 56.4188 75.5405 54.7293 76.268 53.1415C77.0308 51.483 78.3933 50.9921 80.0777 51.1292C81.4798 51.2442 82.344 52.0801 82.8776 53.314C83.8168 55.4811 83.7374 57.7633 83.5786 60.0409C83.4861 61.3899 83.195 62.699 82.4058 63.84C81.8149 64.6892 81.008 65.1359 79.9718 65.2155C77.2777 65.4189 76.3738 63.7737 75.8491 61.9029C75.5052 60.669 75.4435 59.3952 75.4567 58.1215L75.4611 58.1171ZM82.2206 58.1701C82.1897 57.551 82.1897 56.9318 82.1236 56.317C82.0133 55.2954 81.8326 54.2826 81.2505 53.4025C80.3202 51.9961 78.9092 51.943 77.9171 53.3671C77.5599 53.8801 77.3527 54.4595 77.216 55.0654C76.8236 56.8301 76.8545 58.608 77.0529 60.3903C77.1543 61.3058 77.4012 62.1904 77.9259 62.9732C78.7945 64.2646 80.1526 64.3221 81.105 63.097C81.3652 62.7609 81.5548 62.385 81.6959 61.9825C82.1368 60.7486 82.1941 59.4616 82.2162 58.1701H82.2206Z" fill="#242425"/>
<path d="M9.01614 58.1691C9.01614 56.086 9.02496 54.0029 9.00733 51.9154C9.00733 51.4997 9.11756 51.3316 9.54085 51.3582C10.5374 51.4245 11.5383 51.2786 12.5392 51.4687C13.7914 51.7076 14.638 52.3887 14.9467 53.6182C15.2641 54.8698 15.2685 56.1391 14.8144 57.373C14.5763 58.0187 14.1618 58.545 13.5313 58.8591C13.1918 59.0271 13.13 59.204 13.302 59.5711C14.0472 61.15 14.7571 62.7422 15.4758 64.3344C15.7095 64.8474 15.6345 64.9093 15.0833 64.9757C14.3955 65.0553 14.0075 64.8385 13.7385 64.1574C13.1565 62.6847 12.4774 61.2473 11.8293 59.7967C11.6441 59.3854 11.0444 59.1819 10.6388 59.3721C10.4007 59.4827 10.4624 59.6949 10.4624 59.8807C10.4624 61.38 10.4271 62.8837 10.4756 64.383C10.4977 65.0641 10.1008 64.9535 9.69959 64.9712C9.25866 64.9933 8.98528 64.958 8.99851 64.3653C9.03819 62.2999 9.01173 60.2345 9.01173 58.1647L9.01614 58.1691ZM10.458 55.3519C10.458 56.1258 10.458 56.9042 10.458 57.6782C10.458 57.8905 10.4315 58.1249 10.7314 58.1559C11.8337 58.2708 13.011 57.9347 13.4651 56.6831C13.6636 56.1435 13.7076 55.5863 13.6768 55.0202C13.5842 53.3174 12.645 52.4771 10.9386 52.5302C10.5814 52.5434 10.4403 52.654 10.4492 53.0255C10.4712 53.7995 10.458 54.5779 10.458 55.3519Z" fill="#242425"/>
<path d="M54.1416 58.1352C54.1416 56.0521 54.1504 53.969 54.1328 51.8815C54.1328 51.4834 54.2563 51.3375 54.6443 51.3596C55.6584 51.4215 56.677 51.2755 57.6955 51.479C58.8993 51.7222 59.7282 52.368 60.0457 53.5577C60.3896 54.8447 60.394 56.1449 59.9222 57.4098C59.6797 58.0555 59.2564 58.573 58.6215 58.8826C58.2996 59.0418 58.2555 59.2231 58.4142 59.5593C59.155 61.1382 59.8693 62.7303 60.588 64.3225C60.8261 64.8532 60.7512 64.9151 60.1603 64.9815C59.4813 65.0611 59.1241 64.8267 58.864 64.1721C58.2864 62.7126 57.6162 61.293 56.9812 59.8556C56.7696 59.3824 56.2316 59.1789 55.7731 59.3647C55.5217 59.4664 55.5879 59.6742 55.5879 59.86C55.5879 61.3593 55.5702 62.863 55.6011 64.3623C55.6099 64.8223 55.4821 65.0301 55.0103 64.9682C54.8868 64.9549 54.7633 64.9549 54.6399 64.9682C54.243 65.008 54.1328 64.8223 54.1372 64.4375C54.1549 62.3367 54.146 60.2359 54.146 58.1307L54.1416 58.1352ZM55.5835 55.3489C55.5835 56.1405 55.5835 56.9366 55.5835 57.7283C55.5835 57.9361 55.5835 58.1307 55.8524 58.1573C56.9459 58.2723 58.1321 57.9494 58.5906 56.6889C58.789 56.1494 58.8375 55.5921 58.8067 55.0216C58.7141 53.3277 57.8234 52.5095 56.1214 52.5272C55.7202 52.5272 55.557 52.6377 55.5747 53.0712C55.6099 53.8274 55.5835 54.5882 55.5835 55.3444V55.3489Z" fill="#242425"/>
<path d="M109.329 58.1787C109.329 56.0956 109.337 54.0081 109.32 51.925C109.32 51.5137 109.43 51.3367 109.849 51.3677C110.845 51.434 111.846 51.2881 112.847 51.4827C114.13 51.7304 114.964 52.438 115.263 53.694C115.55 54.8926 115.559 56.1133 115.144 57.2985C114.902 57.9885 114.483 58.5457 113.817 58.8819C113.509 59.0367 113.42 59.2091 113.584 59.5541C114.324 61.133 115.039 62.7296 115.766 64.3174C116.009 64.8481 115.929 64.9277 115.352 64.9896C114.677 65.0648 114.311 64.8481 114.046 64.1847C113.46 62.7075 112.781 61.2745 112.133 59.8239C111.939 59.3905 111.392 59.2003 110.951 59.3772C110.704 59.4789 110.757 59.6824 110.757 59.8726C110.757 61.3763 110.74 62.8756 110.766 64.3793C110.775 64.8437 110.651 65.0471 110.18 64.9808C110.091 64.9675 110.003 64.9719 109.915 64.9808C109.465 65.0383 109.302 64.8658 109.311 64.3881C109.337 62.3227 109.32 60.2529 109.32 58.1875L109.329 58.1787ZM110.762 55.3083C110.762 56.1 110.762 56.8961 110.762 57.6877C110.762 57.9398 110.779 58.1477 111.101 58.1654C111.78 58.2052 112.437 58.1433 113.006 57.7187C113.901 57.0509 114.029 56.0779 113.989 55.0651C113.923 53.3314 112.957 52.4645 111.238 52.5309C110.876 52.5441 110.739 52.668 110.753 53.0351C110.775 53.7913 110.762 54.552 110.757 55.3083H110.762Z" fill="#242425"/>
<path d="M57.8641 4.4648C55.2758 4.4648 52.6831 4.45153 50.0949 4.47806C49.6055 4.48249 49.3188 4.30558 49.0675 3.91196C48.4061 2.8682 47.7139 1.84656 47.1451 0.749731C47.0745 0.612627 46.8761 0.444565 47.0613 0.285348C47.198 0.161512 47.4052 0.210162 47.5684 0.280925C47.9387 0.444565 48.168 0.630318 48.2783 1.13008C48.4723 2.02347 49.1998 2.594 49.9802 3.04511C50.161 3.14683 50.3683 3.25298 50.5667 3.26182C50.8709 3.27509 51.0649 3.05838 51.0826 2.76648C51.1267 2.08539 51.0826 1.42198 50.452 0.966443C50.2316 0.811649 50.0067 0.61705 50.2668 0.320729C50.4829 0.0730583 50.7166 -0.134808 51.0782 0.10844C51.4662 0.364956 51.8233 0.541864 51.5367 1.17431C51.2589 1.78907 52.2246 3.14241 52.908 3.26625C53.2519 3.32816 53.7458 2.95223 53.8648 2.4967C54.0104 1.93501 54.3234 1.36449 53.7149 0.838185C53.5121 0.661277 53.9795 0.00671789 54.3014 0.019986C54.61 0.0332541 54.7687 0.307461 54.9539 0.515328C55.0994 0.674545 54.9936 0.82934 54.8922 0.988557C54.4513 1.71388 55.2097 3.20433 56.0474 3.27067C56.5192 3.31047 57.2071 2.6736 57.3614 1.98809C57.4452 1.62985 57.6039 1.23181 57.2336 0.900103C57.0748 0.754154 57.141 0.563978 57.2909 0.43572C57.4981 0.263234 57.6657 -0.0330864 57.9875 0.0376768C58.4902 0.152667 58.671 0.634741 58.4152 1.08586C58.1242 1.60331 58.5608 2.68687 59.2177 3.08049C59.7424 3.3945 60.3068 3.24856 60.664 2.60284C60.9506 2.07212 61.3607 1.53697 60.8624 0.851453C60.6111 0.506483 61.0564 0.316307 61.2769 0.10844C61.5194 -0.12154 61.687 0.0907491 61.8633 0.232275C62.1235 0.440142 62.172 0.6657 61.9912 0.970866C61.5811 1.66081 61.7928 2.65149 62.4057 3.10261C62.6482 3.27951 62.8554 3.30605 63.1332 3.1601C63.8607 2.77975 64.1077 2.08096 64.359 1.38218C64.4119 1.23623 64.3017 1.11681 64.2355 0.992979C63.9754 0.497637 64.3987 0.351688 64.6853 0.139399C64.9807 -0.0817361 65.2276 -0.0330864 65.4613 0.245544C65.695 0.524173 65.6641 0.78069 65.3775 0.962021C64.8484 1.29372 64.7999 1.85983 64.65 2.37286C64.553 2.70014 64.7294 2.96108 64.9542 3.17337C65.1835 3.38566 65.404 3.23529 65.6377 3.13799C66.4843 2.79744 67.0046 2.11634 67.5028 1.39987C67.5866 1.27603 67.6307 1.14777 67.5866 0.997402C67.5072 0.718772 67.6571 0.559555 67.882 0.45341C68.1598 0.320729 68.4949 0.0553675 68.7507 0.325152C68.9667 0.546287 68.6272 0.802803 68.5126 1.01509C67.9217 2.12077 67.2162 3.15568 66.5372 4.20828C66.3388 4.51345 66.0698 4.47806 65.7964 4.47806C63.1553 4.47806 60.5097 4.47806 57.8685 4.47806L57.8641 4.4648Z" fill="#242425"/>
<path d="M28.6648 29.1834C28.0916 27.5824 27.7785 25.9814 27.924 24.3229C28.1269 21.9877 28.9867 20.024 31.2001 18.8918C31.3721 18.8034 31.5264 18.6751 31.7293 18.7945C31.7469 19.0024 31.5617 19.0554 31.4559 19.1572C30.2742 20.3115 29.5731 21.7002 29.2645 23.3366C28.7486 26.0964 29.4497 28.635 30.5167 31.1294C30.574 31.2621 30.7769 31.4125 30.6225 31.5451C30.4638 31.6822 30.3447 31.4611 30.2345 31.3727C28.2415 29.7672 26.1691 28.2812 23.9027 27.0871C22.2404 26.2114 20.5076 25.5259 18.6865 25.0349C16.8346 24.5352 14.9651 24.3892 13.0955 24.6457C11.5302 24.8624 10.0443 25.433 8.71269 26.3396C8.479 26.4988 8.26294 26.72 7.94547 26.7509C7.88815 26.5254 8.0513 26.4369 8.15712 26.3352C10.2074 24.3406 12.5929 23.1995 15.5162 23.1951C18.9643 23.1951 22.0067 24.3759 24.864 26.1671C26.1206 26.9544 27.2935 27.8566 28.3385 28.9136C28.4355 29.0109 28.5546 29.0861 28.6604 29.1746L28.6648 29.1834Z" fill="#242425"/>
<path d="M107.948 26.7641C107.441 26.6137 107.053 26.2466 106.608 25.9945C104.641 24.8711 102.534 24.4289 100.285 24.5616C96.8326 24.7606 93.7505 26.0564 90.8139 27.7636C88.9973 28.8162 87.3129 30.059 85.677 31.3769C85.5668 31.4654 85.4478 31.6821 85.289 31.5538C85.1259 31.4212 85.3287 31.2708 85.3904 31.1381C86.2855 29.1789 86.8587 27.1356 86.819 24.9729C86.775 22.6686 86.0827 20.6077 84.2881 19.0332C84.222 18.9757 84.1602 18.9093 84.1823 18.7988C84.4557 18.6484 84.6364 18.8695 84.8393 18.9801C86.4839 19.8381 87.3526 21.2534 87.7759 23.0225C88.133 24.5041 88.0492 25.9636 87.7318 27.423C87.6039 28.0024 87.3702 28.5553 87.1321 29.2717C87.3614 29.0816 87.5069 28.9798 87.6304 28.856C89.9056 26.6579 92.5335 25.0348 95.5142 23.9999C97.4807 23.3144 99.5223 23.0313 101.59 23.2569C104.059 23.5222 106.119 24.6854 107.847 26.4545C107.918 26.5252 108.001 26.6048 107.94 26.7685L107.948 26.7641Z" fill="#242425"/>
<path d="M0.132369 58.1438C0.132369 56.0607 0.141187 53.9732 0.12355 51.8901C0.12355 51.5009 0.233783 51.3373 0.63062 51.3594C1.6624 51.4169 2.70299 51.2709 3.73477 51.4788C5.1237 51.7619 5.99674 52.6906 6.1643 54.1103C6.30099 55.2602 6.33626 56.4013 5.94824 57.5158C5.59991 58.5109 4.89883 59.1124 3.89792 59.391C3.33352 59.5458 2.76031 59.6254 2.17829 59.5723C1.72854 59.5325 1.55657 59.6785 1.56539 60.1606C1.59626 61.5714 1.55657 62.9867 1.58744 64.4019C1.59626 64.8619 1.4287 65.0123 1.00541 64.968C0.88195 64.9548 0.75849 64.9548 0.635029 64.968C0.25142 65.0034 0.119141 64.853 0.119141 64.4506C0.136778 62.3498 0.127959 60.2446 0.127959 58.1438H0.132369ZM1.57862 55.4637C1.57862 56.2907 1.57862 57.1222 1.57862 57.9492C1.57862 58.1261 1.56098 58.2942 1.78586 58.3782C2.64126 58.6922 4.19334 57.9581 4.52845 57.0735C4.78419 56.4013 4.8371 55.7069 4.78859 54.9904C4.66513 53.3142 3.73036 52.4739 2.06364 52.527C1.70649 52.5402 1.56539 52.6508 1.57421 53.0267C1.59626 53.8361 1.58303 54.6499 1.58303 55.4592L1.57862 55.4637Z" fill="#242425"/>
<path d="M100.907 58.1869C100.907 56.1038 100.92 54.0207 100.898 51.9332C100.894 51.4909 101.026 51.3494 101.463 51.3538C102.887 51.3715 104.315 51.376 105.74 51.3538C106.189 51.345 106.304 51.5175 106.3 51.9465C106.295 52.3666 106.194 52.5568 105.735 52.5435C104.787 52.517 103.835 52.548 102.882 52.5303C102.472 52.5214 102.327 52.6585 102.336 53.0831C102.362 54.2994 102.358 55.52 102.336 56.7363C102.331 57.1122 102.472 57.2404 102.825 57.236C103.707 57.2228 104.584 57.2537 105.466 57.2228C105.934 57.2051 106.061 57.3643 106.066 57.8287C106.075 58.324 105.876 58.4213 105.44 58.408C104.58 58.3815 103.716 58.408 102.851 58.3948C102.472 58.3903 102.322 58.5142 102.331 58.9167C102.353 60.3629 102.353 61.8135 102.331 63.2597C102.322 63.6932 102.494 63.8082 102.887 63.7993C103.821 63.7816 104.752 63.8037 105.687 63.786C106.088 63.7772 106.308 63.8524 106.291 64.3345C106.277 64.759 106.22 64.9846 105.717 64.9713C104.293 64.9448 102.865 64.9492 101.44 64.9713C100.991 64.9802 100.88 64.8077 100.885 64.3831C100.907 62.3177 100.894 60.2523 100.894 58.1825L100.907 58.1869Z" fill="#242425"/>
<path d="M45.7292 58.1558C45.7292 56.086 45.7424 54.0206 45.716 51.9507C45.7116 51.4687 45.8703 51.3493 46.3201 51.3537C47.7134 51.3758 49.1023 51.3758 50.4957 51.3537C50.9234 51.3493 51.1174 51.4333 51.1218 51.933C51.1262 52.4638 50.9101 52.5522 50.4604 52.539C49.5609 52.5168 48.6614 52.5478 47.7663 52.5257C47.321 52.5124 47.1402 52.6407 47.1534 53.1228C47.1843 54.3257 47.1755 55.5287 47.1534 56.7273C47.149 57.0988 47.2769 57.2359 47.6384 57.2314C48.5379 57.2182 49.4374 57.2447 50.3325 57.2226C50.7558 57.2093 50.8881 57.3641 50.8705 57.7799C50.8572 58.1558 50.8528 58.4256 50.3502 58.4079C49.4859 58.3769 48.6217 58.4167 47.7619 58.3946C47.321 58.3813 47.1358 58.5052 47.149 58.9917C47.1799 60.4069 47.1755 61.8178 47.149 63.233C47.1402 63.6886 47.3077 63.8168 47.731 63.808C48.6834 63.7859 49.6359 63.8213 50.5839 63.7947C51.0865 63.777 51.0909 64.0468 51.1042 64.4227C51.1218 64.8385 50.9851 64.9844 50.5706 64.98C49.1244 64.9623 47.6825 64.9623 46.2363 64.98C45.8086 64.9844 45.7028 64.8252 45.7072 64.4183C45.7248 62.3308 45.716 60.2477 45.716 58.1602L45.7292 58.1558Z" fill="#242425"/>
<path d="M18.1344 58.1468C18.1344 56.0637 18.1432 53.9762 18.1256 51.8931C18.1256 51.5039 18.2402 51.358 18.6327 51.3624C20.0966 51.3757 21.556 51.3801 23.0199 51.3624C23.4829 51.358 23.5226 51.5835 23.5182 51.955C23.5182 52.3265 23.4741 52.5609 23.0155 52.5477C22.0455 52.5256 21.0754 52.5521 20.1098 52.5344C19.6997 52.5256 19.5542 52.6671 19.563 53.0873C19.5895 54.2902 19.5895 55.4888 19.563 56.6918C19.5542 57.1208 19.713 57.249 20.1142 57.2402C21.0137 57.2225 21.9132 57.249 22.8083 57.2269C23.2448 57.2181 23.2889 57.4436 23.2845 57.793C23.2801 58.138 23.2933 58.421 22.8083 58.4078C21.9088 58.3812 21.0093 58.4122 20.1142 58.3945C19.7085 58.3856 19.5586 58.5183 19.563 58.9473C19.5851 60.3803 19.5895 61.8088 19.563 63.2418C19.5542 63.7062 19.735 63.8167 20.1495 63.8079C21.1019 63.7902 22.0543 63.8211 23.0023 63.7946C23.452 63.7813 23.5226 63.9936 23.5138 64.3784C23.5094 64.7366 23.4961 64.9887 23.0243 64.9799C21.5605 64.9578 20.101 64.9622 18.6371 64.9799C18.2535 64.9799 18.1168 64.8605 18.1212 64.458C18.1388 62.3572 18.13 60.252 18.13 58.1512L18.1344 58.1468Z" fill="#242425"/>
<path d="M70.9362 58.7395C70.9362 60.628 70.923 62.5165 70.945 64.405C70.9495 64.8605 70.7907 65.0153 70.3674 64.9667C70.244 64.9534 70.1205 64.9534 69.997 64.9667C69.5914 65.0109 69.4812 64.8163 69.4944 64.4359C69.5164 63.7637 69.5032 63.0959 69.5032 62.4236C69.5032 59.3321 69.4944 56.2451 69.5164 53.1536C69.5164 52.6627 69.3842 52.4902 68.8947 52.5212C68.37 52.5566 67.8365 52.5123 67.3118 52.5345C66.8223 52.5566 66.8576 52.2426 66.84 51.9064C66.8223 51.5393 66.9105 51.3492 67.325 51.3536C69.2607 51.3669 71.1964 51.3669 73.1321 51.3536C73.6303 51.3536 73.5774 51.6499 73.595 51.9816C73.6127 52.3487 73.5201 52.5521 73.1056 52.5345C72.5589 52.5123 72.0121 52.5521 71.4698 52.5212C71.0509 52.4991 70.923 52.6494 70.923 53.0652C70.9406 54.9537 70.9318 56.8422 70.9318 58.7351L70.9362 58.7395Z" fill="#242425"/>
<path d="M40.5878 58.1659C40.5878 56.0828 40.601 53.9953 40.579 51.9122C40.579 51.4832 40.7157 51.3594 41.1213 51.3594C42.0076 51.3594 42.0208 51.3505 42.0208 51.9697C42.0208 56.1049 42.0076 60.2402 42.0341 64.3754C42.0341 64.9724 41.7607 64.9901 41.3286 64.9813C40.9009 64.9724 40.5614 65.0211 40.5746 64.371C40.6187 62.3056 40.5922 60.2357 40.5922 58.1703L40.5878 58.1659Z" fill="#242425"/>
<path d="M52.505 5.11133C52.7739 5.2485 53.0826 5.42991 53.0782 5.71752C53.0738 6.0007 52.7783 6.28831 52.4961 6.29716C52.2051 6.30601 51.9185 6.01397 51.9141 5.72637C51.9097 5.42991 52.2184 5.2485 52.505 5.11133Z" fill="#242425"/>
<path d="M63.9175 5.73401C63.7323 5.9818 63.5868 6.3225 63.2693 6.2871C62.9915 6.25613 62.6961 5.99949 62.7314 5.67206C62.7623 5.39773 63.0136 5.12782 63.3002 5.1411C63.6044 5.15437 63.7808 5.44198 63.9131 5.73401H63.9175Z" fill="#242425"/>
<path d="M56.8217 5.09375C57.1039 5.27074 57.4258 5.42561 57.3817 5.75746C57.3464 6.02737 57.0995 6.31055 56.8173 6.29285C56.5263 6.27516 56.2353 6.00525 56.2485 5.70436C56.2573 5.40791 56.5615 5.23534 56.8217 5.09375Z" fill="#242425"/>
<path d="M58.9618 6.34038C58.7193 6.16339 58.3754 6.0041 58.4018 5.70765C58.4283 5.44659 58.6884 5.13243 59.0015 5.15013C59.2925 5.17225 59.5835 5.45101 59.5703 5.73862C59.5571 6.01738 59.2572 6.21207 58.9618 6.33596V6.34038Z" fill="#242425"/>
<path d="M55.274 5.68559C55.1417 5.9732 54.9565 6.26966 54.6699 6.28293C54.3745 6.29621 54.1055 6.01303 54.0923 5.71214C54.079 5.42011 54.3524 5.18117 54.6258 5.14578C54.9609 5.10595 55.0888 5.44666 55.274 5.68559Z" fill="#242425"/>
<path d="M65.4432 5.09232C65.7475 5.24718 66.0517 5.40205 66.0385 5.72948C66.0253 6.01266 65.7607 6.27815 65.4917 6.28699C65.1875 6.29584 64.9141 6.00381 64.8921 5.72063C64.8656 5.40647 65.2095 5.26046 65.4432 5.08789V5.09232Z" fill="#242425"/>
<path d="M50.3596 5.10547C50.6197 5.27361 50.9504 5.44175 50.9195 5.74263C50.8931 6.01254 50.6153 6.32227 50.3155 6.2913C50.0421 6.26475 49.729 5.99042 49.7555 5.69838C49.7775 5.42847 50.0685 5.22494 50.3596 5.10547Z" fill="#242425"/>
<path d="M61.1034 5.10696C61.4121 5.23528 61.7119 5.42997 61.7295 5.7043C61.7472 5.99634 61.4385 6.26625 61.1607 6.29279C60.8521 6.32819 60.5831 6.01846 60.5567 5.74413C60.5258 5.43882 60.8653 5.27953 61.1034 5.10254V5.10696Z" fill="#242425"/>
<path d="M57.9295 8.79888C61.0469 8.79888 64.1642 8.80773 67.2816 8.79004C67.7799 8.79004 67.9166 8.96252 67.9166 9.43133C67.9077 15.2958 67.9077 21.1647 67.9166 27.0292C67.9166 27.3565 67.8284 27.5732 67.5197 27.7501C64.4376 29.5236 61.3643 31.3104 58.2955 33.106C57.9956 33.2829 57.784 33.2697 57.4841 33.0972C54.4594 31.3281 51.4302 29.5723 48.3966 27.8298C47.9821 27.5909 47.8101 27.3123 47.8145 26.817C47.8322 21.0586 47.8234 15.2958 47.8234 9.53748C47.8234 8.83869 47.863 8.79888 48.5773 8.79888C51.6947 8.79888 54.8121 8.79888 57.9295 8.79888ZM67.6388 18.3033C67.6388 15.5125 67.6388 12.7174 67.6388 9.92667C67.6388 9.3989 67.383 9.13501 66.8716 9.13501C60.9146 9.13501 54.9576 9.13501 49.005 9.13501C48.8816 9.13501 48.7581 9.13943 48.6347 9.13501C48.304 9.12174 48.1717 9.25 48.1717 9.60382C48.1805 15.3489 48.1805 21.094 48.1717 26.8346C48.1717 27.1752 48.2819 27.3963 48.5773 27.5644C51.536 29.2715 54.4902 30.9831 57.4401 32.7036C57.7663 32.8937 58.0265 32.8937 58.366 32.6947C61.2806 30.9876 64.2083 29.2892 67.1405 27.6086C67.5109 27.3963 67.6476 27.1575 67.6476 26.7329C67.63 23.9245 67.6388 21.1117 67.6388 18.3033Z" fill="#242425"/>
<path d="M55.4502 19.9264C55.4502 17.2949 55.459 14.659 55.4414 12.0275C55.4414 11.6073 55.5649 11.4614 55.9793 11.4702C56.967 11.4923 57.9591 11.4127 58.938 11.4923C60.9927 11.6604 62.7476 12.3017 63.0254 15.2383C63.1533 16.6138 63.1621 17.9893 62.5624 19.294C62.0069 20.4969 61.0104 21.063 59.7758 21.3284C59.1496 21.4655 58.5147 21.4611 57.8842 21.4301C57.3859 21.408 57.2051 21.5716 57.2095 22.0935C57.236 23.982 57.2228 25.8749 57.2228 27.7678C57.2228 28.4755 57.2139 28.4887 56.5217 28.4843C55.3665 28.4755 55.4502 28.6391 55.4502 27.4008C55.4502 24.9108 55.4502 22.4164 55.4502 19.9264ZM57.2184 16.4855C57.2184 17.5426 57.2184 18.604 57.2184 19.661C57.2184 19.9308 57.2272 20.152 57.5887 20.1652C59.304 20.2139 60.8781 19.6832 61.1911 17.578C61.3366 16.6005 61.3411 15.6452 61.05 14.6988C60.6532 13.4118 59.4495 12.7174 57.7739 12.7484C57.3683 12.7572 57.2095 12.8987 57.2139 13.31C57.2316 14.3671 57.2184 15.4285 57.2184 16.4855Z" fill="#242425"/>
</svg>
