<svg width="176" height="46" viewBox="0 0 176 46" fill="none" xmlns="http://www.w3.org/2000/svg">
<path fill-rule="evenodd" clip-rule="evenodd" d="M57.3259 13.423C56.9468 13.1149 56.3959 10.9911 56.1941 10.3614C55.6548 8.68002 53.5061 1.50011 53.1357 0.923685L47.991 0.9083L56.6254 25.9936C57.6502 24.1263 60.8019 16.3254 62.0498 13.5788C62.328 12.9669 62.5412 12.186 62.9128 11.8597L69.1128 25.9562C69.2041 25.8602 77.7134 1.72279 77.8172 0.93763L72.6211 0.907511L68.4963 13.3366C68.1609 12.3136 67.567 10.9981 67.1212 9.97139C66.3462 8.18695 63.3509 0.55107 62.9128 0C62.5236 0.45978 59.4516 8.33547 58.7333 10.0166C58.26 11.1246 57.8517 12.3261 57.3259 13.423Z" fill="#12100C"/>
<path fill-rule="evenodd" clip-rule="evenodd" d="M106.397 19.3985C106.376 19.3719 106.34 19.3 106.328 19.3226L104.734 18.0813C104.321 17.7821 103.353 16.974 102.91 16.8025C102.067 17.7103 101.904 18.6394 99.9718 19.5093C98.5541 20.1477 96.5766 20.2991 94.9643 19.8361C86.9773 17.5431 88.9649 3.40355 98.8184 5.60862C101.327 6.16984 101.494 7.08781 102.402 7.69008C103.462 6.62883 104.59 5.58977 105.577 4.54262C105.069 3.02746 102.11 1.53322 99.7879 1.08533C91.733 -0.468034 84.2546 4.69684 84.8833 13.8149C85.645 24.8622 98.5007 27.1038 104.262 22.0195C104.771 21.5697 106.107 20.2312 106.397 19.3985Z" fill="#12100C"/>
<path fill-rule="evenodd" clip-rule="evenodd" d="M136.422 17.8746C135.936 18.7828 133.851 21.1045 133.682 21.8109C135.267 22.8902 136.426 23.6288 138.539 24.1055C142.214 24.9346 147.116 24.51 149.163 20.9562C150.092 19.3445 150.312 16.9403 149.465 15.1358C148.721 13.5502 147.255 12.4714 145.761 11.5889C144.297 10.7237 142.395 10.0249 140.958 9.15942C137.929 7.33504 139.726 3.63334 144.25 5.22839C145.099 5.52762 146.335 6.37967 146.716 6.45907C147.25 5.76108 149.067 3.34917 149.29 2.71093C147.343 1.73416 146.84 1.1674 144.13 0.803031C134.833 -0.447297 131.674 7.4761 136.561 11.9026C138.592 13.7418 143.361 15.2527 144.351 16.6842C145.047 17.6897 145.096 20.4961 141.4 20.1323C138.832 19.8795 137.433 18.2553 136.422 17.8746Z" fill="#12100C"/>
<path fill-rule="evenodd" clip-rule="evenodd" d="M34.0874 0.930345C26.9497 1.87035 22.7619 7.62036 23.6447 14.3589C24.4843 20.7687 29.9725 25.3548 37.4176 24.4923C43.8052 23.7521 48.7607 18.5969 47.8187 11.1067C46.9478 4.18446 40.9822 0.0221967 34.0874 0.930345ZM34.3118 5.49532C38.8531 4.55881 42.0197 7.59991 42.6169 11.372C43.3188 15.804 40.7877 19.3461 37.1127 19.9897C27.5752 21.6599 25.5683 7.29878 34.3118 5.49532Z" fill="#12100C"/>
<path fill-rule="evenodd" clip-rule="evenodd" d="M118.376 0.918852C111.822 1.78009 107.03 6.71705 107.834 14.203C108.527 20.648 114.145 25.3298 121.494 24.5061C128.082 23.7681 132.882 18.5786 132.039 11.1935C131.305 4.76779 125.723 -0.0463523 118.376 0.918852ZM118.51 5.50539C122.952 4.54272 126.304 7.63218 126.824 11.3851C127.417 15.667 125.165 19.2856 121.393 19.9789C111.855 21.7316 109.71 7.41266 118.51 5.50539Z" fill="#12100C"/>
<path fill-rule="evenodd" clip-rule="evenodd" d="M151.878 5.30138L156.678 5.3036L156.692 24.1355L161.891 24.1917L161.919 5.30804L166.643 5.30329L166.65 1.05908L151.889 1.0613L151.878 5.30138Z" fill="#12100C"/>
<path fill-rule="evenodd" clip-rule="evenodd" d="M9.12463 24.1567L22.567 24.1257L22.5595 19.748L14.3421 19.7441L14.342 1.07916L9.16013 1.05127L9.12463 24.1567Z" fill="#12100C"/>
<path fill-rule="evenodd" clip-rule="evenodd" d="M0 34.4629H175.599V34.8092H0V34.4629Z" fill="#12100C"/>
<path d="M56.0778 44.1548C55.5299 44.7474 54.8478 45.0382 54.0203 45.0382C53.1927 45.0382 52.4994 44.7474 51.9515 44.1548C51.4035 43.5621 51.1352 42.8241 51.1352 41.9518C51.1352 41.0796 51.4035 40.3528 51.9515 39.76C52.4994 39.1675 53.1927 38.8655 54.0203 38.8655C54.8478 38.8655 55.5299 39.1675 56.0778 39.76C56.6257 40.3528 56.9053 41.0796 56.9053 41.9518C56.9053 42.8241 56.6257 43.5621 56.0778 44.1548ZM56.883 39.0892C56.1113 38.2953 55.1497 37.9038 54.0203 37.9038C52.8908 37.9038 51.9292 38.2953 51.1575 39.0892C50.386 39.8719 49.9945 40.8224 49.9945 41.9518C49.9945 43.0814 50.386 44.0318 51.1575 44.8257C51.9292 45.6085 52.8908 46 54.0203 46C55.1497 46 56.1113 45.6085 56.883 44.8257C57.6545 44.0318 58.046 43.0814 58.046 41.9518C58.046 40.8224 57.6545 39.8719 56.883 39.0892ZM64.7106 38.0381V42.4663C64.7106 44.1659 63.9949 45.0382 62.7538 45.0382C61.5125 45.0382 60.7967 44.1659 60.7967 42.4663V38.0381H59.7233V42.1867C59.7233 44.7251 60.7297 46 62.7314 46C64.8336 46 65.7841 44.7027 65.7841 42.1867V38.0381H64.7106ZM72.0238 38.0381H67.0141V38.9998H68.9823V45.8657H70.0557V38.9998H72.0238V38.0381ZM77.7827 44.904H74.3833V38.0381H73.3098V45.8657H77.7827V44.904ZM83.5976 44.904H79.9745V42.3097H83.5976V41.348H79.9745V38.9998H83.5976V38.0381H78.901V45.8657H83.5976V44.904ZM89.5578 38.0381H84.548V38.9998H86.5162V45.8657H87.5896V38.9998H89.5578V38.0381ZM98.3582 38.7089C97.6537 38.1721 96.8375 37.9038 95.9318 37.9038C95.2496 37.9038 94.6905 38.094 94.2432 38.463C93.7959 38.8319 93.5722 39.3575 93.5722 40.062C93.5722 40.6547 93.8294 41.1356 94.2879 41.4822C94.7464 41.8065 95.149 41.9854 95.7752 42.209C96.3567 42.4216 96.5803 42.4999 96.9718 42.7346C97.3631 42.9695 97.5197 43.2714 97.5197 43.6852C97.5197 44.5797 96.8152 45.0382 95.9205 45.0382C95.1154 45.0382 94.5562 44.8146 93.8406 44.1101L93.0802 44.8257C93.8741 45.6085 94.8134 46 95.9094 46C97.1171 46 98.6602 45.3178 98.6602 43.5621C98.6602 42.8576 98.4031 42.332 97.8663 41.9631C97.609 41.773 97.3631 41.6388 97.1395 41.5382C96.9269 41.4375 96.6362 41.3145 96.2896 41.1915L95.7752 41.0126L95.3502 40.8224C95.1713 40.7441 95.0483 40.6658 94.97 40.5988C94.8247 40.4534 94.6569 40.2186 94.6569 39.9502C94.6569 39.2681 95.2049 38.8655 96.0547 38.8655C96.6473 38.8655 97.3071 39.1339 97.6986 39.4917L98.3582 38.7089ZM104.62 38.0381H99.6108V38.9998H101.579V45.8657H102.652V38.9998H104.62V38.0381ZM111.375 44.1548C110.827 44.7474 110.145 45.0382 109.317 45.0382C108.49 45.0382 107.796 44.7474 107.248 44.1548C106.7 43.5621 106.432 42.8241 106.432 41.9518C106.432 41.0796 106.7 40.3528 107.248 39.76C107.796 39.1675 108.49 38.8655 109.317 38.8655C110.145 38.8655 110.827 39.1675 111.375 39.76C111.923 40.3528 112.202 41.0796 112.202 41.9518C112.202 42.8241 111.923 43.5621 111.375 44.1548ZM112.18 39.0892C111.408 38.2953 110.447 37.9038 109.317 37.9038C108.188 37.9038 107.226 38.2953 106.454 39.0892C105.683 39.8719 105.291 40.8224 105.291 41.9518C105.291 43.0814 105.683 44.0318 106.454 44.8257C107.226 45.6085 108.188 46 109.317 46C110.447 46 111.408 45.6085 112.18 44.8257C112.951 44.0318 113.343 43.0814 113.343 41.9518C113.343 40.8224 112.951 39.8719 112.18 39.0892ZM118.162 42.4886C119.236 42.265 120.075 41.5269 120.075 40.2858C120.075 39.7826 119.929 39.3464 119.639 38.9998C119.359 38.6419 119.023 38.3959 118.632 38.2504C118.241 38.1051 117.838 38.0381 117.402 38.0381H115.076V45.8657H116.15V42.5556H116.955L119.303 45.8657H120.645L118.162 42.4886ZM118.934 40.3192C118.934 41.169 118.23 41.5941 117.123 41.5941H116.15V38.9998H117.346C118.297 38.9998 118.934 39.5253 118.934 40.3192ZM126.627 44.904H123.004V42.3097H126.627V41.348H123.004V38.9998H126.627V38.0381H121.931V45.8657H126.627V44.904Z" fill="#2B2A29"/>
</svg>
