<svg width="17" height="17" viewBox="0 0 17 17" fill="none" xmlns="http://www.w3.org/2000/svg">
<path d="M4.7314 2.35226L5.1658 1.91786C5.44242 1.64124 5.89091 1.64124 6.16753 1.91786L7.99913 3.74946C8.27575 4.02608 8.27575 4.47457 7.99913 4.75119L6.72951 6.02082C6.5178 6.23253 6.46531 6.55595 6.59921 6.82375C7.37325 8.37182 8.62851 9.62708 10.1766 10.4011C10.4444 10.535 10.7678 10.4825 10.9795 10.2708L12.2491 9.00119C12.5258 8.72457 12.9742 8.72457 13.2509 9.00119L15.0825 10.8328C15.3591 11.1094 15.3591 11.5579 15.0825 11.8345L14.6481 12.2689C13.1525 13.7645 10.7849 13.9327 9.09286 12.6637L8.2369 12.0218C7.0019 11.0955 5.90482 9.99842 4.97857 8.76342L4.3366 7.90746C3.06759 6.21545 3.23586 3.8478 4.7314 2.35226Z" fill="white"/>
</svg>
