<svg width="15" height="16" viewBox="0 0 15 16" fill="none" xmlns="http://www.w3.org/2000/svg">
<path d="M3.6064 3.31465L3.92019 3.00087C4.19681 2.72425 4.6453 2.72425 4.92192 3.00087L6.65703 4.73597C6.93365 5.0126 6.93365 5.46109 6.65703 5.73771L5.4477 6.94704C5.2432 7.15154 5.1925 7.46395 5.32184 7.72262C6.06951 9.21798 7.28203 10.4305 8.77738 11.1782C9.03605 11.3075 9.34846 11.2568 9.55296 11.0523L10.7623 9.84297C11.0389 9.56635 11.4874 9.56635 11.764 9.84297L13.4991 11.5781C13.7758 11.8547 13.7758 12.3032 13.4991 12.5798L13.1853 12.8936C11.6898 14.3891 9.32215 14.5574 7.63014 13.2884L6.96717 12.7912C5.73217 11.8649 4.63508 10.7678 3.70883 9.53283L3.2116 8.86986C1.9426 7.17785 2.11086 4.81019 3.6064 3.31465Z" stroke="#242425"/>
</svg>
