<svg width="184" height="30" viewBox="0 0 184 30" fill="none" xmlns="http://www.w3.org/2000/svg">
<g clip-path="url(#clip0_164_4673)">
<mask id="mask0_164_4673" style="mask-type:luminance" maskUnits="userSpaceOnUse" x="0" y="0" width="184" height="30">
<path d="M184 0H0V30H184V0Z" fill="white"/>
</mask>
<g mask="url(#mask0_164_4673)">
<path d="M170.875 16.26L173.274 10.3725L175.659 16.26H170.875ZM176.74 6.75H169.809L162.533 22.5H168.337L169.587 19.4175H176.931L178.181 22.5H184L176.74 6.75Z" fill="#221F1F"/>
</g>
<mask id="mask1_164_4673" style="mask-type:luminance" maskUnits="userSpaceOnUse" x="0" y="0" width="184" height="30">
<path d="M184 0H0V30H184V0Z" fill="white"/>
</mask>
<g mask="url(#mask1_164_4673)">
<path d="M124.2 10.785H130.449V22.5H135.585V10.785H141.834V6.75H124.2V10.785Z" fill="#221F1F"/>
</g>
<mask id="mask2_164_4673" style="mask-type:luminance" maskUnits="userSpaceOnUse" x="0" y="0" width="184" height="30">
<path d="M184 0H0V30H184V0Z" fill="white"/>
</mask>
<g mask="url(#mask2_164_4673)">
<path d="M111.658 16.1925H120.743V13.0425H111.658V10.7175H122.291V6.75H106.567V22.5H122.667V18.6H111.658V16.1925Z" fill="#221F1F"/>
</g>
<mask id="mask3_164_4673" style="mask-type:luminance" maskUnits="userSpaceOnUse" x="0" y="0" width="184" height="30">
<path d="M184 0H0V30H184V0Z" fill="white"/>
</mask>
<g mask="url(#mask3_164_4673)">
<path d="M104.213 9.555V6.75H86.7713V10.785H96.1553L86.6333 19.71V22.5H104.267V18.4425H94.7983L104.213 9.555Z" fill="#221F1F"/>
</g>
<mask id="mask4_164_4673" style="mask-type:luminance" maskUnits="userSpaceOnUse" x="0" y="0" width="184" height="30">
<path d="M184 0H0V30H184V0Z" fill="white"/>
</mask>
<g mask="url(#mask4_164_4673)">
<path d="M75.1256 19.1175C71.8289 19.1175 69.8126 17.94 69.8126 14.97C69.8126 11.9775 71.8289 10.8375 75.1256 10.8375C78.4069 10.8375 80.4539 11.9775 80.4539 14.97C80.4539 17.9625 78.4069 19.1175 75.1256 19.1175ZM75.1256 6.75C68.5322 6.75 64.3999 9.39 64.3999 14.9925C64.3999 20.595 68.5169 23.25 75.1256 23.25C81.7572 23.25 85.8666 20.5725 85.8666 14.9925C85.8666 9.4125 81.7496 6.75 75.1256 6.75Z" fill="#221F1F"/>
</g>
<mask id="mask5_164_4673" style="mask-type:luminance" maskUnits="userSpaceOnUse" x="0" y="0" width="184" height="30">
<path d="M184 0H0V30H184V0Z" fill="white"/>
</mask>
<g mask="url(#mask5_164_4673)">
<path d="M49.7721 10.455H54.9931C56.6031 10.455 57.2471 11.325 57.2471 12.4275C57.2471 13.17 56.7948 14.5425 54.9088 14.5425H49.7721V10.455ZM62.6828 12.45C62.6828 9.12 60.5515 6.75 55.4685 6.75H44.4668V22.5H49.7721V18.045H53.1915L57.0095 22.5H63.6335L59.1945 17.385C61.4101 16.4175 62.6828 14.3775 62.6828 12.45Z" fill="#221F1F"/>
</g>
<mask id="mask6_164_4673" style="mask-type:luminance" maskUnits="userSpaceOnUse" x="0" y="0" width="184" height="30">
<path d="M184 0H0V30H184V0Z" fill="white"/>
</mask>
<g mask="url(#mask6_164_4673)">
<path d="M155.756 6.75L149.347 12.5025V6.75H144.133V22.5H149.347V18.15L151.309 16.455L155.771 22.5H162.28L155.089 13.1775L162.533 6.75H155.756Z" fill="#221F1F"/>
</g>
<mask id="mask7_164_4673" style="mask-type:luminance" maskUnits="userSpaceOnUse" x="0" y="0" width="184" height="30">
<path d="M184 0H0V30H184V0Z" fill="white"/>
</mask>
<g mask="url(#mask7_164_4673)">
<path d="M30.912 7.70215L32.039 8.00215C32.039 8.00215 30.9503 9.41965 30.912 9.41965C30.8736 9.41965 29.877 10.0721 29.877 10.0721L30.912 7.70215Z" fill="black"/>
</g>
<mask id="mask8_164_4673" style="mask-type:luminance" maskUnits="userSpaceOnUse" x="0" y="0" width="184" height="30">
<path d="M184 0H0V30H184V0Z" fill="white"/>
</mask>
<g mask="url(#mask8_164_4673)">
<path d="M30.9044 9.36017C30.8967 9.36017 30.8814 9.36767 30.8814 9.36767C30.8967 9.36017 30.8967 9.36017 30.9044 9.36017ZM30.9427 7.77017L30.0074 9.91517C30.6514 9.49517 30.8277 9.39017 30.8814 9.36767C30.9504 9.30767 31.5484 8.54267 31.9394 8.03267L30.9427 7.77017ZM29.8771 10.1327C29.8617 10.1327 29.8464 10.1327 29.8387 10.1177C29.8157 10.1027 29.8081 10.0727 29.8234 10.0502L30.8584 7.68017C30.8661 7.65017 30.8967 7.64267 30.9274 7.65017L32.0544 7.95017C32.0697 7.95767 32.0851 7.97267 32.0927 7.98767C32.1004 8.00267 32.0927 8.02517 32.0851 8.04017C32.0851 8.04017 31.8091 8.40017 31.5331 8.74517C31.0194 9.39767 30.9581 9.46517 30.9197 9.47267C30.8431 9.51017 30.2604 9.88517 29.9077 10.1177C29.9001 10.1252 29.8847 10.1327 29.8771 10.1327Z" fill="black"/>
</g>
<mask id="mask9_164_4673" style="mask-type:luminance" maskUnits="userSpaceOnUse" x="0" y="0" width="184" height="30">
<path d="M184 0H0V30H184V0Z" fill="white"/>
</mask>
<g mask="url(#mask9_164_4673)">
<path d="M20.7153 0.892908L19.021 9.79541L26.5113 11.0479L28.1213 2.22791C28.2593 1.18541 27.5463 0.772908 27.0633 0.742908L21.5203 0.352908C21.1523 0.285408 20.7843 0.532908 20.7153 0.892908Z" fill="#221F1F"/>
</g>
<mask id="mask10_164_4673" style="mask-type:luminance" maskUnits="userSpaceOnUse" x="0" y="0" width="184" height="30">
<path d="M184 0H0V30H184V0Z" fill="white"/>
</mask>
<g mask="url(#mask10_164_4673)">
<path d="M21.3975 0.0820312C20.9375 0.0820312 20.5388 0.404531 20.4545 0.847031L18.7601 9.74953C18.7448 9.81703 18.7601 9.88453 18.8061 9.94453C18.8445 10.0045 18.9058 10.042 18.9825 10.0495L26.4728 11.302C26.4881 11.302 26.5035 11.302 26.5188 11.302C26.6415 11.302 26.7565 11.212 26.7795 11.092L28.3895 2.27203C28.3895 2.27203 28.3895 2.26453 28.3895 2.25703C28.4738 1.60453 28.2591 1.19953 28.0598 0.974531C27.8145 0.689531 27.4541 0.509531 27.0861 0.487031L21.5585 0.0970312C21.5048 0.0820312 21.4511 0.0820312 21.3975 0.0820312ZM21.3975 0.337031C21.4358 0.337031 21.4818 0.337031 21.5201 0.344531L27.0631 0.734531C27.5385 0.757031 28.2515 1.16953 28.1211 2.21953L26.5111 11.0395L19.0208 9.78703L20.7151 0.884531C20.7765 0.569531 21.0755 0.337031 21.3975 0.337031Z" fill="#221F1F"/>
</g>
<mask id="mask11_164_4673" style="mask-type:luminance" maskUnits="userSpaceOnUse" x="0" y="0" width="184" height="30">
<path d="M184 0H0V30H184V0Z" fill="white"/>
</mask>
<g mask="url(#mask11_164_4673)">
<path d="M20.7153 0.862345L19.021 9.75734L26.5113 11.0098L28.1213 2.18984C28.2593 1.14734 27.5463 0.734844 27.0633 0.704844L21.5203 0.314844C21.1523 0.254844 20.7843 0.494844 20.7153 0.862345Z" fill="#221F1F"/>
</g>
<mask id="mask12_164_4673" style="mask-type:luminance" maskUnits="userSpaceOnUse" x="0" y="0" width="184" height="30">
<path d="M184 0H0V30H184V0Z" fill="white"/>
</mask>
<g mask="url(#mask12_164_4673)">
<path d="M21.3975 0.0449219C20.9375 0.0449219 20.5388 0.367422 20.4545 0.809922L18.7601 9.71242C18.7448 9.77992 18.7601 9.84742 18.8061 9.90742C18.8445 9.96742 18.9058 10.0049 18.9748 10.0124L26.4651 11.2649C26.4805 11.2649 26.4958 11.2649 26.5111 11.2649C26.6338 11.2649 26.7488 11.1749 26.7718 11.0549L28.3818 2.23492C28.3818 2.23492 28.3818 2.22742 28.3818 2.21992C28.4661 1.56742 28.2515 1.16242 28.0521 0.937422C27.8068 0.652422 27.4465 0.472422 27.0785 0.449922L21.5431 0.0599219C21.5048 0.0524219 21.4511 0.0524219 21.3975 0.0449219ZM21.3975 0.307422C21.4358 0.307422 21.4818 0.307422 21.5201 0.314922L27.0631 0.704922C27.5385 0.727422 28.2515 1.13992 28.1211 2.18992L26.5111 11.0099L19.0208 9.75742L20.7151 0.854922C20.7841 0.532422 21.0755 0.299922 21.3975 0.307422Z" fill="#221F1F"/>
</g>
<mask id="mask13_164_4673" style="mask-type:luminance" maskUnits="userSpaceOnUse" x="0" y="0" width="184" height="30">
<path d="M184 0H0V30H184V0Z" fill="white"/>
</mask>
<g mask="url(#mask13_164_4673)">
<path d="M20.4316 0.817965L18.5303 9.06796L26.0206 10.3205L27.6306 1.50046C27.6996 1.13296 27.4466 0.780465 27.0786 0.712965L21.2366 0.277965C20.8609 0.210465 20.5006 0.450465 20.4316 0.817965Z" fill="#E9E6D0"/>
</g>
<mask id="mask14_164_4673" style="mask-type:luminance" maskUnits="userSpaceOnUse" x="0" y="0" width="184" height="30">
<path d="M184 0H0V30H184V0Z" fill="white"/>
</mask>
<g mask="url(#mask14_164_4673)">
<path d="M21.1062 0C20.6462 0 20.2552 0.3225 20.1632 0.7575L18.2695 9C18.2542 9.0675 18.2695 9.1425 18.3079 9.2025C18.3462 9.2625 18.4075 9.3 18.4842 9.315L25.9745 10.5675C25.9899 10.5675 26.0052 10.5675 26.0205 10.5675C26.1432 10.5675 26.2582 10.4775 26.2812 10.3575L27.8912 1.5375C27.9832 1.035 27.6382 0.5475 27.1245 0.4575C27.1169 0.4575 27.1092 0.4575 27.0939 0.4575L21.2749 0.0225C21.2135 0.0075 21.1599 0 21.1062 0ZM21.1139 0.2625C21.1522 0.2625 21.1982 0.2625 21.2365 0.27L27.0709 0.705C27.4465 0.7725 27.6919 1.125 27.6229 1.4925L26.0129 10.3125L18.5225 9.06L20.4239 0.81C20.4929 0.4875 20.7842 0.255 21.1139 0.2625Z" fill="#221F1F"/>
</g>
<mask id="mask15_164_4673" style="mask-type:luminance" maskUnits="userSpaceOnUse" x="0" y="0" width="184" height="30">
<path d="M184 0H0V30H184V0Z" fill="white"/>
</mask>
<g mask="url(#mask15_164_4673)">
<path d="M26.1742 2.32514C26.1742 2.55014 25.9902 2.73014 25.7602 2.73014C25.5302 2.73014 25.3462 2.55014 25.3462 2.32514C25.3462 2.10014 25.5302 1.92014 25.7602 1.92014C25.9825 1.91264 26.1742 2.10014 26.1742 2.32514Z" fill="#221F1F"/>
</g>
<mask id="mask16_164_4673" style="mask-type:luminance" maskUnits="userSpaceOnUse" x="0" y="0" width="184" height="30">
<path d="M184 0H0V30H184V0Z" fill="white"/>
</mask>
<g mask="url(#mask16_164_4673)">
<path d="M25.7522 1.65723C25.3765 1.65723 25.0698 1.95723 25.0698 2.32473C25.0698 2.69223 25.3765 2.99223 25.7522 2.99223C26.1278 2.99223 26.4345 2.69223 26.4345 2.32473C26.4345 1.95723 26.1278 1.65723 25.7522 1.65723ZM25.7522 1.91223C25.9822 1.91223 26.1662 2.09223 26.1662 2.31723C26.1662 2.54223 25.9822 2.72223 25.7522 2.72223C25.5222 2.72223 25.3382 2.54223 25.3382 2.31723C25.3382 2.09223 25.5298 1.91223 25.7522 1.91223Z" fill="#221F1F"/>
</g>
<mask id="mask17_164_4673" style="mask-type:luminance" maskUnits="userSpaceOnUse" x="0" y="0" width="184" height="30">
<path d="M184 0H0V30H184V0Z" fill="white"/>
</mask>
<g mask="url(#mask17_164_4673)">
<path d="M25.5453 2.52777C25.7753 2.52777 25.9593 2.34777 25.9593 2.12277C25.9593 1.89777 25.7753 1.71777 25.5453 1.71777C25.3153 1.71777 25.1313 1.89777 25.1313 2.12277C25.1313 2.34027 25.323 2.52777 25.5453 2.52777Z" fill="#FFBBA4"/>
</g>
<mask id="mask18_164_4673" style="mask-type:luminance" maskUnits="userSpaceOnUse" x="0" y="0" width="184" height="30">
<path d="M184 0H0V30H184V0Z" fill="white"/>
</mask>
<g mask="url(#mask18_164_4673)">
<path d="M25.5451 1.45508C25.1695 1.45508 24.8628 1.75508 24.8628 2.12258C24.8628 2.49008 25.1695 2.79008 25.5451 2.79008C25.9208 2.79008 26.2275 2.49008 26.2275 2.12258C26.2275 1.75508 25.9208 1.45508 25.5451 1.45508ZM25.5451 1.71008C25.7751 1.71008 25.9591 1.89008 25.9591 2.11508C25.9591 2.34008 25.7751 2.52008 25.5451 2.52008C25.3151 2.52008 25.1311 2.34008 25.1311 2.11508C25.1311 1.89758 25.3228 1.71008 25.5451 1.71008Z" fill="#221F1F"/>
</g>
<mask id="mask19_164_4673" style="mask-type:luminance" maskUnits="userSpaceOnUse" x="0" y="0" width="184" height="30">
<path d="M184 0H0V30H184V0Z" fill="white"/>
</mask>
<g mask="url(#mask19_164_4673)">
<path d="M26.1742 2.3552C26.1742 2.5802 25.9902 2.7602 25.7602 2.7602C25.5302 2.7602 25.3462 2.5802 25.3462 2.3552C25.3462 2.1302 25.5302 1.9502 25.7525 1.9502C25.9825 1.9502 26.1742 2.1302 26.1742 2.3552Z" fill="#221F1F"/>
</g>
<mask id="mask20_164_4673" style="mask-type:luminance" maskUnits="userSpaceOnUse" x="0" y="0" width="184" height="30">
<path d="M184 0H0V30H184V0Z" fill="white"/>
</mask>
<g mask="url(#mask20_164_4673)">
<path d="M25.7522 1.69531C25.3765 1.69531 25.0698 1.99531 25.0698 2.36281C25.0698 2.73031 25.3765 3.03031 25.7522 3.03031C26.1278 3.03031 26.4345 2.73031 26.4345 2.36281C26.4345 1.99531 26.1278 1.69531 25.7522 1.69531ZM25.7522 1.95031C25.9822 1.95031 26.1662 2.13031 26.1662 2.35531C26.1662 2.58031 25.9822 2.76031 25.7522 2.76031C25.5222 2.76031 25.3382 2.58031 25.3382 2.35531C25.3382 2.13031 25.5298 1.95031 25.7522 1.95031Z" fill="#221F1F"/>
</g>
<mask id="mask21_164_4673" style="mask-type:luminance" maskUnits="userSpaceOnUse" x="0" y="0" width="184" height="30">
<path d="M184 0H0V30H184V0Z" fill="white"/>
</mask>
<g mask="url(#mask21_164_4673)">
<path d="M29.3478 3.07531L25.5298 11.0853L29.2711 12.7203L32.8131 4.57531L32.7058 0.570312L29.3478 3.07531Z" fill="#FF5400"/>
</g>
<mask id="mask22_164_4673" style="mask-type:luminance" maskUnits="userSpaceOnUse" x="0" y="0" width="184" height="30">
<path d="M184 0H0V30H184V0Z" fill="white"/>
</mask>
<g mask="url(#mask22_164_4673)">
<path d="M32.7058 0.31543C32.6521 0.31543 32.5908 0.33043 32.5448 0.36793L29.1868 2.86543C29.1561 2.88793 29.1255 2.92543 29.1101 2.96293L25.2921 10.9804C25.2615 11.0404 25.2615 11.1154 25.2845 11.1829C25.3075 11.2504 25.3611 11.3029 25.4225 11.3254L29.1638 12.9529C29.1945 12.9679 29.2328 12.9754 29.2711 12.9754C29.3018 12.9754 29.3401 12.9679 29.3708 12.9604C29.4398 12.9379 29.4858 12.8854 29.5165 12.8254L33.0508 4.68793C33.0661 4.65043 33.0738 4.62043 33.0738 4.58293L32.9665 0.57043C32.9665 0.47293 32.9051 0.38293 32.8208 0.34543C32.7825 0.32293 32.7441 0.31543 32.7058 0.31543ZM32.7058 0.57043L32.8131 4.57543L29.2788 12.7129L25.5375 11.0854L29.3555 3.06793L32.7058 0.57043Z" fill="#221F1F"/>
</g>
<mask id="mask23_164_4673" style="mask-type:luminance" maskUnits="userSpaceOnUse" x="0" y="0" width="184" height="30">
<path d="M184 0H0V30H184V0Z" fill="white"/>
</mask>
<g mask="url(#mask23_164_4673)">
<path d="M29.3481 3.07531L29.4478 4.95031L31.0425 4.06531L31.2495 5.90281L32.8135 4.57531L32.7061 0.570312L29.3481 3.07531Z" fill="#E9E6D0"/>
</g>
<mask id="mask24_164_4673" style="mask-type:luminance" maskUnits="userSpaceOnUse" x="0" y="0" width="184" height="30">
<path d="M184 0H0V30H184V0Z" fill="white"/>
</mask>
<g mask="url(#mask24_164_4673)">
<path d="M31.0424 3.93778C31.0654 3.93778 31.0808 3.94528 31.1038 3.95278C31.1421 3.97528 31.1728 4.01278 31.1728 4.05778L31.3491 5.64778L32.6754 4.52278L32.5758 0.825283L29.4784 3.12778L29.5704 4.73278L30.9811 3.95278C30.9964 3.94528 31.0194 3.93778 31.0424 3.93778ZM31.2494 6.03028C31.2341 6.03028 31.2188 6.03028 31.2034 6.02278C31.1574 6.00028 31.1268 5.96278 31.1191 5.91778L30.9351 4.27528L29.5168 5.06278C29.4784 5.08528 29.4248 5.08528 29.3864 5.06278C29.3481 5.04028 29.3174 5.00278 29.3174 4.95778L29.2178 3.07528C29.2178 3.03028 29.2331 2.99278 29.2714 2.96278L32.6294 0.465282C32.6678 0.435282 32.7214 0.435283 32.7674 0.450283C32.8134 0.472783 32.8364 0.517782 32.8441 0.562782L32.9514 4.56778C32.9514 4.60528 32.9361 4.64278 32.9054 4.67278L31.3414 5.99278C31.3108 6.01528 31.2801 6.02278 31.2494 6.03028Z" fill="#221F1F"/>
</g>
<mask id="mask25_164_4673" style="mask-type:luminance" maskUnits="userSpaceOnUse" x="0" y="0" width="184" height="30">
<path d="M184 0H0V30H184V0Z" fill="white"/>
</mask>
<g mask="url(#mask25_164_4673)">
<path d="M30.9502 1.81473C31.3565 2.27223 32.5525 2.71473 32.8132 2.67723L32.8209 0.344727L30.9502 1.81473Z" fill="#E9E6D0"/>
</g>
<mask id="mask26_164_4673" style="mask-type:luminance" maskUnits="userSpaceOnUse" x="0" y="0" width="184" height="30">
<path d="M184 0H0V30H184V0Z" fill="white"/>
</mask>
<g mask="url(#mask26_164_4673)">
<path d="M31.2418 1.8223C31.6175 2.1298 32.2998 2.3923 32.6218 2.4673L32.6295 0.727297L31.2418 1.8223ZM32.7828 2.8648C32.3688 2.8648 31.2111 2.3923 30.8048 1.9348C30.7741 1.8973 30.7511 1.8448 30.7588 1.7998C30.7665 1.7473 30.7895 1.7023 30.8278 1.6723L32.6985 0.194797C32.7598 0.149797 32.8365 0.142297 32.8978 0.172297C32.9668 0.202297 33.0051 0.269797 33.0051 0.337297L32.9975 2.6698C32.9975 2.7598 32.9285 2.8348 32.8365 2.8498C32.8211 2.8573 32.8058 2.8648 32.7828 2.8648Z" fill="#221F1F"/>
</g>
<mask id="mask27_164_4673" style="mask-type:luminance" maskUnits="userSpaceOnUse" x="0" y="0" width="184" height="30">
<path d="M184 0H0V30H184V0Z" fill="white"/>
</mask>
<g mask="url(#mask27_164_4673)">
<path d="M26.3734 11.5873C26.3581 11.5873 26.3351 11.5873 26.3198 11.5723C26.2508 11.5423 26.2278 11.4673 26.2584 11.3998L29.3404 4.89726C29.3711 4.82976 29.4478 4.80726 29.5168 4.83726C29.5858 4.86726 29.6088 4.94226 29.5781 5.00976L26.4961 11.5123C26.4654 11.5573 26.4194 11.5873 26.3734 11.5873Z" fill="#221F1F"/>
</g>
<mask id="mask28_164_4673" style="mask-type:luminance" maskUnits="userSpaceOnUse" x="0" y="0" width="184" height="30">
<path d="M184 0H0V30H184V0Z" fill="white"/>
</mask>
<g mask="url(#mask28_164_4673)">
<path d="M29.8772 8.9928C29.8619 8.9928 29.8389 8.9928 29.8236 8.9853C29.7546 8.9553 29.7239 8.8803 29.7546 8.8128L31.1269 5.8428C31.1576 5.7753 31.2342 5.7453 31.3032 5.7753C31.3722 5.8053 31.4029 5.8803 31.3722 5.9478L29.9999 8.9178C29.9769 8.9703 29.9232 9.0003 29.8772 8.9928Z" fill="#221F1F"/>
</g>
<mask id="mask29_164_4673" style="mask-type:luminance" maskUnits="userSpaceOnUse" x="0" y="0" width="184" height="30">
<path d="M184 0H0V30H184V0Z" fill="white"/>
</mask>
<g mask="url(#mask29_164_4673)">
<path d="M29.348 10.5224L13.2556 9.98242L12.3203 21.1649C12.3203 21.1649 28.9493 22.8374 28.8036 22.8374C28.6503 22.8374 29.348 10.5224 29.348 10.5224Z" fill="#DDC700"/>
</g>
<mask id="mask30_164_4673" style="mask-type:luminance" maskUnits="userSpaceOnUse" x="0" y="0" width="184" height="30">
<path d="M184 0H0V30H184V0Z" fill="white"/>
</mask>
<g mask="url(#mask30_164_4673)">
<path d="M12.4584 21.0455C13.1867 21.1205 16.882 21.488 20.5697 21.863C22.9617 22.103 24.8707 22.298 26.2354 22.4405C27.0097 22.5155 27.6537 22.583 28.106 22.6355C28.3284 22.658 28.5124 22.6805 28.6274 22.688C28.635 22.688 28.6427 22.688 28.6504 22.688C28.6427 22.4555 28.6504 21.953 28.6964 20.843C28.7347 19.8155 28.8037 18.3905 28.8957 16.613C29.0337 13.943 29.1794 11.258 29.2177 10.643L13.386 10.1105L12.4584 21.0455ZM28.8037 22.7105C28.8267 22.7105 28.842 22.718 28.865 22.733C28.8497 22.718 28.8267 22.7105 28.8037 22.7105ZM28.796 22.9655C28.7884 22.9655 28.773 22.9655 28.7654 22.9655C28.3897 22.913 17.8634 21.8555 12.2974 21.293C12.2284 21.2855 12.1747 21.2255 12.1824 21.158L13.1177 9.97547C13.1254 9.90797 13.1867 9.85547 13.2557 9.85547L29.348 10.3955C29.3864 10.3955 29.417 10.4105 29.44 10.4405C29.463 10.463 29.4784 10.5005 29.4784 10.538C29.2177 15.1955 28.8497 22.2155 28.9187 22.778C28.9264 22.793 28.934 22.823 28.934 22.853C28.9264 22.913 28.8727 22.9655 28.796 22.9655Z" fill="#221F1F"/>
</g>
<mask id="mask31_164_4673" style="mask-type:luminance" maskUnits="userSpaceOnUse" x="0" y="0" width="184" height="30">
<path d="M184 0H0V30H184V0Z" fill="white"/>
</mask>
<g mask="url(#mask31_164_4673)">
<path d="M28.7959 22.8972C30.5976 22.2147 31.7859 18.8247 32.0542 18.2322C32.3302 17.6397 32.4989 8.59473 32.3149 8.03223C30.6666 10.3197 29.3402 10.2597 29.3402 10.2597" fill="#221F1F"/>
</g>
<mask id="mask32_164_4673" style="mask-type:luminance" maskUnits="userSpaceOnUse" x="0" y="0" width="184" height="30">
<path d="M184 0H0V30H184V0Z" fill="white"/>
</mask>
<g mask="url(#mask32_164_4673)">
<path d="M28.7962 22.9502C28.7732 22.9502 28.7502 22.9352 28.7425 22.9127C28.7348 22.8827 28.7425 22.8527 28.7732 22.8377C30.3218 22.2527 31.4412 19.5602 31.8552 18.5477C31.9165 18.3977 31.9625 18.2777 32.0008 18.2027C32.1158 17.9552 32.2385 15.9077 32.2998 13.1102C32.3535 10.7252 32.3458 8.7152 32.2768 8.1677C31.8015 8.8052 31.0808 9.6152 30.2298 10.0502C29.6855 10.3277 29.3482 10.3127 29.3328 10.3127C29.3022 10.3127 29.2715 10.2827 29.2792 10.2527C29.2792 10.2227 29.3098 10.1927 29.3405 10.2002C29.3405 10.2002 29.6702 10.2077 30.1915 9.9452C31.0655 9.5027 31.8015 8.6402 32.2615 7.9952C32.2768 7.9802 32.2922 7.9652 32.3152 7.9727C32.3382 7.9727 32.3535 7.9877 32.3612 8.0102C32.4685 8.3252 32.4608 10.8752 32.4072 13.1177C32.3535 15.3902 32.2462 17.9252 32.1005 18.2552C32.0622 18.3302 32.0162 18.4427 31.9548 18.5927C31.5332 19.6202 30.4062 22.3427 28.8038 22.9502C28.8115 22.9502 28.8038 22.9502 28.7962 22.9502Z" fill="#221F1F"/>
</g>
<mask id="mask33_164_4673" style="mask-type:luminance" maskUnits="userSpaceOnUse" x="0" y="0" width="184" height="30">
<path d="M184 0H0V30H184V0Z" fill="white"/>
</mask>
<g mask="url(#mask33_164_4673)">
<path d="M32.0237 8.63203C32.131 8.41453 32.4147 7.62703 31.8627 7.58203L31.7094 7.94203C31.7094 7.94203 31.6174 8.15203 31.5024 8.39203C31.3874 8.63203 30.9504 9.56203 29.7467 9.95203C29.1027 10.162 27.738 10.0795 26.6417 10.0645C25.392 10.0495 13.616 9.68203 13.616 9.68203L13.3247 9.97453L24.6867 10.357C24.6867 10.357 28.796 10.5595 29.417 10.5145C30.7664 10.417 31.6327 9.43453 32.0237 8.63203Z" fill="#DDC700"/>
</g>
<mask id="mask34_164_4673" style="mask-type:luminance" maskUnits="userSpaceOnUse" x="0" y="0" width="184" height="30">
<path d="M184 0H0V30H184V0Z" fill="white"/>
</mask>
<g mask="url(#mask34_164_4673)">
<path d="M31.8627 7.32031C31.7554 7.32031 31.6634 7.38031 31.6174 7.47781L31.464 7.83781C31.4564 7.85281 31.3644 8.06281 31.257 8.28781C30.9197 9.00031 30.383 9.48031 29.6547 9.71281C29.302 9.82531 28.658 9.84031 28.2134 9.84031C27.9067 9.84031 27.5924 9.83281 27.278 9.82531C27.0634 9.81781 26.841 9.81781 26.634 9.81031C25.3997 9.79531 13.731 9.43531 13.616 9.42781H13.6084C13.5394 9.42781 13.4704 9.45781 13.4167 9.50281L13.1254 9.79531C13.0564 9.87031 13.0334 9.97531 13.0717 10.0728C13.11 10.1703 13.202 10.2303 13.3094 10.2378L24.6637 10.6203C24.8324 10.6278 28.0064 10.7853 29.118 10.7853C29.256 10.7853 29.3557 10.7853 29.4247 10.7778C30.0917 10.7253 30.705 10.4778 31.2417 10.0353C31.6557 9.69031 32.016 9.23281 32.2537 8.73781C32.315 8.61781 32.591 7.99531 32.3534 7.59781C32.2844 7.48531 32.1464 7.34281 31.8704 7.32031C31.878 7.32031 31.8704 7.32031 31.8627 7.32031ZM31.8627 7.58281C32.4147 7.62781 32.131 8.41531 32.0237 8.63281C31.6327 9.43531 30.7664 10.4253 29.4094 10.5228C29.348 10.5303 29.2484 10.5303 29.118 10.5303C27.991 10.5303 24.6714 10.3653 24.6714 10.3653L13.3247 9.97531L13.616 9.68281C13.616 9.68281 25.392 10.0503 26.6417 10.0653C27.1477 10.0728 27.6997 10.0878 28.221 10.0878C28.8344 10.0878 29.394 10.0578 29.7467 9.94531C30.9504 9.55531 31.395 8.62531 31.5024 8.38531C31.6174 8.14531 31.7094 7.93531 31.7094 7.93531L31.8627 7.58281Z" fill="#221F1F"/>
</g>
<mask id="mask35_164_4673" style="mask-type:luminance" maskUnits="userSpaceOnUse" x="0" y="0" width="184" height="30">
<path d="M184 0H0V30H184V0Z" fill="white"/>
</mask>
<g mask="url(#mask35_164_4673)">
<path d="M31.0117 13.2521C30.8277 13.3796 30.6207 13.4996 30.4827 13.6721C30.245 13.9646 30.1913 14.3621 30.176 14.7371C30.1223 15.7121 30.1913 16.6871 30.1377 17.6621C30.0687 18.7496 29.854 19.8371 29.854 20.9246C29.854 20.9996 29.854 21.0821 29.8847 21.1496C29.9383 21.2846 30.084 21.3596 30.2297 21.3896C30.8123 21.5021 31.2953 20.9921 31.6557 20.5346C32.499 19.4546 32.6217 19.2596 32.798 17.9696C32.8977 17.2571 32.9207 14.5046 32.982 13.2671C33.005 12.7646 33.005 11.7746 32.407 11.9771C31.9317 12.1346 31.5177 12.8996 31.0117 13.2521Z" fill="#DDC700"/>
</g>
<mask id="mask36_164_4673" style="mask-type:luminance" maskUnits="userSpaceOnUse" x="0" y="0" width="184" height="30">
<path d="M184 0H0V30H184V0Z" fill="white"/>
</mask>
<g mask="url(#mask36_164_4673)">
<path d="M31.0115 13.2523L31.0882 13.3573C31.0498 13.3798 31.0192 13.4098 30.9808 13.4323C30.8275 13.5373 30.6895 13.6273 30.5822 13.7548C30.3598 14.0248 30.3215 14.4073 30.3062 14.7448C30.2832 15.2098 30.2832 15.6898 30.2908 16.1548C30.2908 16.6498 30.2985 17.1598 30.2678 17.6698C30.2372 18.1198 30.1835 18.5773 30.1375 19.0123C30.0608 19.6423 29.9842 20.2873 29.9918 20.9248C29.9918 20.9923 29.9918 21.0598 30.0148 21.1048C30.0455 21.1798 30.1375 21.2398 30.2602 21.2698C30.3062 21.2773 30.3522 21.2848 30.3982 21.2848C30.8505 21.2848 31.2492 20.8498 31.5558 20.4673C32.3838 19.4098 32.4912 19.2223 32.6675 17.9623C32.7288 17.5348 32.7595 16.3423 32.7902 15.1948C32.8132 14.4523 32.8285 13.7548 32.8515 13.2748C32.8668 12.9823 32.8822 12.2923 32.6522 12.1273C32.6215 12.1048 32.5602 12.0748 32.4452 12.1123C32.2152 12.1873 31.9852 12.4498 31.7398 12.7348C31.5328 12.9673 31.3258 13.2073 31.0882 13.3723L31.0115 13.2523ZM30.3905 21.5323C30.3215 21.5323 30.2602 21.5248 30.1988 21.5098C29.9918 21.4648 29.8232 21.3523 29.7618 21.1948C29.7235 21.1048 29.7235 21.0148 29.7158 20.9173C29.7158 20.2648 29.7925 19.6123 29.8692 18.9748C29.9228 18.5398 29.9765 18.0898 29.9995 17.6473C30.0302 17.1523 30.0225 16.6423 30.0225 16.1473C30.0225 15.6823 30.0148 15.2023 30.0378 14.7223C30.0608 14.3173 30.1145 13.8973 30.3752 13.5823C30.5055 13.4248 30.6665 13.3123 30.8275 13.2073C30.8658 13.1848 30.8965 13.1623 30.9348 13.1323C31.1418 12.9898 31.3412 12.7573 31.5328 12.5398C31.8012 12.2323 32.0618 11.9398 32.3532 11.8423C32.5678 11.7673 32.7212 11.8273 32.8055 11.8948C33.0432 12.0748 33.1428 12.5173 33.1045 13.2673C33.0815 13.7473 33.0585 14.4448 33.0432 15.1798C33.0125 16.3423 32.9818 17.5348 32.9205 17.9773C32.7365 19.2823 32.6138 19.4998 31.7552 20.6023C31.6018 20.7973 31.3718 21.0748 31.0958 21.2698C30.8582 21.4498 30.6205 21.5323 30.3905 21.5323Z" fill="#221F1F"/>
</g>
<mask id="mask37_164_4673" style="mask-type:luminance" maskUnits="userSpaceOnUse" x="0" y="0" width="184" height="30">
<path d="M184 0H0V30H184V0Z" fill="white"/>
</mask>
<g mask="url(#mask37_164_4673)">
<path d="M31.2569 17.3702C31.2032 17.3702 31.1572 17.3552 31.1112 17.3252C30.9732 17.2202 30.9962 17.0252 31.0422 16.6277C31.0729 16.3727 31.1112 16.0652 31.1189 15.6752C31.1342 15.0902 31.1189 14.6327 31.0192 14.3102C30.9196 14.0027 30.7509 13.8527 30.4596 13.8077C30.3906 13.8002 30.3369 13.7327 30.3522 13.6652C30.3599 13.5977 30.4289 13.5452 30.4979 13.5602C31.3566 13.6877 31.4102 14.5577 31.3872 15.6902C31.3796 16.0952 31.3412 16.4252 31.3106 16.6652C31.2876 16.8452 31.2646 17.0402 31.2799 17.1152C31.2952 17.1152 31.3259 17.1077 31.3719 17.0852C31.7399 16.9352 32.5296 15.8477 32.8056 15.4427C32.8439 15.3827 32.9282 15.3677 32.9896 15.4052C33.0509 15.4427 33.0662 15.5252 33.0279 15.5852C32.9206 15.7427 31.9852 17.1152 31.4792 17.3252C31.4026 17.3477 31.3259 17.3702 31.2569 17.3702Z" fill="#221F1F"/>
</g>
<mask id="mask38_164_4673" style="mask-type:luminance" maskUnits="userSpaceOnUse" x="0" y="0" width="184" height="30">
<path d="M184 0H0V30H184V0Z" fill="white"/>
</mask>
<g mask="url(#mask38_164_4673)">
<path d="M15.2261 9.74283C16.4681 7.16283 18.7374 2.97783 19.7494 2.62533C20.7614 2.27283 23.9584 2.65533 24.4721 3.36033C24.9857 4.06533 24.1731 9.89283 24.1731 9.89283L22.1951 9.82533C22.1951 9.82533 23.7054 4.28283 23.3067 3.94533C22.9157 3.60033 20.7384 3.21033 20.2707 3.52533C19.7954 3.84033 17.0967 9.81033 17.0967 9.81033L15.2261 9.74283Z" fill="#DDC700"/>
</g>
<mask id="mask39_164_4673" style="mask-type:luminance" maskUnits="userSpaceOnUse" x="0" y="0" width="184" height="30">
<path d="M184 0H0V30H184V0Z" fill="white"/>
</mask>
<g mask="url(#mask39_164_4673)">
<path d="M22.3711 9.69725L24.0655 9.74975C24.1191 9.37475 24.2725 8.14475 24.3951 6.86975C24.4795 5.95475 24.6405 3.78725 24.3798 3.42725C24.1728 3.14225 23.3525 2.86475 22.2945 2.71475C21.2671 2.57225 20.2628 2.57975 19.8105 2.73725C19.2431 2.93975 18.2388 4.49975 17.6945 5.41475C16.7208 7.03475 15.8391 8.78975 15.4328 9.62225L17.0198 9.67475C17.1655 9.34475 17.7635 8.04725 18.3921 6.72725C19.8718 3.63725 20.1095 3.47225 20.2015 3.41225C20.5465 3.18725 21.4665 3.29225 21.8498 3.35975C22.4095 3.44975 23.1531 3.62975 23.4061 3.84725C23.5671 3.98225 23.6285 4.46975 23.0381 7.04225C22.7698 8.17475 22.4785 9.29975 22.3711 9.69725ZM24.1805 10.0122L22.1948 9.94475C22.1565 9.94475 22.1181 9.92225 22.0951 9.89225C22.0721 9.86225 22.0645 9.81725 22.0721 9.77975C22.0721 9.76475 22.4401 8.42225 22.7621 7.04225C23.3601 4.46225 23.2528 4.07975 23.2221 4.02725C23.0535 3.88475 22.4555 3.70475 21.8038 3.60725C21.1138 3.50225 20.5235 3.50225 20.3471 3.62225C20.2705 3.67475 19.9408 4.09475 18.6298 6.83225C17.9091 8.33975 17.2268 9.83975 17.2191 9.85475C17.1961 9.89975 17.1501 9.92975 17.0965 9.92975L15.2258 9.86975C15.1798 9.86975 15.1415 9.84725 15.1185 9.80975C15.0955 9.77225 15.0955 9.72725 15.1108 9.68975C15.4635 8.94725 16.4141 7.04225 17.4645 5.28725C17.9245 4.52225 18.3385 3.90725 18.6911 3.44975C19.1128 2.90975 19.4425 2.60225 19.7108 2.50475C20.2091 2.33225 21.2365 2.31725 22.3251 2.46725C22.8848 2.54225 24.2265 2.78225 24.5868 3.28475C24.6711 3.40475 24.9395 3.76475 24.6558 6.89975C24.5178 8.42975 24.3108 9.89225 24.3108 9.90725C24.2955 9.96725 24.2418 10.0122 24.1805 10.0122Z" fill="#221F1F"/>
</g>
<mask id="mask40_164_4673" style="mask-type:luminance" maskUnits="userSpaceOnUse" x="0" y="0" width="184" height="30">
<path d="M184 0H0V30H184V0Z" fill="white"/>
</mask>
<g mask="url(#mask40_164_4673)">
<path d="M23.4526 4.17013C23.3452 3.39763 22.8852 3.24013 22.1032 3.09013C21.3672 2.94763 20.3016 3.05263 19.8799 3.43513C19.3662 3.91513 17.2656 6.75763 15.7476 9.75763L18.0169 10.2751C18.0169 10.2751 19.3202 4.53763 20.2632 3.83263C20.8306 3.40513 22.9236 3.59263 23.3146 3.93763C23.3376 3.96013 23.4372 4.11013 23.4526 4.17013Z" fill="#221F1F"/>
</g>
<mask id="mask41_164_4673" style="mask-type:luminance" maskUnits="userSpaceOnUse" x="0" y="0" width="184" height="30">
<path d="M184 0H0V30H184V0Z" fill="white"/>
</mask>
<g mask="url(#mask41_164_4673)">
<path d="M15.8396 9.72023L17.9786 10.2077C18.1242 9.57773 19.3279 4.47023 20.2326 3.78773C20.5009 3.58523 21.1066 3.49523 21.8656 3.54023C22.4176 3.57023 23.0692 3.68273 23.3222 3.87023C23.1536 3.41273 22.7702 3.27773 22.0956 3.14273C21.3749 3.00023 20.3322 3.09773 19.9259 3.48023C19.3892 3.96773 17.3039 6.83273 15.8396 9.72023ZM18.0246 10.3352C18.0246 10.3352 18.0169 10.3352 18.0092 10.3352L15.7399 9.81773C15.7246 9.81773 15.7092 9.80273 15.7016 9.78773C15.6939 9.77273 15.6939 9.75773 15.7016 9.73523C17.2426 6.68273 19.3279 3.87023 19.8416 3.39773C20.2709 2.99273 21.3672 2.88773 22.1109 3.03773C22.8776 3.18773 23.3912 3.35273 23.5062 4.17023C23.5062 4.20023 23.4909 4.23023 23.4602 4.23773C23.4296 4.24523 23.3989 4.22273 23.3912 4.19273C23.3836 4.14773 23.2992 4.01273 23.2762 3.99023C22.9082 3.66773 20.8536 3.48023 20.3016 3.89273C19.3892 4.57523 18.0936 10.2452 18.0782 10.2977C18.0782 10.3127 18.0629 10.3277 18.0552 10.3352C18.0399 10.3277 18.0322 10.3352 18.0246 10.3352Z" fill="#221F1F"/>
</g>
<mask id="mask42_164_4673" style="mask-type:luminance" maskUnits="userSpaceOnUse" x="0" y="0" width="184" height="30">
<path d="M184 0H0V30H184V0Z" fill="white"/>
</mask>
<g mask="url(#mask42_164_4673)">
<path d="M25.5453 2.55707C25.7753 2.55707 25.9593 2.37707 25.9593 2.15207C25.9593 1.92707 25.7753 1.74707 25.5453 1.74707C25.3153 1.74707 25.1313 1.92707 25.1313 2.15207C25.1313 2.37707 25.3153 2.55707 25.5453 2.55707Z" fill="#FFBBA4"/>
</g>
<mask id="mask43_164_4673" style="mask-type:luminance" maskUnits="userSpaceOnUse" x="0" y="0" width="184" height="30">
<path d="M184 0H0V30H184V0Z" fill="white"/>
</mask>
<g mask="url(#mask43_164_4673)">
<path d="M25.5451 1.49219C25.1695 1.49219 24.8628 1.79219 24.8628 2.15969C24.8628 2.52719 25.1695 2.82719 25.5451 2.82719C25.9208 2.82719 26.2275 2.52719 26.2275 2.15969C26.2275 1.79219 25.9208 1.49219 25.5451 1.49219ZM25.5451 1.74719C25.7751 1.74719 25.9591 1.92719 25.9591 2.15219C25.9591 2.37719 25.7751 2.55719 25.5451 2.55719C25.3151 2.55719 25.1311 2.37719 25.1311 2.15219C25.1311 1.92719 25.3151 1.74719 25.5451 1.74719Z" fill="#221F1F"/>
</g>
<mask id="mask44_164_4673" style="mask-type:luminance" maskUnits="userSpaceOnUse" x="0" y="0" width="184" height="30">
<path d="M184 0H0V30H184V0Z" fill="white"/>
</mask>
<g mask="url(#mask44_164_4673)">
<path d="M27.6384 22.567C27.6384 22.567 27.9681 17.9395 25.4611 13.207C25.4611 13.207 26.1971 20.902 25.0317 22.327L27.6384 22.567Z" fill="#221F1F"/>
</g>
<mask id="mask45_164_4673" style="mask-type:luminance" maskUnits="userSpaceOnUse" x="0" y="0" width="184" height="30">
<path d="M184 0H0V30H184V0Z" fill="white"/>
</mask>
<g mask="url(#mask45_164_4673)">
<path d="M25.2615 22.2225L27.5155 22.4325C27.5309 22.08 27.5462 21.06 27.3622 19.68C27.1705 18.2325 26.7182 16.095 25.6525 13.875C25.7139 14.625 25.7905 15.9 25.8212 17.235C25.8595 19.8075 25.6755 21.48 25.2615 22.2225ZM27.6382 22.7025C27.6382 22.7025 27.6305 22.7025 27.6229 22.7025L25.0162 22.4625C24.9702 22.455 24.9242 22.4325 24.9089 22.3875C24.8935 22.3425 24.9012 22.29 24.9242 22.2525C25.2462 21.8625 25.6065 20.6775 25.5452 17.2425C25.5069 15.165 25.3229 13.245 25.3229 13.2225C25.3152 13.1625 25.3535 13.1025 25.4149 13.0875C25.4762 13.0725 25.5375 13.095 25.5682 13.155C26.8715 15.6225 27.4005 18.0525 27.6075 19.6575C27.8375 21.3975 27.7609 22.575 27.7609 22.59C27.7609 22.6275 27.7379 22.6575 27.7149 22.68C27.6995 22.6875 27.6689 22.7025 27.6382 22.7025Z" fill="#221F1F"/>
</g>
<mask id="mask46_164_4673" style="mask-type:luminance" maskUnits="userSpaceOnUse" x="0" y="0" width="184" height="30">
<path d="M184 0H0V30H184V0Z" fill="white"/>
</mask>
<g mask="url(#mask46_164_4673)">
<path d="M26.4731 17.1298C26.4425 24.2698 20.4855 30.0298 13.1791 29.9998C5.86512 29.9698 -0.0305476 24.1498 0.000119095 17.0098C0.0307858 9.86977 5.98779 4.10977 13.2941 4.13977C20.6081 4.16977 26.5038 9.98977 26.4731 17.1298Z" fill="#221F1F"/>
</g>
<mask id="mask47_164_4673" style="mask-type:luminance" maskUnits="userSpaceOnUse" x="0" y="0" width="184" height="30">
<path d="M184 0H0V30H184V0Z" fill="white"/>
</mask>
<g mask="url(#mask47_164_4673)">
<path d="M17.9935 23.4829C16.5982 25.9354 14.8579 27.9379 12.9105 27.9004C11.7069 27.8779 10.5492 27.4279 9.49121 26.7304C9.85921 26.1304 11.9675 23.1379 17.9935 23.4829ZM26.1125 17.1304C26.0819 24.0829 20.2859 29.6854 13.1712 29.6554C6.06421 29.6254 0.352539 23.9629 0.352539 17.0179C0.352539 12.5104 2.65254 9.27785 4.83754 7.53785C7.51321 5.40785 9.33787 7.04285 9.98187 8.28035C9.90521 7.75535 9.69054 6.24785 9.09254 5.16035C10.4112 4.71785 11.8219 4.48535 13.2939 4.48535C20.4085 4.52285 26.1509 10.1779 26.1125 17.1304ZM12.5502 9.88535C14.4132 8.64785 17.6332 7.96535 19.3505 10.5529C18.3079 4.62035 13.8305 8.04035 12.5502 9.88535ZM9.95121 15.4879C10.3499 15.0529 10.8022 14.6329 11.3159 14.2429C13.6465 12.4804 16.1995 12.0454 17.0275 13.2679C17.3495 13.7404 17.3572 14.3929 17.1195 15.1129C17.9475 13.7704 18.2159 12.5329 17.6945 11.8429C16.8359 10.7029 14.1602 11.4829 11.7222 13.5904C11.0322 14.1979 10.4342 14.8504 9.95121 15.4879ZM5.89554 16.5379C7.07621 16.7554 8.36421 15.2779 8.76287 13.2304C9.16154 11.1829 8.52521 9.34535 7.34454 9.12785C6.16387 8.91035 4.87587 10.3879 4.47721 12.4354C4.07854 14.4829 4.71487 16.3204 5.89554 16.5379ZM22.3022 14.0704C11.0015 21.4579 3.21987 17.7079 3.21987 17.7079C3.11254 20.2729 7.59754 28.1629 12.9719 28.2679C18.3462 28.3729 22.3022 14.0704 22.3022 14.0704ZM4.79154 12.4879C5.15187 10.6054 6.26354 9.24035 7.26787 9.43535C8.27987 9.63035 8.80121 11.3029 8.44087 13.1854C8.08054 15.0679 6.96887 16.4329 5.96454 16.2379C4.96021 16.0429 4.43121 14.3704 4.79154 12.4879ZM6.94587 14.0779C7.39054 14.1754 7.89654 13.6354 8.06521 12.8779C8.23387 12.1204 8.01154 11.4304 7.55921 11.3329C7.25254 11.2654 6.93054 11.4904 6.70054 11.8729C6.90754 11.9779 7.00721 12.2254 6.90754 12.4354C6.82321 12.6304 6.61621 12.7279 6.40921 12.6904C6.30187 13.3879 6.53187 13.9879 6.94587 14.0779Z" fill="#05BC52"/>
</g>
</g>
<defs>
<clipPath id="clip0_164_4673">
<rect width="184" height="30" fill="white"/>
</clipPath>
</defs>
</svg>
