<svg width="174" height="68" viewBox="0 0 174 68" fill="none" xmlns="http://www.w3.org/2000/svg">
<path d="M160.226 23.456C160.183 24.2761 160.156 24.999 159.902 25.9486C159.141 25.49 159.158 24.1466 159.557 23.6556C159.746 23.3859 160.059 23.3427 160.226 23.456Z" fill="#EC6E00"/>
<path d="M122.707 29.1318C122.497 29.4609 122.017 29.6821 121.267 29.817C120.485 29.9572 120.296 29.531 120.242 29.3476C120.08 28.657 120.798 27.524 121.461 27.2165C121.839 27.033 122.265 27.1086 122.395 27.2542C122.972 27.8747 122.707 29.1318 122.707 29.1318Z" fill="#EC6E00"/>
<path d="M79.686 38.3681C79.3677 39.0911 78.4613 40.1863 77.2636 41.1251C75.726 38.789 77.1395 36.1129 78.6448 36.1453C79.8479 36.1831 80.3389 36.9006 79.686 38.3681Z" fill="#EC6E00"/>
<path d="M160.307 21.1253L160.285 21.2655C160.285 21.2655 158.009 21.395 157.82 24.8048C157.706 26.828 159.417 27.7829 159.417 27.7829L159.32 28.2307C158.866 29.6713 158.246 31.2305 156.951 31.4139C156.509 31.484 156.147 31.4085 155.883 31.1657C155.43 30.7611 155.246 30.405 155.252 29.1048C155.273 26.0241 156.768 18.3305 158.936 18.1957C159.233 18.1687 159.514 18.2874 159.73 18.5302C160.194 19.0211 160.399 19.9923 160.307 21.1253Z" fill="#EC6E00"/>
<path d="M170.903 13.8093C167.493 9.97873 161.866 9.61186 157.944 9.65502C152.489 9.74134 93.9294 11.7861 87.2771 12.0235C87.2771 12.0235 87.0559 12.0289 86.8509 12.0451C86.8185 11.8239 86.7808 11.6135 86.7808 11.6135C86.3923 8.95904 85.2701 6.54198 83.5383 4.63748C81.4881 2.37689 77.6413 -0.250579 70.9512 0.019181C62.9879 0.326708 57.5118 5.87298 54.9437 9.15866C54.9437 9.15866 54.8412 9.28814 54.7333 9.42302C54.566 9.36907 54.4149 9.30433 54.4149 9.30433C48.9226 7.4214 42.7451 7.15164 36.5568 8.51663C30.6113 9.82766 22.0707 13.0594 15.9309 18.1794C5.11356 27.1786 -0.475871 37.9259 0.187739 48.4142C0.565404 54.4838 3.43565 59.6955 8.49636 63.4722C16.8212 69.6767 30.3469 68.0203 35.7907 67.0114C41.8657 65.8838 137.08 47.2596 149.576 44.6591C160.943 42.3014 171.744 38.2604 173.687 24.767C173.811 23.9685 173.859 23.1484 173.849 22.3391V22.2097C173.8 18.9186 172.732 15.8433 170.903 13.8093ZM65.5021 14.1384C65.7988 12.8112 66.4678 11.7645 67.466 10.9822C68.7932 9.95715 70.6275 9.4446 72.6561 9.53093C76.2871 9.6712 78.1161 12.0451 77.9704 14.3596C77.7492 17.8126 74.5175 19.361 71.1994 19.5552C68.8849 19.6847 67.0451 19.0696 66.0848 17.8288C65.3456 16.8738 65.146 15.6221 65.5021 14.1384ZM163.436 27.9232L163.236 27.9609L163.155 28.1606C161.941 31.1657 159.702 33.0055 156.39 33.5666C153.698 34.0252 151.102 32.3742 150.455 29.477L150.315 28.9267C148.049 34.1654 145.292 35.2876 143.188 35.6275C142.335 35.7732 139.379 35.8326 139.648 32.3311C139.805 30.2539 140.28 28.1336 140.727 26.4125C141.111 24.9774 141.44 23.7365 141.456 22.6305C141.456 22.0802 141.294 21.6162 141.003 21.3195C140.814 21.1198 140.582 21.0281 140.307 21.0551C139.023 21.1468 137.954 24.4918 137.577 26.2561C137.577 26.2561 135.375 36.3721 135.278 36.8792C134.847 36.9494 129.451 37.9313 128.631 38.077L130.557 29.7144L130.126 30.0219C129.608 30.3888 129.079 30.6693 128.561 30.869L128.351 30.9499L128.302 31.1711C127.331 36.3721 123.932 39.4204 118.175 40.3537C113.751 41.0875 110.773 39.6254 110.04 35.8865L109.861 34.9477L109.57 35.4495L109.381 35.8002C107.995 38.3359 105.044 42.6737 100.814 43.375C99.2653 43.6394 97.9435 43.3265 97.0371 42.4741C96.0282 41.5784 95.5102 40.1002 95.5318 38.2226C95.5588 35.6437 96.3465 33.2159 97.0532 31.0632L97.2798 30.3618C97.2798 30.3618 98.4614 25.9539 98.6826 25.0799C98.9092 24.2059 98.2672 23.0243 97.064 23.5423C96.4706 23.812 96.2871 24.33 96.0713 24.7346C95.8393 25.1824 95.6559 26.2453 95.3915 27.8476C94.8142 31.3006 93.773 37.6777 91.5501 40.9796C88.7231 45.1555 85.4536 46.0834 84.1803 46.2992C81.0457 46.8118 78.3049 46.0295 76.7079 44.6807C73.2766 47.4322 68.3454 49.1263 65.5399 49.5202C58.8066 50.5021 57.242 46.2129 58.2725 42.1611C58.2887 42.0802 58.2833 41.9939 58.3049 41.9022C53.7405 47.4916 47.5037 52.8328 39.8263 54.4082C31.2156 56.1617 26.2736 54.8992 22.2379 51.3276C19.3353 48.7541 17.5063 43.0244 18.7472 38.2172C22.4322 24.0063 35.9148 17.3917 44.8223 17.0087C50.6167 16.7551 53.228 17.8773 55.4778 20.1433C56.8859 21.5676 57.5927 23.4937 57.5388 25.8892C57.474 30.2971 54.3124 33.313 50.3847 33.7338C48.6043 33.928 47.0559 33.4641 45.9768 32.439C44.887 31.3977 44.3097 29.8007 44.3367 27.7991C44.396 24.6968 46.921 22.1773 48.5018 21.2925C48.5018 21.2925 49.392 20.753 50.4009 20.4131C50.9944 19.3988 40.9377 16.5771 34.949 29.8816C33.9455 32.126 33.3197 33.5774 32.6615 37.4889C31.7173 43.0082 33.3035 46.9251 36.0011 48.5275C37.9812 49.6982 41.0618 49.8277 45.0003 48.7487C52.3971 46.6931 59.4487 37.1544 61.8334 30.1946C63.0419 26.6445 64.2018 22.7869 64.5148 21.805C64.9895 21.7834 74.6901 21.2925 75.6181 21.2385C75.3214 22.2204 70.3146 37.9637 70.3146 37.9637C70.1528 38.4384 69.0629 42.1557 69.9315 43.2833C70.2229 43.6556 71.043 44.0818 71.9008 43.9523C73.3036 43.7365 74.1344 43.0891 75.1379 42.4794C74.5606 41.5623 73.8808 40.0138 74.2153 38.1579C74.7603 35.1312 77.9704 32.671 80.9755 34.5917C82.47 35.5304 83.1498 37.5968 81.7632 39.9923C81.1482 41.0605 80.3497 41.8914 79.0441 42.9111C79.6159 43.2564 80.3929 43.2941 81.2777 43.1592C85.1137 42.6035 86.3168 38.7999 86.9696 33.2644L87.0236 33.0972C87.466 28.4951 88.34 23.8336 91.7336 20.672C94.9329 17.6885 99.2977 20.3753 99.5243 22.4363L100.215 19.9059C100.215 19.9059 107.482 19.6631 108.329 19.62C108.081 20.5371 104.509 34.4244 104.509 34.4244L104.407 35.7031V35.7193C104.412 36.0699 104.531 36.3829 104.758 36.5879C104.952 36.7713 105.216 36.8522 105.513 36.8145C107.002 36.6095 108.901 33.4371 109.986 30.4967C110.002 30.4589 110.018 30.4158 110.034 30.3672L110.04 30.3402L110.05 30.3025C110.169 29.5741 110.347 28.8781 110.617 27.8315L110.822 27.033C110.822 27.0168 112.203 20.8393 112.527 19.4257C113.012 19.3988 119.654 19.0481 119.654 19.0481C119.654 19.0481 116.212 34.5593 116.195 36.4152C116.179 37.2245 116.417 37.9151 116.805 38.2766C117.059 38.5086 117.366 38.6057 117.706 38.5571C119.913 38.2172 121.494 36.1886 122.049 32.4066L122.141 31.8401L121.601 32.0127C117.037 33.4209 116.665 23.9253 124.337 23.1592C127.304 22.8571 128.146 25.9108 128.286 26.7956C128.383 27.1948 128.448 27.5941 128.491 27.9987L128.54 28.4088L128.907 28.3116C129.705 28.0904 130.649 27.3351 131.313 26.3963L133.147 18.4006C133.617 18.3737 138.03 18.1579 138.737 18.1201C138.629 18.6488 138.246 20.5965 138.246 20.5965L139.125 19.5606C139.589 19.0103 141.283 17.8881 143.118 17.7208C145.599 17.4942 148.016 18.2334 147.703 22.1611C147.579 23.839 147.266 25.3551 146.878 26.9898C146.597 28.2091 146.355 29.1695 146.355 29.7737C146.349 30.1244 146.446 30.405 146.641 30.5776C146.792 30.7341 146.986 30.7934 147.202 30.7772C148.189 30.6316 149.538 27.8099 150.272 25.7975C150.266 25.7273 150.282 25.695 150.288 25.6788L150.304 25.641V25.6086C150.897 19.852 155.327 17.1004 158.391 16.8792C163.393 16.5177 164.191 19.8574 164.18 23.0567C164.17 23.7635 163.851 26.105 163.851 26.105L164.251 26.0025C165.125 25.846 166.096 24.7346 166.554 23.6826C166.802 23.9793 166.851 24.3408 166.948 24.4541C166.527 26.2291 164.752 27.7667 163.436 27.9232Z" fill="#EC6E00"/>
<path d="M77.9706 14.3596C77.7493 17.8125 74.5176 19.3609 71.1996 19.5551C68.885 19.6846 67.0453 19.0696 66.0849 17.8287C65.3458 16.8737 65.1461 15.622 65.5022 14.1384C65.799 12.8111 66.468 11.7645 67.4661 10.9822C68.7933 9.95707 70.6277 9.44453 72.6563 9.53085C76.2872 9.67112 78.1162 12.045 77.9706 14.3596Z" fill="white"/>
<path d="M166.554 23.6828C166.096 24.7349 165.124 25.8463 164.25 26.0028L163.851 26.1053C163.851 26.1053 164.169 23.7638 164.18 23.057C164.191 19.8576 163.393 16.518 158.391 16.8795C155.327 17.1007 150.897 19.8522 150.304 25.6089V25.6413L150.288 25.6791C150.282 25.6952 150.266 25.7276 150.271 25.7978C149.538 27.8102 148.189 30.6319 147.202 30.7775C146.986 30.7937 146.792 30.7344 146.64 30.5779C146.446 30.4053 146.349 30.1247 146.354 29.774C146.354 29.1698 146.597 28.2094 146.878 26.9901C147.266 25.3553 147.579 23.8393 147.703 22.1614C148.016 18.2337 145.599 17.4945 143.117 17.7211C141.283 17.8884 139.589 19.0106 139.125 19.5609L138.246 20.5968C138.246 20.5968 138.629 18.6491 138.736 18.1204C138.03 18.1581 133.616 18.374 133.147 18.4009L131.313 26.3966C130.649 27.3354 129.705 28.0907 128.906 28.3119L128.54 28.409L128.491 27.999C128.448 27.5944 128.383 27.1951 128.286 26.7959C128.146 25.9111 127.304 22.8574 124.337 23.1595C116.665 23.9256 117.037 33.4212 121.601 32.013L122.141 31.8404L122.049 32.4069C121.493 36.1889 119.913 38.2175 117.706 38.5574C117.366 38.606 117.059 38.5089 116.805 38.2769C116.417 37.9154 116.179 37.2248 116.195 36.4155C116.211 34.5596 119.654 19.0484 119.654 19.0484C119.654 19.0484 113.012 19.399 112.527 19.426C112.203 20.8396 110.822 27.0171 110.822 27.0333L110.617 27.8317C110.347 28.8784 110.169 29.5744 110.05 30.3028L110.039 30.3405L110.034 30.3675C110.018 30.4161 110.002 30.4592 109.985 30.497C108.901 33.4374 107.002 36.6097 105.513 36.8148C105.216 36.8525 104.952 36.7716 104.757 36.5882C104.531 36.3832 104.412 36.0702 104.407 35.7195V35.7034L104.509 34.4247C104.509 34.4247 108.081 20.5374 108.329 19.6202C107.482 19.6634 100.215 19.9062 100.215 19.9062L99.5241 22.4365C99.2975 20.3756 94.9328 17.6888 91.7334 20.6723C88.3399 23.8339 87.4658 28.4954 87.0234 33.0975L86.9695 33.2647C86.3166 38.8002 85.1135 42.6038 81.2775 43.1595C80.3927 43.2944 79.6158 43.2566 79.0439 42.9113C80.3495 41.8917 81.148 41.0608 81.7631 39.9925C83.1497 37.5971 82.4699 35.5307 80.9754 34.5919C77.9703 32.6713 74.7601 35.1315 74.2152 38.1582C73.8807 40.0141 74.5605 41.5625 75.1378 42.4797C74.1343 43.0894 73.3034 43.7368 71.9007 43.9526C71.0428 44.0821 70.2227 43.6559 69.9314 43.2836C69.0628 42.156 70.1526 38.4387 70.3145 37.9639C70.3145 37.9639 75.3212 22.2207 75.618 21.2388C74.69 21.2928 64.9894 21.7837 64.5146 21.8053C64.2017 22.7872 63.0417 26.6448 61.8332 30.1948C59.4485 37.1547 52.397 46.6934 45.0002 48.749C41.0617 49.828 37.981 49.6985 36.001 48.5278C33.3034 46.9254 31.7172 43.0085 32.6613 37.4892C33.3195 33.5776 33.9454 32.1263 34.9489 29.8819C40.9376 16.5774 50.9942 19.399 50.4008 20.4133C49.3919 20.7532 48.5016 21.2928 48.5016 21.2928C46.9209 22.1776 44.3959 24.6971 44.3366 27.7994C44.3096 29.801 44.8869 31.398 45.9767 32.4393C47.0557 33.4643 48.6042 33.9283 50.3846 33.7341C54.3123 33.3133 57.4739 30.2974 57.5386 25.8895C57.5926 23.494 56.8858 21.5679 55.4776 20.1436C53.2279 17.8776 50.6166 16.7554 44.8221 17.009C35.9146 17.392 22.432 24.0065 18.7471 38.2175C17.5062 43.0246 19.3352 48.7544 22.2378 51.3279C26.2734 54.8995 31.2154 56.162 39.8262 54.4085C47.5035 52.8331 53.7404 47.4919 58.3047 41.9024C58.2832 41.9942 58.2886 42.0805 58.2724 42.1614C57.2419 46.2132 58.8065 50.5024 65.5397 49.5205C68.3452 49.1266 73.2764 47.4325 76.7078 44.681C78.3048 46.0298 81.0455 46.8121 84.1801 46.2995C85.4534 46.0837 88.7229 45.1558 91.55 40.9799C93.7728 37.678 94.8141 31.3009 95.3914 27.8479C95.6557 26.2456 95.8392 25.1827 96.0712 24.7349C96.287 24.3303 96.4704 23.8123 97.0639 23.5426C98.267 23.0246 98.9091 24.2062 98.6825 25.0802C98.4613 25.9542 97.2797 30.3621 97.2797 30.3621L97.0531 31.0635C96.3463 33.2162 95.5586 35.644 95.5317 38.2229C95.5101 40.1004 96.028 41.5787 97.0369 42.4743C97.9433 43.3268 99.2651 43.6397 100.814 43.3753C105.043 42.674 107.995 38.3362 109.381 35.8005L109.57 35.4498L109.861 34.948L110.039 35.8868C110.773 39.6257 113.751 41.0878 118.175 40.354C123.932 39.4207 127.331 36.3724 128.302 31.1714L128.351 30.9502L128.561 30.8692C129.079 30.6696 129.608 30.3891 130.126 30.0222L130.557 29.7147L128.631 38.0772C129.451 37.9316 134.847 36.9496 135.278 36.8795C135.375 36.3724 137.576 26.2563 137.576 26.2563C137.954 24.4921 139.022 21.1471 140.306 21.0554C140.582 21.0284 140.814 21.1201 141.002 21.3197C141.294 21.6165 141.456 22.0805 141.456 22.6308C141.439 23.7368 141.11 24.9777 140.727 26.4128C140.279 28.1339 139.805 30.2542 139.648 32.3313C139.378 35.8328 142.335 35.7735 143.188 35.6278C145.292 35.2879 148.049 34.1657 150.315 28.927L150.455 29.4773C151.102 32.3745 153.697 34.0254 156.39 33.5669C159.702 33.0058 161.941 31.166 163.155 28.1609L163.236 27.9612L163.436 27.9235C164.752 27.767 166.527 26.2294 166.948 24.4544C166.851 24.3411 166.802 23.9796 166.554 23.6828ZM77.2635 41.1255C75.7259 38.7894 77.1394 36.1134 78.6447 36.1458C79.8478 36.1835 80.3388 36.9011 79.6859 38.3686C79.3676 39.0915 78.4612 40.1868 77.2635 41.1255ZM122.707 29.132C122.497 29.4611 122.017 29.6823 121.267 29.8172C120.484 29.9575 120.296 29.5312 120.242 29.3478C120.08 28.6572 120.797 27.5242 121.461 27.2167C121.839 27.0333 122.265 27.1088 122.394 27.2545C122.972 27.8749 122.707 29.132 122.707 29.132ZM159.902 25.9488C159.141 25.4902 159.157 24.1468 159.557 23.6559C159.745 23.3861 160.058 23.3429 160.226 23.4562C160.182 24.2763 160.155 24.9993 159.902 25.9488ZM160.306 21.1255L160.285 21.2658C160.285 21.2658 158.008 21.3953 157.819 24.805C157.706 26.8282 159.416 27.7832 159.416 27.7832L159.319 28.231C158.866 29.6715 158.246 31.2307 156.951 31.4142C156.508 31.4843 156.147 31.4088 155.882 31.166C155.429 30.7613 155.246 30.4053 155.251 29.105C155.273 26.0244 156.767 18.3308 158.936 18.1959C159.233 18.1689 159.513 18.2876 159.729 18.5304C160.193 19.0214 160.398 19.9925 160.306 21.1255Z" fill="white"/>
</svg>
