<svg width="148" height="132" viewBox="0 0 148 132" fill="none" xmlns="http://www.w3.org/2000/svg">
<g clip-path="url(#clip0_164_4124)">
<path d="M4.87 105.88L1.2 122.24L1.07 122.79C0.95 123.31 0.89 123.75 0.89 124.11C0.89 124.4 0.94 124.64 1.05 124.83C1.16 125.01 1.29 125.11 1.45 125.11C1.74 125.11 2.2 124.76 2.83 124.06L3.05 124.26L2.91 124.42C2.38 125.05 1.99 125.48 1.74 125.7C1.49 125.92 1.26 126.03 1.04 126.03C0.76 126.03 0.52 125.87 0.31 125.55C0.1 125.23 0 124.87 0 124.46C0 124.18 0.06 123.73 0.18 123.11L3.4 106.6L4.87 105.88Z" fill="black"/>
<path d="M11.62 117.48L10.31 122.67C10.17 123.24 10.1 123.68 10.1 124C10.1 124.28 10.16 124.53 10.28 124.74C10.4 124.95 10.55 125.05 10.73 125.05C11 125.05 11.45 124.71 12.07 124.04L12.27 124.24L12.12 124.42C11.63 125 11.25 125.4 10.98 125.63C10.72 125.86 10.48 125.98 10.29 125.98C9.99001 125.98 9.73001 125.82 9.52001 125.51C9.30001 125.19 9.19001 124.83 9.19001 124.41C9.19001 124.11 9.30001 123.42 9.52001 122.35L9.63001 121.81C9.29001 122.62 8.83001 123.4 8.25001 124.15C7.28001 125.4 6.36001 126.02 5.47001 126.02C4.94001 126.02 4.52001 125.83 4.22001 125.44C3.91001 125.05 3.76001 124.53 3.76001 123.88C3.76001 122.99 4.01001 122.06 4.51001 121.09C5.01001 120.12 5.63001 119.31 6.36001 118.69C7.10001 118.06 7.82001 117.75 8.52001 117.75C9.25001 117.75 9.80001 118.02 10.17 118.57L10.32 118.03L11.62 117.48ZM10.02 119.3C9.91001 118.94 9.72001 118.66 9.45001 118.46C9.19001 118.26 8.88001 118.16 8.54001 118.16C8.13001 118.16 7.70001 118.35 7.24001 118.73C6.78001 119.11 6.37001 119.65 5.99001 120.33C5.69001 120.87 5.44001 121.46 5.24001 122.12C5.04001 122.77 4.94001 123.31 4.94001 123.74C4.94001 124.22 5.03001 124.6 5.21001 124.87C5.39001 125.14 5.65001 125.28 5.98001 125.28C6.41001 125.28 6.85001 125.08 7.32001 124.67C7.78001 124.26 8.25001 123.68 8.70001 122.93C8.98001 122.5 9.20001 122.06 9.36001 121.63C9.52001 121.2 9.69001 120.59 9.89001 119.81L10.02 119.3Z" fill="black"/>
<path d="M12.28 124.96L13.06 124.02C13.47 125 14.12 125.49 15.01 125.49C15.47 125.49 15.87 125.34 16.2 125.03C16.53 124.72 16.7 124.37 16.7 123.96C16.7 123.67 16.62 123.42 16.46 123.21C16.3 123 15.92 122.65 15.33 122.16C14.78 121.71 14.41 121.35 14.22 121.09C14.03 120.83 13.93 120.53 13.93 120.19C13.93 119.75 14.06 119.33 14.31 118.96C14.56 118.59 14.91 118.28 15.34 118.04C15.77 117.81 16.22 117.69 16.69 117.69C17.11 117.69 17.46 117.8 17.74 118.01C18.02 118.22 18.17 118.49 18.17 118.83C18.17 119.27 17.99 119.56 17.63 119.72C17.57 119.28 17.41 118.93 17.13 118.68C16.86 118.43 16.5 118.3 16.08 118.3C15.7 118.3 15.37 118.43 15.08 118.68C14.8 118.93 14.65 119.22 14.65 119.54C14.65 119.94 14.89 120.33 15.38 120.72L16.19 121.39C16.98 122.02 17.38 122.67 17.38 123.33C17.38 123.82 17.24 124.28 16.97 124.71C16.7 125.14 16.32 125.48 15.85 125.74C15.38 125.99 14.89 126.12 14.36 126.12C13.54 126.12 12.84 125.73 12.28 124.96Z" fill="black"/>
<path d="M24.83 123.67L25.08 123.88C24.5 124.66 23.94 125.21 23.39 125.56C22.84 125.9 22.25 126.08 21.62 126.08C20.87 126.08 20.26 125.82 19.81 125.31C19.35 124.8 19.13 124.12 19.13 123.28C19.13 122.43 19.35 121.57 19.79 120.69C20.23 119.82 20.79 119.09 21.45 118.52C22.11 117.95 22.77 117.66 23.42 117.66C23.8 117.66 24.12 117.77 24.36 118C24.6 118.23 24.73 118.52 24.73 118.88C24.73 119.61 24.34 120.34 23.56 121.06C22.78 121.78 21.71 122.41 20.37 122.92C20.36 123 20.36 123.08 20.36 123.18C20.36 123.83 20.54 124.36 20.89 124.78C21.24 125.2 21.7 125.4 22.26 125.4C22.7 125.4 23.12 125.26 23.53 124.98C23.93 124.7 24.36 124.26 24.83 123.67ZM20.37 122.59C21.37 122.14 22.15 121.63 22.69 121.07C23.05 120.69 23.35 120.28 23.57 119.85C23.79 119.42 23.9 119.02 23.9 118.67C23.9 118.23 23.7 118 23.3 118C22.7 118 22.08 118.48 21.47 119.45C20.84 120.43 20.48 121.47 20.37 122.59Z" fill="black"/>
<path d="M26.04 121.84C26.84 120.86 27.37 119.94 27.64 119.09C26.89 118.66 26.51 118.05 26.51 117.26C26.51 116.88 26.6 116.57 26.77 116.34C26.94 116.11 27.17 115.99 27.44 115.99C27.72 115.99 27.95 116.12 28.12 116.38C28.3 116.64 28.38 116.98 28.38 117.39C28.38 117.68 28.33 118.01 28.23 118.37C28.48 118.44 28.71 118.47 28.91 118.47C29.49 118.47 29.96 118.3 30.33 117.96H31L30.9 118.16C30.23 119.41 29.68 120.63 29.25 121.84C28.82 123.05 28.6 123.95 28.6 124.54C28.6 124.76 28.66 124.94 28.77 125.09C28.88 125.24 29.02 125.31 29.18 125.31C29.56 125.31 30.17 124.9 31.02 124.08L31.24 124.34C30.98 124.63 30.57 125 30.03 125.43C29.54 125.83 29.08 126.03 28.65 126.03C28.29 126.03 28 125.91 27.79 125.66C27.58 125.41 27.48 125.08 27.48 124.65C27.48 123.94 27.75 123.04 28.29 121.96C28.49 121.55 28.74 121.09 29.04 120.57C29.35 120.05 29.73 119.43 30.2 118.71L30.34 118.51C30.03 118.79 29.74 118.99 29.45 119.11C29.16 119.23 28.84 119.29 28.48 119.29C28.31 119.29 28.14 119.27 27.95 119.22C27.65 120.15 27.09 121.1 26.28 122.09L26.04 121.84ZM27.95 118.24C27.99 118 28.01 117.81 28.01 117.64C28.01 117.31 27.96 117.05 27.85 116.86C27.74 116.67 27.61 116.58 27.44 116.58C27.35 116.58 27.27 116.62 27.2 116.71C27.13 116.8 27.1 116.91 27.1 117.04C27.09 117.49 27.38 117.89 27.95 118.24Z" fill="black"/>
<path d="M49.06 125.13C49.03 125.14 49.02 125.15 49.02 125.16L48.91 125.22C47.62 125.9 46.25 126.24 44.79 126.24C43.65 126.24 42.63 126.03 41.74 125.62C40.85 125.2 40.17 124.61 39.69 123.85C39.21 123.08 38.97 122.2 38.97 121.18C38.97 118.88 40.47 116.87 43.46 115.14L43.56 115.08V115.02V114.99C43.56 113.97 43.71 112.97 44.02 111.99C44.33 111.01 44.73 110.21 45.23 109.59C46.14 108.46 47.14 107.9 48.23 107.9C48.82 107.9 49.29 108.07 49.66 108.42C50.03 108.77 50.21 109.19 50.21 109.7C50.21 110.84 49.37 111.96 47.69 113.06C47.41 113.25 46.89 113.56 46.13 114C45.3 114.46 44.76 114.76 44.5 114.89C44.54 115.74 44.75 116.72 45.15 117.81C45.54 118.91 46.03 119.88 46.59 120.72C47.46 122.01 48.54 123.14 49.85 124.11C50.5 123.64 51.08 123.09 51.59 122.46C52.1 121.83 52.5 121.18 52.8 120.52C53.09 119.85 53.24 119.23 53.24 118.64C53.24 118.03 53.08 117.55 52.77 117.17C52.46 116.8 52.06 116.61 51.56 116.61C50.26 116.61 49.29 117.77 48.66 120.08L47.93 118.99C48.11 118.38 48.37 117.83 48.72 117.34C49.07 116.86 49.47 116.48 49.93 116.22C50.39 115.96 50.87 115.82 51.36 115.82C51.81 115.82 52.21 115.93 52.57 116.16C52.93 116.39 53.22 116.7 53.43 117.11C53.64 117.52 53.74 117.97 53.74 118.46C53.74 118.94 53.65 119.45 53.48 119.97C53.3 120.5 53.06 121.01 52.75 121.52C52.44 122.03 52.06 122.54 51.6 123.05C51.14 123.56 50.67 123.99 50.2 124.34L50.27 124.38C51.22 124.99 52.18 125.29 53.14 125.29C53.88 125.29 54.52 125.14 55.04 124.85C55.56 124.56 56.1 124.06 56.64 123.36L56.84 123.59C55.73 125.3 54.29 126.16 52.52 126.16C51.34 126.16 50.19 125.82 49.06 125.13ZM48.63 124.86C47.21 123.91 46.04 122.62 45.14 120.97C44.24 119.32 43.72 117.53 43.58 115.59L43.57 115.52C41.49 116.87 40.45 118.52 40.45 120.46C40.45 121.91 40.95 123.11 41.94 124.07C42.93 125.03 44.18 125.51 45.68 125.51C46.7 125.5 47.69 125.28 48.63 124.86ZM44.5 114.49C45.83 113.77 46.83 113.14 47.51 112.6C48.02 112.21 48.43 111.76 48.74 111.23C49.05 110.71 49.2 110.21 49.2 109.73C49.2 109.32 49.08 109.01 48.83 108.78C48.58 108.55 48.26 108.44 47.85 108.44C47.25 108.44 46.7 108.69 46.18 109.19C45.66 109.69 45.25 110.35 44.95 111.19C44.64 112.03 44.49 112.92 44.49 113.88V114.25L44.5 114.49Z" fill="black"/>
<path d="M69.4 123.74C68.83 124.55 68.28 125.15 67.75 125.52C67.21 125.89 66.62 126.08 65.97 126.08C65.25 126.08 64.67 125.82 64.22 125.31C63.77 124.8 63.54 124.14 63.54 123.32C63.54 122.47 63.76 121.6 64.2 120.72C64.64 119.84 65.2 119.11 65.88 118.54C66.56 117.97 67.22 117.67 67.85 117.67C68.28 117.67 68.62 117.79 68.88 118.03C69.14 118.27 69.27 118.6 69.27 119C69.27 119.37 69.13 119.72 68.86 120.06C68.59 120.4 68.29 120.56 67.97 120.56C67.83 120.56 67.7 120.5 67.59 120.39C68.19 120.12 68.5 119.61 68.5 118.86C68.5 118.6 68.43 118.39 68.3 118.24C68.17 118.09 67.99 118.02 67.76 118.02C67.42 118.02 67.07 118.16 66.72 118.45C66.37 118.73 66.04 119.13 65.74 119.63C65.43 120.14 65.19 120.67 65.02 121.25C64.85 121.82 64.76 122.4 64.76 122.99C64.76 123.69 64.92 124.26 65.25 124.69C65.58 125.12 66 125.34 66.53 125.34C66.99 125.34 67.43 125.19 67.86 124.9C68.29 124.61 68.73 124.16 69.2 123.55L69.4 123.74Z" fill="black"/>
<path d="M70.36 123.14C70.36 122.29 70.59 121.44 71.04 120.59C71.49 119.74 72.07 119.06 72.79 118.53C73.51 118 74.24 117.74 74.98 117.74C75.76 117.74 76.39 118 76.87 118.53C77.35 119.05 77.59 119.73 77.59 120.57C77.59 121.48 77.37 122.36 76.93 123.21C76.49 124.06 75.91 124.76 75.19 125.3C74.47 125.84 73.74 126.12 73.01 126.12C72.22 126.12 71.58 125.85 71.1 125.3C70.6 124.75 70.36 124.03 70.36 123.14ZM76.33 120.02C76.33 119.45 76.19 118.98 75.92 118.62C75.65 118.25 75.29 118.07 74.87 118.07C74.48 118.07 74.11 118.2 73.75 118.45C73.39 118.71 73.06 119.08 72.77 119.57C72.44 120.14 72.16 120.8 71.94 121.56C71.72 122.32 71.61 122.99 71.61 123.57C71.61 124.27 71.74 124.81 72.01 125.19C72.28 125.57 72.67 125.76 73.17 125.76C73.98 125.76 74.69 125.19 75.3 124.04C75.62 123.45 75.87 122.8 76.05 122.07C76.24 121.34 76.33 120.66 76.33 120.02Z" fill="black"/>
<path d="M77.96 124.96L78.74 124.02C79.15 125 79.8 125.49 80.69 125.49C81.15 125.49 81.55 125.34 81.88 125.03C82.21 124.72 82.38 124.37 82.38 123.96C82.38 123.67 82.3 123.42 82.14 123.21C81.98 123 81.6 122.65 81.01 122.16C80.46 121.71 80.09 121.35 79.9 121.09C79.71 120.83 79.61 120.53 79.61 120.19C79.61 119.75 79.74 119.33 79.99 118.96C80.24 118.59 80.59 118.28 81.02 118.04C81.45 117.81 81.9 117.69 82.37 117.69C82.79 117.69 83.14 117.8 83.42 118.01C83.7 118.22 83.85 118.49 83.85 118.83C83.85 119.27 83.67 119.56 83.31 119.72C83.25 119.28 83.09 118.93 82.81 118.68C82.54 118.43 82.18 118.3 81.76 118.3C81.38 118.3 81.05 118.43 80.76 118.68C80.48 118.93 80.33 119.22 80.33 119.54C80.33 119.94 80.57 120.33 81.06 120.72L81.87 121.39C82.66 122.02 83.06 122.67 83.06 123.33C83.06 123.82 82.92 124.28 82.65 124.71C82.38 125.14 82 125.48 81.53 125.74C81.06 125.99 80.57 126.12 80.04 126.12C79.23 126.12 78.53 125.73 77.96 124.96Z" fill="black"/>
<path d="M90.43 125.71L89.51 126.01L90.61 120.24L90.71 119.74C90.77 119.47 90.79 119.24 90.79 119.06C90.79 118.64 90.63 118.44 90.3 118.44C89.99 118.44 89.62 118.65 89.18 119.07C88.74 119.49 88.28 120.1 87.8 120.89C87.48 121.4 87.21 121.89 86.98 122.37C86.75 122.84 86.54 123.35 86.35 123.88C86.16 124.41 85.98 125.03 85.8 125.72L84.93 126.02L86.37 118.16L87.71 117.58L86.5 122.73C87.12 121.26 87.84 120.06 88.64 119.12C89.44 118.18 90.17 117.71 90.81 117.71C91.51 117.71 91.86 118.11 91.86 118.92C91.86 119.19 91.79 119.68 91.65 120.38L91.19 122.49C92.09 120.73 92.86 119.49 93.48 118.77C94.1 118.05 94.72 117.69 95.34 117.69C95.68 117.69 95.95 117.79 96.15 118C96.35 118.21 96.44 118.51 96.44 118.89C96.44 119.2 96.35 119.74 96.16 120.51L95.73 122.26L95.59 122.81C95.46 123.4 95.39 123.83 95.39 124.11C95.39 124.41 95.44 124.66 95.54 124.84C95.64 125.02 95.77 125.12 95.93 125.12C96.23 125.12 96.69 124.77 97.33 124.07L97.54 124.27L97.41 124.43C96.88 125.06 96.49 125.49 96.23 125.71C95.97 125.93 95.74 126.04 95.53 126.04C95.24 126.04 95 125.89 94.8 125.59C94.6 125.29 94.5 124.92 94.5 124.48C94.5 124.21 94.56 123.76 94.68 123.13L95.2 120.19L95.28 119.68C95.34 119.4 95.36 119.17 95.36 119C95.36 118.83 95.31 118.69 95.21 118.59C95.11 118.49 94.97 118.43 94.79 118.43C94.58 118.43 94.36 118.52 94.11 118.69C93.86 118.86 93.6 119.13 93.32 119.49C93.04 119.85 92.73 120.32 92.39 120.91C91.93 121.71 91.55 122.46 91.26 123.16C90.98 123.84 90.7 124.7 90.43 125.71Z" fill="black"/>
<path d="M104.04 123.67L104.29 123.88C103.71 124.66 103.15 125.21 102.6 125.56C102.05 125.9 101.46 126.08 100.83 126.08C100.08 126.08 99.47 125.82 99.02 125.31C98.56 124.8 98.34 124.12 98.34 123.28C98.34 122.43 98.56 121.57 99 120.69C99.44 119.82 100 119.09 100.66 118.52C101.32 117.95 101.98 117.66 102.63 117.66C103.01 117.66 103.33 117.77 103.57 118C103.81 118.23 103.94 118.52 103.94 118.88C103.94 119.61 103.55 120.34 102.77 121.06C101.99 121.78 100.92 122.41 99.58 122.92C99.57 123 99.57 123.08 99.57 123.18C99.57 123.83 99.75 124.36 100.1 124.78C100.45 125.2 100.91 125.4 101.47 125.4C101.91 125.4 102.33 125.26 102.74 124.98C103.13 124.7 103.57 124.26 104.04 123.67ZM99.57 122.59C100.57 122.14 101.35 121.63 101.89 121.07C102.25 120.69 102.55 120.28 102.77 119.85C102.99 119.42 103.1 119.02 103.1 118.67C103.1 118.23 102.9 118 102.5 118C101.9 118 101.28 118.48 100.67 119.45C100.05 120.43 99.68 121.47 99.57 122.59Z" fill="black"/>
<path d="M107.91 118.29L106.85 123.01C106.74 123.53 106.68 123.9 106.68 124.12C106.68 124.46 106.76 124.74 106.92 124.94C107.08 125.14 107.29 125.25 107.55 125.25C107.8 125.25 108.03 125.18 108.24 125.03C108.45 124.88 108.77 124.58 109.2 124.11L109.37 123.94L109.58 124.15C109.03 124.83 108.57 125.31 108.21 125.59C107.84 125.87 107.48 126.01 107.13 126.01C106.68 126.01 106.33 125.86 106.06 125.56C105.79 125.26 105.66 124.87 105.66 124.39C105.66 124.03 105.73 123.51 105.87 122.83L106.78 118.28H105.44L105.54 117.8H106.88L107.66 113.97L109 113.43L108.02 117.8H110.28L110.18 118.28H107.91V118.29Z" fill="black"/>
<path d="M110.37 123.14C110.37 122.29 110.6 121.44 111.05 120.59C111.5 119.74 112.08 119.06 112.8 118.53C113.52 118 114.25 117.74 114.99 117.74C115.77 117.74 116.4 118 116.88 118.53C117.36 119.05 117.6 119.73 117.6 120.57C117.6 121.48 117.38 122.36 116.94 123.21C116.5 124.06 115.92 124.76 115.2 125.3C114.48 125.84 113.75 126.12 113.02 126.12C112.23 126.12 111.59 125.85 111.11 125.3C110.61 124.75 110.37 124.03 110.37 123.14ZM116.34 120.02C116.34 119.45 116.2 118.98 115.93 118.62C115.66 118.25 115.3 118.07 114.88 118.07C114.49 118.07 114.12 118.2 113.76 118.45C113.4 118.71 113.07 119.08 112.78 119.57C112.45 120.14 112.17 120.8 111.95 121.56C111.73 122.32 111.62 122.99 111.62 123.57C111.62 124.27 111.75 124.81 112.02 125.19C112.29 125.57 112.68 125.76 113.18 125.76C113.99 125.76 114.7 125.19 115.31 124.04C115.63 123.45 115.88 122.8 116.06 122.07C116.25 121.34 116.34 120.66 116.34 120.02Z" fill="black"/>
<path d="M123.97 105.88L120.3 122.23L120.17 122.78C120.05 123.3 119.99 123.74 119.99 124.1C119.99 124.39 120.04 124.63 120.15 124.82C120.26 125 120.39 125.1 120.55 125.1C120.84 125.1 121.3 124.75 121.93 124.05L122.15 124.25L122.01 124.41C121.48 125.04 121.09 125.47 120.84 125.69C120.59 125.91 120.36 126.02 120.14 126.02C119.86 126.02 119.62 125.86 119.41 125.54C119.2 125.22 119.1 124.86 119.1 124.46C119.1 124.18 119.16 123.73 119.28 123.11L122.5 106.6L123.97 105.88Z" fill="black"/>
<path d="M122.85 123.14C122.85 122.29 123.08 121.44 123.53 120.59C123.98 119.74 124.56 119.06 125.28 118.53C126 118 126.73 117.74 127.47 117.74C128.25 117.74 128.88 118 129.36 118.53C129.84 119.05 130.08 119.73 130.08 120.57C130.08 121.48 129.86 122.36 129.42 123.21C128.98 124.06 128.4 124.76 127.68 125.3C126.96 125.84 126.23 126.12 125.5 126.12C124.71 126.12 124.07 125.85 123.59 125.3C123.09 124.75 122.85 124.03 122.85 123.14ZM128.82 120.02C128.82 119.45 128.68 118.98 128.41 118.62C128.14 118.25 127.78 118.07 127.36 118.07C126.97 118.07 126.6 118.2 126.24 118.45C125.88 118.71 125.55 119.08 125.26 119.57C124.93 120.14 124.65 120.8 124.43 121.56C124.21 122.32 124.1 122.99 124.1 123.57C124.1 124.27 124.23 124.81 124.5 125.19C124.77 125.57 125.16 125.76 125.66 125.76C126.47 125.76 127.18 125.19 127.79 124.04C128.11 123.45 128.36 122.8 128.54 122.07C128.73 121.34 128.82 120.66 128.82 120.02Z" fill="black"/>
<path d="M139.02 117.48L136.89 126.12C136.68 127.05 136.49 127.73 136.32 128.16C136.16 128.6 135.96 128.99 135.73 129.35C135.29 130.03 134.76 130.55 134.13 130.92C133.5 131.28 132.83 131.47 132.1 131.47C131.44 131.47 130.86 131.28 130.36 130.9L131.07 129.96C131.67 130.55 132.27 130.84 132.87 130.84C133.25 130.84 133.64 130.72 134.03 130.47C134.42 130.22 134.71 129.92 134.9 129.56C135.14 129.13 135.39 128.34 135.65 127.19L136.72 122.51C135.47 124.87 134.21 126.06 132.93 126.06C132.41 126.06 131.99 125.86 131.67 125.46C131.35 125.06 131.19 124.54 131.19 123.92C131.19 123.03 131.44 122.1 131.93 121.14C132.42 120.18 133.04 119.37 133.79 118.74C134.54 118.1 135.27 117.78 135.97 117.78C136.63 117.78 137.18 118.03 137.62 118.53L137.75 118.03L139.02 117.48ZM137.46 119.24C137.1 118.53 136.62 118.18 136.02 118.18C135.4 118.18 134.78 118.53 134.18 119.23C133.69 119.82 133.27 120.55 132.92 121.44C132.57 122.32 132.4 123.12 132.4 123.82C132.4 124.29 132.5 124.66 132.7 124.93C132.9 125.2 133.18 125.33 133.54 125.33C133.91 125.33 134.32 125.12 134.77 124.71C135.22 124.29 135.67 123.71 136.12 122.95C136.63 122.09 137.03 121.07 137.31 119.89L137.46 119.24Z" fill="black"/>
<path d="M138.63 130.9L139.31 129.96C139.85 130.55 140.46 130.84 141.14 130.84C141.86 130.84 142.43 130.55 142.87 129.97C143.31 129.39 143.67 128.45 143.94 127.13L144.58 124.19C143.56 125.41 142.63 126.02 141.8 126.02C141.32 126.02 140.94 125.87 140.66 125.57C140.39 125.27 140.25 124.86 140.25 124.35C140.25 124.01 140.29 123.64 140.38 123.23L141.33 118.14L142.68 117.56L141.33 123.28C141.22 123.74 141.16 124.09 141.16 124.32C141.16 124.64 141.25 124.9 141.45 125.11C141.64 125.31 141.89 125.41 142.21 125.41C142.55 125.41 142.93 125.26 143.35 124.95C143.77 124.64 144.23 124.18 144.74 123.57L145.94 118.15L147.25 117.57L145.21 125.91C144.97 126.91 144.74 127.7 144.52 128.26C144.3 128.82 144.05 129.3 143.76 129.68C142.85 130.87 141.74 131.47 140.43 131.47C139.67 131.47 139.07 131.28 138.63 130.9Z" fill="black"/>
<path d="M6.72999 98.4799C7.16999 98.4799 7.59999 98.4199 8.02999 98.2999C8.45999 98.1799 8.83999 97.9999 9.16999 97.7699C9.49999 97.5299 9.76999 97.2399 9.97999 96.8999C10.19 96.5599 10.28 96.1599 10.28 95.7099C10.28 95.1699 10.14 94.6899 9.85999 94.2699C9.57999 93.8499 9.20999 93.4599 8.75999 93.1099C8.30999 92.7499 7.78999 92.4199 7.19999 92.1099C6.61999 91.7999 6.01999 91.4899 5.41999 91.1799C4.81999 90.8699 4.21999 90.5399 3.63999 90.1999C3.05999 89.8599 2.53999 89.4799 2.07999 89.0599C1.62999 88.6399 1.25999 88.1699 0.97999 87.6499C0.69999 87.1299 0.55999 86.5299 0.55999 85.8499C0.55999 85.1699 0.68999 84.5399 0.93999 83.9699C1.18999 83.3899 1.56999 82.8899 2.05999 82.4699C2.54999 82.0499 3.14999 81.7099 3.86999 81.4699C4.57999 81.2299 5.40999 81.1099 6.33999 81.1099C8.01999 81.1099 9.33999 81.4599 10.31 82.1599C11.28 82.8599 11.98 83.8799 12.41 85.2099L10.89 85.9099C10.71 85.3699 10.49 84.8699 10.21 84.4199C9.93999 83.9699 9.59999 83.5899 9.21999 83.2599C8.82999 82.9399 8.38999 82.6899 7.88999 82.5199C7.38999 82.3499 6.82999 82.2599 6.19999 82.2599C5.63999 82.2599 5.14999 82.3399 4.72999 82.4899C4.30999 82.6499 3.95999 82.8499 3.68999 83.0999C3.40999 83.3499 3.20999 83.6299 3.06999 83.9499C2.92999 84.2699 2.85999 84.5899 2.85999 84.9199C2.85999 85.3899 2.99999 85.8099 3.28999 86.1999C3.57999 86.5799 3.94999 86.9499 4.41999 87.2999C4.88999 87.6499 5.41999 87.9799 6.01999 88.2999C6.61999 88.6199 7.22999 88.9399 7.84999 89.2699C8.46999 89.5999 9.07999 89.9399 9.67999 90.2999C10.28 90.6599 10.81 91.0499 11.28 91.4699C11.75 91.8899 12.12 92.3599 12.41 92.8599C12.7 93.3599 12.84 93.9199 12.84 94.5399C12.84 95.2399 12.71 95.8999 12.44 96.5099C12.17 97.1199 11.77 97.6599 11.24 98.1199C10.71 98.5799 10.04 98.9499 9.24999 99.2099C8.45999 99.4799 7.53999 99.6099 6.48999 99.6099C5.63999 99.6099 4.88999 99.5199 4.21999 99.3299C3.54999 99.1399 2.95999 98.8699 2.44999 98.5199C1.93999 98.1699 1.49999 97.7299 1.13999 97.2099C0.77999 96.6899 0.46999 96.1099 0.23999 95.4599L1.83999 94.7999C2.02999 95.3799 2.27999 95.8899 2.58999 96.3499C2.89999 96.8099 3.26999 97.1899 3.68999 97.5099C4.10999 97.8299 4.56999 98.0699 5.08999 98.2299C5.60999 98.3899 6.14999 98.4799 6.72999 98.4799Z" fill="black"/>
<path d="M25.2 99.6098C24.29 99.6098 23.41 99.4998 22.57 99.2698C21.73 99.0498 20.95 98.7298 20.23 98.3198C19.51 97.9098 18.85 97.4198 18.26 96.8498C17.67 96.2798 17.16 95.6498 16.75 94.9498C16.33 94.2598 16.01 93.5098 15.79 92.7198C15.57 91.9298 15.45 91.0899 15.45 90.2299C15.45 89.3799 15.56 88.5698 15.79 87.7898C16.02 87.0098 16.34 86.2798 16.75 85.6098C17.16 84.9298 17.67 84.3198 18.26 83.7598C18.85 83.2098 19.51 82.7298 20.23 82.3298C20.95 81.9298 21.73 81.6199 22.57 81.4099C23.41 81.1899 24.28 81.0898 25.2 81.0898C26.11 81.0898 26.99 81.1999 27.83 81.4099C28.67 81.6299 29.45 81.9298 30.17 82.3298C30.89 82.7298 31.55 83.1998 32.14 83.7598C32.73 84.3098 33.24 84.9298 33.65 85.6098C34.06 86.2898 34.39 87.0198 34.61 87.7898C34.84 88.5698 34.95 89.3799 34.95 90.2299C34.95 91.0899 34.84 91.9098 34.61 92.7098C34.38 93.5098 34.06 94.2598 33.65 94.9498C33.23 95.6398 32.73 96.2798 32.14 96.8498C31.55 97.4198 30.89 97.9098 30.17 98.3198C29.45 98.7298 28.67 99.0398 27.83 99.2698C26.99 99.4998 26.12 99.6098 25.2 99.6098ZM25.2 98.7198C26.21 98.7198 27.1 98.5098 27.88 98.0898C28.66 97.6698 29.31 97.0798 29.84 96.3198C30.37 95.5698 30.77 94.6698 31.05 93.6298C31.32 92.5898 31.46 91.4599 31.46 90.2299C31.46 89.0199 31.32 87.9098 31.05 86.8998C30.77 85.8898 30.37 85.0198 29.84 84.2798C29.31 83.5498 28.66 82.9798 27.88 82.5698C27.1 82.1598 26.21 81.9598 25.2 81.9598C24.17 81.9598 23.26 82.1598 22.48 82.5698C21.7 82.9798 21.04 83.5498 20.52 84.2798C19.99 85.0098 19.6 85.8798 19.33 86.8998C19.06 87.9198 18.93 89.0199 18.93 90.2299C18.93 91.4599 19.06 92.5898 19.33 93.6298C19.6 94.6698 19.99 95.5598 20.52 96.3198C21.04 97.0698 21.7 97.6598 22.48 98.0898C23.26 98.5098 24.17 98.7198 25.2 98.7198Z" fill="black"/>
<path d="M46.25 81.5H53.37C54.31 81.5 55.17 81.61 55.96 81.82C56.75 82.03 57.42 82.33 57.98 82.71C58.54 83.09 58.98 83.55 59.29 84.08C59.6 84.61 59.76 85.2 59.76 85.84C59.76 86.32 59.71 86.76 59.61 87.14C59.51 87.52 59.34 87.87 59.09 88.2C58.84 88.53 58.51 88.83 58.1 89.13C57.68 89.42 57.16 89.72 56.54 90.01V90.06C57.17 90.16 57.74 90.33 58.25 90.57C58.76 90.81 59.2 91.12 59.56 91.49C59.92 91.86 60.2 92.29 60.39 92.78C60.58 93.27 60.68 93.81 60.68 94.4C60.68 95.07 60.53 95.69 60.24 96.28C59.95 96.86 59.53 97.37 59 97.8C58.47 98.23 57.81 98.57 57.05 98.82C56.29 99.07 55.44 99.19 54.5 99.19H46.25V81.5ZM49.23 89.46H53.01C53.6 89.46 54.13 89.38 54.6 89.21C55.07 89.04 55.46 88.81 55.77 88.5C56.09 88.2 56.33 87.85 56.49 87.44C56.65 87.03 56.74 86.59 56.74 86.11C56.74 85.59 56.64 85.12 56.45 84.7C56.26 84.28 55.95 83.91 55.54 83.61C55.12 83.31 54.6 83.08 53.97 82.92C53.34 82.76 52.57 82.68 51.68 82.68H49.23V89.46ZM49.23 97.89H52.44C53.3 97.89 54.05 97.81 54.69 97.64C55.33 97.47 55.85 97.24 56.26 96.95C56.67 96.65 56.98 96.3 57.18 95.88C57.38 95.46 57.48 95 57.48 94.5C57.48 93.94 57.39 93.42 57.21 92.94C57.03 92.46 56.74 92.04 56.33 91.69C55.92 91.34 55.39 91.06 54.74 90.86C54.09 90.66 53.29 90.56 52.34 90.56H49.22V97.89H49.23Z" fill="black"/>
<path d="M75.84 81.5V82.64H66.52V88.96H72.75V90.1H66.52V98.04H75.84V99.18H63.55V81.5H75.84Z" fill="black"/>
<path d="M86.24 81.0898L94.57 99.1798H91.55L88.85 93.2798H81.27L78.48 99.1798H76.99L85.51 81.0898H86.24ZM81.78 92.1398H88.29L85.08 85.1398L81.78 92.1398Z" fill="black"/>
<path d="M96.28 81.5H99.25V92.98C99.25 93.73 99.38 94.44 99.64 95.11C99.9 95.77 100.27 96.36 100.75 96.86C101.23 97.36 101.81 97.75 102.49 98.04C103.17 98.33 103.93 98.47 104.76 98.47C105.61 98.47 106.37 98.33 107.05 98.04C107.73 97.75 108.3 97.36 108.78 96.86C109.25 96.36 109.62 95.78 109.87 95.11C110.12 94.44 110.25 93.74 110.25 92.98V81.5H111.56V92.98C111.56 93.89 111.41 94.74 111.12 95.54C110.83 96.34 110.37 97.04 109.74 97.65C109.11 98.26 108.31 98.73 107.33 99.08C106.35 99.43 105.18 99.61 103.81 99.61C102.59 99.61 101.51 99.43 100.57 99.08C99.63 98.73 98.84 98.25 98.21 97.64C97.57 97.03 97.09 96.32 96.77 95.51C96.44 94.7 96.28 93.83 96.28 92.92V81.5Z" fill="black"/>
<path d="M129.75 81.5V82.64H123.35V99.18H120.38V82.64H113.97V81.5H129.75Z" fill="black"/>
<path d="M133.35 81.5L139.48 90.46L145.59 81.5H147.2L140.34 91.54V99.18H137.37V91.82L130.3 81.5H133.35Z" fill="black"/>
<path d="M43.81 41.8198C44.13 43.1398 44.59 44.3798 45.19 45.5298C45.79 46.6798 46.55 47.6898 47.47 48.5298C48.39 49.3798 49.49 50.0398 50.75 50.5298C52.02 51.0198 53.49 51.2598 55.15 51.2598C56.27 51.2598 57.37 51.1398 58.45 50.9098C59.53 50.6698 60.5 50.2898 61.36 49.7698C62.22 49.2498 62.91 48.5598 63.43 47.6998C63.95 46.8398 64.21 45.7898 64.21 44.5498C64.21 42.9598 63.81 41.5498 63 40.3298C62.19 39.1098 61.12 37.9998 59.79 36.9898C58.46 35.9798 56.94 35.0398 55.24 34.1698C53.54 33.2998 51.8 32.4198 50.03 31.5398C48.26 30.6598 46.53 29.7398 44.82 28.7798C43.12 27.8198 41.6 26.7498 40.27 25.5498C39.81 25.1398 39.4 24.7098 39.01 24.2598C37.86 27.7398 37.23 31.4598 37.23 35.3298C37.23 37.5498 37.44 39.7098 37.84 41.8198H43.81Z" fill="url(#paint0_linear_164_4124)"/>
<path d="M89.78 62.97H67.83V54.14C66.74 54.68 65.54 55.15 64.24 55.54C61.64 56.32 58.65 56.72 55.27 56.72C52.08 56.72 49.3 56.35 46.91 55.6C45.18 55.06 43.64 54.36 42.28 53.52C48.46 63.8 59.71 70.67 72.58 70.67C81.25 70.67 89.19 67.54 95.34 62.35C93.62 62.75 91.77 62.97 89.78 62.97Z" fill="url(#paint1_linear_164_4124)"/>
<path d="M72.58 0C68.46 0 64.52 0.71 60.84 2C61.81 2.18 62.74 2.41 63.63 2.71C65.79 3.46 67.7 4.47 69.36 5.75C71.01 7.03 72.41 8.54 73.54 10.28C74.67 12.02 75.54 13.9 76.13 15.91H67.92C67.45 14.64 66.9 13.44 66.28 12.29C65.66 11.15 64.89 10.14 63.97 9.27C63.05 8.4 61.94 7.71 60.65 7.2C59.36 6.69 57.8 6.43 55.99 6.43C54.3 6.43 52.87 6.65 51.7 7.1C51.4 7.21 51.13 7.34 50.86 7.47C49.77 8.32 48.73 9.23 47.75 10.19C47.58 10.48 47.42 10.78 47.31 11.09C47 11.94 46.84 12.77 46.84 13.59C46.84 15.01 47.26 16.3 48.09 17.45C48.92 18.61 50.03 19.68 51.41 20.66C52.79 21.64 54.35 22.59 56.09 23.5C57.83 24.41 59.62 25.32 61.45 26.24C63.28 27.16 65.07 28.12 66.82 29.11C67.17 29.31 67.5 29.51 67.83 29.72V18.38H86.96C89.53 18.38 91.88 18.65 94.02 19.19C96.16 19.73 98 20.51 99.53 21.51C101.06 22.51 102.26 23.71 103.11 25.11C103.97 26.51 104.39 28.06 104.39 29.77C104.39 30.84 104.28 31.81 104.05 32.7C103.82 33.59 103.44 34.43 102.92 35.22C102.4 36.01 101.7 36.78 100.82 37.51C99.94 38.24 98.87 38.97 97.6 39.7C98.91 40.12 100.12 40.68 101.22 41.37C102.32 42.07 103.26 42.88 104.07 43.8C104.87 44.72 105.5 45.74 105.95 46.87C105.95 46.88 105.96 46.89 105.96 46.9C107.22 43.27 107.91 39.38 107.91 35.33C107.91 15.82 92.09 0 72.58 0Z" fill="url(#paint2_linear_164_4124)"/>
<path d="M89.07 37.15C89.98 36.78 90.75 36.28 91.37 35.63C92 34.98 92.48 34.22 92.81 33.33C93.14 32.44 93.31 31.47 93.31 30.4C93.31 29.25 93.11 28.19 92.7 27.22C92.29 26.25 91.66 25.42 90.81 24.73C89.95 24.04 88.87 23.5 87.55 23.12C86.23 22.73 84.67 22.54 82.85 22.54H78.75V37.7H85.98C87.14 37.7 88.16 37.52 89.07 37.15Z" fill="url(#paint3_linear_164_4124)"/>
<path d="M78.76 58.39H84.8C86.57 58.39 88.11 58.2 89.4 57.81C90.69 57.42 91.76 56.9 92.61 56.23C93.46 55.56 94.08 54.76 94.49 53.84C94.9 52.91 95.1 51.89 95.1 50.79C95.1 49.54 94.91 48.38 94.54 47.31C94.16 46.24 93.56 45.32 92.72 44.54C91.88 43.76 90.78 43.14 89.42 42.69C88.05 42.24 86.39 42.02 84.43 42.02H78.76V58.39Z" fill="url(#paint4_linear_164_4124)"/>
</g>
<defs>
<linearGradient id="paint0_linear_164_4124" x1="50.7328" y1="24.2666" x2="50.7328" y2="51.264" gradientUnits="userSpaceOnUse">
<stop stop-color="#E3C2C0"/>
<stop offset="1" stop-color="#BC8580"/>
</linearGradient>
<linearGradient id="paint1_linear_164_4124" x1="68.808" y1="53.5135" x2="68.808" y2="70.6666" gradientUnits="userSpaceOnUse">
<stop stop-color="#E3C2C0"/>
<stop offset="1" stop-color="#BC8580"/>
</linearGradient>
<linearGradient id="paint2_linear_164_4124" x1="77.3711" y1="0" x2="77.3711" y2="46.9059" gradientUnits="userSpaceOnUse">
<stop stop-color="#E3C2C0"/>
<stop offset="1" stop-color="#BC8580"/>
</linearGradient>
<linearGradient id="paint3_linear_164_4124" x1="86.0357" y1="22.5435" x2="86.0357" y2="37.6981" gradientUnits="userSpaceOnUse">
<stop stop-color="#E3C2C0"/>
<stop offset="1" stop-color="#BC8580"/>
</linearGradient>
<linearGradient id="paint4_linear_164_4124" x1="86.9283" y1="42.0187" x2="86.9283" y2="58.3936" gradientUnits="userSpaceOnUse">
<stop stop-color="#E3C2C0"/>
<stop offset="1" stop-color="#BC8580"/>
</linearGradient>
<clipPath id="clip0_164_4124">
<rect width="147.25" height="131.47" fill="white"/>
</clipPath>
</defs>
</svg>
