<svg width="22" height="19" viewBox="0 0 22 19" fill="none" xmlns="http://www.w3.org/2000/svg">
<g clip-path="url(#clip0_88_9985)">
<path d="M0 16.31C1.99 17.59 4.36 18.33 6.9 18.33C15.26 18.33 19.98 11.27 19.7 4.93C20.58 4.3 21.34 3.5 21.95 2.6C21.14 2.96 20.27 3.2 19.36 3.31C20.29 2.75 21 1.87 21.34 0.82C20.47 1.34 19.51 1.71 18.48 1.91C17.66 1.05 16.49 0.5 15.2 0.5C12.29 0.5 10.16 3.21 10.81 6.03C7.07 5.84 3.75 4.05 1.53 1.32C0.35 3.35 0.92 6 2.92 7.34C2.18 7.31 1.49 7.11 0.88 6.77C0.83 8.86 2.33 10.81 4.49 11.24C3.86 11.41 3.16 11.45 2.46 11.32C3.03 13.11 4.7 14.41 6.67 14.45C4.77 15.93 2.39 16.6 0 16.31Z" fill="#F4F4F4"/>
</g>
<defs>
<clipPath id="clip0_88_9985">
<rect width="21.95" height="17.84" fill="white" transform="translate(0 0.5)"/>
</clipPath>
</defs>
</svg>
