<svg width="21" height="17" viewBox="0 0 21 17" fill="none" xmlns="http://www.w3.org/2000/svg">
<g clip-path="url(#clip0_71_406)">
<path d="M0.600098 14.6289C2.3911 15.7809 4.5241 16.4469 6.8101 16.4469C14.3341 16.4469 18.5821 10.0929 18.3301 4.3869C19.1221 3.8199 19.8061 3.0999 20.3551 2.2899C19.6261 2.6139 18.8431 2.8299 18.0241 2.9289C18.8611 2.4249 19.5001 1.6329 19.8061 0.687902C19.0231 1.1559 18.1591 1.4889 17.2321 1.6689C16.4941 0.894902 15.4411 0.399902 14.2801 0.399902C11.6611 0.399902 9.7441 2.8389 10.3291 5.3769C6.9631 5.2059 3.9751 3.5949 1.9771 1.1379C0.915098 2.9649 1.4281 5.3499 3.2281 6.5559C2.5621 6.5289 1.9411 6.3489 1.3921 6.0429C1.3471 7.9239 2.6971 9.6789 4.6411 10.0659C4.0741 10.2189 3.4441 10.2549 2.8141 10.1379C3.3271 11.7489 4.8301 12.9189 6.6031 12.9549C4.8931 14.2869 2.7511 14.8899 0.600098 14.6289Z" fill="#242425"/>
</g>
<defs>
<clipPath id="clip0_71_406">
<rect width="19.755" height="16.056" fill="white" transform="translate(0.600098 0.399902)"/>
</clipPath>
</defs>
</svg>
