<svg width="1200" height="370" viewBox="0 0 1200 370" fill="none" xmlns="http://www.w3.org/2000/svg">
<path d="M1065.48 369.254C1044.76 369.254 1024.75 367.458 1006.41 363.109C983.781 357.768 965.236 350.205 949.685 339.995C935.788 330.872 924.601 319.795 915.478 306.135C898.509 280.735 891.67 251.003 884.407 219.538C873.172 170.757 861.544 120.321 809.375 86.2556C775.389 64.055 733.714 64.9531 682.001 88.9657C636.907 109.906 590.221 145.61 549.034 177.106C526.66 194.218 505.074 210.714 485.521 223.524C465.935 238.146 445.767 251.665 424.749 260.252C400.405 270.21 377.653 272.211 355.831 266.224C348.551 265.42 341.996 263.593 336.041 260.772C328.651 257.259 322.522 252.327 317.322 246.245C305.332 236.287 295.531 223.272 287.622 206.87C277.821 186.544 271.786 163.099 265.941 140.426C257.748 108.63 249.286 75.7619 230.363 51.7808C221.997 41.1769 213.898 32.2588 206.02 24.9636C182.133 9.69581 161.099 4.74834 141.797 9.83762C123.882 14.5645 107.228 28.304 90.8571 51.8281C76.251 72.8155 63.189 99.5696 50.5525 125.457C29.2972 168.992 7.31726 213.992 -22.9978 234.16C-45.2299 248.955 -65.3665 256.313 -86.3539 257.353C-105.608 258.298 -124.09 254.013 -145.487 249.05C-158.533 246.024 -172.037 242.889 -187.541 240.462C-211.254 236.744 -232.367 234.412 -252.378 233.136C-287.278 233.813 -321.453 237.752 -354.935 241.597C-403.071 247.127 -452.688 252.847 -502.95 248.514C-508.67 249.207 -514.436 249.9 -520.235 250.609C-655.455 266.996 -808.717 285.557 -928.496 253.304L-929 253.162L-928.512 252.989C-908.028 245.946 -884.252 235.011 -859.058 223.43C-821.589 206.192 -782.829 188.388 -753.79 183.251C-706.458 174.9 -658.906 195.368 -612.929 215.158C-581.621 228.629 -549.258 242.558 -518.076 246.56C-513.034 247.206 -507.992 247.742 -502.95 248.183C-463.228 243.393 -425.571 239.029 -390.765 236.397C-338.47 232.442 -298.323 229.858 -252.362 232.805C-232.32 232.411 -212.058 233.088 -191.574 235.483C-180.592 236.76 -170.76 238.052 -161.244 239.296C-126.848 243.818 -101.984 247.08 -78.9011 241.376C-55.2982 235.546 -33.5388 220.688 -3.82245 190.074C17.8897 167.716 36.8604 135.147 55.2164 103.651C70.4527 77.5108 84.8382 52.8208 100.579 33.6926C109.04 23.4038 117.075 15.7305 125.158 10.2315C134.203 4.07082 143.105 0.761996 152.338 0.115989C169.323 -1.08149 187.128 6.98573 206.225 24.6643C207.737 25.6412 209.281 26.6496 210.825 27.7052C259.859 61.2504 273.961 117.091 286.408 166.361C294.554 198.645 301.881 227.621 317.59 246.009C322.254 249.885 327.264 253.304 332.622 256.266C340.263 260.504 348.063 263.719 355.957 265.893C363.882 266.775 372.642 266.46 382.396 264.963C402.658 261.859 426.655 253.761 455.804 240.194C464.959 235.94 474.869 230.126 485.379 223.256C493.005 217.568 500.552 211.691 508.021 205.893C518.168 197.999 527.747 190.546 537.359 183.645C552.8 172.553 568.792 160.042 585.715 146.791C618.078 121.455 651.545 95.2367 684.68 76.4237C722.369 55.0266 753.567 46.9594 780.053 51.7493C792.469 54.0025 804.113 59.1705 814.638 67.1117C825.84 75.5728 836.177 87.4846 845.363 102.516C867.327 138.456 875.3 174.443 882.989 209.249C890.11 241.455 896.838 271.88 914.501 296.649C934.149 324.207 965.126 341.791 1012.02 352.001C1041.42 358.398 1083.24 358.351 1132.98 351.875C1173.11 346.644 1216.8 337.395 1252.85 326.507C1256.52 325.404 1260.73 324.207 1265.19 322.946C1287.28 316.675 1318.56 307.805 1336.49 294.365C1343.2 285.415 1348.46 274.59 1354.31 260.819C1353.85 256.171 1352.12 252.122 1350.37 247.962C1346.46 238.761 1342.43 229.244 1349.67 211.912C1355.41 198.204 1359.43 185.788 1362.99 174.822C1365.37 167.479 1367.56 160.72 1369.94 154.512C1368.39 142.679 1368.58 132.138 1375.1 122.889C1384.07 110.189 1404.22 101.539 1438.54 95.6463C1458.33 92.243 1480.21 94.6064 1501.96 102.122C1511.24 103.54 1520.61 105.62 1529.77 108.33C1549.27 114.113 1576.27 125.315 1594.09 145.83C1609.76 163.871 1614.57 184.921 1608.39 208.398L1608.23 208.997L1608.09 208.398C1604.06 192.374 1596.04 176.555 1584.28 161.413C1573.13 147.059 1558.82 133.808 1542.89 123.078C1529.66 114.16 1515.78 107.227 1501.85 102.406C1486.16 100.011 1470.87 99.5697 1457.7 101.114C1397.24 108.236 1381.55 125.237 1370.27 154.543C1370.77 158.435 1371.48 162.469 1372.21 166.644C1375.15 183.645 1378.51 202.915 1370.11 223.099C1367.23 230.016 1364.69 236.318 1362.22 242.4C1359.51 249.097 1357.03 255.21 1354.64 260.835C1355.25 267.138 1353.58 274.527 1346.6 284.674C1344.16 288.22 1340.79 291.513 1336.71 294.569C1333.4 298.981 1329.76 302.936 1325.52 306.576C1309.92 319.984 1286.57 329.359 1236.29 342.374C1188.22 354.821 1124.04 369.254 1065.48 369.254ZM754.78 69.9478C774.979 69.9478 793.146 75.305 809.533 86.0035C861.812 120.132 873.44 170.63 884.69 219.475C891.938 250.925 898.776 280.625 915.714 305.961C924.806 319.575 935.961 330.62 949.827 339.727C965.347 349.921 983.876 357.469 1006.45 362.81C1076.63 379.385 1171.16 358.918 1236.17 342.075C1286.4 329.06 1309.7 319.716 1325.27 306.339C1329.21 302.952 1332.64 299.281 1335.76 295.231C1317.66 308.356 1286.98 317.054 1265.22 323.23C1260.76 324.491 1256.55 325.688 1252.88 326.791C1216.82 337.679 1173.11 346.928 1132.96 352.159C1083.19 358.65 1041.32 358.698 1011.89 352.285C964.921 342.059 933.866 324.428 914.186 296.807C896.492 271.991 889.748 241.534 882.626 209.281C874.937 174.507 866.98 138.535 845.032 102.642C835.862 87.6421 825.557 75.7619 814.37 67.3165C803.892 59.3911 792.295 54.2388 779.927 52.0014C753.519 47.2273 722.385 55.2787 684.774 76.6443C651.655 95.4573 618.188 121.644 585.841 146.98C568.918 160.231 552.926 172.758 537.469 183.85C527.858 190.751 518.278 198.204 508.131 206.098C502.049 210.825 495.92 215.583 489.743 220.263C508.099 207.926 528.11 192.626 548.813 176.807C590.016 145.294 636.718 109.591 681.844 88.6348C708.771 76.1873 732.973 69.9478 754.78 69.9478ZM1354.32 261.465C1348.74 274.575 1343.67 284.974 1337.34 293.656C1340.99 290.804 1344.05 287.763 1346.3 284.485C1352.98 274.764 1354.76 267.595 1354.32 261.465ZM-927.929 253.13C-880.029 265.956 -826.773 270.683 -771.469 270.683C-688.654 270.683 -601.238 260.095 -520.282 250.294C-514.988 249.648 -509.71 249.018 -504.478 248.388C-509.016 247.978 -513.57 247.49 -518.123 246.907C-549.337 242.905 -581.731 228.96 -613.055 215.489C-659 195.714 -706.49 175.279 -753.727 183.598C-782.734 188.719 -821.463 206.523 -858.916 223.745C-883.921 235.215 -907.54 246.072 -927.929 253.13ZM357.816 266.413C365.064 268.256 372.39 269.218 379.764 269.312C394.181 269.47 408.835 266.413 424.622 259.969C444.208 251.964 463.068 239.675 481.408 226.187C472.411 231.922 463.856 236.791 455.899 240.494C426.734 254.076 402.69 262.174 382.411 265.294C373.415 266.665 365.253 267.043 357.816 266.413ZM318.819 247.442C323.719 252.847 329.423 257.259 336.182 260.473C341.54 263.025 347.401 264.743 353.845 265.641C346.613 263.498 339.491 260.457 332.432 256.549C327.611 253.887 323.089 250.846 318.819 247.442ZM1369.98 155.142C1367.68 161.192 1365.54 167.779 1363.24 174.9C1359.68 185.867 1355.66 198.299 1349.91 212.022C1342.71 229.228 1346.73 238.682 1350.6 247.821C1352.31 251.838 1353.96 255.746 1354.51 260.189C1356.83 254.706 1359.24 248.75 1361.87 242.274C1364.33 236.192 1366.88 229.89 1369.76 222.973C1378.11 202.868 1374.79 183.645 1371.84 166.691C1371.15 162.721 1370.49 158.876 1369.98 155.142ZM-248.581 233.073C-229.689 234.396 -209.741 236.665 -187.509 240.147C-171.989 242.589 -158.486 245.709 -145.44 248.734C-124.074 253.698 -105.624 257.968 -86.3853 257.022C-65.461 255.998 -45.3718 248.64 -23.1869 233.892C7.06519 213.771 29.0294 168.803 50.2689 125.315C62.9212 99.4278 75.9832 72.6422 90.6207 51.6075C107.023 28.0204 123.74 14.2336 141.734 9.49098C160.705 4.48048 181.361 9.12858 204.712 23.7189C186.167 6.93846 168.882 -0.703338 152.354 0.446871C143.168 1.09288 134.344 4.38594 125.332 10.5151C117.28 15.9983 109.26 23.6559 100.815 33.9132C85.0903 53.0256 70.7206 77.6999 55.4843 103.824C37.1282 135.336 18.1418 167.92 -3.60187 190.31C-33.3655 220.956 -55.1564 235.846 -78.8223 241.691C-101.968 247.411 -126.848 244.134 -161.291 239.611C-170.808 238.367 -180.639 237.075 -191.622 235.798C-210.797 233.577 -229.815 232.836 -248.581 233.073ZM-501.406 248.325C-451.679 252.406 -402.598 246.765 -354.967 241.282C-322.698 237.563 -289.736 233.782 -256.144 232.899C-300.545 230.331 -339.872 232.884 -390.75 236.728C-425.114 239.328 -462.252 243.598 -501.406 248.325ZM207.517 25.8933C215.001 32.9678 222.69 41.5235 230.615 51.5603C249.586 75.6043 258.063 108.503 266.256 140.331C272.086 163.004 278.121 186.434 287.921 206.728C295.516 222.469 304.828 235.058 316.172 244.843C301.219 226.36 294.05 197.983 286.093 166.455C273.646 117.248 259.56 61.471 210.621 27.9889C209.581 27.2641 208.541 26.5708 207.517 25.8933ZM1503.5 102.658C1516.91 107.448 1530.26 114.207 1543 122.794C1558.96 133.54 1573.3 146.823 1584.47 161.192C1596.12 176.177 1604.09 191.823 1608.19 207.689C1614.11 184.559 1609.27 163.808 1593.8 146.003C1573.7 122.873 1537.77 108.173 1503.5 102.658ZM1456.83 94.4174C1450.59 94.4174 1444.48 94.9215 1438.56 95.9299C1404.33 101.807 1384.24 110.426 1375.33 123.047C1368.96 132.059 1368.68 142.332 1370.13 153.866C1381.42 124.78 1397.34 107.889 1457.6 100.783C1470.45 99.2703 1485.15 99.6642 1500.18 101.839C1485.54 96.9541 1470.86 94.4174 1456.83 94.4174Z" fill="#DFBE97"/>
</svg>
