<svg width="1920" height="370" viewBox="0 0 1920 370" fill="none" xmlns="http://www.w3.org/2000/svg">
<path d="M1596.48 369.254C1575.76 369.254 1555.75 367.458 1537.41 363.109C1514.78 357.768 1496.24 350.205 1480.68 339.995C1466.79 330.872 1455.6 319.795 1446.48 306.135C1429.51 280.735 1422.67 251.003 1415.41 219.538C1404.17 170.757 1392.54 120.321 1340.38 86.2556C1306.39 64.055 1264.71 64.9531 1213 88.9657C1167.91 109.906 1121.22 145.61 1080.03 177.106C1057.66 194.218 1036.07 210.714 1016.52 223.524C996.935 238.146 976.767 251.665 955.749 260.252C931.405 270.21 908.653 272.211 886.831 266.224C879.551 265.42 872.996 263.593 867.041 260.772C859.651 257.259 853.522 252.327 848.322 246.245C836.332 236.287 826.531 223.272 818.622 206.87C808.821 186.544 802.786 163.099 796.941 140.426C788.748 108.63 780.286 75.7619 761.363 51.7808C752.997 41.1769 744.898 32.2588 737.02 24.9636C713.133 9.69581 692.099 4.74834 672.797 9.83762C654.882 14.5645 638.228 28.304 621.857 51.8281C607.251 72.8155 594.189 99.5696 581.552 125.457C560.297 168.992 538.317 213.992 508.002 234.16C485.77 248.955 465.633 256.313 444.646 257.353C425.392 258.298 406.91 254.013 385.513 249.05C372.467 246.024 358.963 242.889 343.459 240.462C319.746 236.744 298.633 234.412 278.622 233.136C243.722 233.813 209.547 237.752 176.065 241.597C127.929 247.127 78.3125 252.847 28.0499 248.514C22.3304 249.207 16.5636 249.9 10.7653 250.609C-124.455 266.996 -277.717 285.557 -397.496 253.304L-398 253.162L-397.512 252.989C-377.028 245.946 -353.252 235.011 -328.058 223.43C-290.589 206.192 -251.829 188.388 -222.79 183.251C-175.458 174.9 -127.906 195.368 -81.9289 215.158C-50.6212 228.629 -18.2578 242.558 12.9239 246.56C17.9659 247.206 23.0079 247.742 28.0499 248.183C67.7715 243.393 105.429 239.029 140.235 236.397C192.53 232.442 232.677 229.858 278.638 232.805C298.68 232.411 318.942 233.088 339.426 235.483C350.408 236.76 360.24 238.052 369.756 239.296C404.152 243.818 429.016 247.08 452.099 241.376C475.702 235.546 497.461 220.688 527.178 190.074C548.89 167.716 567.86 135.147 586.216 103.651C601.453 77.5108 615.838 52.8208 631.579 33.6926C640.04 23.4038 648.075 15.7305 656.158 10.2315C665.203 4.07082 674.105 0.761996 683.338 0.115989C700.323 -1.08149 718.128 6.98573 737.225 24.6643C738.737 25.6412 740.281 26.6496 741.825 27.7052C790.859 61.2504 804.961 117.091 817.408 166.361C825.554 198.645 832.881 227.621 848.59 246.009C853.254 249.885 858.264 253.304 863.622 256.266C871.263 260.504 879.063 263.719 886.957 265.893C894.882 266.775 903.642 266.46 913.396 264.963C933.658 261.859 957.655 253.761 986.804 240.194C995.959 235.94 1005.87 230.126 1016.38 223.256C1024 217.568 1031.55 211.691 1039.02 205.893C1049.17 197.999 1058.75 190.546 1068.36 183.645C1083.8 172.553 1099.79 160.042 1116.71 146.791C1149.08 121.455 1182.54 95.2367 1215.68 76.4237C1253.37 55.0266 1284.57 46.9594 1311.05 51.7493C1323.47 54.0025 1335.11 59.1705 1345.64 67.1117C1356.84 75.5728 1367.18 87.4846 1376.36 102.516C1398.33 138.456 1406.3 174.443 1413.99 209.249C1421.11 241.455 1427.84 271.88 1445.5 296.649C1465.15 324.207 1496.13 341.791 1543.02 352.001C1572.42 358.398 1614.24 358.351 1663.98 351.875C1704.11 346.644 1747.8 337.395 1783.85 326.507C1787.52 325.404 1791.73 324.207 1796.19 322.946C1818.28 316.675 1849.56 307.805 1867.49 294.365C1874.2 285.415 1879.46 274.59 1885.31 260.819C1884.85 256.171 1883.12 252.122 1881.37 247.962C1877.46 238.761 1873.43 229.244 1880.67 211.912C1886.41 198.204 1890.43 185.788 1893.99 174.822C1896.37 167.479 1898.56 160.72 1900.94 154.512C1899.39 142.679 1899.58 132.138 1906.1 122.889C1915.07 110.189 1935.22 101.539 1969.54 95.6463C1989.33 92.243 2011.21 94.6064 2032.96 102.122C2042.24 103.54 2051.61 105.62 2060.77 108.33C2080.27 114.113 2107.27 125.315 2125.09 145.83C2140.76 163.871 2145.57 184.921 2139.39 208.398L2139.23 208.997L2139.09 208.398C2135.06 192.374 2127.04 176.555 2115.28 161.413C2104.13 147.059 2089.82 133.808 2073.89 123.078C2060.66 114.16 2046.78 107.227 2032.85 102.406C2017.16 100.011 2001.87 99.5697 1988.7 101.114C1928.24 108.236 1912.55 125.237 1901.27 154.543C1901.77 158.435 1902.48 162.469 1903.21 166.644C1906.15 183.645 1909.51 202.915 1901.11 223.099C1898.23 230.016 1895.69 236.318 1893.22 242.4C1890.51 249.097 1888.03 255.21 1885.64 260.835C1886.25 267.138 1884.58 274.527 1877.6 284.674C1875.16 288.22 1871.79 291.513 1867.71 294.569C1864.4 298.981 1860.76 302.936 1856.52 306.576C1840.92 319.984 1817.57 329.359 1767.29 342.374C1719.22 354.821 1655.04 369.254 1596.48 369.254ZM1285.78 69.9478C1305.98 69.9478 1324.15 75.305 1340.53 86.0035C1392.81 120.132 1404.44 170.63 1415.69 219.475C1422.94 250.925 1429.78 280.625 1446.71 305.961C1455.81 319.575 1466.96 330.62 1480.83 339.727C1496.35 349.921 1514.88 357.469 1537.45 362.81C1607.63 379.385 1702.16 358.918 1767.17 342.075C1817.4 329.06 1840.7 319.716 1856.27 306.339C1860.21 302.952 1863.64 299.281 1866.76 295.231C1848.66 308.356 1817.98 317.054 1796.22 323.23C1791.76 324.491 1787.55 325.688 1783.88 326.791C1747.82 337.679 1704.11 346.928 1663.96 352.159C1614.19 358.65 1572.32 358.698 1542.89 352.285C1495.92 342.059 1464.87 324.428 1445.19 296.807C1427.49 271.991 1420.75 241.534 1413.63 209.281C1405.94 174.507 1397.98 138.535 1376.03 102.642C1366.86 87.6421 1356.56 75.7619 1345.37 67.3165C1334.89 59.3911 1323.3 54.2388 1310.93 52.0014C1284.52 47.2273 1253.38 55.2787 1215.77 76.6443C1182.65 95.4573 1149.19 121.644 1116.84 146.98C1099.92 160.231 1083.93 172.758 1068.47 183.85C1058.86 190.751 1049.28 198.204 1039.13 206.098C1033.05 210.825 1026.92 215.583 1020.74 220.263C1039.1 207.926 1059.11 192.626 1079.81 176.807C1121.02 145.294 1167.72 109.591 1212.84 88.6348C1239.77 76.1873 1263.97 69.9478 1285.78 69.9478ZM1885.32 261.465C1879.74 274.575 1874.67 284.974 1868.34 293.656C1871.99 290.804 1875.05 287.763 1877.3 284.485C1883.98 274.764 1885.76 267.595 1885.32 261.465ZM-396.929 253.13C-349.029 265.956 -295.773 270.683 -240.469 270.683C-157.654 270.683 -70.2378 260.095 10.718 250.294C16.0121 249.648 21.2905 249.018 26.5216 248.388C21.9838 247.978 17.4302 247.49 12.8766 246.907C-18.3366 242.905 -50.7315 228.96 -82.055 215.489C-128 195.714 -175.49 175.279 -222.727 183.598C-251.734 188.719 -290.463 206.523 -327.916 223.745C-352.921 235.215 -376.54 246.072 -396.929 253.13ZM888.816 266.413C896.064 268.256 903.39 269.218 910.764 269.312C925.181 269.47 939.835 266.413 955.622 259.969C975.208 251.964 994.068 239.675 1012.41 226.187C1003.41 231.922 994.856 236.791 986.899 240.494C957.734 254.076 933.69 262.174 913.411 265.294C904.415 266.665 896.253 267.043 888.816 266.413ZM849.819 247.442C854.719 252.847 860.423 257.259 867.182 260.473C872.54 263.025 878.401 264.743 884.845 265.641C877.613 263.498 870.491 260.457 863.432 256.549C858.611 253.887 854.089 250.846 849.819 247.442ZM1900.98 155.142C1898.68 161.192 1896.54 167.779 1894.24 174.9C1890.68 185.867 1886.66 198.299 1880.91 212.022C1873.71 229.228 1877.73 238.682 1881.6 247.821C1883.31 251.838 1884.96 255.746 1885.51 260.189C1887.83 254.706 1890.24 248.75 1892.87 242.274C1895.33 236.192 1897.88 229.89 1900.76 222.973C1909.11 202.868 1905.79 183.645 1902.84 166.691C1902.15 162.721 1901.49 158.876 1900.98 155.142ZM282.419 233.073C301.311 234.396 321.259 236.665 343.491 240.147C359.011 242.589 372.514 245.709 385.56 248.734C406.926 253.698 425.376 257.968 444.615 257.022C465.539 255.998 485.628 248.64 507.813 233.892C538.065 213.771 560.029 168.803 581.269 125.315C593.921 99.4278 606.983 72.6422 621.621 51.6075C638.023 28.0204 654.74 14.2336 672.734 9.49098C691.705 4.48048 712.361 9.12858 735.712 23.7189C717.167 6.93846 699.882 -0.703338 683.354 0.446871C674.168 1.09288 665.344 4.38594 656.332 10.5151C648.28 15.9983 640.26 23.6559 631.815 33.9132C616.09 53.0256 601.721 77.6999 586.484 103.824C568.128 135.336 549.142 167.92 527.398 190.31C497.635 220.956 475.844 235.846 452.178 241.691C429.032 247.411 404.152 244.134 369.709 239.611C360.192 238.367 350.361 237.075 339.378 235.798C320.203 233.577 301.185 232.836 282.419 233.073ZM29.5941 248.325C79.3209 252.406 128.402 246.765 176.033 241.282C208.302 237.563 241.264 233.782 274.856 232.899C230.455 230.331 191.128 232.884 140.25 236.728C105.886 239.328 68.7484 243.598 29.5941 248.325ZM738.517 25.8933C746.001 32.9678 753.69 41.5235 761.615 51.5603C780.586 75.6043 789.063 108.503 797.256 140.331C803.086 163.004 809.121 186.434 818.921 206.728C826.516 222.469 835.828 235.058 847.172 244.843C832.219 226.36 825.05 197.983 817.093 166.455C804.646 117.248 790.56 61.471 741.621 27.9889C740.581 27.2641 739.541 26.5708 738.517 25.8933ZM2034.5 102.658C2047.91 107.448 2061.26 114.207 2074 122.794C2089.96 133.54 2104.3 146.823 2115.47 161.192C2127.12 176.177 2135.09 191.823 2139.19 207.689C2145.11 184.559 2140.27 163.808 2124.8 146.003C2104.7 122.873 2068.77 108.173 2034.5 102.658ZM1987.83 94.4174C1981.59 94.4174 1975.48 94.9215 1969.56 95.9299C1935.33 101.807 1915.24 110.426 1906.33 123.047C1899.96 132.059 1899.68 142.332 1901.13 153.866C1912.42 124.78 1928.34 107.889 1988.6 100.783C2001.45 99.2703 2016.15 99.6642 2031.18 101.839C2016.54 96.9541 2001.86 94.4174 1987.83 94.4174Z" fill="#DFBE97"/>
</svg>
