<svg width="500" height="182" viewBox="0 0 500 182" fill="none" xmlns="http://www.w3.org/2000/svg">
<path d="M-182.127 182C-194.327 182 -205.175 180.933 -214.464 178.812C-227.522 175.834 -237.464 170.759 -244.011 163.737C-252.001 155.163 -254.337 143.508 -256.595 132.238C-257.362 128.415 -258.134 124.55 -259.135 120.775C-259.194 120.691 -259.254 120.601 -259.32 120.518C-269.874 105.892 -280.913 99.5102 -292.604 92.7574C-300.828 88.0058 -309.333 83.0925 -317.982 75.0155L-318 74.9915V74.9676C-318 74.9316 -317.976 74.9077 -317.946 74.8957C-317.94 74.8897 -317.928 74.8897 -317.916 74.8897C-317.066 74.8897 -305.009 80.7078 -294.108 86.394C-285.303 90.9838 -270.137 99.1746 -267.496 102.458C-263.213 107.791 -260.776 114.118 -259.027 120.721C-253.966 127.852 -251.42 135.647 -248.952 143.185C-244.49 156.846 -240.279 169.747 -221.796 176.458C-206.522 182 -195.867 177.183 -184.576 172.077C-177.383 168.824 -169.938 165.456 -161.019 164.779C-149.633 163.911 -141.709 166.176 -134.042 168.369C-128.4 169.98 -123.07 171.508 -116.798 171.604C-116.595 171.61 -116.385 171.61 -116.176 171.61C-109.335 171.61 -102.286 169.89 -94.0501 166.223C-73.8713 157.236 -57.5737 144.203 -41.8151 131.597C-32.2378 123.933 -22.337 116.012 -11.6996 109.127C0.219696 101.404 11.8455 95.8132 23.8306 92.0324C51.7539 83.2243 74.8736 76.4176 97.0829 75.4529C119.688 74.4762 140.98 79.6292 166.137 92.1762C172.09 95.1421 177.631 98.3178 182.991 101.392C198.097 110.05 212.37 118.223 232.435 119.793C250.841 121.231 267.372 114.49 283.358 107.971C291.007 104.849 298.919 101.625 306.832 99.4083C315.69 96.9277 323.68 95.987 331.251 96.5262C348.339 97.7546 363.062 108.636 376.053 118.241C388.308 127.3 398.891 135.126 408.169 132.262C411.505 131.237 414.488 128.906 417.291 125.149C420.298 121.123 423.023 115.562 425.617 108.15C428.156 100.9 429.732 94.4411 430.804 88.5451C430.738 86.6157 430.624 84.7103 430.51 82.8229C430.181 77.3883 429.833 71.7739 430.798 65.9738C431.876 59.4906 434.517 53.3909 438.884 47.3272C445.346 38.3454 455.403 30.6219 468.783 24.3784C479.487 19.3812 492.328 15.4505 504.936 13.2995C506.811 12.9819 508.734 12.6883 510.71 12.4247C526.193 8.78161 544.492 5.3303 562.999 3.01745C593.396 -0.775392 635.06 -2.89052 660.929 8.58388C671.614 13.3234 678.694 20.0583 681.964 28.5967L682 28.6985L681.892 28.6745C655.532 23.3778 624.404 17.4818 593.39 13.9106C576.458 11.9633 560.843 10.8728 546.983 10.675C533.603 10.4833 521.438 11.1124 510.734 12.5445C496.803 15.822 485.147 19.2614 477.666 22.1674C458.386 29.6572 447.065 36.7216 440.962 45.0802C435.224 52.9355 434.29 61.5338 433.11 72.421C432.595 77.1786 432.013 82.5233 430.923 88.4972C431.145 95.0882 430.774 101.991 427.719 109.678C415.884 139.452 398.855 137.858 377.299 135.839C361.409 134.353 343.398 132.663 323.129 142.873C319.476 144.713 315.954 146.504 312.552 148.236C284.089 162.712 263.419 173.222 243.097 173.222C242.833 173.222 242.57 173.222 242.3 173.216C231.77 173.072 221.354 170.028 210.448 163.899C199.223 157.589 186.807 147.661 172.486 133.538C159.183 120.416 148.222 111.045 137.992 104.046C126.839 96.4184 116.076 91.3493 105.085 88.5511C83.1033 82.9487 58.1747 85.681 21.7342 97.6887C-1.18185 105.238 -19.6597 119.529 -37.5206 133.352C-46.5828 140.363 -55.9565 147.613 -65.7434 153.838C-76.7163 160.819 -87.0902 165.762 -97.4702 168.962C-115.457 174.504 -145.009 180.808 -174.005 181.856C-176.784 181.946 -179.485 182 -182.127 182ZM-258.937 121.051C-257.973 124.73 -257.218 128.493 -256.475 132.214C-254.217 143.466 -251.887 155.103 -243.921 163.653C-237.392 170.657 -227.474 175.721 -214.44 178.692C-203.156 181.269 -189.56 182.288 -174.029 181.724C-145.045 180.676 -115.505 174.378 -97.5241 168.836C-87.1561 165.642 -76.7882 160.699 -65.8273 153.724C-56.0463 147.499 -46.6726 140.255 -37.6164 133.244C-19.7436 119.415 -1.25977 105.119 21.6743 97.5628C58.1388 85.5492 83.0853 82.8169 105.097 88.4253C116.106 91.2295 126.881 96.3046 138.046 103.938C148.288 110.943 159.255 120.32 172.557 133.442C186.867 147.559 199.277 157.481 210.489 163.785C221.378 169.902 231.776 172.946 242.288 173.09C242.552 173.096 242.815 173.096 243.079 173.096C263.371 173.096 284.029 162.592 312.48 148.122C315.888 146.39 319.41 144.599 323.057 142.759C343.35 132.531 361.385 134.221 377.287 135.713C398.801 137.726 415.788 139.32 427.587 109.624C430.552 102.171 430.983 95.4537 430.804 89.0424C429.726 94.8246 428.162 101.194 425.713 108.186C423.113 115.61 420.388 121.177 417.369 125.221C414.548 128.996 411.547 131.339 408.187 132.375C406.851 132.789 405.486 132.981 404.096 132.981C395.777 132.981 386.487 126.114 375.969 118.337C362.996 108.744 348.285 97.8744 331.233 96.6461C323.674 96.1008 315.702 97.0475 306.856 99.5222C298.949 101.739 291.043 104.963 283.394 108.079C268.876 113.998 253.902 120.104 237.478 120.104C235.807 120.104 234.118 120.038 232.411 119.906C212.316 118.337 198.037 110.152 182.913 101.493C177.553 98.4257 172.012 95.25 166.065 92.284C140.927 79.7491 119.646 74.5961 97.071 75.5728C74.8796 76.5374 51.7659 83.3442 23.8485 92.1462C11.8694 95.9211 0.255585 101.511 -11.6577 109.229C-22.2831 116.114 -32.1839 124.035 -41.7612 131.692C-57.5257 144.305 -73.8293 157.35 -94.0262 166.337C-102.525 170.124 -109.767 171.838 -116.822 171.73C-123.105 171.634 -128.442 170.106 -134.096 168.494C-141.751 166.307 -149.669 164.042 -161.031 164.905C-169.932 165.582 -177.365 168.944 -184.552 172.191C-195.861 177.302 -206.54 182.132 -221.861 176.571C-240.399 169.843 -244.622 156.912 -249.09 143.221C-251.492 135.779 -254.007 128.091 -258.937 121.051ZM-317.79 75.0215C-309.189 83.0266 -300.726 87.922 -292.538 92.6495C-280.835 99.4083 -269.784 105.796 -259.218 120.446C-260.961 113.969 -263.381 107.767 -267.586 102.536C-270.203 99.2765 -285.309 91.1156 -294.078 86.5438C-306.027 80.3063 -316.503 75.3391 -317.79 75.0215ZM441.405 44.2653C440.543 45.2899 439.734 46.3325 438.967 47.3931C434.619 53.4449 431.978 59.5266 430.905 65.9918C429.941 71.7739 430.289 77.3883 430.618 82.8109C430.72 84.5186 430.828 86.2442 430.893 87.9879C431.9 82.3435 432.457 77.2205 432.978 72.4031C434.164 61.4979 435.098 52.8876 440.854 45.0083C441.034 44.7567 441.214 44.511 441.405 44.2653ZM509.483 12.7063C507.937 12.922 506.428 13.1616 504.948 13.4133C492.346 15.5584 479.517 19.495 468.825 24.4862C460.362 28.4349 453.229 32.9767 447.497 38.0578C454.157 32.5213 463.866 27.3923 477.612 22.0536C484.877 19.2254 496.084 15.8999 509.483 12.7063ZM542.293 10.5133C543.839 10.5133 545.396 10.5252 546.971 10.5492C560.837 10.7469 576.452 11.8375 593.39 13.7908C624.368 17.3559 655.46 23.2399 681.796 28.5307C678.52 20.0703 671.482 13.3953 660.869 8.69173C635.03 -2.77068 593.39 -0.655556 563.005 3.13728C544.959 5.39022 527.116 8.72768 511.89 12.2689C521.036 11.0945 531.219 10.5133 542.293 10.5133Z" fill="#DFBE97"/>
</svg>
