<svg width="1920" height="608" viewBox="0 0 1920 608" fill="none" xmlns="http://www.w3.org/2000/svg">
<path d="M-674.005 608C-714.772 608 -751.015 604.437 -782.055 597.351C-825.684 587.403 -858.905 570.449 -880.779 546.989C-907.477 518.345 -915.282 479.412 -922.827 441.761C-925.388 428.99 -927.97 416.08 -931.312 403.469C-931.512 403.189 -931.712 402.888 -931.933 402.608C-967.196 353.747 -1004.08 332.43 -1043.14 309.871C-1070.62 293.998 -1099.04 277.584 -1127.94 250.601L-1128 250.521V250.441C-1128 250.321 -1127.92 250.241 -1127.82 250.201C-1127.8 250.181 -1127.76 250.181 -1127.72 250.181C-1124.88 250.181 -1084.59 269.617 -1048.17 288.613C-1018.75 303.946 -968.076 331.309 -959.25 342.278C-944.941 360.093 -936.796 381.23 -930.952 403.289C-914.041 427.109 -905.535 453.151 -897.29 478.332C-882.38 523.97 -868.311 567.066 -806.551 589.484C-755.518 608 -719.915 591.907 -682.19 574.852C-658.155 563.983 -633.279 552.734 -603.479 550.472C-565.435 547.569 -538.957 555.136 -513.341 562.462C-494.488 567.846 -476.677 572.951 -455.723 573.271C-455.043 573.291 -454.342 573.291 -453.642 573.291C-430.787 573.291 -407.232 567.546 -379.714 555.296C-312.29 525.271 -257.835 481.734 -205.181 439.619C-173.18 414.018 -140.098 387.556 -104.555 364.556C-64.7292 338.755 -25.884 320.079 14.162 307.449C107.463 278.024 184.713 255.285 258.921 252.062C334.45 248.8 405.596 266.014 489.651 307.929C509.544 317.837 528.056 328.446 545.967 338.715C596.44 367.639 644.131 394.942 711.175 400.186C772.675 404.99 827.911 382.471 881.325 360.693C906.882 350.265 933.319 339.496 959.756 332.089C989.355 323.802 1016.05 320.66 1041.35 322.461C1098.45 326.565 1147.64 362.915 1191.05 395.002C1231.99 425.267 1267.36 451.409 1298.36 441.841C1309.5 438.418 1319.47 430.632 1328.84 418.081C1338.88 404.63 1347.99 386.054 1356.65 361.294C1365.14 337.074 1370.4 315.495 1373.99 295.799C1373.77 289.354 1373.38 282.988 1373 276.683C1371.9 258.528 1370.74 239.772 1373.97 220.396C1377.57 198.738 1386.39 178.361 1400.98 158.104C1422.58 128.099 1456.18 102.297 1500.89 81.4399C1536.65 64.7459 1579.56 51.615 1621.69 44.429C1627.95 43.3681 1634.37 42.3873 1640.98 41.5065C1692.71 29.3364 1753.85 17.8067 1815.69 10.0803C1917.26 -2.59032 2056.47 -9.65623 2142.9 28.6758C2178.61 44.509 2202.26 67.0078 2213.19 95.5317L2213.31 95.872L2212.95 95.7919C2124.87 78.0971 2020.87 58.4006 1917.24 46.4707C1860.66 39.9652 1808.49 36.3222 1762.18 35.6616C1717.47 35.0211 1676.82 37.1229 1641.06 41.9069C1594.51 52.856 1555.56 64.3456 1530.57 74.0537C1466.15 99.0746 1428.32 122.674 1407.93 150.598C1388.75 176.84 1385.63 205.564 1381.69 241.934C1379.97 257.827 1378.03 275.682 1374.39 295.639C1375.13 317.657 1373.89 340.717 1363.68 366.398C1324.13 465.861 1267.24 460.537 1195.21 453.791C1142.11 448.827 1081.94 443.182 1014.21 477.291C1002 483.436 990.236 489.421 978.869 495.206C883.767 543.566 814.702 578.675 746.798 578.675C745.917 578.675 745.037 578.675 744.136 578.655C708.953 578.175 674.151 568.007 637.707 547.529C600.203 526.452 558.716 493.284 510.865 446.105C466.416 402.268 429.792 370.962 395.61 347.582C358.346 322.101 322.382 305.167 285.658 295.819C212.211 277.103 128.917 286.231 7.15747 326.345C-69.4122 351.566 -131.152 399.306 -190.831 445.484C-221.111 468.904 -252.431 493.124 -285.132 513.921C-321.796 537.241 -356.459 553.755 -391.141 564.444C-451.24 582.959 -549.984 604.017 -646.867 607.52C-656.153 607.82 -665.179 608 -674.005 608ZM-930.652 404.39C-927.43 416.68 -924.908 429.251 -922.426 441.681C-914.882 479.272 -907.096 518.145 -880.479 546.709C-858.665 570.108 -825.524 587.022 -781.975 596.951C-744.271 605.558 -698.841 608.961 -646.948 607.079C-550.105 603.576 -451.4 582.539 -391.321 564.023C-356.679 553.354 -322.036 536.841 -285.413 513.541C-252.731 492.744 -221.411 468.543 -191.151 445.124C-131.433 398.925 -69.6725 351.165 6.95728 325.924C128.796 285.791 212.151 276.663 285.698 295.399C322.482 304.767 358.486 321.721 395.79 347.222C430.012 370.622 466.656 401.948 511.105 445.784C558.916 492.944 600.383 526.091 637.847 547.149C674.231 567.586 708.973 577.755 744.096 578.235C744.977 578.255 745.857 578.255 746.738 578.255C814.542 578.255 883.567 543.166 978.628 494.825C990.016 489.041 1001.78 483.056 1013.97 476.91C1081.78 442.742 1142.03 448.387 1195.17 453.371C1267.06 460.096 1323.81 465.421 1363.24 366.218C1373.15 341.317 1374.59 318.878 1373.99 297.46C1370.38 316.777 1365.16 338.054 1356.97 361.414C1348.29 386.215 1339.18 404.81 1329.1 418.321C1319.67 430.932 1309.64 438.758 1298.42 442.221C1293.95 443.603 1289.39 444.243 1284.75 444.243C1256.95 444.243 1225.91 421.304 1190.77 395.322C1147.42 363.275 1098.27 326.965 1041.29 322.862C1016.03 321.04 989.396 324.203 959.836 332.47C933.419 339.876 907.002 350.645 881.445 361.054C832.934 380.83 782.901 401.227 728.026 401.227C722.442 401.227 716.798 401.007 711.095 400.567C643.951 395.322 596.24 367.979 545.707 339.055C527.796 328.807 509.284 318.198 489.411 308.289C405.416 266.414 334.31 249.2 258.881 252.463C184.733 255.686 107.503 278.424 14.222 307.829C-25.804 320.44 -64.6093 339.115 -104.415 364.897C-139.918 387.896 -173 414.358 -205 439.939C-257.675 482.075 -312.15 525.651 -379.634 555.676C-408.032 568.327 -432.228 574.052 -455.803 573.691C-476.797 573.371 -494.629 568.267 -513.521 562.882C-539.097 555.576 -565.555 548.01 -603.519 550.892C-633.259 553.154 -658.095 564.384 -682.11 575.233C-719.895 592.307 -755.578 608.44 -806.771 589.865C-868.712 567.386 -882.821 524.19 -897.75 478.452C-905.776 453.591 -914.181 427.909 -930.652 404.39ZM-1127.3 250.621C-1098.56 277.364 -1070.28 293.717 -1042.92 309.51C-1003.82 332.089 -966.895 353.427 -931.592 402.368C-937.416 380.73 -945.501 360.013 -959.551 342.538C-968.296 331.649 -1018.77 304.386 -1048.07 289.113C-1087.99 268.276 -1123 251.682 -1127.3 250.621ZM1409.41 147.875C1406.53 151.298 1403.82 154.781 1401.26 158.324C1386.73 178.541 1377.91 198.858 1374.33 220.456C1371.1 239.772 1372.26 258.528 1373.36 276.643C1373.71 282.348 1374.07 288.113 1374.29 293.937C1377.65 275.082 1379.51 257.967 1381.25 241.874C1385.21 205.444 1388.33 176.679 1407.57 150.357C1408.17 149.517 1408.77 148.696 1409.41 147.875ZM1636.88 42.4473C1631.71 43.1679 1626.67 43.9686 1621.73 44.8093C1579.62 51.9753 1536.75 65.1263 1501.03 81.8002C1472.75 94.9912 1448.91 110.164 1429.76 127.138C1452.02 108.643 1484.46 91.5083 1530.39 73.6734C1554.66 64.2255 1592.11 53.1162 1636.88 42.4473ZM1746.51 35.1212C1751.67 35.1212 1756.87 35.1612 1762.14 35.2413C1808.47 35.9018 1860.64 39.5449 1917.24 46.0703C2020.75 57.9803 2124.63 77.6367 2212.63 95.3115C2201.68 67.0479 2178.17 44.7492 2142.7 29.0361C2056.37 -9.25589 1917.24 -2.18999 1815.71 10.4806C1755.41 18.0069 1695.79 29.1562 1644.92 40.9861C1675.48 37.0628 1709.5 35.1212 1746.51 35.1212Z" fill="#DFBE97"/>
</svg>
