<svg width="1920" height="389" viewBox="0 0 1920 389" fill="none" xmlns="http://www.w3.org/2000/svg">
<path d="M195.557 388.986C181.444 388.986 169.202 386.705 157.972 382.054C142.795 375.776 128.54 364.899 111.748 346.796C95.6218 329.41 89.7892 306.169 83.6234 281.569C78.4446 260.904 73.1119 239.648 61.0751 222.121C56.1526 216.471 51.1533 211.346 46.0771 206.593C38.1422 201.43 27.2078 196.869 15.8247 192.128C2.2239 186.465 -11.8512 180.61 -22.3882 173.102C-34.3738 164.557 -39.7705 155.127 -38.9117 144.275L-38.8989 144.045L-38.7066 144.186C-26.157 153.628 -14.5047 161.482 -3.2241 169.079C14.5043 181.007 30.7714 191.975 46.2309 206.414C49.2305 208.374 51.7943 210.411 53.8068 212.589C56.55 215.574 59.0241 218.713 61.2673 221.98C66.4462 227.938 71.5609 234.472 76.6115 241.801C88.7124 259.315 93.3144 278.687 97.7625 297.405C105.274 329.064 112.376 358.954 154.255 376.174C174.765 384.604 190.801 387.397 204.723 384.976C217.439 382.759 227.309 376.545 238.744 369.345C251.524 361.299 266.009 352.177 288.058 346.603C291.429 345.745 294.749 344.964 298.031 344.233C298.108 344.169 298.197 344.118 298.274 344.054L298.364 343.99L298.441 344.079C298.454 344.105 298.479 344.118 298.492 344.143C317.041 340.044 334.052 337.802 350.575 335.611C369.983 333.048 388.327 330.614 407.298 325.438C428.59 319.634 447.639 311.178 467.239 298.84C489.134 285.067 508.118 267.668 526.475 250.833C551.292 228.092 576.955 204.569 609.951 189.937C629.615 181.212 653.778 178.099 677.147 175.088C695.581 172.718 714.642 170.258 731.025 165.044C785.992 147.555 828.178 134.692 870.634 128.375C912.18 122.187 955.264 122.174 1014.7 128.311C1056.3 132.603 1098.76 122.046 1139.82 111.835C1163.26 106.006 1187.5 99.9839 1210.97 96.9347C1237.27 93.5266 1259.97 94.2697 1280.37 99.2152C1292.6 102.175 1307.91 111.835 1327.14 128.747C1344.33 143.852 1363.18 163.378 1381.41 182.276C1431.2 233.857 1482.69 287.194 1514.75 268.463C1522.53 263.914 1526.97 254.318 1528.3 239.149C1529.48 225.722 1528.16 209.771 1526.88 194.345C1525.21 174.191 1523.62 155.166 1527.83 144.198C1536.56 121.431 1550.35 102.495 1569.99 86.3263C1586.22 72.9505 1606.42 61.4196 1633.56 50.0169C1658.26 39.6391 1693.87 29.1588 1733.83 20.5235C1778.37 10.8888 1824.58 4.31621 1867.48 1.53599C1917.85 -1.73108 1961.75 0.216351 1997.96 7.35267C2039.93 15.6165 2070.48 30.7347 2088.74 52.2846L2088.96 52.5536L2088.51 52.4768C2024.48 42.3424 1944.81 29.7354 1865.8 25.9942C1822.98 23.9699 1783.92 24.7899 1749.7 28.4413C1710.19 32.6565 1675.43 40.7922 1646.38 52.6177C1610.55 67.2107 1592.91 79.2284 1582.74 86.9797C1561.98 102.841 1547.51 121.342 1538.48 143.545C1532.74 157.664 1535.14 177.856 1537.44 197.381C1540.58 223.915 1543.84 251.359 1527.73 266.105C1518.73 274.331 1507.9 277.892 1494.65 276.995C1482.9 276.201 1469.5 271.883 1453.72 263.799C1424.5 248.835 1391.82 223.249 1360.24 198.509C1315.11 163.16 1272.49 129.785 1241.88 127.748C1210.76 125.685 1183.76 136.537 1157.66 147.03C1136.24 155.64 1114.1 164.544 1089.62 166.44C1062.12 168.567 1036.98 161.238 1012.67 154.153C1000.37 150.566 987.657 146.863 974.672 144.365C924.768 134.769 876.762 135.871 823.564 147.837C775.916 158.561 729.358 176.831 680.07 196.177C672.43 199.175 664.533 202.275 656.637 205.338C620.142 219.521 583.262 249.885 544.203 282.043C490.98 325.861 435.948 371.177 380.622 373.855C364.509 376.148 349.396 374.828 335.731 369.909C322.13 365.014 309.568 356.43 298.39 344.4C298.3 344.425 298.21 344.438 298.121 344.464C273.111 362.67 245.64 377.147 216.49 387.525C209.055 388.499 202.108 388.986 195.557 388.986ZM62.4467 223.723C73.6888 240.942 78.8419 261.506 83.8669 281.518C90.0328 306.092 95.8525 329.294 111.94 346.629C128.707 364.707 142.936 375.559 158.075 381.824C174.483 388.614 193.019 390.344 216.452 387.282C245.371 376.994 272.65 362.631 297.518 344.605C294.429 345.297 291.314 346.04 288.135 346.834C266.125 352.395 251.652 361.504 238.885 369.55C227.425 376.763 217.529 382.99 204.774 385.219C190.814 387.653 174.727 384.847 154.165 376.404C112.171 359.146 105.056 329.179 97.519 297.469C93.0836 278.764 88.4817 259.417 76.4064 241.942C71.8044 235.267 67.1512 229.245 62.4467 223.723ZM298.697 344.336C309.811 356.289 322.31 364.809 335.833 369.665C349.46 374.559 364.522 375.892 380.61 373.598C435.859 370.921 490.851 325.643 544.049 281.851C583.121 249.68 620.027 219.303 656.56 205.107C664.457 202.032 672.353 198.944 679.993 195.946C729.294 176.6 775.865 158.317 823.525 147.594C876.749 135.614 924.794 134.512 974.736 144.109C987.734 146.607 1000.45 150.323 1012.76 153.91C1037.04 160.995 1062.16 168.311 1089.61 166.184C1114.05 164.288 1136.18 155.396 1157.57 146.786C1183.7 136.281 1210.7 125.416 1241.91 127.479C1272.59 129.516 1315.25 162.917 1360.4 198.291C1391.99 223.031 1424.64 248.604 1453.85 263.556C1469.61 271.614 1482.96 275.919 1494.68 276.726C1507.87 277.623 1518.63 274.087 1527.56 265.9C1543.58 251.243 1540.34 223.864 1537.2 197.394C1534.88 177.843 1532.48 157.613 1538.25 143.442C1547.29 121.201 1561.8 102.662 1582.6 86.7747C1603.84 70.5418 1629.12 59.3697 1646.29 52.3743C1675.36 40.5359 1710.14 32.3875 1749.67 28.1723C1783.91 24.5208 1822.98 23.7009 1865.81 25.7252C1944.74 29.4663 2024.33 42.0478 2088.32 52.1693C2070.06 30.7988 2039.65 15.7958 1997.91 7.58329C1961.72 0.45978 1917.84 -1.48765 1867.49 1.77942C1824.61 4.55964 1778.41 11.1322 1733.88 20.7669C1693.94 29.4151 1658.34 39.8825 1633.65 50.2475C1606.54 61.6374 1586.35 73.1683 1570.14 86.5184C1550.54 102.662 1536.78 121.559 1528.06 144.288C1523.88 155.204 1525.46 174.204 1527.12 194.319C1528.41 209.758 1529.73 225.722 1528.55 239.174C1527.21 254.433 1522.74 264.081 1514.87 268.68C1510.34 271.333 1505.43 272.55 1500.2 272.55C1468.2 272.55 1424.09 226.849 1381.22 182.455C1362.99 163.57 1344.15 144.045 1326.96 128.952C1307.76 112.079 1292.49 102.431 1280.3 99.4843C1259.92 94.5516 1237.25 93.8085 1210.99 97.2165C1187.53 100.266 1163.29 106.287 1139.85 112.117C1098.77 122.328 1056.28 132.898 1014.65 128.593C955.239 122.456 912.167 122.469 870.647 128.657C828.217 134.974 786.03 147.837 731.076 165.313C714.681 170.527 695.606 172.987 677.16 175.357C653.804 178.368 629.666 181.469 610.028 190.181C577.058 204.799 551.42 228.31 526.616 251.038C508.246 267.873 489.249 285.285 467.342 299.071C447.716 311.421 428.642 319.877 407.324 325.694C388.339 330.87 369.996 333.305 350.575 335.867C334.141 338.019 317.182 340.261 298.697 344.336ZM47.3718 207.477C51.525 211.423 55.6271 215.613 59.6778 220.161C57.8191 217.599 55.8065 215.126 53.6145 212.756C51.9224 210.911 49.8073 209.156 47.3718 207.477ZM-38.6681 144.531C-39.4372 155.191 -34.0533 164.467 -22.2344 172.897C-11.723 180.392 2.32645 186.248 15.9272 191.898C26.7719 196.408 37.2064 200.751 45.0387 205.632C29.8997 191.68 13.9659 180.943 -3.35228 169.284C-14.5944 161.725 -26.1954 153.91 -38.6681 144.531Z" fill="#DFBE97"/>
</svg>
