<svg width="1920" height="370" viewBox="0 0 1920 370" fill="none" xmlns="http://www.w3.org/2000/svg">
<path d="M1595.48 369.254C1574.76 369.254 1554.75 367.458 1536.41 363.109C1513.78 357.768 1495.24 350.205 1479.68 339.995C1465.79 330.872 1454.6 319.795 1445.48 306.135C1428.51 280.735 1421.67 251.003 1414.41 219.538C1403.17 170.757 1391.54 120.321 1339.38 86.2556C1305.39 64.055 1263.71 64.9531 1212 88.9657C1166.91 109.906 1120.22 145.61 1079.03 177.106C1056.66 194.218 1035.07 210.714 1015.52 223.524C995.935 238.146 975.767 251.665 954.749 260.252C930.405 270.21 907.653 272.211 885.831 266.224C878.551 265.42 871.996 263.593 866.041 260.772C858.651 257.259 852.522 252.327 847.322 246.245C835.332 236.287 825.531 223.272 817.622 206.87C807.821 186.544 801.786 163.099 795.941 140.426C787.748 108.63 779.286 75.7619 760.363 51.7808C751.997 41.1769 743.898 32.2588 736.02 24.9636C712.133 9.69581 691.099 4.74834 671.797 9.83762C653.882 14.5645 637.228 28.304 620.857 51.8281C606.251 72.8155 593.189 99.5696 580.552 125.457C559.297 168.992 537.317 213.992 507.002 234.16C484.77 248.955 464.633 256.313 443.646 257.353C424.392 258.298 405.91 254.013 384.513 249.05C371.467 246.024 357.963 242.889 342.459 240.462C318.746 236.744 297.633 234.412 277.622 233.136C242.722 233.813 208.547 237.752 175.065 241.597C126.929 247.127 77.3125 252.847 27.0499 248.514C21.3304 249.207 15.5636 249.9 9.76529 250.609C-125.455 266.996 -278.717 285.557 -398.496 253.304L-399 253.162L-398.512 252.989C-378.028 245.946 -354.252 235.011 -329.058 223.43C-291.589 206.192 -252.829 188.388 -223.79 183.251C-176.458 174.9 -128.906 195.368 -82.9289 215.158C-51.6212 228.629 -19.2578 242.558 11.9239 246.56C16.9659 247.206 22.0079 247.742 27.0499 248.183C66.7715 243.393 104.429 239.029 139.235 236.397C191.53 232.442 231.677 229.858 277.638 232.805C297.68 232.411 317.942 233.088 338.426 235.483C349.408 236.76 359.24 238.052 368.756 239.296C403.152 243.818 428.016 247.08 451.099 241.376C474.702 235.546 496.461 220.688 526.178 190.074C547.89 167.716 566.86 135.147 585.216 103.651C600.453 77.5108 614.838 52.8208 630.579 33.6926C639.04 23.4038 647.075 15.7305 655.158 10.2315C664.203 4.07082 673.105 0.761996 682.338 0.115989C699.323 -1.08149 717.128 6.98573 736.225 24.6643C737.737 25.6412 739.281 26.6496 740.825 27.7052C789.859 61.2504 803.961 117.091 816.408 166.361C824.554 198.645 831.881 227.621 847.59 246.009C852.254 249.885 857.264 253.304 862.622 256.266C870.263 260.504 878.063 263.719 885.957 265.893C893.882 266.775 902.642 266.46 912.396 264.963C932.658 261.859 956.655 253.761 985.804 240.194C994.959 235.94 1004.87 230.126 1015.38 223.256C1023 217.568 1030.55 211.691 1038.02 205.893C1048.17 197.999 1057.75 190.546 1067.36 183.645C1082.8 172.553 1098.79 160.042 1115.71 146.791C1148.08 121.455 1181.54 95.2367 1214.68 76.4237C1252.37 55.0266 1283.57 46.9594 1310.05 51.7493C1322.47 54.0025 1334.11 59.1705 1344.64 67.1117C1355.84 75.5728 1366.18 87.4846 1375.36 102.516C1397.33 138.456 1405.3 174.443 1412.99 209.249C1420.11 241.455 1426.84 271.88 1444.5 296.649C1464.15 324.207 1495.13 341.791 1542.02 352.001C1571.42 358.398 1613.24 358.351 1662.98 351.875C1703.11 346.644 1746.8 337.395 1782.85 326.507C1786.52 325.404 1790.73 324.207 1795.19 322.946C1817.28 316.675 1848.56 307.805 1866.49 294.365C1873.2 285.415 1878.46 274.59 1884.31 260.819C1883.85 256.171 1882.12 252.122 1880.37 247.962C1876.46 238.761 1872.43 229.244 1879.67 211.912C1885.41 198.204 1889.43 185.788 1892.99 174.822C1895.37 167.479 1897.56 160.72 1899.94 154.512C1898.39 142.679 1898.58 132.138 1905.1 122.889C1914.07 110.189 1934.22 101.539 1968.54 95.6463C1988.33 92.243 2010.21 94.6064 2031.96 102.122C2041.24 103.54 2050.61 105.62 2059.77 108.33C2079.27 114.113 2106.27 125.315 2124.09 145.83C2139.76 163.871 2144.57 184.921 2138.39 208.398L2138.23 208.997L2138.09 208.398C2134.06 192.374 2126.04 176.555 2114.28 161.413C2103.13 147.059 2088.82 133.808 2072.89 123.078C2059.66 114.16 2045.78 107.227 2031.85 102.406C2016.16 100.011 2000.87 99.5697 1987.7 101.114C1927.24 108.236 1911.55 125.237 1900.27 154.543C1900.77 158.435 1901.48 162.469 1902.21 166.644C1905.15 183.645 1908.51 202.915 1900.11 223.099C1897.23 230.016 1894.69 236.318 1892.22 242.4C1889.51 249.097 1887.03 255.21 1884.64 260.835C1885.25 267.138 1883.58 274.527 1876.6 284.674C1874.16 288.22 1870.79 291.513 1866.71 294.569C1863.4 298.981 1859.76 302.936 1855.52 306.576C1839.92 319.984 1816.57 329.359 1766.29 342.374C1718.22 354.821 1654.04 369.254 1595.48 369.254ZM1284.78 69.9478C1304.98 69.9478 1323.15 75.305 1339.53 86.0035C1391.81 120.132 1403.44 170.63 1414.69 219.475C1421.94 250.925 1428.78 280.625 1445.71 305.961C1454.81 319.575 1465.96 330.62 1479.83 339.727C1495.35 349.921 1513.88 357.469 1536.45 362.81C1606.63 379.385 1701.16 358.918 1766.17 342.075C1816.4 329.06 1839.7 319.716 1855.27 306.339C1859.21 302.952 1862.64 299.281 1865.76 295.231C1847.66 308.356 1816.98 317.054 1795.22 323.23C1790.76 324.491 1786.55 325.688 1782.88 326.791C1746.82 337.679 1703.11 346.928 1662.96 352.159C1613.19 358.65 1571.32 358.698 1541.89 352.285C1494.92 342.059 1463.87 324.428 1444.19 296.807C1426.49 271.991 1419.75 241.534 1412.63 209.281C1404.94 174.507 1396.98 138.535 1375.03 102.642C1365.86 87.6421 1355.56 75.7619 1344.37 67.3165C1333.89 59.3911 1322.3 54.2388 1309.93 52.0014C1283.52 47.2273 1252.38 55.2787 1214.77 76.6443C1181.65 95.4573 1148.19 121.644 1115.84 146.98C1098.92 160.231 1082.93 172.758 1067.47 183.85C1057.86 190.751 1048.28 198.204 1038.13 206.098C1032.05 210.825 1025.92 215.583 1019.74 220.263C1038.1 207.926 1058.11 192.626 1078.81 176.807C1120.02 145.294 1166.72 109.591 1211.84 88.6348C1238.77 76.1873 1262.97 69.9478 1284.78 69.9478ZM1884.32 261.465C1878.74 274.575 1873.67 284.974 1867.34 293.656C1870.99 290.804 1874.05 287.763 1876.3 284.485C1882.98 274.764 1884.76 267.595 1884.32 261.465ZM-397.929 253.13C-350.029 265.956 -296.773 270.683 -241.469 270.683C-158.654 270.683 -71.2378 260.095 9.71802 250.294C15.0121 249.648 20.2905 249.018 25.5216 248.388C20.9838 247.978 16.4302 247.49 11.8766 246.907C-19.3366 242.905 -51.7315 228.96 -83.055 215.489C-129 195.714 -176.49 175.279 -223.727 183.598C-252.734 188.719 -291.463 206.523 -328.916 223.745C-353.921 235.215 -377.54 246.072 -397.929 253.13ZM887.816 266.413C895.064 268.256 902.39 269.218 909.764 269.312C924.181 269.47 938.835 266.413 954.622 259.969C974.208 251.964 993.068 239.675 1011.41 226.187C1002.41 231.922 993.856 236.791 985.899 240.494C956.734 254.076 932.69 262.174 912.411 265.294C903.415 266.665 895.253 267.043 887.816 266.413ZM848.819 247.442C853.719 252.847 859.423 257.259 866.182 260.473C871.54 263.025 877.401 264.743 883.845 265.641C876.613 263.498 869.491 260.457 862.432 256.549C857.611 253.887 853.089 250.846 848.819 247.442ZM1899.98 155.142C1897.68 161.192 1895.54 167.779 1893.24 174.9C1889.68 185.867 1885.66 198.299 1879.91 212.022C1872.71 229.228 1876.73 238.682 1880.6 247.821C1882.31 251.838 1883.96 255.746 1884.51 260.189C1886.83 254.706 1889.24 248.75 1891.87 242.274C1894.33 236.192 1896.88 229.89 1899.76 222.973C1908.11 202.868 1904.79 183.645 1901.84 166.691C1901.15 162.721 1900.49 158.876 1899.98 155.142ZM281.419 233.073C300.311 234.396 320.259 236.665 342.491 240.147C358.011 242.589 371.514 245.709 384.56 248.734C405.926 253.698 424.376 257.968 443.615 257.022C464.539 255.998 484.628 248.64 506.813 233.892C537.065 213.771 559.029 168.803 580.269 125.315C592.921 99.4278 605.983 72.6422 620.621 51.6075C637.023 28.0204 653.74 14.2336 671.734 9.49098C690.705 4.48048 711.361 9.12858 734.712 23.7189C716.167 6.93846 698.882 -0.703338 682.354 0.446871C673.168 1.09288 664.344 4.38594 655.332 10.5151C647.28 15.9983 639.26 23.6559 630.815 33.9132C615.09 53.0256 600.721 77.6999 585.484 103.824C567.128 135.336 548.142 167.92 526.398 190.31C496.635 220.956 474.844 235.846 451.178 241.691C428.032 247.411 403.152 244.134 368.709 239.611C359.192 238.367 349.361 237.075 338.378 235.798C319.203 233.577 300.185 232.836 281.419 233.073ZM28.5941 248.325C78.3209 252.406 127.402 246.765 175.033 241.282C207.302 237.563 240.264 233.782 273.856 232.899C229.455 230.331 190.128 232.884 139.25 236.728C104.886 239.328 67.7484 243.598 28.5941 248.325ZM737.517 25.8933C745.001 32.9678 752.69 41.5235 760.615 51.5603C779.586 75.6043 788.063 108.503 796.256 140.331C802.086 163.004 808.121 186.434 817.921 206.728C825.516 222.469 834.828 235.058 846.172 244.843C831.219 226.36 824.05 197.983 816.093 166.455C803.646 117.248 789.56 61.471 740.621 27.9889C739.581 27.2641 738.541 26.5708 737.517 25.8933ZM2033.5 102.658C2046.91 107.448 2060.26 114.207 2073 122.794C2088.96 133.54 2103.3 146.823 2114.47 161.192C2126.12 176.177 2134.09 191.823 2138.19 207.689C2144.11 184.559 2139.27 163.808 2123.8 146.003C2103.7 122.873 2067.77 108.173 2033.5 102.658ZM1986.83 94.4174C1980.59 94.4174 1974.48 94.9215 1968.56 95.9299C1934.33 101.807 1914.24 110.426 1905.33 123.047C1898.96 132.059 1898.68 142.332 1900.13 153.866C1911.42 124.78 1927.34 107.889 1987.6 100.783C2000.45 99.2703 2015.15 99.6642 2030.18 101.839C2015.54 96.9541 2000.86 94.4174 1986.83 94.4174Z" fill="#DFBE97"/>
</svg>
