<svg width="20" height="20" viewBox="0 0 20 20" fill="none" xmlns="http://www.w3.org/2000/svg">
<path d="M10.1575 19.9915C9.88806 19.9915 9.6692 19.7754 9.6651 19.5059C9.66099 19.2337 9.87849 19.0094 10.1507 19.0053C12.4433 18.9683 14.6141 18.071 16.2624 16.4774C16.4594 16.2886 16.7699 16.2941 16.96 16.4897C17.1501 16.6853 17.1447 16.9972 16.9491 17.1873C15.1188 18.956 12.71 19.9518 10.1671 19.9929C10.163 19.9915 10.1603 19.9915 10.1575 19.9915Z" fill="#F4F4F4"/>
<path d="M9.84601 0.993081C9.57654 0.993081 9.35768 0.776956 9.35357 0.507484C9.34947 0.235275 9.56696 0.010943 9.83917 0.0068394L9.88431 0.00410364C9.92261 0.00273576 9.96228 0 10.0019 0C10.2742 0 10.4944 0.220229 10.4944 0.492437C10.4944 0.764645 10.2742 0.984874 10.0019 0.984874L9.95407 0.98761C9.91988 0.990345 9.88705 0.991713 9.85422 0.993081C9.85148 0.993081 9.84875 0.993081 9.84601 0.993081Z" fill="#F4F4F4"/>
<path d="M0.492437 10.4927C0.220229 10.4927 0 10.2725 0 10.0003C0 7.12912 1.24477 4.39062 3.41423 2.4879C3.61941 2.30734 3.92992 2.32922 4.10911 2.53304C4.28831 2.73822 4.26915 3.04873 4.06397 3.22929C2.1079 4.94598 0.986242 7.41364 0.986242 10.0003C0.986242 10.2725 0.764645 10.4927 0.492437 10.4927Z" fill="#F4F4F4"/>
<path d="M9.84367 19.9914C9.84093 19.9914 9.8382 19.9914 9.83546 19.9914C7.2912 19.9504 4.88237 18.9546 3.05351 17.1859C2.8579 16.9971 2.85243 16.6839 3.04257 16.4883C3.23134 16.2927 3.54321 16.2872 3.74019 16.476C5.38848 18.0695 7.55931 18.9682 9.85188 19.0038C10.1241 19.0079 10.3416 19.2322 10.3375 19.5044C10.3334 19.7766 10.1131 19.9914 9.84367 19.9914Z" fill="#F4F4F4"/>
<path d="M3.39781 17.3257C3.27471 17.3257 3.1516 17.2792 3.05448 17.1876C1.08473 15.2821 0 12.731 0 10.0007C0 9.72853 0.220229 9.5083 0.492437 9.5083C0.764645 9.5083 0.984874 9.72853 0.984874 10.0007C0.984874 12.4616 1.96291 14.761 3.73978 16.4777C3.93539 16.6664 3.94086 16.9783 3.75073 17.1753C3.65634 17.2751 3.52776 17.3257 3.39781 17.3257Z" fill="#F4F4F4"/>
<path d="M10.002 19.9998C9.96096 19.9998 9.92129 19.9971 9.88162 19.9943L9.83648 19.9916C9.56427 19.9861 9.34815 19.7604 9.35362 19.4882C9.36046 19.2201 9.57932 19.0054 9.84605 19.0054C9.85016 19.0054 9.85426 19.0054 9.857 19.0054C9.88983 19.0067 9.92129 19.0081 9.95275 19.0108L10.002 19.0136C10.2742 19.0136 10.4944 19.2338 10.4944 19.506C10.4944 19.7782 10.2742 19.9998 10.002 19.9998Z" fill="#F4F4F4"/>
<path d="M10.0022 19.9999C9.72999 19.9999 9.50977 19.7797 9.50977 19.5075C9.50977 19.2353 9.72999 19.015 10.0022 19.015L10.0501 19.0123C10.0815 19.0096 10.113 19.0082 10.1458 19.0068C10.403 19.0082 10.6437 19.2161 10.6492 19.4897C10.6547 19.7619 10.4399 19.9876 10.1663 19.9931L10.1212 19.9958C10.0829 19.9972 10.0432 19.9999 10.0022 19.9999Z" fill="#F4F4F4"/>
<path d="M16.2638 3.35082C16.1489 3.35082 16.0326 3.31115 15.9396 3.22771C14.3351 1.82153 12.2792 1.02679 10.1494 0.99259C9.87716 0.988486 9.65967 0.764153 9.66514 0.491945C9.66924 0.219737 9.88674 0.0118192 10.1658 0.00634766C12.5281 0.0446483 14.8097 0.925564 16.5894 2.48632C16.7945 2.66551 16.8137 2.97738 16.6345 3.1812C16.536 3.29336 16.4006 3.35082 16.2638 3.35082Z" fill="#F4F4F4"/>
<path d="M3.73839 3.35179C3.6016 3.35179 3.46481 3.29434 3.36769 3.18354C3.1885 2.97836 3.20765 2.66785 3.41283 2.48865C5.19108 0.926535 7.4727 0.0469878 9.83503 0.00868714C10.1209 -0.0022559 10.3316 0.220709 10.337 0.492917C10.3412 0.765125 10.1237 0.989457 9.85282 0.993561C7.72303 1.02776 5.6671 1.82113 4.06395 3.22868C3.96956 3.31075 3.85329 3.35179 3.73839 3.35179Z" fill="#F4F4F4"/>
<path d="M10.1554 0.993081C10.1527 0.993081 10.1513 0.993081 10.1486 0.993081C10.1144 0.993081 10.0815 0.990345 10.0487 0.98761L10.0022 0.984874C9.73 0.984874 9.50977 0.764645 9.50977 0.492437C9.50977 0.220229 9.73 0 10.0022 0C10.0419 0 10.0802 0.00273576 10.1198 0.00547152L10.165 0.00820728C10.4372 0.0123109 10.6547 0.236643 10.6506 0.508852C10.6437 0.778324 10.4235 0.993081 10.1554 0.993081Z" fill="#F4F4F4"/>
<path d="M16.6024 17.3253C16.4738 17.3253 16.3453 17.2747 16.2481 17.1748C16.058 16.9792 16.0635 16.6673 16.2591 16.4772C18.036 14.7605 19.014 12.4611 19.014 10.0003C19.014 7.41225 17.8923 4.94459 15.9363 3.22927C15.7311 3.05007 15.7119 2.7382 15.8911 2.53302C16.0703 2.32783 16.3822 2.30732 16.586 2.48788C18.7555 4.3906 20.0002 7.12909 20.0002 10.0003C20.0002 12.7306 18.9155 15.283 16.9458 17.1871C16.85 17.2788 16.7255 17.3253 16.6024 17.3253Z" fill="#F4F4F4"/>
<path d="M6.56744 4.92905C6.48674 4.92905 6.40466 4.90853 6.32806 4.8675C6.09005 4.73481 6.00387 4.43525 6.13656 4.19724C7.0038 2.63375 8.24173 1.25629 9.71493 0.215335C9.93653 0.0580287 10.2457 0.110008 10.4016 0.332973C10.5589 0.554569 10.5056 0.862342 10.284 1.01965C8.93114 1.97716 7.79443 3.24109 6.99832 4.67599C6.90941 4.8374 6.74116 4.92905 6.56744 4.92905Z" fill="#F4F4F4"/>
<path d="M10.0027 1.1086C9.84811 1.1086 9.69627 1.0361 9.59915 0.899313C9.44185 0.676348 9.49519 0.369943 9.71816 0.212637L9.77287 0.1716C9.80707 0.144243 9.84127 0.118253 9.8782 0.0936311C10.1025 -0.0609394 10.4089 -0.00485633 10.5635 0.219476C10.7181 0.443808 10.662 0.750214 10.4377 0.904784C10.4171 0.918463 10.398 0.934878 10.3775 0.949924C10.3474 0.973178 10.3173 0.996432 10.2872 1.01832C10.1997 1.07987 10.1012 1.1086 10.0027 1.1086Z" fill="#F4F4F4"/>
<path d="M6.31687 15.5534C6.13494 15.5534 5.95985 15.4521 5.87367 15.2784C5.05295 13.611 4.63574 11.8341 4.63574 9.99976C4.63574 9.72755 4.85597 9.50732 5.12818 9.50732C5.40039 9.50732 5.62062 9.72755 5.62062 9.99976C5.62062 11.6823 6.00225 13.3128 6.75596 14.8434C6.87633 15.0883 6.77648 15.3837 6.53162 15.5041C6.4646 15.5369 6.39073 15.5534 6.31687 15.5534Z" fill="#F4F4F4"/>
<path d="M10.1567 19.9918C10.0609 19.9918 9.96515 19.9644 9.88034 19.9069C9.84204 19.881 9.80511 19.8536 9.76954 19.8249L9.71756 19.7852C9.4946 19.6279 9.44262 19.3201 9.59856 19.0985C9.75586 18.8769 10.0636 18.8236 10.2852 18.9795C10.3153 19 10.3441 19.0233 10.3728 19.0452C10.3919 19.0602 10.4111 19.0753 10.4316 19.089C10.6573 19.2422 10.7161 19.5472 10.5643 19.7729C10.4699 19.9165 10.314 19.9918 10.1567 19.9918Z" fill="#F4F4F4"/>
<path d="M9.99992 19.8769C9.90143 19.8769 9.80158 19.8481 9.7154 19.7866C8.08489 18.6335 6.75531 17.0754 5.87302 15.2794C5.75265 15.0346 5.85387 14.7391 6.09736 14.6201C6.34221 14.4997 6.6363 14.6009 6.75804 14.8444C7.5692 16.4927 8.78798 17.9235 10.2858 18.9823C10.5074 19.1396 10.5608 19.4473 10.4034 19.6689C10.3077 19.8044 10.1545 19.8769 9.99992 19.8769Z" fill="#F4F4F4"/>
<path d="M5.12916 10.494C4.85695 10.494 4.63672 10.2738 4.63672 10.0016C4.63672 7.97578 5.15651 5.9691 6.13865 4.19769C6.26997 3.95968 6.5709 3.8735 6.80891 4.00619C7.04692 4.13887 7.1331 4.43844 7.00042 4.67645C6.09898 6.30149 5.62296 8.14266 5.62296 10.0016C5.62296 10.2738 5.40136 10.494 5.12916 10.494Z" fill="#F4F4F4"/>
<path d="M6.56818 4.92855C6.5121 4.92855 6.45602 4.91898 6.39993 4.89846C5.31794 4.50588 4.32076 3.94915 3.43163 3.24332C3.21824 3.0737 3.18268 2.7632 3.3523 2.55117C3.52191 2.33778 3.83242 2.30359 4.04581 2.47184C4.85013 3.11064 5.75566 3.61539 6.73643 3.9724C6.99223 4.06542 7.12491 4.34857 7.03189 4.60436C6.95803 4.80407 6.76926 4.92855 6.56818 4.92855Z" fill="#F4F4F4"/>
<path d="M13.4309 4.92854C13.2299 4.92854 13.0411 4.80406 12.9672 4.60299C12.8742 4.34719 13.0069 4.06404 13.2627 3.97103C14.2434 3.61538 15.149 3.11063 15.9533 2.47046C16.1667 2.30084 16.4772 2.33641 16.6468 2.5498C16.8164 2.76319 16.7809 3.07233 16.5675 3.24195C15.6797 3.94777 14.6812 4.5045 13.5992 4.89708C13.5445 4.91897 13.487 4.92854 13.4309 4.92854Z" fill="#F4F4F4"/>
<path d="M10.0022 5.54164C9.72999 5.54164 9.50977 5.32142 9.50977 5.04921C9.50977 4.777 9.72999 4.55677 10.0022 4.55677C11.102 4.55677 12.199 4.36116 13.266 3.97405C13.5218 3.88104 13.8049 4.01372 13.8966 4.26952C13.9896 4.52531 13.8569 4.80846 13.6011 4.90148C12.4275 5.32552 11.2155 5.54164 10.0022 5.54164Z" fill="#F4F4F4"/>
<path d="M10.0006 5.54106C8.78596 5.54106 7.57538 5.32493 6.40038 4.89952C6.14458 4.80651 6.0119 4.52336 6.10491 4.26756C6.19793 4.01177 6.48108 3.87908 6.73551 3.9721C7.80245 4.35921 8.90086 4.55482 9.99927 4.55482C10.2715 4.55482 10.4917 4.77505 10.4917 5.04725C10.4931 5.31946 10.2728 5.54106 10.0006 5.54106Z" fill="#F4F4F4"/>
<path d="M16.6024 17.326C16.4875 17.326 16.3726 17.2863 16.2796 17.2056C15.4547 16.4875 14.5205 15.9212 13.5055 15.5218C13.2525 15.4219 13.128 15.136 13.2278 14.883C13.3277 14.6299 13.6136 14.5054 13.8666 14.6053C14.9869 15.0457 16.0169 15.6709 16.9266 16.4629C17.1318 16.642 17.1537 16.9526 16.9745 17.1577C16.8773 17.2685 16.7406 17.326 16.6024 17.326Z" fill="#F4F4F4"/>
<path d="M13.6863 15.5546C13.6261 15.5546 13.5646 15.5436 13.5057 15.5204C12.3745 15.0758 11.1954 14.8501 10.0012 14.8501C9.72902 14.8501 9.50879 14.6299 9.50879 14.3577C9.50879 14.0855 9.72902 13.8652 10.0012 13.8652C11.3199 13.8652 12.6207 14.1142 13.8669 14.6039C14.1199 14.7037 14.2444 14.9896 14.1445 15.2427C14.0693 15.4369 13.8833 15.5546 13.6863 15.5546Z" fill="#F4F4F4"/>
<path d="M6.31498 15.554C6.11801 15.554 5.93197 15.435 5.85674 15.2407C5.75689 14.9877 5.88136 14.7018 6.13442 14.6019C7.38056 14.1109 8.68141 13.8633 10.0001 13.8633C10.2723 13.8633 10.4925 14.0835 10.4925 14.3557C10.4925 14.6279 10.2723 14.8482 10.0001 14.8482C8.80589 14.8482 7.62678 15.0739 6.49554 15.5184C6.43535 15.543 6.37517 15.554 6.31498 15.554Z" fill="#F4F4F4"/>
<path d="M3.39677 17.3259C3.25862 17.3259 3.12183 17.2684 3.02471 17.1563C2.84552 16.9511 2.8674 16.6392 3.07258 16.4614C3.98222 15.6708 5.01224 15.0456 6.13253 14.6038C6.38559 14.504 6.67148 14.6284 6.77133 14.8815C6.87119 15.1345 6.74671 15.4204 6.49365 15.5203C5.47732 15.9211 4.54442 16.4874 3.71959 17.2042C3.62794 17.2862 3.51167 17.3259 3.39677 17.3259Z" fill="#F4F4F4"/>
<path d="M14.8717 10.4925C14.5995 10.4925 14.3792 10.2722 14.3792 10C14.3792 8.14107 13.9032 6.29991 13.0018 4.67487C12.8691 4.43685 12.9553 4.13729 13.1933 4.0046C13.4313 3.87329 13.7322 3.9581 13.8636 4.19611C14.8457 5.96751 15.3655 7.97419 15.3655 10C15.3641 10.2722 15.1439 10.4925 14.8717 10.4925Z" fill="#F4F4F4"/>
<path d="M10.0007 1.10978C9.90354 1.10978 9.80506 1.08106 9.71888 1.02224C9.68605 0.998984 9.65459 0.974362 9.62176 0.949741C9.60261 0.934694 9.58483 0.921015 9.56568 0.907336C9.34271 0.752766 9.28663 0.44636 9.43983 0.222028C9.5944 -0.00230427 9.90081 -0.0597553 10.1251 0.0961831C10.1593 0.120805 10.1935 0.145427 10.2264 0.171417L10.2824 0.212453C10.5054 0.368391 10.5615 0.674797 10.4056 0.899129C10.3112 1.03592 10.1566 1.10978 10.0007 1.10978Z" fill="#F4F4F4"/>
<path d="M9.84677 19.992C9.68809 19.992 9.53352 19.9168 9.43777 19.7745C9.28593 19.5488 9.34475 19.2424 9.57045 19.0906C9.5896 19.0769 9.60875 19.0632 9.62654 19.0482C9.658 19.0249 9.68809 19.0003 9.71955 18.9784C9.94388 18.8239 10.2503 18.8786 10.4062 19.1015C10.5608 19.3245 10.5061 19.6323 10.2831 19.7882L10.2298 19.8279C10.1942 19.8552 10.1586 19.8826 10.1217 19.9072C10.0369 19.9647 9.94115 19.992 9.84677 19.992Z" fill="#F4F4F4"/>
<path d="M13.6842 15.5542C13.6117 15.5542 13.5365 15.5378 13.4667 15.5036C13.2219 15.3833 13.122 15.0878 13.2424 14.8429C13.9961 13.3123 14.3777 11.6831 14.3777 9.99927C14.3777 9.72706 14.598 9.50684 14.8702 9.50684C15.1424 9.50684 15.3626 9.72706 15.3626 9.99927C15.3626 11.835 14.9468 13.6105 14.1247 15.2779C14.0412 15.453 13.8662 15.5542 13.6842 15.5542Z" fill="#F4F4F4"/>
<path d="M10.0028 19.8771C9.84819 19.8771 9.69635 19.8046 9.59923 19.6692C9.44193 19.4476 9.49527 19.1398 9.71687 18.9825C11.2133 17.9238 12.4335 16.493 13.2433 14.8447C13.3636 14.5998 13.6591 14.5 13.904 14.6203C14.1488 14.7407 14.2487 15.0362 14.1283 15.2797C13.2446 17.0757 11.9164 18.6337 10.2859 19.7868C10.2011 19.8484 10.1012 19.8771 10.0028 19.8771Z" fill="#F4F4F4"/>
<path d="M13.4344 4.92807C13.2607 4.92807 13.0924 4.83643 13.0035 4.67365C12.2074 3.24011 11.0707 1.97619 9.71785 1.01867C9.49625 0.861366 9.4429 0.553593 9.60021 0.331996C9.75752 0.109032 10.0653 0.0570522 10.2869 0.214358C11.7615 1.25668 12.998 2.63414 13.8653 4.19626C13.9979 4.43427 13.9118 4.73384 13.6738 4.86652C13.5972 4.90892 13.5151 4.92807 13.4344 4.92807Z" fill="#F4F4F4"/>
<path d="M5.12818 10.4932H0.492437C0.220229 10.4932 0 10.2729 0 10.0007C0 9.72853 0.220229 9.5083 0.492437 9.5083H5.12818C5.40039 9.5083 5.62062 9.72853 5.62062 10.0007C5.62199 10.2729 5.40039 10.4932 5.12818 10.4932Z" fill="#F4F4F4"/>
<path d="M14.8732 10.4922H10.0022C9.72999 10.4922 9.50977 10.272 9.50977 9.99976C9.50977 9.72755 9.72999 9.50732 10.0022 9.50732H14.8732C15.1454 9.50732 15.3657 9.72755 15.3657 9.99976C15.3657 10.272 15.1454 10.4922 14.8732 10.4922Z" fill="#F4F4F4"/>
<path d="M10.0015 10.4922H5.12916C4.85695 10.4922 4.63672 10.272 4.63672 9.99976C4.63672 9.72755 4.85695 9.50732 5.12916 9.50732H10.0002C10.2724 9.50732 10.4926 9.72755 10.4926 9.99976C10.494 10.272 10.2738 10.4922 10.0015 10.4922Z" fill="#F4F4F4"/>
<path d="M19.2257 10.4922H14.8704C14.5982 10.4922 14.3779 10.272 14.3779 9.99976C14.3779 9.72755 14.5982 9.50732 14.8704 9.50732H19.2257C19.4979 9.50732 19.7181 9.72755 19.7181 9.99976C19.7181 10.272 19.4979 10.4922 19.2257 10.4922Z" fill="#F4F4F4"/>
<path d="M10.0022 5.54229C9.72999 5.54229 9.50977 5.32207 9.50977 5.04986V0.617925C9.50977 0.345717 9.72999 0.125488 10.0022 0.125488C10.2744 0.125488 10.4946 0.345717 10.4946 0.617925V5.04986C10.4946 5.3207 10.2744 5.54229 10.0022 5.54229Z" fill="#F4F4F4"/>
<path d="M10.0022 10.4931C9.72999 10.4931 9.50977 10.2729 9.50977 10.0007V5.04761C9.50977 4.7754 9.72999 4.55518 10.0022 4.55518C10.2744 4.55518 10.4946 4.7754 10.4946 5.04761V9.99934C10.4946 10.2729 10.2744 10.4931 10.0022 10.4931Z" fill="#F4F4F4"/>
<path d="M10.0022 19.8771C9.72999 19.8771 9.50977 19.6568 9.50977 19.3846V14.3577C9.50977 14.0855 9.72999 13.8652 10.0022 13.8652C10.2744 13.8652 10.4946 14.0855 10.4946 14.3577V19.3846C10.4946 19.6568 10.2744 19.8771 10.0022 19.8771Z" fill="#F4F4F4"/>
<path d="M10.0022 1.10935C9.72999 1.10935 9.50977 0.889122 9.50977 0.616914V0.492437C9.50977 0.220229 9.72999 0 10.0022 0C10.2744 0 10.4946 0.220229 10.4946 0.492437V0.615546C10.4946 0.889122 10.2744 1.10935 10.0022 1.10935Z" fill="#F4F4F4"/>
<path d="M10.0022 14.8489C9.72999 14.8489 9.50977 14.6287 9.50977 14.3565V9.99976C9.50977 9.72755 9.72999 9.50732 10.0022 9.50732C10.2744 9.50732 10.4946 9.72755 10.4946 9.99976V14.3565C10.4946 14.6287 10.2744 14.8489 10.0022 14.8489Z" fill="#F4F4F4"/>
<path d="M10.0022 20.0001C9.72999 20.0001 9.50977 19.7798 9.50977 19.5076V19.3845C9.50977 19.1123 9.72999 18.8921 10.0022 18.8921C10.2744 18.8921 10.4946 19.1123 10.4946 19.3845V19.5076C10.4946 19.7798 10.2744 20.0001 10.0022 20.0001Z" fill="#F4F4F4"/>
</svg>
