<svg width="13" height="21" viewBox="0 0 13 21" fill="none" xmlns="http://www.w3.org/2000/svg">
<path d="M12.9151 0.590039C12.9151 0.43538 12.8537 0.287055 12.7443 0.177695C12.6349 0.0683343 12.4866 0.00689604 12.3319 0.00689604H9.41623C7.94802 -0.0662408 6.51054 0.44471 5.41788 1.42811C4.32521 2.41151 3.66619 3.78741 3.5848 5.25519V8.40416H0.669081C0.514422 8.40416 0.366097 8.4656 0.256736 8.57496C0.147376 8.68432 0.0859375 8.83264 0.0859375 8.9873V12.0196C0.0859375 12.1743 0.147376 12.3226 0.256736 12.432C0.366097 12.5414 0.514422 12.6028 0.669081 12.6028H3.5848V20.4169C3.5848 20.5716 3.64623 20.7199 3.7556 20.8293C3.86496 20.9386 4.01328 21.0001 4.16794 21.0001H7.6668C7.82146 21.0001 7.96978 20.9386 8.07915 20.8293C8.18851 20.7199 8.24994 20.5716 8.24994 20.4169V12.6028H11.3056C11.4353 12.6047 11.5619 12.5632 11.6654 12.4851C11.7689 12.4069 11.8434 12.2965 11.8771 12.1713L12.7168 9.13892C12.74 9.05276 12.7431 8.96242 12.7259 8.87486C12.7087 8.7873 12.6717 8.70486 12.6176 8.63388C12.5635 8.56291 12.4939 8.50528 12.414 8.46546C12.3342 8.42563 12.2462 8.40466 12.157 8.40416H8.24994V5.25519C8.27895 4.9665 8.41452 4.699 8.63018 4.50491C8.84584 4.31081 9.1261 4.20407 9.41623 4.20553H12.3319C12.4866 4.20553 12.6349 4.14409 12.7443 4.03473C12.8537 3.92537 12.9151 3.77704 12.9151 3.62238V0.590039Z" fill="#F4F4F4"/>
</svg>
