<svg width="16" height="19" viewBox="0 0 16 19" fill="none" xmlns="http://www.w3.org/2000/svg">
<path d="M15.66 7.4C15.51 7.41 15.36 7.42 15.21 7.42C13.56 7.42 12.02 6.59 11.12 5.21V12.73C11.12 15.8 8.63 18.29 5.56 18.29C2.49 18.29 0 15.8 0 12.73C0 9.66 2.49 7.17 5.56 7.17C5.68 7.17 5.78999 7.18 5.89999 7.19V9.93C5.78999 9.92 5.67 9.9 5.56 9.9C3.99 9.9 2.72 11.17 2.72 12.74C2.72 14.31 3.99 15.58 5.56 15.58C7.13 15.58 8.51001 14.34 8.51001 12.78L8.54001 0H11.16C11.41 2.35 13.3 4.19 15.66 4.36V7.4Z" fill="#F4F4F4"/>
</svg>
